<?xml version="1.0" standalone="no"?>
<!DOCTYPE svg PUBLIC "-//W3C//DTD SVG 1.1//EN" "http://www.w3.org/Graphics/SVG/1.1/DTD/svg11.dtd" >
<svg>
<metadata>
Created by FontForge 20090914 at Sun Sep 13 08:15:29 2015
 By www-data
Webtype Web Use Only
</metadata>
<defs>
<font id="MillerBannerBlack" horiz-adv-x="1024" >
  <font-face 
    font-family="Miller Banner"
    font-weight="800"
    font-stretch="normal"
    units-per-em="2048"
    panose-1="2 0 5 4 9 0 0 2 0 3"
    ascent="1572"
    descent="-476"
    x-height="967"
    cap-height="1399"
    bbox="-359.999 -490.006 2609 1951"
    underline-thickness="102"
    underline-position="-205"
    unicode-range="U+0020-U+FEFF"
  />
<missing-glyph 
 />
    <glyph glyph-name="f_f" unicode="ff" horiz-adv-x="1393" 
d="M27 0l0.000976562 13.998c16.667 0.666992 32.167 2.33398 46.5 5.00098s28.166 6.66699 41.499 12c18.667 6.66699 32.167 17.667 40.5 33s12.5 34.333 12.5 57v809h-197v37h197v22c0 82.667 10.5 154 31.5 214s56.833 116.333 107.5 169
c42.667 44 100.334 79 173.001 105s146.667 39 222 39c77.333 0 139.333 -14.167 186 -42.5s78.334 -58.833 95.001 -91.5c42 40.667 96.667 75.5 164 104.5s137.666 43.5 210.999 43.5c110.667 0 190.5 -23.167 239.5 -69.5s73.5 -93.5 73.5 -141.5
c0 -40 -14.667 -76 -44 -108s-68 -48 -116 -48c-44.667 0 -82.334 11.5 -113.001 34.5s-46 56.5 -46 100.5c0 24 6.16699 50.333 18.5 79s21.833 57.667 28.5 87c0 12.667 -5.66699 23.334 -17 32.001s-23.333 13 -36 13c-52 0 -91.333 -39.167 -118 -117.5
s-40 -183.833 -40 -316.5v-108h250v-37h-248v-805c0 -21.333 4.5 -40 13.5 -56s22.833 -27.333 41.5 -34c15.333 -6 36.666 -10.833 63.999 -14.5s49.666 -5.83398 66.999 -6.50098v-14h-647v14c16.667 0.666992 31.834 3.33398 45.501 8.00098s24.5 11 32.5 19
c8.66699 8 14.834 18.5 18.501 31.5s5.5 29.167 5.5 48.5v809h-305v-801c0 -21.333 2.33301 -39 7 -53s12 -25 22 -33c8.66699 -6.66699 23.5 -12.5 44.5 -17.5s40.833 -8.83301 59.5 -11.5v-14h-632zM524.001 966.998l306.999 0.00195312v26c0 32.667 2 63 6 91
s9 53.667 15 77c-42.667 0 -80.667 10.833 -114 32.5s-50 54.5 -50 98.5c0 23.333 5 48.166 15 74.499s18 54.166 24 83.499c0 12.667 -4.16699 23.334 -12.5 32.001s-19.166 13 -32.499 13c-52 0 -90.667 -32.333 -116 -97s-39.333 -163.334 -42 -296.001v-135z" />
    <glyph glyph-name="f_f_i" unicode="ffi" horiz-adv-x="1989" 
d="M27 0l-0.0078125 13.999c16.667 0.666992 32.167 2.33398 46.5 5.00098s28.166 6.66699 41.499 12c18.667 6.66699 32.167 17.667 40.5 33s12.5 34.333 12.5 57v809h-197v37h197v22c0 82.667 10.5 154 31.5 214s56.833 116.333 107.5 169
c42.667 44 100.334 79 173.001 105s146.667 39 222 39c77.333 0 139.333 -14.167 186 -42.5s78.334 -58.833 95.001 -91.5c42 40.667 105.333 75.5 190 104.5s171 43.5 259 43.5c124 0 222.833 -25.167 296.5 -75.5s110.5 -108.5 110.5 -174.5
c0 -34 -13.833 -70.5 -41.5 -109.5s-68.5 -58.5 -122.5 -58.5c-46 0 -85.833 12.167 -119.5 36.5s-50.5 60.5 -50.5 108.5c0 26.667 5.16699 55 15.5 85s15.5 62 15.5 96c0 21.333 -8.33301 38.166 -25 50.499s-43 18.5 -79 18.5c-75.333 0 -134.166 -37 -176.499 -111
s-64.833 -181 -67.5 -321v-108h278c63.333 0 128.333 2.33301 195 7s125.334 11 176.001 19l8 -8v-854c0 -21.333 4.66699 -40.5 14 -57.5s23.333 -29.833 42 -38.5c14 -7.33301 28 -12.166 42 -14.499s29.333 -4.5 46 -6.5v-14h-609v14c19.333 0.666992 35.5 3 48.5 7
s23.5 9.33301 31.5 16c10.667 8.66699 17.834 20 21.501 34s5.5 30.667 5.5 50v708c0 21.333 -4.16699 40.666 -12.5 57.999s-20.5 31.666 -36.5 42.999h-248v-805c0 -21.333 3.83301 -40.666 11.5 -57.999s20.834 -29.333 39.501 -36c15.333 -6.66699 28.333 -11 39 -13
s22.334 -3.33301 35.001 -4v-14h-586v14c16.667 0.666992 31.834 3.33398 45.501 8.00098s24.5 11 32.5 19c8.66699 8 14.834 18.5 18.501 31.5s5.5 29.167 5.5 48.5v809h-305v-801c0 -21.333 2.33301 -39 7 -53s12 -25 22 -33c8.66699 -6.66699 23.5 -12.5 44.5 -17.5
s40.833 -8.83301 59.5 -11.5v-14h-632zM523.992 966.999l306.999 0.00195312v26c0 32.667 2 63 6 91s9 53.667 15 77c-42.667 0 -80.667 10.833 -114 32.5s-50 54.5 -50 98.5c0 23.333 5 48.166 15 74.499s18 54.166 24 83.499c0 12.667 -4.16699 23.334 -12.5 32.001
s-19.166 13 -32.499 13c-52 0 -90.667 -32.333 -116 -97s-39.333 -163.334 -42 -296.001v-135z" />
    <glyph glyph-name="f_f_l" unicode="ffl" horiz-adv-x="1989" 
d="M27 0l-0.00292969 14.0029c16.667 0.666992 32.167 2.33398 46.5 5.00098s28.166 6.66699 41.499 12c18.667 6.66699 32.167 17.667 40.5 33s12.5 34.333 12.5 57v809h-197v37h197v22c0 82.667 10.5 154 31.5 214s56.833 116.333 107.5 169
c42.667 44 100.334 79 173.001 105s146.667 39 222 39c77.333 0 139.333 -14.167 186 -42.5s78.334 -58.833 95.001 -91.5c42 40.667 95.667 75.5 161 104.5s143.333 43.5 234 43.5c34.667 0 70.334 -3.33301 107.001 -10s66.667 -16.334 90 -29.001l260 37l8 -8v-1395
c0 -22.667 3.16699 -42.334 9.5 -59.001s18.833 -29 37.5 -37c14.667 -6.66699 29.5 -10.334 44.5 -11.001s31.833 -2 50.5 -4v-14h-603v14c18.667 0.666992 34.667 2.83398 48 6.50098s24 8.5 32 14.5c10.667 8 17.5 19.167 20.5 33.5s4.5 31.833 4.5 52.5v1038
c-16.667 9.33301 -33.834 24.666 -51.501 45.999s-26.5 49 -26.5 83c0 32 8 59 24 81s33.333 40 52 54c-12.667 28 -29.334 48.667 -50.001 62s-43.667 20 -69 20c-52 0 -94 -31.667 -126 -95s-49.333 -161.333 -52 -294v-149h209v-37h-207v-801
c0 -17.333 1.66699 -33 5 -47s11.333 -26.333 24 -37c8 -6.66699 18.833 -12.834 32.5 -18.501s30.834 -9.83398 51.501 -12.501v-14h-574v14c16.667 0.666992 31.834 3.33398 45.501 8.00098s24.5 11 32.5 19c8.66699 8 14.834 18.5 18.501 31.5s5.5 29.167 5.5 48.5v809
h-305v-801c0 -21.333 2.33301 -39 7 -53s12 -25 22 -33c8.66699 -6.66699 23.5 -12.5 44.5 -17.5s40.833 -8.83301 59.5 -11.5v-14h-632zM523.997 967.003l306.999 0.00195312v26c0 32.667 2 63 6 91s9 53.667 15 77c-42.667 0 -80.667 10.833 -114 32.5s-50 54.5 -50 98.5
c0 23.333 5 48.166 15 74.499s18 54.166 24 83.499c0 12.667 -4.16699 23.334 -12.5 32.001s-19.166 13 -32.499 13c-52 0 -90.667 -32.333 -116 -97s-39.333 -163.334 -42 -296.001v-135z" />
    <glyph glyph-name="f_j" unicode="fj" horiz-adv-x="1300" 
d="M666 -467c-110.667 0 -183.499 21.1709 -218.499 63.5039s-52.5 87.5 -52.5 135.5c0 36 13.667 69.167 41 99.5s64.333 45.5 111 45.5c40 0 74.5 -11.667 103.5 -35s43.5 -58 43.5 -104c0 -26.667 -5.16699 -54.834 -15.5 -84.501s-22.166 -60.834 -35.499 -93.501
c4.66699 -0.666992 12.167 -1.5 22.5 -2.5s16.5 -1.5 18.5 -1.5c57.333 0 94.833 37.833 112.5 113.5s26.5 183.834 26.5 324.501v826c0 21.333 -4 40.666 -12 57.999s-20.333 31.666 -37 42.999h-248v-792c0 -15.333 1.16699 -28.666 3.5 -39.999
s6.16602 -21.333 11.499 -30c8 -12.667 20.167 -22.167 36.5 -28.5s36.166 -11.833 59.499 -16.5v-14h-610v14c16.667 0.666992 32.167 2.33398 46.5 5.00098s28.166 6.66699 41.499 12c18.667 6.66699 32.167 17.667 40.5 33s12.5 34.333 12.5 57v800h-197v36h197v27
c0 80.667 11.5 154 34.5 220s57.833 121.333 104.5 166c42.667 42 105.334 79.167 188.001 111.5s173.667 48.5 273 48.5c124.667 0 223.834 -25.167 297.501 -75.5s110.5 -108.5 110.5 -174.5c0 -34 -13.833 -70.5 -41.5 -109.5s-68.5 -58.5 -122.5 -58.5
c-46 0 -85.833 12.167 -119.5 36.5s-50.5 60.5 -50.5 108.5c0 26.667 5 55 15 85s15 62 15 96c0 21.333 -8.16699 38.166 -24.5 50.499s-42.833 18.5 -79.5 18.5c-75.333 0 -134.166 -37 -176.499 -111s-64.833 -181 -67.5 -321v-118h279c63.333 0 128.166 2 194.499 6
s125.166 10 176.499 18l8 -8v-879c0 -84.667 -12.333 -161.334 -37 -230.001s-61.667 -129 -111 -181c-40 -42.667 -94 -78.334 -162 -107.001s-136.667 -43 -206 -43z" />
    <glyph glyph-name="f_l" unicode="fl" horiz-adv-x="1325" 
d="M27 0v14.0039c16.667 0.666992 32.167 2.33398 46.5 5.00098s28.166 6.66699 41.499 12c18.667 6.66699 32.167 17.667 40.5 33s12.5 34.333 12.5 57v809h-197v37h197v26c0 82.667 11.5 155 34.5 217s57.833 116 104.5 162c42.667 42.667 98 79.667 166 111
s148.667 47 242 47c34 0 69.333 -3.33301 106 -10s66.667 -16.334 90 -29.001l260 37l9 -8v-1395c0 -22.667 3.16699 -42.334 9.5 -59.001s18.833 -29 37.5 -37c14 -6.66699 28.5 -10.334 43.5 -11.001s31.833 -2 50.5 -4v-14h-602v14
c18.667 0.666992 34.5 2.83398 47.5 6.50098s23.833 8.5 32.5 14.5c10 8 16.5 19.167 19.5 33.5s4.5 31.833 4.5 52.5v1038c-16 9.33301 -33 24.666 -51 45.999s-27 49 -27 83c0 32 8 59 24 81s33.333 40 52 54c-12 28 -28.333 48.667 -49 62s-44 20 -70 20
c-52 0 -94 -31.667 -126 -95s-49.333 -161.333 -52 -294v-149h209v-37h-207v-801c0 -17.333 1.66699 -33 5 -47s11.333 -26.333 24 -37c8 -6.66699 18.833 -12.834 32.5 -18.501s30.834 -9.83398 51.501 -12.501v-14h-612z" />
    <glyph glyph-name="f_i" unicode="fi" horiz-adv-x="1325" 
d="M27 0l-0.000976562 14.001c16.667 0.666992 32.167 2.33398 46.5 5.00098s28.166 6.66699 41.499 12c18.667 6.66699 32.167 17.667 40.5 33s12.5 34.333 12.5 57v809h-197v37h197v26c0 82.667 11.5 155 34.5 217s57.833 115.333 104.5 160
c42.667 42 105.334 79.167 188.001 111.5s173.667 48.5 273 48.5c124.667 0 223.834 -25.167 297.501 -75.5s110.5 -108.5 110.5 -174.5c0 -34 -13.833 -70.5 -41.5 -109.5s-68.5 -58.5 -122.5 -58.5c-46 0 -85.833 12.167 -119.5 36.5s-50.5 60.5 -50.5 108.5
c0 26.667 5 55 15 85s15 62 15 96c0 21.333 -8.16699 38.166 -24.5 50.499s-42.833 18.5 -79.5 18.5c-75.333 0 -134.166 -37 -176.499 -111s-64.833 -181 -67.5 -321v-108h279c63.333 0 128.166 2.33301 194.499 7s125.166 11 176.499 19l8 -8v-854
c0 -21.333 4.5 -40 13.5 -56s22.833 -28 41.5 -36c14.667 -8 28.834 -13.667 42.501 -17s28.834 -6 45.501 -8v-14h-608v14c19.333 0.666992 35.333 3 48 7s23.334 9.33301 32.001 16c10 8.66699 16.833 20 20.5 34s5.5 30.667 5.5 50v708c0 21.333 -4 40.666 -12 57.999
s-20.333 31.666 -37 42.999h-248v-801c0 -15.333 1.16699 -28.666 3.5 -39.999s6.16602 -21.333 11.499 -30c8 -12.667 20.167 -22.167 36.5 -28.5s36.166 -11.833 59.499 -16.5v-14h-610z" />
    <glyph glyph-name="f_t" unicode="ft" horiz-adv-x="1505" 
d="M823 930l-297 0.00195312v-805c0 -21.333 4.66699 -40 14 -56s23.333 -27.333 42 -34c14.667 -6 35.834 -10.833 63.501 -14.5s50.167 -5.83398 67.5 -6.50098v-14h-686v14c16.667 0.666992 32.167 1.66699 46.5 3s28.166 4.66602 41.499 9.99902
c18.667 6.66699 32.167 17.667 40.5 33s12.5 34.333 12.5 57v813h-197v37h197v26c0 82.667 10.5 155.667 31.5 219s56.833 121.333 107.5 174c42.667 44 99 79 169 105s142.667 39 218 39c111.333 0 191.5 -23.167 240.5 -69.5s73.5 -93.5 73.5 -141.5
c0 -14.667 -2 -28.5 -6 -41.5s-9 -25.167 -15 -36.5h195v-274h258v-37h-258v-649c0 -40.667 8.16699 -80 24.5 -118s47.5 -57 93.5 -57c48 0 83.167 19 105.5 57s34.5 79.333 36.5 124h24c-2 -102.667 -32.167 -180.667 -90.5 -234s-140.833 -80 -247.5 -80
c-108 0 -185.833 26.167 -233.5 78.5s-71.5 123.833 -71.5 214.5v664zM524 967.002l303 -0.000976562v196c-39.333 4 -72.333 17.5 -99 40.5s-40 54.5 -40 94.5c0 24 6.33301 50.333 19 79s22 57.667 28 87c0 12.667 -5.5 23.334 -16.5 32.001s-23.167 13 -36.5 13
c-52 0 -91.333 -39.167 -118 -117.5s-40 -183.833 -40 -316.5v-108z" />
    <glyph glyph-name=".notdef" 
 />
    <glyph glyph-name="space" unicode=" " horiz-adv-x="401" 
 />
    <glyph glyph-name="exclam" unicode="!" horiz-adv-x="676" 
d="M326 471c-38.667 184.667 -79.5 335 -122.5 451s-64.5 221.667 -64.5 317c0 53.333 17.333 99.166 52 137.499s83.667 57.5 147 57.5s112.333 -19.167 147 -57.5s52 -84.166 52 -137.499c0 -95.333 -21.833 -201.5 -65.5 -318.5s-85.5 -266.833 -125.5 -449.5h-20z
M338 -27c-55.333 0 -103 19.167 -143 57.5s-60 85.5 -60 141.5s20 103.167 60 141.5s87.667 57.5 143 57.5s103 -19.167 143 -57.5s60 -85.5 60 -141.5s-20 -103.167 -60 -141.5s-87.667 -57.5 -143 -57.5z" />
    <glyph glyph-name="quotedbl" unicode="&#x22;" horiz-adv-x="864" 
d="M219 926c-20.667 67.333 -49.333 146.333 -86 237s-55 157 -55 199c0 48.667 14.5 85.334 43.5 110.001s65.5 37 109.5 37s80.667 -12.333 110 -37s44 -61.334 44 -110.001c0 -40 -18.833 -106.167 -56.5 -198.5s-67.167 -171.5 -88.5 -237.5h-21zM621.001 926
c-20.667 67.333 -49.5 146.333 -86.5 237s-55.5 157 -55.5 199c0 48.667 14.667 85.334 44 110.001s66 37 110 37s80.5 -12.333 109.5 -37s43.5 -61.334 43.5 -110.001c0 -40 -18.833 -106.167 -56.5 -198.5s-67.167 -171.5 -88.5 -237.5h-20z" />
    <glyph glyph-name="numbersign" unicode="#" horiz-adv-x="1081" 
d="M375 -14v250l-221 -56v269l221 55v207l-221 -56v269l221 57v303h41v-293l252 64v229h41v-219l223 57v-268l-223 -57v-207l223 57v-268l-223 -57v-336h-41v323l-252 -61v-262h-41zM416 516l252 62v206l-252 -61v-207z" />
    <glyph glyph-name="dollar" unicode="$" horiz-adv-x="1239" 
d="M520 -291v281.001c-129.333 10 -231.333 41.333 -306 94s-112 119.667 -112 201c0 65.333 14.5 116.166 43.5 152.499s67.833 54.5 116.5 54.5c42.667 0 75.167 -12.5 97.5 -37.5s33.5 -58.5 33.5 -100.5c0 -56 -20.167 -88.833 -60.5 -98.5
s-67.833 -27.834 -82.5 -54.501c0 -40.667 25.333 -79 76 -115s115.334 -58.667 194.001 -68v471c-114.667 12.667 -208.5 51.834 -281.5 117.501s-109.5 159.167 -109.5 280.5c0 100.667 34.333 183.667 103 249s164.667 106.666 288 123.999v200h41v-196
c6 0.666992 19.167 1.83398 39.5 3.50098s33.833 2.5 40.5 2.5s18.167 -0.166992 34.5 -0.5s30.166 -0.833008 41.499 -1.5v192h41v-194c120 -13.333 207.333 -45.5 262 -96.5s82 -105.5 82 -163.5c0 -47.333 -10.833 -90.333 -32.5 -129s-56.5 -58 -104.5 -58
c-34 0 -64.333 9.66699 -91 29s-40 49.333 -40 90c0 50.667 17.167 86.167 51.5 106.5s55.833 46.833 64.5 79.5c-4.66699 19.333 -24.167 40.666 -58.5 63.999s-78.833 39 -133.5 47v-432c106.667 -19.333 197.167 -58.833 271.5 -118.5s111.5 -159.5 111.5 -299.5
c0 -74 -27.667 -150.667 -83 -230s-155.333 -131.666 -300 -156.999v-289h-41v283c-19.333 -2 -38.333 -3.5 -57 -4.5s-36.667 -1.5 -54 -1.5h-45v-277h-41zM717 809.001v430c-7.33301 0.666992 -16.666 1.16699 -27.999 1.5s-20.333 0.5 -27 0.5
c-9.33301 0 -24.833 -1 -46.5 -3s-39.834 -4.33301 -54.501 -7v-408c19.333 -0.666992 45.333 -2.66699 78 -6zM561 14.001l47 -0.000976562c19.333 0 38.5 0.833008 57.5 2.5s36.167 3.83398 51.5 6.50098v446l-156 14v-469zM520 831v391.998
c-42.667 -15.333 -77.167 -43.833 -103.5 -85.5s-39.5 -87.167 -39.5 -136.5c0 -63.333 14.667 -105.666 44 -126.999s62.333 -35.666 99 -42.999zM758 34.998c52.667 18.667 89.334 52.999 110.001 102.999s31 99 31 147c0 61.333 -13.333 103.833 -40 127.5
s-60.334 39.834 -101.001 48.501v-426z" />
    <glyph glyph-name="percent" unicode="%" horiz-adv-x="1808" 
d="M455 555c-114.667 0 -207.833 30.5 -279.5 91.5s-107.5 147.833 -107.5 260.5c0 104 38 190.833 114 260.5s167 104.5 273 104.5c112 0 205.833 -29.833 281.5 -89.5s113.5 -150.834 113.5 -273.501c0 -97.333 -37.833 -180.666 -113.5 -249.999s-169.5 -104 -281.5 -104
zM461.001 580c42.667 0 75.499 30.5 98.499 91.5s34.5 138.833 34.5 233.5c0 98 -9.66699 179.5 -29 244.5s-55.333 97.5 -108 97.5c-53.333 0 -89.666 -33 -108.999 -99s-29 -143.667 -29 -233c0 -91.333 9.66699 -170 29 -236s57 -99 113 -99zM1346 -27
c-114.667 0 -208 30.5 -280 91.5s-108 148.167 -108 261.5c0 104 38.167 190.667 114.5 260s167.5 104 273.5 104c112 0 205.833 -29.833 281.5 -89.5s113.5 -150.5 113.5 -272.5c0 -98 -37.833 -181.667 -113.5 -251s-169.5 -104 -281.5 -104zM1352 -2
c42.667 0 75.499 30.5 98.499 91.5s34.5 139.167 34.5 234.5c0 97.333 -9.66699 178.666 -29 243.999s-55.333 98 -108 98c-53.333 0 -89.666 -33.167 -108.999 -99.5s-29 -143.833 -29 -232.5c0 -91.333 9.66699 -170.166 29 -236.499s57 -99.5 113 -99.5zM486.999 -197
l-55 27l875 1583l59 -27z" />
    <glyph glyph-name="ampersand" unicode="&#x26;" horiz-adv-x="1624" 
d="M465 -33c-115.333 0 -216.165 27.167 -302.498 81.5s-129.5 139.833 -129.5 256.5c0 102 36 184.667 108 248s173.667 121.333 305 174c-54.667 74.667 -94.167 138.834 -118.5 192.501s-36.5 111.167 -36.5 172.5c0 112.667 45.167 196.667 135.5 252
s200.166 83 329.499 83c86.667 0 156.834 -21.5 210.501 -64.5s80.5 -102.5 80.5 -178.5c0 -60 -25.333 -116.833 -76 -170.5s-112.334 -102.834 -185.001 -147.501l156.5 -224l165.5 -218c50.667 64 98.834 131.667 144.501 203s68.5 127.333 68.5 168
c0 21.333 -20.667 35.333 -62 42s-97 17 -167 31v15h557v-15c-58 -6 -108 -14.333 -150 -25s-73.333 -29 -94 -55c-24.667 -30.667 -63.5 -87.667 -116.5 -171s-106.5 -158 -160.5 -224c49.333 -58 101.166 -115 155.499 -171s96.166 -96 125.499 -120
c30.667 -24.667 57.167 -43.5 79.5 -56.5s64.166 -22.833 125.499 -29.5v-16h-602l-127 152c-49.333 -49.333 -113.666 -92.5 -192.999 -129.5s-155 -55.5 -227 -55.5zM653.001 94c50 0 92.333 8.66895 127 26.002s62.667 36.666 84 57.999l-235 303l-168 224
c-20.667 -34.667 -37.5 -76.334 -50.5 -125.001s-19.5 -104.667 -19.5 -168c0 -100 27.167 -178 81.5 -234s114.5 -84 180.5 -84zM772.001 889.002c55.333 36 95.5 75.668 120.5 119.001s37.5 93.666 37.5 150.999c0 79.333 -14.5 139.5 -43.5 180.5s-64.5 61.5 -106.5 61.5
c-44 0 -79.5 -17.333 -106.5 -52s-40.5 -83.667 -40.5 -147c0 -46 14 -96 42 -150s60.333 -108.333 97 -163z" />
    <glyph glyph-name="quotesingle" unicode="'" horiz-adv-x="463" 
d="M219 926c-20.667 67.333 -49.333 146.333 -86 237s-55 157 -55 199c0 48.667 14.5 85.334 43.5 110.001s65.5 37 109.5 37s80.667 -12.333 110 -37s44 -61.334 44 -110.001c0 -40 -18.833 -106.167 -56.5 -198.5s-67.167 -171.5 -88.5 -237.5h-21z" />
    <glyph glyph-name="parenleft" unicode="(" horiz-adv-x="727" 
d="M573 -328c-156.667 111.333 -279 250.168 -367 416.501s-132 339.5 -132 519.5c0 162 40.333 323.667 121 485s206 307.666 376 438.999l88 -55c-156.667 -119.333 -272 -254.333 -346 -405s-111.333 -302.667 -112 -456c-2 -169.333 37.333 -333 118 -491
s194 -290.333 340 -397z" />
    <glyph glyph-name="parenright" unicode=")" horiz-adv-x="727" 
d="M156 -328l-88 56.002c156.667 118.667 272 253.5 346 404.5s111.333 302.833 112 455.5c0.666992 169.333 -39 333.166 -119 491.499s-193 290.833 -339 397.5l86 55c156.667 -110.667 279 -249.334 367 -416.001s132 -340 132 -520c0 -162 -40.333 -323.5 -121 -484.5
s-206 -307.5 -376 -439.5z" />
    <glyph glyph-name="asterisk" unicode="*" horiz-adv-x="799" 
d="M406 817c-26.667 0 -46.334 7.66016 -59.001 22.9932s-19 34.333 -19 57c0 15.333 3.16699 32.666 9.5 51.999s13.5 38.666 21.5 57.999s15.333 38.333 22 57s10.667 35.334 12 50.001c-18 -14 -34.333 -31.5 -49 -52.5l-43.5 -61
c-14.333 -19.667 -29.166 -36.5 -44.499 -50.5s-33 -21 -53 -21c-9.33301 0 -18.666 2.16699 -27.999 6.5s-17.666 10.333 -24.999 18s-13.5 16.667 -18.5 27s-7.5 21.5 -7.5 33.5c0 15.333 4.66699 28 14 38s21.333 18.333 36 25s31.5 12 50.5 16s38.333 7.66699 58 11
l56.5 10c18 3.33301 34 8 48 14c-28.667 11.333 -59.5 19.666 -92.5 24.999s-70.5 13 -112.5 23c-23.333 5.33301 -40.833 14 -52.5 26s-17.5 25.667 -17.5 41c0 10.667 2.16699 21.334 6.5 32.001s10 20.334 17 29.001s15.167 15.667 24.5 21s18.666 8 27.999 8
c20 -0.666992 38.333 -8.16699 55 -22.5s32.834 -31.5 48.501 -51.5l48 -62c16.333 -21.333 34.166 -39.333 53.499 -54c-2.66699 16.667 -7.5 34.667 -14.5 54s-14.333 38.5 -22 57.5s-14.334 37.5 -20.001 55.5s-8.5 34.667 -8.5 50c0 25.333 6.33301 45 19 59
s32.334 21 59.001 21c28.667 0 49.334 -7.66699 62.001 -23s19 -33.666 19 -54.999c0 -14.667 -3.33301 -31.167 -10 -49.5s-14.167 -37.333 -22.5 -57l-24 -58.5c-7.66699 -19.333 -12.5 -37.333 -14.5 -54c17.333 14 33.666 31.667 48.999 53l46 61.5
c15.333 19.667 30.833 36.5 46.5 50.5s32.5 21 50.5 21c9.33301 0 18.5 -2.5 27.5 -7.5s17.167 -11.667 24.5 -20s13.333 -17.666 18 -27.999s7 -20.833 7 -31.5c0 -23.333 -8.16699 -40.166 -24.5 -50.499s-37.333 -18.166 -63 -23.499s-54 -10.333 -85 -15
s-61.167 -13 -90.5 -25c25.333 -10 54.333 -17.167 87 -21.5s69 -11.5 109 -21.5c21.333 -5.33301 38.166 -14.666 50.499 -27.999s18.5 -28.666 18.5 -45.999c0 -11.333 -2.5 -22.166 -7.5 -32.499s-11.167 -19.5 -18.5 -27.5s-15.666 -14.5 -24.999 -19.5
s-18 -7.5 -26 -7.5c-18 0 -35.167 7.33301 -51.5 22s-32.333 32.167 -48 52.5l-46.5 62.5c-15.333 21.333 -31.333 39 -48 53c1.33301 -13.333 5.83301 -29.5 13.5 -48.5l24 -58.5c8.33301 -20 16 -39.667 23 -59s10.5 -36.333 10.5 -51c0 -21.333 -6.83301 -40 -20.5 -56
s-33.834 -24 -60.501 -24z" />
    <glyph glyph-name="plus" unicode="+" horiz-adv-x="1167" 
d="M520 39v434h-430v119h430v434h127v-434h430v-119h-430v-434h-127z" />
    <glyph glyph-name="comma" unicode="," horiz-adv-x="551" 
d="M113 -406l-15.001 23c73.333 36 133 87.667 179 155s72.333 143.333 79 228h-71c-85.333 0 -143.166 20.167 -173.499 60.5s-45.5 82.833 -45.5 127.5c0 42.667 15.667 83.167 47 121.5s75 57.5 131 57.5c79.333 0 139.333 -26.833 180 -80.5s61 -125.167 61 -214.5
c0 -100 -35 -193.333 -105 -280s-159 -152.667 -267 -198z" />
    <glyph glyph-name="hyphen" unicode="-" horiz-adv-x="811" 
d="M61 387v262h689v-262h-689z" />
    <glyph glyph-name="hyphen" unicode="&#x2010;" horiz-adv-x="811" 
d="M61 387v262h689v-262h-689z" />
    <glyph glyph-name="hyphen" unicode="&#xad;" horiz-adv-x="811" 
d="M61 387v262h689v-262h-689z" />
    <glyph glyph-name="period" unicode="." horiz-adv-x="551" 
d="M276 -27c-54.667 0 -102 19.167 -142 57.5s-60 85.5 -60 141.5s20 103.167 60 141.5s87.333 57.5 142 57.5c55.333 0 103 -19.167 143 -57.5s60 -85.5 60 -141.5s-20 -103.167 -60 -141.5s-87.667 -57.5 -143 -57.5z" />
    <glyph glyph-name="slash" unicode="/" horiz-adv-x="836" 
d="M133 -430l-74 22l639 1948l76 -22z" />
    <glyph glyph-name="zero" unicode="0" horiz-adv-x="1411" 
d="M692 -33c-183.333 0 -334.333 57.5 -453 172.5s-178 265.833 -178 452.5c0 230.667 70.833 401.667 212.5 513s289.5 167 443.5 167c184 0 335.5 -57 454.5 -171s178.5 -265.333 178.5 -454c0 -229.333 -70.333 -400 -211 -512s-289.667 -168 -447 -168zM700 -8
c72.667 0 128.169 53.833 166.502 161.5s57.5 263.5 57.5 467.5c0 185.333 -14.667 336 -44 452s-86.333 174 -171 174c-70.667 0 -125.334 -53.667 -164.001 -161s-58 -263.333 -58 -468c0 -190 14.667 -341.833 44 -455.5s85.666 -170.5 168.999 -170.5z" />
    <glyph glyph-name="one" unicode="1" horiz-adv-x="961" 
d="M932 16l0.000976562 -16h-846v16c18.667 0.666992 45.167 3 79.5 7s63.166 9.33301 86.499 16c18.667 6 34.5 16.333 47.5 31s19.5 36.334 19.5 65.001v963h-28c-48.667 0 -95.667 8.33301 -141 25s-85 45 -119 85l6 13c38 -16.667 80.333 -29.167 127 -37.5
s100.667 -12.5 162 -12.5c86.667 0 163 9.5 229 28.5s117.333 39.833 154 62.5h30c-8.66699 -46 -14.5 -96.167 -17.5 -150.5s-4.5 -112.166 -4.5 -173.499v-799c0 -26.667 5.16699 -47.667 15.5 -63s24.833 -27 43.5 -35c15.333 -6.66699 39.333 -12.334 72 -17.001
s60.667 -7.33398 84 -8.00098z" />
    <glyph glyph-name="two" unicode="2" horiz-adv-x="1264" 
d="M70 0l10.001 145.002l219.5 160c73 53.333 148.5 114.666 226.5 183.999c85.333 76.667 146 155.334 182 236.001s54 171.334 54 272.001c0 74.667 -13.167 135 -39.5 181s-68.5 69 -126.5 69c-84.667 0 -147.167 -41.833 -187.5 -125.5s-60.5 -166.834 -60.5 -249.501
c0 -48.667 10.167 -88.667 30.5 -120s50.5 -47 90.5 -47c44 0 79.5 11.667 106.5 35s50.167 45.666 69.5 66.999l12 -10c-29.333 -52 -72.666 -103.667 -129.999 -155s-125 -77 -203 -77c-84.667 0 -149.667 23.333 -195 70s-68 108.667 -68 186
c0 122.667 55.5 228.5 166.5 317.5s247.5 133.5 409.5 133.5c125.333 0 242.666 -21.833 351.999 -65.5s164 -131.834 164 -264.501s-65.333 -247.5 -196 -344.5s-312.334 -179.5 -545.001 -247.5l-93 -65h666c54 0 96.167 23 126.5 69s55.833 90.333 76.5 133l16 -6
l-127 -481h-1007z" />
    <glyph glyph-name="three" unicode="3" horiz-adv-x="1243" 
d="M461 -55c-104 0 -206.838 19.666 -308.505 58.999s-152.5 113 -152.5 221c0 78.667 24 139.334 72 182.001s104.667 64 170 64c52.667 0 93.834 -14.5 123.501 -43.5s44.5 -60.167 44.5 -93.5c0 -72.667 -30.167 -124 -90.5 -154s-90.5 -64 -90.5 -102
c0 -38.667 20.833 -67.167 62.5 -85.5s90.5 -27.5 146.5 -27.5c102 0 183.5 43.5 244.5 130.5s91.5 191.167 91.5 312.5c0 67.333 -8 123.666 -24 168.999s-51 68 -105 68c-36 0 -71.833 -14.833 -107.5 -44.5s-68.834 -61.167 -99.501 -94.5l-59 86
c110.667 63.333 200.5 122.166 269.5 176.499s103.5 132.833 103.5 235.5c0 75.333 -15.833 134.333 -47.5 177s-70.5 64 -116.5 64c-70.667 0 -125.5 -25.5 -164.5 -76.5s-58.5 -111.5 -58.5 -181.5c0 -54 9.5 -93.5 28.5 -118.5s44.833 -37.5 77.5 -37.5
c27.333 0 53 7.66699 77 23s44.667 32.333 62 51l13 -10c-32.667 -55.333 -74.167 -100.166 -124.5 -134.499s-105.166 -51.5 -164.499 -51.5c-75.333 0 -136 17.333 -182 52s-68.667 89.667 -68 165c0.666992 112 60 197.667 178 257s252 89 402 89
c132.667 0 249.334 -20.833 350.001 -62.5s151 -110.167 151 -205.5c0 -89.333 -50.667 -160.5 -152 -213.5s-233.666 -85.833 -396.999 -98.5l-30 -24c6 0.666992 22.833 1.83398 50.5 3.50098s44.834 2.5 51.501 2.5c127.333 0 243.833 -19.5 349.5 -58.5
s158.5 -113.833 158.5 -224.5c0 -142 -78.167 -251.833 -234.5 -329.5s-323.166 -116.5 -500.499 -116.5z" />
    <glyph glyph-name="four" unicode="4" horiz-adv-x="1300" 
d="M348 0l0.00195312 13.998c18.667 0.666992 42.5 3.5 71.5 8.5s53.833 10.5 74.5 16.5c18 4.66699 33.667 15.167 47 31.5s20 35.833 20 58.5v285h-541v30l701 842h235v-821h146c21.333 0 42.666 5.16699 63.999 15.5s36 24.833 44 43.5
c7.33301 15.333 13.5 34.333 18.5 57s8.5 43.334 10.5 62.001h14v-422h-14c-2.66699 18.667 -7.16699 40.834 -13.5 66.501s-12.833 45.834 -19.5 60.501c-6.66699 17.333 -19.667 32.666 -39 45.999s-40.333 20 -63 20h-148v-275c0 -27.333 5.33301 -48.5 16 -63.5
s25.334 -26.5 44.001 -34.5c15.333 -6.66699 37.666 -12.667 66.999 -18s52.666 -8.33301 69.999 -9v-14h-805zM86.002 464.998h475v571z" />
    <glyph glyph-name="five" unicode="5" horiz-adv-x="1178" 
d="M483 -29c-134 0 -243.499 20.8311 -328.499 62.498s-127.5 112.5 -127.5 212.5c0 66 18.833 115.167 56.5 147.5s79.5 48.5 125.5 48.5c48 0 87.667 -12.5 119 -37.5s47 -57.5 47 -97.5c0 -46.667 -8.83301 -88.667 -26.5 -126l-49.5 -103
c4 -24.667 19.333 -45.167 46 -61.5s59.667 -24.5 99 -24.5c73.333 0 131.333 38.833 174 116.5s64 182.834 64 315.501c0 100 -18.5 178.167 -55.5 234.5s-94.167 84.5 -171.5 84.5c-56 0 -112.167 -16.667 -168.5 -50s-99.833 -78.666 -130.5 -135.999l-33 10l156 695h24
c14.667 -16.667 66 -34.167 154 -52.5s171.333 -27.5 250 -27.5c71.333 0 149.833 6.33301 235.5 19s150.5 36.334 194.5 71.001l16 -10c-84.667 -136.667 -186.167 -231.667 -304.5 -285s-235.833 -80 -352.5 -80c-23.333 0 -71.333 1.16699 -144 3.5
s-112.334 3.83301 -119.001 4.5l-55 -243c36 28.667 85 56.167 147 82.5s150.333 39.5 265 39.5c134 0 253.833 -31.5 359.5 -94.5s158.5 -153.5 158.5 -271.5c0 -148.667 -61.333 -260.334 -184 -335.001s-269.667 -112 -441 -112z" />
    <glyph glyph-name="six" unicode="6" horiz-adv-x="1305" 
d="M647 -33c-169.333 0 -307.168 53 -413.501 159s-159.5 255.667 -159.5 449c0 262 79.833 470.667 239.5 626s337.834 233 534.501 233c120.667 0 210.5 -26.333 269.5 -79s88.5 -107 88.5 -163c0 -50.667 -14.333 -89.667 -43 -117s-66 -41 -112 -41
c-84.667 0 -138.834 28.333 -162.501 85s-38.5 125.334 -44.5 206.001c-2 32 -8.33301 53.333 -19 64s-27.667 16 -51 16c-81.333 0 -148.5 -70 -201.5 -210s-88.167 -298 -105.5 -474l8 -4c42.667 61.333 91.834 105.333 147.501 132s114.5 40 176.5 40
c148 0 260.333 -41.333 337 -124s115 -183.334 115 -302.001c0 -122.667 -49.667 -236 -149 -340s-251 -156 -455 -156zM652.998 -8c87.333 0 141.666 48.5 162.999 145.5s32 197.833 32 302.5c0 116.667 -15.667 208.667 -47 276s-78.666 101 -141.999 101
c-50 0 -95.167 -31.5 -135.5 -94.5s-60.5 -169.5 -60.5 -319.5c0 -120 16.167 -218.5 48.5 -295.5s79.5 -115.5 141.5 -115.5z" />
    <glyph glyph-name="seven" unicode="7" horiz-adv-x="995" 
d="M422 -248c-44.667 0 -85.165 13.832 -121.498 41.499s-54.5 71.167 -54.5 130.5c0 65.333 18.333 137.333 55 216s92.667 171.334 168 278.001c55.333 78 124.5 169.333 207.5 274l193.5 240h-577c-44 0 -84.5 -15.667 -121.5 -47s-75.833 -93.666 -116.5 -186.999l-18 7
l135 626h21l38 -114h818v-87c-67.333 -85.333 -121.833 -162 -163.5 -230s-84.834 -151.667 -129.501 -251c-38 -83.333 -68.333 -174.833 -91 -274.5s-38.334 -225.834 -47.001 -378.501c-4 -84.667 -24.667 -146.5 -62 -185.5s-82 -58.5 -134 -58.5z" />
    <glyph glyph-name="eight" unicode="8" horiz-adv-x="1198" 
d="M563 -37c-135.333 0 -252.498 25.3311 -351.498 75.998s-148.5 122.334 -148.5 215.001c0 74 27.167 134.333 81.5 181s116.166 81.334 185.499 104.001c-70.667 35.333 -125.667 78.5 -165 129.5s-59 122.5 -59 214.5c0 106.667 46.833 200.167 140.5 280.5
s223.167 120.5 388.5 120.5c127.333 0 234.5 -23.833 321.5 -71.5s130.5 -113.167 130.5 -196.5c0 -68 -26.667 -119.833 -80 -155.5s-103 -63.167 -149 -82.5c117.333 -44.667 194.166 -100.334 230.499 -167.001s54.5 -138.667 54.5 -216
c0 -129.333 -56.833 -233.666 -170.5 -312.999s-250.167 -119 -409.5 -119zM612.002 -8.00195c83.333 0 150.666 23.166 201.999 69.499s77 99.5 77 159.5c0 54 -16.833 95.5 -50.5 124.5s-97.5 57.167 -191.5 84.5c-38 11.333 -89.333 25.833 -154 43.5
s-111 34.5 -139 50.5c-27.333 -27.333 -47.5 -60.666 -60.5 -99.999s-19.5 -92 -19.5 -158c0 -65.333 27.333 -127.333 82 -186s139.334 -88 254.001 -88zM829.002 792.997c26.667 21.333 45.0029 50.833 55.0029 88.5s15 78.5 15 122.5c0 62 -24.833 119.333 -74.5 172
s-125.834 79 -228.501 79c-76.667 0 -134.834 -19.167 -174.501 -57.5s-59.5 -82.5 -59.5 -132.5c0 -48.667 14.833 -86.5 44.5 -113.5s80.5 -52.833 152.5 -77.5c36 -12 83.667 -26.5 143 -43.5s101.666 -29.5 126.999 -37.5z" />
    <glyph glyph-name="nine" unicode="9" horiz-adv-x="1305" 
d="M455 -215c-120.667 0 -210.661 26.332 -269.994 78.999s-89 107 -89 163c0 50.667 14.5 89.5 43.5 116.5s66.5 40.5 112.5 40.5c84.667 0 138.667 -28.333 162 -85s38.333 -125 45 -205c2 -32 8.16699 -53.333 18.5 -64s27.166 -16 50.499 -16
c81.333 0 150.666 73.333 207.999 220s94.666 308 111.999 484l-8 4c-42.667 -61.333 -91.834 -105.333 -147.501 -132s-114.5 -40 -176.5 -40c-148 0 -260.5 41.333 -337.5 124s-115.5 183.334 -115.5 302.001c0 122.667 49.833 236 149.5 340s251.5 156 455.5 156
c169.333 0 307.166 -53 413.499 -159s159.5 -255.667 159.5 -449c0 -262 -81.833 -474 -245.5 -636s-343.834 -243 -540.501 -243zM655.006 421.999c50 0 95.333 31.5 136 94.5s61 169.5 61 319.5c0 120 -16.167 218.5 -48.5 295.5s-79.5 115.5 -141.5 115.5
c-88 0 -142.5 -48.5 -163.5 -145.5s-31.5 -197.833 -31.5 -302.5c0 -116.667 15.5 -208.667 46.5 -276s78.167 -101 141.5 -101z" />
    <glyph glyph-name="colon" unicode=":" horiz-adv-x="635" 
d="M318 -27c-54.667 0 -102 19.167 -142 57.5s-60 85.5 -60 141.5s20 103.167 60 141.5s87.333 57.5 142 57.5c55.333 0 103 -19.167 143 -57.5s60 -85.5 60 -141.5s-20 -103.167 -60 -141.5s-87.667 -57.5 -143 -57.5zM317 565c-54.667 0 -102 19.167 -142 57.5
s-60 85.5 -60 141.5s20 103.167 60 141.5s87.333 57.5 142 57.5c55.333 0 103 -19.167 143 -57.5s60 -85.5 60 -141.5s-20 -103.167 -60 -141.5s-87.667 -57.5 -143 -57.5z" />
    <glyph glyph-name="semicolon" unicode=";" horiz-adv-x="635" 
d="M154 -406l-15.001 23c73.333 36 133 87.667 179 155s72.333 143.333 79 228h-71c-85.333 0 -143.166 20.167 -173.499 60.5s-45.5 82.833 -45.5 127.5c0 42.667 15.667 83.167 47 121.5s75 57.5 131 57.5c79.333 0 139.333 -26.833 180 -80.5s61 -125.167 61 -214.5
c0 -100 -35 -193.333 -105 -280s-159 -152.667 -267 -198zM316.999 568c-54.667 0 -102 19.167 -142 57.5s-60 85.5 -60 141.5s20 103.167 60 141.5s87.333 57.5 142 57.5c55.333 0 103 -19.167 143 -57.5s60 -85.5 60 -141.5s-20 -103.167 -60 -141.5
s-87.667 -57.5 -143 -57.5z" />
    <glyph glyph-name="less" unicode="&#x3c;" horiz-adv-x="1167" 
d="M1028 61l-905 420v103l905 420v-127l-747 -345l747 -344v-127z" />
    <glyph glyph-name="equal" unicode="=" horiz-adv-x="1167" 
d="M131 309v119h905v-119h-905zM131 637v119h905v-119h-905z" />
    <glyph glyph-name="greater" unicode="&#x3e;" horiz-adv-x="1167" 
d="M139 61v127l748 344l-748 345v127l905 -420v-103z" />
    <glyph glyph-name="question" unicode="?" horiz-adv-x="1114" 
d="M414 455l-10.999 392.999c87.333 8.66699 154 37.334 200 86.001s69 112.667 69 192c0 82.667 -14.333 150.167 -43 202.5s-77.334 78.5 -146.001 78.5c-34 0 -63.333 -6.5 -88 -19.5s-44.334 -27.833 -59.001 -44.5c18.667 -24.667 35.667 -53 51 -85s23 -67 23 -105
c0 -57.333 -16.333 -102.666 -49 -135.999s-76.667 -50 -132 -50c-61.333 0 -106 18 -134 54s-42 79.333 -42 130c0 77.333 44 143.5 132 198.5s191.667 82.5 311 82.5c162.667 0 293.334 -35.333 392.001 -106s148 -169.334 148 -296.001c0 -133.333 -54 -240 -162 -320
s-249.667 -127.667 -425 -143l-11 -112h-24zM438.001 -27.001c-54.667 0 -102 19.167 -142 57.5s-60 85.5 -60 141.5s20 103.167 60 141.5s87.333 57.5 142 57.5c55.333 0 103 -19.167 143 -57.5s60 -85.5 60 -141.5s-20 -103.167 -60 -141.5s-87.667 -57.5 -143 -57.5z" />
    <glyph glyph-name="at" unicode="@" horiz-adv-x="2150" 
d="M1061 -440c-250.667 0 -457 73.832 -619 221.499s-243 342.834 -243 585.501c0 288 103 522.667 309 704s439.333 272 700 272c196 0 356.667 -57.5 482 -172.5s188 -277.167 188 -486.5c0 -162 -39.667 -305.167 -119 -429.5s-182.333 -186.5 -309 -186.5
c-69.333 0 -128 14 -176 42s-74 68.333 -78 121l-6 2c-30 -46 -62.833 -84.333 -98.5 -115s-76.5 -46 -122.5 -46c-57.333 0 -108.5 22.333 -153.5 67s-67.5 111.667 -67.5 201c0 131.333 47.333 252.833 142 364.5s202.667 167.5 324 167.5c36 0 65 -12 87 -36
s36 -52.667 42 -86h7l41 110h235l-196 -565c-6.66699 -16.667 -12.5 -36.167 -17.5 -58.5s-7.5 -43.833 -7.5 -64.5s5.5 -38.5 16.5 -53.5s28.833 -22.5 53.5 -22.5c82 0 160.5 56.5 235.5 169.5s112.5 256.5 112.5 430.5c0 176.667 -59.167 316.5 -177.5 419.5
s-259.833 154.5 -424.5 154.5c-184.667 0 -351 -81.833 -499 -245.5s-222 -379.5 -222 -647.5c0 -240 60.5 -421.5 181.5 -544.5s281.5 -184.5 481.5 -184.5c166.667 0 319.5 45.167 458.5 135.5s248.5 242.5 328.5 456.5l20 -7c-79.333 -243.333 -199 -416.333 -359 -519
s-343.333 -154 -550 -154zM1028 118.999c28.667 0 58 19 88 57s57.333 78.333 82 121l133 397c-8 51.333 -20.667 88.833 -38 112.5s-39.333 35.5 -66 35.5c-64 0 -123 -69.833 -177 -209.5s-81 -267.167 -81 -382.5c0 -48 6 -81.833 18 -101.5s25.667 -29.5 41 -29.5z" />
    <glyph glyph-name="A" unicode="A" horiz-adv-x="1430" 
d="M-74 0v13.9961c18.667 2 38.167 5 58.5 9s39.166 11.333 56.499 22c25.333 16.667 47.5 39.834 66.5 69.501s35.833 61.834 50.5 96.501l233 597.5l238 612.5h186l265 -692.5c128.667 -341.667 202 -534.5 220 -578.5c8.66699 -20.667 19 -40 31 -58
s29.667 -34.333 53 -49c18.667 -11.333 37.5 -18.5 56.5 -21.5s37.167 -5.5 54.5 -7.5v-14h-838v14c34.667 2.66699 78.834 9 132.501 19s80.5 27.667 80.5 53c0 8 -0.833008 16 -2.5 24s-3.5 14.333 -5.5 19l-129 369h-422l-92 -269
c-8.66699 -26.667 -15 -51.167 -19 -73.5s-5 -40.166 -3 -53.499c4.66699 -35.333 37.5 -58.166 98.5 -68.499s108.5 -16.833 142.5 -19.5v-14h-512zM328 536.996h393l-199 516z" />
    <glyph glyph-name="B" unicode="B" horiz-adv-x="1550" 
d="M25 0l0.000976562 13.9961c16.667 2 43.5 4.5 80.5 7.5s61.833 6.83301 74.5 11.5c24.667 8.66699 41.167 21.834 49.5 39.501s12.5 37.834 12.5 60.501v1127c0 22.667 -4.16699 42.667 -12.5 60s-24.833 31.333 -49.5 42c-18.667 8 -45.167 13.167 -79.5 15.5
s-59.5 4.5 -75.5 6.5v15h895c160 0 285.333 -23.667 376 -71s136 -127.666 136 -240.999c0 -96.667 -41.333 -170.167 -124 -220.5s-186.334 -85.166 -311.001 -104.499v-19c136 -14 254.333 -48.667 355 -104s151 -142 151 -260c0 -142 -54.833 -240.667 -164.5 -296
s-260.167 -83 -451.5 -83h-862zM813.001 24.9961c73.333 0 132.333 36.168 177 108.501s67 156.833 67 253.5c0 100 -23.333 181.667 -70 245s-121 95 -223 95c-11.333 0 -28.833 -0.833008 -52.5 -2.5s-39.5 -2.83398 -47.5 -3.50098v-610c4.66699 -24 18 -44.333 40 -61
s58.333 -25 109 -25zM664.001 755.997l59 0.000976562c100 0 169.667 30.167 209 90.5s59 133.166 59 218.499c0 88.667 -22.667 162.667 -68 222s-104.666 89 -177.999 89c-10.667 0 -23.834 -0.5 -39.501 -1.5s-29.5 -1.83301 -41.5 -2.5v-616z" />
    <glyph glyph-name="C" unicode="C" horiz-adv-x="1421" 
d="M825 -33c-234 0 -422.834 63.3311 -566.501 189.998s-215.5 302.334 -215.5 527.001c0 241.333 75.833 426.333 227.5 555s346.167 193 583.5 193c79.333 0 153.833 -9.16699 223.5 -27.5s126.834 -39.5 171.501 -63.5l66 76h24l9 -524h-25
c-67.333 150.667 -138.333 274 -213 370s-156.667 144 -246 144c-118.667 0 -208 -62 -268 -186s-90 -291.333 -90 -502c0 -227.333 36 -396.166 108 -506.499s167 -165.5 285 -165.5c104.667 0 197.5 30.833 278.5 92.5s148.5 141.5 202.5 239.5l23 -12
c-44.667 -108 -115 -201.667 -211 -281s-218.333 -119 -367 -119z" />
    <glyph glyph-name="D" unicode="D" horiz-adv-x="1638" 
d="M18 0v13.999c28.667 2 59.834 4.66699 93.501 8s56.5 7 68.5 11c24.667 8 41.167 20 49.5 36s12.5 35.333 12.5 58v1137c0 22.667 -4.16699 43 -12.5 61s-24.833 31 -49.5 39c-16.667 4.66699 -41.334 8.66699 -74.001 12s-62 6 -88 8v15h801
c216.667 0 400.167 -61.333 550.5 -184s225.5 -297.667 225.5 -525c0 -217.333 -77 -386.666 -231 -507.999s-348.667 -182 -584 -182h-762zM778 22.999c123.333 0 212.833 60.668 268.5 182.001s83.5 283.666 83.5 486.999c0 206 -33 371.5 -99 496.5
s-166 187.5 -300 187.5c-8.66699 0 -20.167 -0.5 -34.5 -1.5s-24.5 -1.83301 -30.5 -2.5v-1208c0 -44 8.16699 -78.5 24.5 -103.5s45.5 -37.5 87.5 -37.5z" />
    <glyph glyph-name="E" unicode="E" horiz-adv-x="1421" 
d="M18 0v14.002c28.667 2 59.834 4.66699 93.501 8s56.5 7 68.5 11c24.667 8 41.167 20 49.5 36s12.5 35.333 12.5 58v1137c0 22.667 -4.16699 43 -12.5 61s-24.833 31 -49.5 39c-16.667 4.66699 -41.334 8.66699 -74.001 12s-62 6 -88 8v15h1252v-367h-23
c-34 65.333 -79.833 134.166 -137.5 206.499s-113.5 114.166 -167.5 125.499c-24.667 4.66699 -48.834 7.5 -72.501 8.5s-51.5 1.5 -83.5 1.5h-120v-637h71c56 0 96.833 6.66699 122.5 20s45.167 26.666 58.5 39.999c21.333 21.333 44 52.833 68 94.5
s41.333 81.834 52 120.501h23v-584h-23c-10.667 40 -29.167 82.833 -55.5 128.5s-47.833 77.834 -64.5 96.501c-14.667 15.333 -35 29.166 -61 41.499s-66 18.5 -120 18.5h-71v-535c0 -68 9 -110.5 27 -127.5s60.667 -25.5 128 -25.5c56 0 105.833 2 149.5 6
s77.834 18.333 102.501 43c42 40.667 87.333 92.5 136 155.5s97 129.167 145 198.5h20l-26 -428h-1330z" />
    <glyph glyph-name="F" unicode="F" horiz-adv-x="1325" 
d="M18 0l-0.00195312 14c28.667 2 59.834 4.66699 93.501 8s56.5 7 68.5 11c24.667 8 41.167 20 49.5 36s12.5 35.333 12.5 58v1137c0 22.667 -4.16699 43 -12.5 61s-24.833 31 -49.5 39c-16.667 4.66699 -41.334 8.66699 -74.001 12s-62 6 -88 8v15h1309v-371h-20
l-146 220.5c-47.333 68.333 -98.333 106.833 -153 115.5c-23.333 4 -52 6.66699 -86 8s-67 2 -99 2h-157v-645h127c54.667 0 95 9 121 27s45.667 33.667 59 47c22.667 22.667 44.334 55 65.001 97s34.334 77.333 41.001 106h23v-592h-23c-8 31.333 -23.333 69.833 -46 115.5
s-42.667 78.167 -60 97.5c-14.667 16 -35.167 33 -61.5 51s-65.833 27 -118.5 27h-127v-570c0 -29.333 5.5 -52.166 16.5 -68.499s25.833 -26.833 44.5 -31.5c12.667 -2.66699 34.167 -6.33398 64.5 -11.001s65.5 -8 105.5 -10v-14h-879z" />
    <glyph glyph-name="G" unicode="G" horiz-adv-x="1653" 
d="M805 -31c-202 0 -379.498 58.8311 -532.498 176.498s-229.5 296.5 -229.5 536.5c0 254.667 79.667 443.334 239 566.001s361 184 605 184c80.667 0 161.834 -8.66699 243.501 -26s145.834 -39 192.501 -65l70 76h22l8 -518h-22c-78.667 150 -158 272.167 -238 366.5
s-166.667 141.5 -260 141.5c-135.333 0 -235.333 -65 -300 -195s-97 -294.333 -97 -493c0 -194.667 26.333 -364.167 79 -508.5s141.667 -216.5 267 -216.5c66 0 115.167 15.5 147.5 46.5s56.166 67.5 71.499 109.5v321c-0.666992 24.667 -5.83398 46.5 -15.501 65.5
s-27.834 34.167 -54.501 45.5c-20 8.66699 -48.167 14.667 -84.5 18s-62.5 5.33301 -78.5 6v17h817v-17c-19.333 -2 -39.333 -3.5 -60 -4.5s-40.334 -4.83301 -59.001 -11.5c-24.667 -9.33301 -41 -23.166 -49 -41.499s-12 -38.833 -12 -61.5v-505l-21 -9l-139 127
c-61.333 -33.333 -129.5 -63.5 -204.5 -90.5s-176.833 -40.5 -305.5 -40.5z" />
    <glyph glyph-name="H" unicode="H" horiz-adv-x="1831" 
d="M18 0l0.000976562 13.999c28.667 2 59.834 4.66699 93.501 8s56.5 7 68.5 11c24.667 8 41.167 20 49.5 36s12.5 35.333 12.5 58v1137c0 22.667 -4.16699 43 -12.5 61s-24.833 31 -49.5 39c-16.667 4.66699 -41.334 8.66699 -74.001 12s-62 6 -88 8v15h842v-15
c-17.333 -2 -39.5 -4.33301 -66.5 -7s-49.167 -6.33398 -66.5 -11.001c-24.667 -6.66699 -41 -19.334 -49 -38.001s-12 -39.334 -12 -62.001v-518h499v516c0 22.667 -4.33301 42.834 -13 60.501s-24.667 30.834 -48 39.501c-16.667 6 -38 10.333 -64 13l-67 7v15h839v-15
c-24.667 -2 -53.167 -4.5 -85.5 -7.5s-56.833 -6.5 -73.5 -10.5c-25.333 -6 -42.333 -18.5 -51 -37.5s-13 -39.833 -13 -62.5v-1133c0 -22.667 4.33301 -43 13 -61s25.667 -31 51 -39c12 -4 35.167 -7.66699 69.5 -11s64.166 -6 89.499 -8v-14h-839v14
c17.333 0.666992 39.833 3 67.5 7s48.834 8 63.501 12c25.333 6.66699 41.833 18.334 49.5 35.001s11.5 36.334 11.5 59.001v582h-499v-578c0 -22.667 4.33301 -42.667 13 -60s24.667 -30 48 -38c12.667 -4 32.167 -7.66699 58.5 -11s51.166 -6 74.499 -8v-14h-842z" />
    <glyph glyph-name="I" unicode="I" horiz-adv-x="915" 
d="M23 0v14.0029c28.667 2 59.667 4.66699 93 8s56 7 68 11c24.667 8 41.167 20 49.5 36s12.5 35.333 12.5 58v1137c0 22.667 -4.16699 43 -12.5 61s-24.833 31 -49.5 39c-16 4.66699 -40.5 8.66699 -73.5 12s-62.167 6 -87.5 8v15h870v-15
c-17.333 -2 -44.333 -4.33301 -81 -7s-63.667 -6.33398 -81 -11.001c-24.667 -6.66699 -41 -19.334 -49 -38.001s-12 -39.334 -12 -62.001v-1135c0 -22.667 4.33301 -42.667 13 -60s24.667 -30 48 -38c12.667 -4 37 -7.66699 73 -11l89 -8v-14h-870z" />
    <glyph glyph-name="J" unicode="J" horiz-adv-x="1192" 
d="M354 -37c-128.667 0 -222.835 24.1709 -282.502 72.5039s-89.5 109.5 -89.5 183.5c0 60 17.833 108.167 53.5 144.5s82.5 54.5 140.5 54.5c56 0 99.667 -16.667 131 -50s47 -73.333 47 -120c0 -40 -11.667 -82.833 -35 -128.5s-62 -77.834 -116 -96.501v-11
c14 -6 27.333 -10.833 40 -14.5s28.667 -5.5 48 -5.5c78.667 0 136.834 30.167 174.501 90.5s56.5 147.5 56.5 261.5v920c0 22.667 -4 43 -12 61s-24.333 31 -49 39c-16.667 4.66699 -43.167 8.66699 -79.5 12s-67.166 6 -92.499 8v15h880v-15
c-16.667 -2 -43.5 -4.33301 -80.5 -7s-63.833 -6.33398 -80.5 -11.001c-24.667 -6.66699 -41.167 -19.334 -49.5 -38.001s-12.5 -39.334 -12.5 -62.001v-840c0 -148.667 -64.667 -263 -194 -343s-262 -120 -398 -120z" />
    <glyph glyph-name="K" unicode="K" horiz-adv-x="1733" 
d="M18 0l0.000976562 13.999c28.667 2 59.834 4.66699 93.501 8s56.5 7 68.5 11c24.667 8 41.167 20 49.5 36s12.5 35.333 12.5 58v1137c0 22.667 -4.16699 43 -12.5 61s-24.833 31 -49.5 39c-16.667 4.66699 -41.334 8.66699 -74.001 12s-62 6 -88 8v15h842v-15
c-17.333 -2 -39.5 -4.33301 -66.5 -7s-49.167 -6.33398 -66.5 -11.001c-24.667 -6.66699 -41 -19.334 -49 -38.001s-12 -39.334 -12 -62.001v-557h30l394 346.5c156.667 140.333 235 227.5 235 261.5c0 20.667 -25.667 35.834 -77 45.501s-100 16.834 -146 21.501v15h590
v-15c-84.667 -6.66699 -150 -20.167 -196 -40.5s-89.333 -48.166 -130 -83.499l-171.5 -152.5c-61.667 -54.333 -126.167 -114.166 -193.5 -179.499l250 -335.5l279 -385.5c18.667 -25.333 42.5 -55.5 71.5 -90.5s59.833 -60.833 92.5 -77.5
c18.667 -9.33301 34 -15.333 46 -18s27.333 -5 46 -7v-14h-848v14c48 4.66699 85.333 12 112 22s40 29.333 40 58s-36.667 98.167 -110 208.5s-167.333 235.5 -282 375.5h-32v-547c0 -22.667 4.33301 -42.667 13 -60s24.667 -30 48 -38c12.667 -4 32.167 -7.66699 58.5 -11
s51.166 -6 74.499 -8v-14h-842z" />
    <glyph glyph-name="L" unicode="L" horiz-adv-x="1354" 
d="M18 0l0.00195312 13.998c17.333 2 45.666 4.5 84.999 7.5s65 6.83301 77 11.5c24.667 10 41.167 23.833 49.5 41.5s12.5 37.834 12.5 60.501v1127c0 22.667 -4 42.334 -12 59.001s-24.667 30.334 -50 41.001c-19.333 8 -46.833 13.167 -82.5 15.5s-62.167 4.5 -79.5 6.5
v15h856v-15c-18 -2 -42 -3 -72 -3s-54.333 -3 -73 -9c-24.667 -8 -41.334 -21 -50.001 -39s-13 -38.333 -13 -61v-1071c0 -79.333 8.33301 -128.5 25 -147.5s70.334 -28.5 161.001 -28.5c50.667 0 91.667 2.66699 123 8s58.666 19.666 81.999 42.999
c34 34 85 102.333 153 205l154 233h16l-26 -514h-1336z" />
    <glyph glyph-name="M" unicode="M" horiz-adv-x="2034" 
d="M-8 0l-0.00195312 14.0029c17.333 2 46.5 4.66699 87.5 8s73.167 13.666 96.5 30.999s40.166 48.833 50.499 94.5s15.5 107.167 15.5 184.5v833c0 42 -5.16699 77.167 -15.5 105.5s-25.833 50.5 -46.5 66.5c-23.333 19.333 -52.166 31.5 -86.499 36.5
s-64.833 8.5 -91.5 10.5v15h643l377 -920l291 746c14 35.333 24.5 70.333 31.5 105s10.833 57.667 11.5 69h657v-15c-17.333 -2 -43.666 -4 -78.999 -6s-62.333 -6 -81 -12c-24.667 -8 -41 -21 -49 -39s-12 -38.333 -12 -61v-1133c0 -22.667 4.5 -42.334 13.5 -59.001
s24.833 -30.334 47.5 -41.001c11.333 -6.66699 36.833 -11 76.5 -13s68.167 -4 85.5 -6v-14h-872v14c17.333 2 45.333 3.16699 84 3.5s65.334 4.16602 80.001 11.499c23.333 12 40 26.5 50 43.5s15 37.167 15 60.5v1137l-491 -1247h-138c-6 21.333 -20.667 66.833 -44 136.5
s-40.666 118.834 -51.999 147.501l-368 926v-899c0 -79.333 3.66699 -140.833 11 -184.5s22.666 -75.167 45.999 -94.5c22.667 -18.667 58.5 -29.667 107.5 -33s82.833 -6 101.5 -8v-14h-553z" />
    <glyph glyph-name="N" unicode="N" horiz-adv-x="1597" 
d="M1169 -6l-890 1151v-811c0 -79.333 3.66699 -140.833 11 -184.5s22.666 -75.167 45.999 -94.5c22.667 -18.667 61.834 -29.667 117.501 -33s92.834 -6 111.501 -8v-14h-573v14c17.333 2 46.5 4.66699 87.5 8s73.167 13.666 96.5 30.999s40.166 48.833 50.499 94.5
s15.5 107.167 15.5 184.5v811c0 31.333 -5 60.5 -15 87.5s-26.333 51.833 -49 74.5c-21.333 21.333 -48.666 39.166 -81.999 53.499s-70 22.833 -110 25.5v15h592l735 -940v606c0 79.333 -3.66699 140.833 -11 184.5s-23 74.834 -47 93.501
c-22.667 18.667 -61.834 29.667 -117.501 33s-92.834 6 -111.501 8v15h573v-15c-16.667 -2 -45.667 -4.66699 -87 -8s-73.666 -13.333 -96.999 -30c-23.333 -17.333 -40 -48.833 -50 -94.5s-15 -107.167 -15 -184.5v-1073h-181z" />
    <glyph glyph-name="O" unicode="O" horiz-adv-x="1636" 
d="M811 -33c-108 0 -208.166 16.3301 -300.499 48.9971s-171.833 80 -238.5 142c-66 62 -120.667 137.667 -164 227s-65 189 -65 299c0 122.667 23.5 231.834 70.5 327.501s106.833 175.5 179.5 239.5c65.333 58 142.666 102.667 231.999 134s187.333 47 294 47
c106 0 204.833 -15.167 296.5 -45.5s170.5 -75.5 236.5 -135.5c68 -62 125.167 -138.667 171.5 -230s69.5 -195.333 69.5 -312c0 -113.333 -22.333 -219.166 -67 -317.499s-104 -181.166 -178 -248.499c-64 -58 -140.5 -101.833 -229.5 -131.5s-191.5 -44.5 -307.5 -44.5z
M819.001 -8.00293c116.667 0 196.999 67.6689 240.999 203.002s66 304.333 66 507c0 179.333 -20 341.666 -60 486.999s-122.333 218 -247 218c-106 0 -184 -62.667 -234 -188s-75 -300.333 -75 -525c0 -196.667 22.333 -362.834 67 -498.501s125.334 -203.5 242.001 -203.5
z" />
    <glyph glyph-name="P" unicode="P" horiz-adv-x="1452" 
d="M18 0l-0.000976562 13.9961c18.667 0.666992 47.334 2.83398 86.001 6.50098s64 7.83398 76 12.501c24.667 8.66699 41.167 21.834 49.5 39.501s12.5 37.834 12.5 60.501v1131c0 22.667 -4 42.334 -12 59.001s-24.667 30.334 -50 41.001
c-19.333 6.66699 -46.833 11.167 -82.5 13.5s-62.167 4.5 -79.5 6.5v15h869c186.667 0 327.167 -30.167 421.5 -90.5s141.5 -149.833 141.5 -268.5c0 -152.667 -61.333 -261.834 -184 -327.501s-271.667 -98.5 -447 -98.5h-153v-479c0 -22.667 4.5 -42.5 13.5 -59.5
s24.833 -30.5 47.5 -40.5c12.667 -4.66699 35.167 -8.83398 67.5 -12.501s66.5 -6.5 102.5 -8.5v-14h-879zM665.999 642.996h36c111.333 0 189 36.5 233 109.5s66 155.833 66 248.5c0 102.667 -20 190.167 -60 262.5s-110 108.5 -210 108.5h-65v-729z" />
    <glyph glyph-name="Q" unicode="Q" horiz-adv-x="1636" 
d="M1305 -434c-106.667 0 -193.997 32.998 -261.997 98.998s-114.667 168 -140 306c-14.667 -0.666992 -29.5 -1.5 -44.5 -2.5s-30.833 -1.5 -47.5 -1.5c-114.667 0 -217.334 16.667 -308.001 50s-169 81.666 -235 144.999c-64 62 -117.5 136.833 -160.5 224.5
s-64.5 186.834 -64.5 297.501c0 114.667 19.833 216.5 59.5 305.5s91.5 166.167 155.5 231.5c65.333 66 149.5 117.667 252.5 155s205.833 56 308.5 56c98 0 197.167 -17.167 297.5 -51.5s183.5 -82.166 249.5 -143.499c67.333 -62 122 -137 164 -225s63 -189 63 -303
c0 -144 -34.333 -273.5 -103 -388.5s-158.334 -203.5 -269.001 -265.5c28.667 -89.333 65.667 -153.333 111 -192s93.666 -58 144.999 -58c54 0 100.667 16.833 140 50.5s64.333 76.5 75 128.5l22 -4c-12 -75.333 -49.333 -163.166 -112 -263.499
s-161.667 -150.5 -297 -150.5zM557.003 255.998c34.667 67.333 77.332 122.333 127.999 165s107 64 169 64c69.333 0 122 -13.667 158 -41s65.333 -62 88 -104c8.66699 58 15.834 112.5 21.501 163.5s8.5 117.167 8.5 198.5c0 187.333 -21.667 351.666 -65 492.999
s-125.333 212 -246 212c-116 0 -196.5 -67.833 -241.5 -203.5s-67.5 -305.5 -67.5 -509.5c0 -77.333 3 -155.166 9 -233.499s18.667 -146.5 38 -204.5zM819.001 -8.00195c16.667 0 30.6709 0.999023 42.0039 2.99902s23.333 4.33301 36 7
c-18.667 104.667 -38.834 188.167 -60.501 250.5s-57.5 93.5 -107.5 93.5c-29.333 0 -57.833 -9 -85.5 -27s-53.834 -48 -78.501 -90c23.333 -75.333 56.166 -133.666 98.499 -174.999s94.166 -62 155.499 -62z" />
    <glyph glyph-name="R" unicode="R" horiz-adv-x="1661" 
d="M1343 -25c-110 0 -192.668 26.6641 -248.001 79.9971s-90.666 140 -105.999 260c-14 111.333 -37.833 197.666 -71.5 258.999s-95.834 92 -186.501 92h-65v-531c0 -22.667 4.5 -42.5 13.5 -59.5s24.833 -30.5 47.5 -40.5c12.667 -4.66699 35.167 -8.83398 67.5 -12.501
s66.5 -6.5 102.5 -8.5v-14h-879v14c18.667 0.666992 47.334 2.83398 86.001 6.50098s64 7.83398 76 12.501c24.667 8.66699 41.167 21.834 49.5 39.501s12.5 37.834 12.5 60.501v1131c0 22.667 -4 42.334 -12 59.001s-24.667 30.334 -50 41.001
c-19.333 6.66699 -46.833 11.167 -82.5 13.5s-62.167 4.5 -79.5 6.5v15h922c159.333 0 286.833 -25.833 382.5 -77.5s143.5 -132.5 143.5 -242.5c0 -110.667 -40 -194 -120 -250s-177 -95.333 -291 -118v-15c80.667 -4 152 -21.833 214 -53.5s103.333 -84.167 124 -157.5
c14.667 -56 24.834 -101.667 30.501 -137s13.834 -77 24.501 -125c6.66699 -31.333 18 -55.833 34 -73.5s38.667 -26.5 68 -26.5c24.667 0 48 12.667 70 38s33 64.666 33 117.999v61h33l-3 -64c-2.66699 -84.667 -29.834 -156 -81.501 -214s-137.834 -87 -258.501 -87z
M665.999 693.997h32c108 0 188 28.333 240 85s78 145 78 265c0 102.667 -23.167 183 -69.5 241s-117.5 87 -213.5 87h-67v-678z" />
    <glyph glyph-name="S" unicode="S" horiz-adv-x="1253" 
d="M596 -31c-106.667 0 -196.999 12.6641 -270.999 37.9971s-129 48.333 -165 69l-86 -92h-15l-12 516h23c75.333 -150 152.5 -271.167 231.5 -363.5s172.5 -138.5 280.5 -138.5c106.667 0 179.667 26 219 78s59 108.667 59 170c0 60 -18.667 110.5 -56 151.5
s-107.333 79.833 -210 116.5c-44.667 16.667 -88.167 31.167 -130.5 43.5s-79.5 25.166 -111.5 38.499c-86.667 36.667 -153.667 89.334 -201 158.001s-71 150.334 -71 245.001c0 144.667 55.667 253.334 167 326.001s243.333 109 396 109
c75.333 0 150.166 -10.167 224.499 -30.5s128.5 -41.166 162.5 -62.499l78 76h16l9 -485h-23c-56 127.333 -115.833 238 -179.5 332s-149.834 141 -258.501 141c-82.667 0 -146.667 -25.833 -192 -77.5s-68 -108.5 -68 -170.5c0 -72 25.167 -127.833 75.5 -167.5
s113.833 -73.167 190.5 -100.5c40.667 -15.333 84.334 -29.5 131.001 -42.5s86.334 -26.833 119.001 -41.5c79.333 -34 145.166 -80 197.499 -138s78.5 -141 78.5 -249c0 -124.667 -57 -230.667 -171 -318s-259.667 -131 -437 -131z" />
    <glyph glyph-name="T" unicode="T" horiz-adv-x="1346" 
d="M238 0l-0.000976562 13.999c28.667 2 59.667 4.66699 93 8s56 7 68 11c24.667 8 41.167 20 49.5 36s12.5 35.333 12.5 58v1247h-41c-23.333 0 -45 -0.666992 -65 -2s-40.667 -3.33301 -62 -6c-42.667 -6 -94.5 -57.5 -155.5 -154.5s-102.833 -168.5 -125.5 -214.5h-20
v402h1362v-402h-21c-22.667 44.667 -64 115.834 -124 213.501s-112 149.5 -156 155.5c-21.333 2.66699 -41.666 4.66699 -60.999 6s-41.333 2 -66 2h-41v-1243c0 -22.667 4.33301 -42.667 13 -60s24.667 -30 48 -38c12.667 -4 37 -7.66699 73 -11l89 -8v-14h-870z" />
    <glyph glyph-name="U" unicode="U" horiz-adv-x="1583" 
d="M860 -33c-188.667 0 -343.335 38.1689 -464.002 114.502s-181 204.833 -181 385.5v797c0 22.667 -4 43 -12 61s-24.333 31 -49 39c-16.667 4.66699 -40.167 8.66699 -70.5 12s-58.166 6 -83.499 8v15h846v-15c-17.333 -2 -41.333 -4.33301 -72 -7
s-54.667 -6.33398 -72 -11.001c-24.667 -6.66699 -41 -19.334 -49 -38.001s-12 -39.334 -12 -62.001v-758c0 -140 26.667 -241.167 80 -303.5s134.666 -93.5 243.999 -93.5c106.667 0 199.167 30.833 277.5 92.5s117.5 166.5 117.5 314.5v547
c0 79.333 -3.66699 140.833 -11 184.5s-22.666 74.834 -45.999 93.501c-22.667 18.667 -62 29.667 -118 33s-93.333 6 -112 8v15h574v-15c-17.333 -2 -46.666 -4.66699 -87.999 -8s-73.666 -13.333 -96.999 -30c-23.333 -17.333 -40 -48.833 -50 -94.5
s-15 -107.167 -15 -184.5v-580c0 -176 -53.333 -306.667 -160 -392s-232.334 -128 -377.001 -128z" />
    <glyph glyph-name="V" unicode="V" horiz-adv-x="1452" 
d="M635 -16l-259 671.499l-229 583.5c-14.667 38.667 -29 67.5 -43 86.5s-32.333 31.833 -55 38.5c-17.333 4.66699 -35.166 8.5 -53.499 11.5s-41.5 5.83301 -69.5 8.5v15h860v-15c-73.333 -6.66699 -125.166 -13.5 -155.499 -20.5s-45.833 -17.167 -46.5 -30.5
c-0.666992 -8 0.166016 -17 2.49902 -27s4.83301 -19.333 7.5 -28c34.667 -100.667 89.167 -247.667 163.5 -441l172.5 -440c29.333 65.333 78 188.5 146 369.5l128 343.5c12.667 34 24.667 69.5 36 106.5s17 67.833 17 92.5c0 28.667 -25.333 47.334 -76 56.001
s-103 14.334 -157 17.001v17h500v-17c-22.667 -0.666992 -43.167 -1.83398 -61.5 -3.50098s-36.833 -6.5 -55.5 -14.5c-32.667 -14.667 -57.5 -38.5 -74.5 -71.5s-33.167 -67.833 -48.5 -104.5c-18.667 -44 -92.334 -230.333 -221.001 -559l-250 -645h-178z" />
    <glyph glyph-name="W" unicode="W" horiz-adv-x="2238" 
d="M584 -16l-407.995 1253c-6.66699 21.333 -16.667 43.333 -30 66s-29.333 39.667 -48 51c-18.667 10.667 -41.834 18.167 -69.501 22.5s-50.834 6.83301 -69.501 7.5v15h797v-15c-34.667 -2.66699 -68.667 -8 -102 -16s-50 -23.667 -50 -47c0 -6 2.16699 -16.5 6.5 -31.5
l10.5 -36.5c6 -21.333 44.167 -145.166 114.5 -371.499s122.833 -389.833 157.5 -490.5l237 586c-28.667 100.667 -56.334 183.167 -83.001 247.5s-59 108.166 -97 131.499c-16 10 -34.333 17 -55 21s-40.334 6.33301 -59.001 7v15h811v-15
c-34.667 -2.66699 -73.5 -7.66699 -116.5 -15s-64.5 -23.333 -64.5 -48c0 -6.66699 1 -15.667 3 -27s4.66699 -21.333 8 -30c6 -19.333 45.667 -140.333 119 -363s127.666 -383.667 162.999 -483c28.667 71.333 73.667 192.666 135 363.999s98.333 276 111 314
c15.333 46 26.666 85.833 33.999 119.5s11 59.167 11 76.5c0 36.667 -28.167 60.167 -84.5 70.5s-108.166 17.5 -155.499 21.5v15h500v-15l-53 -5.5c-16.667 -1.66699 -36.334 -8.5 -59 -20.5c-26.667 -14.667 -50.5 -41 -71.5 -79s-39.5 -79.333 -55.5 -124l-429 -1171
h-182l-162.5 495c-77.667 237.333 -127.167 385 -148.5 443l-383 -938h-182z" />
    <glyph glyph-name="X" unicode="X" horiz-adv-x="1606" 
d="M-33 0l-0.00292969 14c28.667 2 54 4.66699 76 8s42.333 9 61 17c38 15.333 72.667 38.333 104 69s59.666 61 84.999 91l172 203.5l170 207.5l-375 586c-18.667 28.667 -41.667 58 -69 88s-59 53.333 -95 70c-18.667 8 -37.834 14.5 -57.501 19.5
s-40.834 8.5 -63.501 10.5v15h951v-15c-82.667 -4.66699 -142.334 -13.834 -179.001 -27.501s-55 -27.5 -55 -41.5c0 -19.333 8 -47.5 24 -84.5s38.667 -78.5 68 -124.5l84 -132c46.667 -73.333 75.334 -117.333 86.001 -132l103 139.5l94 130.5c36 50 65.833 96 89.5 138
s35.5 68.333 35.5 79c0 16.667 -24.167 28.5 -72.5 35.5s-108.166 13.5 -179.499 19.5v15h575v-15c-29.333 -2 -57.166 -5.5 -83.499 -10.5s-48.166 -10.833 -65.499 -17.5c-38.667 -16.667 -74.334 -41.667 -107.001 -75s-59.667 -63.666 -81 -90.999l-155.5 -199.5
l-135.5 -175.5l205 -321c100.667 -160 163.334 -257.667 188.001 -293c23.333 -34 47.5 -64.667 72.5 -92s54.833 -48.666 89.5 -63.999c18.667 -8 37.834 -14.667 57.501 -20s40.834 -9 63.501 -11v-14h-951v14c82.667 5.33301 142.667 14.666 180 27.999s56 27.333 56 42
c0 13.333 -8.66699 37.5 -26 72.5s-41.333 78.5 -72 130.5l-87.5 146c-45 74.667 -76.167 124.334 -93.5 149.001l-100.5 -127c-37.667 -48 -72.167 -94 -103.5 -138l-101.5 -146.5c-33.667 -51 -50.5 -84.5 -50.5 -100.5c0 -15.333 23.833 -26.833 71.5 -34.5
s107.834 -14.834 180.501 -21.501v-14h-582z" />
    <glyph glyph-name="Y" unicode="Y" horiz-adv-x="1483" 
d="M297 0v13.998c28.667 2 60.667 4.66699 96 8s59.333 7 72 11c24.667 8 41 20 49 36s12 35.333 12 58v326c0 44.667 -3.66699 80.167 -11 106.5s-24.666 64.5 -51.999 114.5l-150 274.5c-75.333 138.333 -123.666 225.5 -144.999 261.5c-18.667 30.667 -39 58.667 -61 84
s-44.667 45.333 -68 60c-18.667 10.667 -37.334 18.167 -56.001 22.5s-37.667 6.83301 -57 7.5v15h883v-15c-36 -2 -81.833 -7.5 -137.5 -16.5s-83.5 -23.167 -83.5 -42.5c0 -6.66699 8.33301 -28.667 25 -66s38.334 -81 65.001 -131
c10.667 -21.333 48 -92.166 112 -212.499s115.333 -212.5 154 -276.5c18.667 28.667 55.5 95.667 110.5 201l131.5 250c33.333 64 56.666 114.833 69.999 152.5s20 61.834 20 72.501c0 27.333 -27.833 45 -83.5 53s-106.5 13.333 -152.5 16v15h521v-15l-70.5 -7.5
c-22.333 -2.33301 -41.833 -8.5 -58.5 -18.5c-28.667 -17.333 -53.5 -39 -74.5 -65s-40.167 -54.333 -57.5 -85l-134.5 -239l-143.5 -260c-34.667 -63.333 -55.334 -112.833 -62.001 -148.5s-10 -85.167 -10 -148.5v-281c0 -22.667 4.5 -42.667 13.5 -60
s25.167 -30 48.5 -38c12 -4 36.333 -7.66699 73 -11s67 -6 91 -8v-14h-879z" />
    <glyph glyph-name="Z" unicode="Z" horiz-adv-x="1364" 
d="M-8 0l0.000976562 14.002l872 1360h-243c-56 0 -99.833 -2.16699 -131.5 -6.5s-58.167 -10.833 -79.5 -19.5c-28.667 -12.667 -78.167 -57.834 -148.5 -135.501s-129.5 -152.834 -177.5 -225.501h-18l40 412h1237v-15l-874 -1359h274c110.667 0 187.167 4.5 229.5 13.5
s73.166 24.833 92.499 47.5c40 46 87.667 104.333 143 175s102 136 140 196h16l-47 -457h-1325z" />
    <glyph glyph-name="bracketleft" unicode="[" horiz-adv-x="1182" 
d="M999 -412l-12 3.99805c8.66699 11.333 16.334 25.333 23.001 42s10 33.667 10 51c0 28.667 -12.167 51.834 -36.5 69.501s-75.166 26.5 -152.499 26.5c-103.333 0 -202.166 -7.66699 -296.499 -23s-206.833 -37.666 -337.5 -66.999l-47 -17v1815l47 -16
c130.667 -30 243.167 -52.667 337.5 -68s193.166 -23 296.499 -23c77.333 0 128.166 9 152.499 27s36.5 41.333 36.5 70c0 16.667 -3.33301 33.334 -10 50.001s-14.334 30.667 -23.001 42l12 4c10.667 -8 23.334 -26.667 38.001 -56s22 -62 22 -98
c0 -80 -23 -147.333 -69 -202s-116 -82 -210 -82c-87.333 0 -176.166 31.333 -266.499 94l-286.5 207v-1712l286.5 207c90.333 62.667 179.166 94 266.499 94c94 0 164 -27.333 210 -82s69 -122.334 69 -203.001c0 -36 -7.33301 -68.5 -22 -97.5
s-27.334 -47.833 -38.001 -56.5z" />
    <glyph glyph-name="backslash" unicode="\" horiz-adv-x="836" 
d="M700 -430l-641 1948l76 22l639 -1948z" />
    <glyph glyph-name="bracketright" unicode="]" horiz-adv-x="1182" 
d="M209 -412c-10.667 8.66699 -23.167 27.502 -37.5 56.502s-21.5 61.5 -21.5 97.5c0 80.667 23 148.334 69 203.001s115.667 82 209 82c87.333 0 176.166 -31.333 266.499 -94l286.5 -207v1712l-286.5 -207c-90.333 -62.667 -179.166 -94 -266.499 -94
c-93.333 0 -163 27.333 -209 82s-69 122 -69 202c0 36 7.16699 68.667 21.5 98s26.833 48 37.5 56l12 -4c-8 -11.333 -15.5 -25.333 -22.5 -42s-10.5 -33.334 -10.5 -50.001c0 -28.667 12.167 -52 36.5 -70s75.166 -27 152.499 -27c104 0 203.167 7.66699 297.5 23
s206.833 38 337.5 68l47 16v-1815l-47 17c-130.667 29.333 -243.167 51.666 -337.5 66.999s-193.5 23 -297.5 23c-77.333 0 -128.166 -8.83301 -152.499 -26.5s-36.5 -40.834 -36.5 -69.501c0 -17.333 3.5 -34.333 10.5 -51s14.5 -30.667 22.5 -42z" />
    <glyph glyph-name="asciicircum" unicode="^" horiz-adv-x="938" 
d="M467 1014l-381 -277l-14 13l158.5 269l119.5 195c16.667 24.667 30.5 40.5 41.5 47.5s36.833 10.5 77.5 10.5s66.5 -3.5 77.5 -10.5s24.833 -22.833 41.5 -47.5l119.5 -195l158.5 -269l-14 -13z" />
    <glyph glyph-name="underscore" unicode="_" horiz-adv-x="1229" 
d="M-10 -330v117h1249v-117h-1249z" />
    <glyph glyph-name="grave" unicode="`" 
d="M676 1071c-64 36 -126.167 69.1699 -186.5 99.5029s-107.5 55.166 -141.5 74.499c-44 25.333 -78.5 51.666 -103.5 78.999s-37.5 59.666 -37.5 96.999c0 36.667 13.333 68 40 94s61 39 103 39c40.667 0 76.5 -15.667 107.5 -47s56.833 -67.333 77.5 -108l155 -312z" />
    <glyph glyph-name="a" unicode="a" horiz-adv-x="1155" 
d="M350 -31c-105.333 0 -183.171 20.3359 -233.504 61.0029s-75.5 98.334 -75.5 173.001c0 66.667 16.833 119.667 50.5 159s80.834 69.666 141.501 90.999c50.667 18 125.334 38.833 224.001 62.5s160.667 44.167 186 61.5v187c0 80.667 -10.333 135.334 -31 164.001
s-49.334 43 -86.001 43c-23.333 0 -44.166 -3 -62.499 -9s-32.166 -13.333 -41.499 -22c2.66699 -18.667 10.167 -47.834 22.5 -87.501s18.5 -76.834 18.5 -111.501c0 -24.667 -16.333 -52.334 -49 -83.001s-78.667 -46 -138 -46c-58 0 -99.333 16.833 -124 50.5
s-37 68.834 -37 105.501c0 62 46 115 138 159s188.667 66 290 66c168.667 0 287.667 -26 357 -78s104 -128.333 104 -229c0 -92.667 -2.16699 -191.334 -6.5 -296.001s-6.5 -174 -6.5 -208c0 -24.667 6 -46.834 18 -66.501s30.667 -29.5 56 -29.5
c30.667 0 54.834 19.5 72.501 58.5s26.834 81.5 27.501 127.5h31c-2 -90 -27.167 -162.333 -75.5 -217s-116.833 -82 -205.5 -82c-79.333 0 -138.5 12 -177.5 36s-68.5 56.333 -88.5 97h-6c-33.333 -38 -71.833 -70.333 -115.5 -97s-102.834 -40 -177.501 -40z
M523.995 78.0029c26.667 0 49 5.83105 67 17.498s33.333 26.834 46 45.501l8 408c-78 -29.333 -136 -65.166 -174 -107.499s-57 -102.833 -57 -181.5c0 -60 9.83301 -105.333 29.5 -136s46.5 -46 80.5 -46z" />
    <glyph glyph-name="b" unicode="b" horiz-adv-x="1268" 
d="M127 -33l-21.001 7.99805c3.33301 40.667 6.33301 94.334 9 161.001s4 136.667 4 210v995c0 22.667 -5.16699 45.167 -15.5 67.5s-23.833 38.833 -40.5 49.5c-12 8.66699 -32.5 15.834 -61.5 21.501s-52.167 8.83398 -69.5 9.50098v14l537 25l8 -8v-656l8 -2
c33.333 38 72.333 69.333 117 94s92.334 37 143.001 37c152 0 267.5 -46.833 346.5 -140.5s118.5 -218.167 118.5 -373.5c0 -144 -48.833 -265 -146.5 -363s-225.5 -147 -383.5 -147c-89.333 0 -170 12.667 -242 38s-128 53.666 -168 84.999zM634.999 -8.00195
c64 0 110.999 44.332 140.999 132.999s45 202 45 340c0 133.333 -16.167 238 -48.5 314s-80.833 114 -145.5 114c-32.667 0 -60.5 -5.66699 -83.5 -17s-45.167 -29.666 -66.5 -54.999v-678c11.333 -40 29.333 -75.167 54 -105.5s59.334 -45.5 104.001 -45.5z" />
    <glyph glyph-name="c" unicode="c" horiz-adv-x="973" 
d="M549 -31c-163.333 0 -289.498 44.002 -378.498 132.002s-133.5 220.333 -133.5 397c0 148 52 267.5 156 358.5s237.667 136.5 401 136.5c116 0 202.333 -22.833 259 -68.5s85 -102.5 85 -170.5c0 -40.667 -13.333 -77.167 -40 -109.5s-66 -48.5 -118 -48.5
c-48.667 0 -88.834 12.667 -120.501 38s-47.5 64.666 -47.5 117.999c0 37.333 10.333 70.166 31 98.499s33 49.833 37 64.5c-2.66699 15.333 -11.167 28.5 -25.5 39.5s-33.833 16.5 -58.5 16.5c-48.667 0 -89.834 -40.667 -123.501 -122s-50.5 -196.333 -50.5 -345
c0 -154 22.5 -263.833 67.5 -329.5s103.167 -98.5 174.5 -98.5c69.333 0 127.833 17.667 175.5 53s87.167 82.333 118.5 141l21 -12c-32 -79.333 -84 -147.333 -156 -204s-163.333 -85 -274 -85z" />
    <glyph glyph-name="d" unicode="d" horiz-adv-x="1280" 
d="M512 -25c-130.667 0 -239.162 44.3311 -325.495 132.998s-129.5 211 -129.5 367c0 142.667 50.5 264.667 151.5 366s221.167 152 360.5 152c55.333 0 99.666 -6 132.999 -18s59.333 -22.333 78 -31v391c0 22.667 -4.33301 45.334 -13 68.001s-21.334 39 -38.001 49
c-18.667 12.667 -45.834 21.5 -81.501 26.5s-67.834 8.5 -96.501 10.5v14l577 25l9 -8v-1356c0 -22.667 4.66699 -43.167 14 -61.5s21.666 -32.166 36.999 -41.499c12 -6.66699 30.5 -12.5 55.5 -17.5s46.167 -7.83301 63.5 -8.5v-15l-519 -28l-8 8v98l-8 2
c-33.333 -35.333 -69.5 -65 -108.5 -89s-89.5 -36 -151.5 -36zM635.005 75.998c36 0 63.833 5.33301 83.5 16s40.167 30 61.5 58v675c-8 30.667 -23.667 61.334 -47 92.001s-60 46 -110 46c-59.333 0 -104 -47.333 -134 -142s-45 -209.334 -45 -344.001
c0 -96.667 13 -187.667 39 -273s76.667 -128 152 -128z" />
    <glyph glyph-name="e" unicode="e" horiz-adv-x="1044" 
d="M610 -31c-167.333 0 -304.666 44.5 -411.999 133.5s-161 213.833 -161 374.5c0 152 52 276 156 372s233 144 387 144c141.333 0 249.666 -41 324.999 -123s113 -183.667 113 -305v-12h-580v-59c0 -120.667 21 -221.167 63 -301.5s112.667 -120.5 212 -120.5
c62 0 119.167 14.5 171.5 43.5s96.833 79.167 133.5 150.5l22 -16c-37.333 -77.333 -92.833 -143.5 -166.5 -198.5s-161.5 -82.5 -263.5 -82.5zM438 580l242 4c0 145.333 -8.83301 245.833 -26.5 301.5s-47.167 83.5 -88.5 83.5c-44.667 0 -77 -38 -97 -114
s-30 -167.667 -30 -275z" />
    <glyph glyph-name="f" unicode="f" horiz-adv-x="729" 
d="M27 0v14.001c16.667 0.666992 32.167 1.66699 46.5 3s28.166 4.66602 41.499 9.99902c18.667 6.66699 32.167 17.667 40.5 33s12.5 34.333 12.5 57v813h-197v37h197v26c0 82.667 10.5 155.667 31.5 219s56.833 121.333 107.5 174c42.667 44 99 79 169 105
s142.667 39 218 39c111.333 0 191.5 -23.167 240.5 -69.5s73.5 -93.5 73.5 -141.5c0 -40 -14.667 -76 -44 -108s-68 -48 -116 -48c-44.667 0 -82.5 11.5 -113.5 34.5s-46.5 56.5 -46.5 100.5c0 24 6.33301 50.333 19 79s22 57.667 28 87c0 12.667 -5.5 23.334 -16.5 32.001
s-23.167 13 -36.5 13c-52 0 -91.333 -39.167 -118 -117.5s-40 -183.833 -40 -316.5v-108h250v-37h-248v-805c0 -21.333 4.66699 -40 14 -56s23.333 -27.333 42 -34c14.667 -6 35.834 -10.833 63.501 -14.5s50.167 -5.83398 67.5 -6.50098v-14h-686z" />
    <glyph glyph-name="g" unicode="g" horiz-adv-x="1151" 
d="M547 -467c-173.333 0 -307.503 17.1699 -402.503 51.5029s-142.5 94.166 -142.5 179.499c0 55.333 32 102.5 96 141.5s168 57.5 312 55.5v8c-98 12.667 -173.167 38.167 -225.5 76.5s-78.5 85.833 -78.5 142.5c0 58 29.833 103.333 89.5 136s128.167 51 205.5 55v8
c-112 12.667 -197.333 45.167 -256 97.5s-88 118.166 -88 197.499c0 108 47.333 186.833 142 236.5s210 74.5 346 74.5c80.667 0 147.5 -7.16699 200.5 -21.5s89.833 -27.5 110.5 -39.5c25.333 65.333 55.333 119.5 90 162.5s76.334 64.5 125.001 64.5
c32 0 60.833 -10.667 86.5 -32s38.5 -50.333 38.5 -87c0 -35.333 -10.833 -65 -32.5 -89s-50.5 -36 -86.5 -36c-22.667 0 -47.167 7.16699 -73.5 21.5s-48.166 40.833 -65.499 79.5c-14.667 -4.66699 -27 -17.667 -37 -39s-18 -40.333 -24 -57
c46.667 -26.667 83.834 -59.167 111.501 -97.5s41.5 -85.166 41.5 -140.499c0 -91.333 -45.5 -166 -136.5 -224s-201.167 -87 -330.5 -87h-137c-10 -8.66699 -19.333 -17.834 -28 -27.501s-13 -21.167 -13 -34.5c0 -25.333 14.667 -44 44 -56s78 -19.333 146 -22l302 -10
c63.333 -2.66699 126.833 -28.834 190.5 -78.501s95.5 -123.167 95.5 -220.5c0 -124.667 -55 -220.667 -165 -288s-260.333 -101 -451 -101zM593.997 -443.997c88.667 0 155.501 23.5 200.501 70.5s67.5 106.5 67.5 178.5c0 22.667 -6.83301 46.667 -20.5 72
s-38.834 44.333 -75.501 57c-18.667 3.33301 -62.834 6 -132.501 8s-139.5 3 -209.5 3c-21.333 -11.333 -42.666 -29.5 -63.999 -54.5s-32 -63.5 -32 -115.5c0 -58 22 -109 66 -153s110.667 -66 200 -66zM544.998 389.003c48.667 0 83.001 28.6689 103.001 86.002
s30 125.666 30 204.999c0 81.333 -9.83301 150.166 -29.5 206.499s-54.834 84.5 -105.501 84.5c-50 0 -83.333 -28.333 -100 -85s-25 -123.334 -25 -200.001c0 -89.333 10.667 -161.166 32 -215.499s53 -81.5 95 -81.5z" />
    <glyph glyph-name="h" unicode="h" horiz-adv-x="1325" 
d="M8 0l-0.00488281 13.999c16.667 0.666992 32.334 1.83398 47.001 3.50098s28.334 4.83398 41.001 9.50098c18.667 6 31.5 15 38.5 27s10.5 29.333 10.5 52v1233c0 22.667 -4.16699 44.667 -12.5 66s-21.166 38.333 -38.499 51c-15.333 11.333 -37 19.5 -65 24.5
s-51.333 7.83301 -70 8.5v14l537 25l8 -8v-695h6c36.667 38.667 76.667 76.334 120 113.001s107.666 55 192.999 55c106.667 0 190.334 -29.333 251.001 -88s91 -136.334 91 -233.001v-557c0 -22.667 2.33301 -40.667 7 -54s16.667 -23.333 36 -30
c14.667 -5.33301 29.167 -9 43.5 -11s30.5 -4 48.5 -6v-14h-604v14c13.333 0.666992 26.833 2.16699 40.5 4.5s25.5 5.83301 35.5 10.5c14.667 4.66699 23.5 15.167 26.5 31.5s4.5 35.833 4.5 58.5v559c0 70 -13.667 118.833 -41 146.5s-58.666 41.5 -93.999 41.5
c-46 0 -82.167 -9.33301 -108.5 -28s-44.833 -38.667 -55.5 -60v-661c0 -22.667 1.83301 -40.834 5.5 -54.501s12.167 -23.5 25.5 -29.5c12.667 -6.66699 25.834 -11 39.501 -13l41.5 -6v-14h-608z" />
    <glyph glyph-name="i" unicode="i" horiz-adv-x="670" 
d="M27 0l0.00390625 14c16.667 0.666992 32.167 1.66699 46.5 3s28.166 4.66602 41.499 9.99902c18.667 6.66699 32.167 18 40.5 34s12.5 34.667 12.5 56v694c0 22.667 -4.33301 42.667 -13 60s-21.334 31.333 -38.001 42c-12.667 8.66699 -31.334 15.834 -56.001 21.501
s-46.334 8.83398 -65.001 9.50098v12l522 25l8 -8v-850c0 -21.333 4.66699 -39.833 14 -55.5s23.333 -27.834 42 -36.501c14 -7.33301 28 -11.5 42 -12.5s29.333 -2.5 46 -4.5v-14h-643zM322.004 1135c-58 0 -107.333 19.5 -148 58.5s-61 87.5 -61 145.5
c0 59.333 20.333 108.333 61 147s90 58 148 58s106.833 -19.667 146.5 -59s59.5 -88 59.5 -146s-19.833 -106.5 -59.5 -145.5s-88.5 -58.5 -146.5 -58.5z" />
    <glyph glyph-name="j" unicode="j" horiz-adv-x="668" 
d="M31 -467c-110 0 -182.668 21.168 -218.001 63.501s-53 87.5 -53 135.5c0 36 13.667 69.167 41 99.5s64.333 45.5 111 45.5c40 0 74.5 -11.667 103.5 -35s43.5 -58 43.5 -104c0 -26.667 -5.16699 -54.834 -15.5 -84.501s-22.166 -60.834 -35.499 -93.501
c4.66699 -0.666992 12.167 -1.5 22.5 -2.5s16.5 -1.5 18.5 -1.5c57.333 0 94.833 37.833 112.5 113.5s26.5 183.834 26.5 324.501v803c0 20.667 -4.66699 40.834 -14 60.501s-22.333 35.5 -39 47.5c-12.667 10.667 -34 19.334 -64 26.001s-65.333 11 -106 13v12l574 25l8 -8
v-879c0 -84.667 -12.333 -161.334 -37 -230.001s-61.667 -129 -111 -181c-40 -42.667 -94 -78.334 -162 -107.001s-136.667 -43 -206 -43zM341.999 1135c-58 0 -107.333 19.5 -148 58.5s-61 87.5 -61 145.5c0 59.333 20.333 108.333 61 147s90 58 148 58
s107 -19.667 147 -59s60 -88 60 -146s-20 -106.5 -60 -145.5s-89 -58.5 -147 -58.5z" />
    <glyph glyph-name="k" unicode="k" horiz-adv-x="1233" 
d="M8 0l-0.00585938 13.998c16.667 0.666992 32.334 1.83398 47.001 3.50098s28.334 4.83398 41.001 9.50098c18.667 6 31.5 15 38.5 27s10.5 29.333 10.5 52v1233c0 22.667 -4.16699 45.167 -12.5 67.5s-21.166 38.833 -38.499 49.5c-16.667 10.667 -38.667 18.667 -66 24
s-50.333 8.33301 -69 9v14l537 25l8 -8v-1045l185 170.5c83.333 75 147.333 141.167 192 198.5c10 12.667 16.5 23.834 19.5 33.501s4.5 18.834 4.5 27.501c0 11.333 -11.833 21.333 -35.5 30s-57.5 15 -101.5 19v13h463v-13c-65.333 -8 -116.166 -20.667 -152.499 -38
s-70.166 -37.333 -101.499 -60c-34.667 -24.667 -70.667 -52.667 -108 -84s-69.666 -61.333 -96.999 -90c110 -50 193.833 -137.667 251.5 -263s103.5 -231.666 137.5 -318.999c7.33301 -19.333 17.333 -34.833 30 -46.5s26.667 -19.834 42 -24.501
c15.333 -5.33301 29.166 -9.16602 41.499 -11.499s23.166 -3.5 32.499 -3.5v-14h-500c-18.667 77.333 -53 174.5 -103 291.5s-100.333 175.5 -151 175.5c-8 0 -16.667 -3 -26 -9s-17 -12.667 -23 -20v-321c0 -22.667 1.83301 -40.834 5.5 -54.501s12.167 -23.5 25.5 -29.5
c12.667 -6.66699 28.834 -11.334 48.501 -14.001s36.834 -4.33398 51.501 -5.00098v-14h-627z" />
    <glyph glyph-name="l" unicode="l" horiz-adv-x="649" 
d="M8 0l-0.00488281 13.998c16.667 0.666992 32.334 1.83398 47.001 3.50098s28.334 4.83398 41.001 9.50098c18.667 6 31.5 15 38.5 27s10.5 29.333 10.5 52v1233c0 22.667 -4.16699 45.334 -12.5 68.001s-21.166 39 -38.499 49c-17.333 10.667 -41.5 18.667 -72.5 24
s-55.833 8.33301 -74.5 9v14l549 25l8 -8v-1403c0 -22.667 2.5 -40.834 7.5 -54.501s14.167 -23.5 27.5 -29.5c12.667 -6.66699 29.834 -11 51.501 -13s39.834 -4 54.501 -6v-14h-637z" />
    <glyph glyph-name="m" unicode="m" horiz-adv-x="1980" 
d="M29 0l0.00390625 14.001c16 0.666992 31.333 1.83398 46 3.50098s28.667 4.83398 42 9.50098c18.667 6 31.5 15 38.5 27s10.5 29.333 10.5 52v699c0 26.667 -4 49.167 -12 67.5s-19.667 32.5 -35 42.5c-12.667 8.66699 -29.167 15.5 -49.5 20.5
s-38.833 7.83301 -55.5 8.5v12l500 25l8 -8v-148h6c46 48 91.5 88 136.5 120s110.167 48 195.5 48c64 0 124.167 -16.167 180.5 -48.5s95.166 -76.166 116.499 -131.499c26.667 26.667 67.5 63.334 122.5 110.001s126.167 70 213.5 70
c91.333 0 169.166 -29.833 233.499 -89.5s96.5 -136.834 96.5 -231.501v-551c0 -22.667 1.83301 -40.834 5.5 -54.501s14.834 -24.834 33.501 -33.501c12 -6.66699 26.333 -11 43 -13l51 -6v-14h-600v14c14 0.666992 27.5 2.33398 40.5 5.00098s24.833 6.66699 35.5 12
c12.667 6.66699 20.5 17.667 23.5 33s4.5 34.333 4.5 57v555c0 67.333 -11.333 115.833 -34 145.5s-54.334 44.5 -95.001 44.5c-42.667 0 -77.334 -8 -104.001 -24s-45.334 -34.667 -56.001 -56v-661c0 -22.667 2.33301 -41.5 7 -56.5s14 -26.833 28 -35.5
c10.667 -6.66699 22.5 -11.334 35.5 -14.001s25.833 -4.33398 38.5 -5.00098v-14h-571v14c12.667 0.666992 25.5 2 38.5 4s24.5 6.33301 34.5 13c13.333 6.66699 21.5 17.667 24.5 33s4.5 34.333 4.5 57v555c0 67.333 -10.5 115.833 -31.5 145.5s-50.833 44.5 -89.5 44.5
c-50 0 -87.667 -9.5 -113 -28.5s-43.666 -38.833 -54.999 -59.5v-661c0 -22.667 1.83301 -40.834 5.5 -54.501s12.167 -23.5 25.5 -29.5c13.333 -6.66699 26.666 -11 39.999 -13l42 -6v-14h-606z" />
    <glyph glyph-name="n" unicode="n" horiz-adv-x="1346" 
d="M29 0l-0.00292969 13.999c16 0.666992 31.333 1.83398 46 3.50098s28.667 4.83398 42 9.50098c18.667 6 31.5 15 38.5 27s10.5 29.333 10.5 52v699c0 26.667 -4 49.167 -12 67.5s-19.667 32.5 -35 42.5c-12.667 8.66699 -29.167 15.5 -49.5 20.5
s-38.833 7.83301 -55.5 8.5v12l502 25l8 -8v-148h6c36.667 38.667 76.834 76.334 120.501 113.001s108.167 55 193.5 55c106.667 0 190.334 -29.333 251.001 -88s91 -136.334 91 -233.001v-557c0 -22.667 2.33301 -40.667 7 -54s16.667 -23.333 36 -30
c14 -5.33301 28.167 -9 42.5 -11s30.833 -4 49.5 -6v-14h-604v14c12.667 0.666992 25.834 2.16699 39.501 4.5s25.834 5.83301 36.501 10.5c14 4.66699 22.5 15.167 25.5 31.5s4.5 35.833 4.5 58.5v559c0 70 -13.5 118.833 -40.5 146.5s-58.5 41.5 -94.5 41.5
c-46 0 -82 -9.33301 -108 -28s-44.667 -38.667 -56 -60v-661c0 -22.667 1.83301 -40.834 5.5 -54.501s12.167 -23.5 25.5 -29.5c13.333 -6.66699 26.666 -11 39.999 -13l42 -6v-14h-608z" />
    <glyph glyph-name="o" unicode="o" horiz-adv-x="1217" 
d="M602 -31c-158.667 0 -292.501 46.5 -401.501 139.5s-163.5 217.833 -163.5 374.5c0 160 54.5 285 163.5 375s245.5 135 409.5 135c168.667 0 305.834 -45 411.501 -135s158.5 -213 158.5 -369c0 -160.667 -52.833 -287.5 -158.5 -380.5s-245.5 -139.5 -419.5 -139.5z
M609.999 -8c62.667 0 107.999 38 135.999 114s42 204.667 42 386c0 161.333 -13.833 281.5 -41.5 360.5s-72.5 118.5 -134.5 118.5s-107.833 -38.667 -137.5 -116s-44.5 -197 -44.5 -359c0 -192 14.833 -324 44.5 -396s74.834 -108 135.501 -108z" />
    <glyph glyph-name="p" unicode="p" horiz-adv-x="1282" 
d="M-18 -463v14c21.333 1.33301 42.333 2.83301 63 4.5s37 4.5 49 8.5c19.333 6 32.666 17.833 39.999 35.5s11 37.167 11 58.5v1147c0 26.667 -4 49.167 -12 67.5s-19.667 32.5 -35 42.5c-12 8.66699 -28.167 15.5 -48.5 20.5s-38.833 7.83301 -55.5 8.5v12l502 25l8 -8
v-111l8 -2c30.667 36 70.5 67.167 119.5 93.5s101.167 39.5 156.5 39.5c132.667 0 238.667 -42.333 318 -127s119 -207.334 119 -368.001c0 -158.667 -48.167 -285.5 -144.5 -380.5s-212.833 -142.5 -349.5 -142.5c-56 0 -101 6.33301 -135 19s-62.667 27.667 -86 45h-8
v-371c0 -25.333 4.83301 -45.666 14.5 -60.999s23.834 -26.333 42.501 -33c25.333 -8.66699 50.833 -14 76.5 -16s50.167 -4.33301 73.5 -7v-14h-727zM664 8c62.667 0 107.334 41.5 134.001 124.5s40 196.5 40 340.5c0 134.667 -14.833 238.667 -44.5 312
s-76.5 110 -140.5 110c-36 0 -65 -7 -87 -21s-43.333 -33.667 -64 -59v-659c12 -42.667 31.167 -78 57.5 -106s61.166 -42 104.499 -42z" />
    <glyph glyph-name="q" unicode="q" horiz-adv-x="1272" 
d="M573 -463l0.000976562 14.002c24 2.66699 48.667 5 74 7s50.666 7.33301 75.999 16c18.667 6.66699 32.834 17.667 42.501 33s14.5 35.666 14.5 60.999v430l-8 2c-22.667 -23.333 -53 -50 -91 -80s-89 -45 -153 -45c-136 0 -248.5 42.667 -337.5 128
s-133.5 208 -133.5 368c0 157.333 53.167 283.666 159.5 378.999s237.5 143 393.5 143c77.333 0 153 -8.83301 227 -26.5s132.333 -38.167 175 -61.5l123 119l18 -8c-6 -48.667 -10.167 -105.167 -12.5 -169.5s-3.5 -122.5 -3.5 -174.5v-1014
c0 -21.333 3.66699 -40.833 11 -58.5s20.666 -29.5 39.999 -35.5c12 -4 28.333 -6.83301 49 -8.5s41.667 -3.16699 63 -4.5v-14h-727zM643.001 76.002c29.333 0 56.332 6.66797 80.999 20.001s43.334 32 56.001 56v688c-8 33.333 -22 63.166 -42 89.499s-51 39.5 -93 39.5
c-66 0 -116 -47.167 -150 -141.5s-51 -209.833 -51 -346.5c0 -116 14.333 -212.5 43 -289.5s80.667 -115.5 156 -115.5z" />
    <glyph glyph-name="r" unicode="r" horiz-adv-x="956" 
d="M29 0l0.00195312 13.9971c16 0.666992 31.333 1.83398 46 3.50098s28.667 4.83398 42 9.50098c18.667 6 31.5 15 38.5 27s10.5 29.333 10.5 52v699c0 26.667 -4 49.167 -12 67.5s-19.667 32.5 -35 42.5c-12.667 8.66699 -29.167 15.5 -49.5 20.5
s-38.833 7.83301 -55.5 8.5v12l502 25l8 -8v-148h4c40.667 53.333 82.667 94 126 122s89.666 42 138.999 42c50.667 0 93 -17 127 -51s51 -79 51 -135c0 -48 -14.667 -89.333 -44 -124s-67.333 -52 -114 -52c-44 0 -80.167 11.667 -108.5 35s-42.5 56 -42.5 98
c0 18.667 4.33301 41.334 13 68.001s14.334 46.334 17.001 59.001c-44 -0.666992 -80.833 -13.667 -110.5 -39s-48.834 -45.333 -57.501 -60v-671c0 -22.667 3.66699 -40.834 11 -54.501s17.333 -23.5 30 -29.5c13.333 -6.66699 37.666 -11 72.999 -13s60.333 -4 75 -6v-14
h-684z" />
    <glyph glyph-name="s" unicode="s" horiz-adv-x="903" 
d="M430 -31c-65.333 0 -129.334 10.6699 -192.001 32.0029s-104.334 40 -125.001 56l-58 -69h-14l-10 354h14c40.667 -78.667 95.834 -156.667 165.501 -234s146.167 -116 229.5 -116c64 0 110.167 14 138.5 42s42.5 63 42.5 105c0 46.667 -23.167 84.167 -69.5 112.5
s-121.5 60.5 -225.5 96.5c-68.667 23.333 -130.667 58 -186 104s-83 116.667 -83 212c0 91.333 35.667 165.666 107 222.999s163.333 86 276 86c67.333 0 129.333 -6.16699 186 -18.5s99.334 -24.5 128.001 -36.5l47 57h14l12 -324h-14
c-64 108 -126.167 184.833 -186.5 230.5s-118.833 68.5 -175.5 68.5c-38 0 -70.5 -11.667 -97.5 -35s-40.5 -54 -40.5 -92c0 -52.667 28 -92.834 84 -120.501s123.667 -54.834 203 -81.501c89.333 -30 157.333 -70 204 -120s70 -116.667 70 -200
c0 -112.667 -47.5 -196.167 -142.5 -250.5s-195.5 -81.5 -301.5 -81.5z" />
    <glyph glyph-name="t" unicode="t" horiz-adv-x="762" 
d="M449 -27c-108.667 0 -186.833 26.167 -234.5 78.5s-71.5 123.833 -71.5 214.5v664h-174v37h178v274h355v-274h258v-37h-258v-649c0 -40.667 8.33301 -80 25 -118s48 -57 94 -57c48 0 83 19 105 57s34 79.333 36 124h24c-2 -102.667 -32 -180.667 -90 -234
s-140.333 -80 -247 -80z" />
    <glyph glyph-name="u" unicode="u" horiz-adv-x="1292" 
d="M442 -27c-92.667 0 -166.333 24.9971 -221 74.9971s-82 136.333 -82 259v504c0 21.333 -4.66699 41.333 -14 60s-22.333 33.334 -39 44.001c-12.667 8.66699 -28.334 15.834 -47.001 21.501s-37 8.83398 -55 9.50098v10l512 25l6 -8v-686c0 -66 12.833 -115 38.5 -147
s59.834 -48 102.501 -48c42 0 76.167 9.16699 102.5 27.5s44.833 37.166 55.5 56.499v637c0 20.667 -4 39.834 -12 57.501s-19 31.834 -33 42.501c-10.667 8.66699 -27.334 15.834 -50.001 21.501s-45.667 8.83398 -69 9.50098v12l514 25l8 -8v-811
c0 -22.667 4.83301 -42.334 14.5 -59.001s21.834 -30.667 36.501 -42c12.667 -8.66699 29.167 -15.334 49.5 -20.001s38.166 -7.33398 53.499 -8.00098v-13l-502 -28l-8 8v133h-6c-34.667 -38.667 -81.167 -75 -139.5 -109s-130.166 -51 -215.499 -51z" />
    <glyph glyph-name="v" unicode="v" 
d="M451 -12l-185.502 440.501c-89.667 212.333 -150.834 354.166 -183.501 425.499c-13.333 29.333 -30.666 52.333 -51.999 69s-47.666 27 -78.999 31v13h649v-13c-22.667 -0.666992 -49.167 -4.5 -79.5 -11.5s-45.5 -18.833 -45.5 -35.5c0 -2.66699 1 -7.66699 3 -15
s5 -16.666 9 -27.999l100 -253c53.333 -134.667 94 -232 122 -292l90 236l92 242c4.66699 12.667 9.33398 27.5 14.001 44.5s6.66699 32.833 6 47.5c-2 22.667 -21 38 -57 46s-72.333 14.333 -109 19v13h347v-13c-34.667 -6 -62.667 -15.333 -84 -28
s-40.666 -39.334 -57.999 -80.001l-117 -293.5l-122 -312.5l-45 -123.5c-14.667 -41.667 -28.334 -84.5 -41.001 -128.5h-174z" />
    <glyph glyph-name="w" unicode="w" horiz-adv-x="1608" 
d="M414 -12l-171.003 436.502l-169 427.5c-12.667 30.667 -29.5 54.667 -50.5 72s-47.833 27.333 -80.5 30v13h596v-13c-19.333 -0.666992 -41.333 -4.5 -66 -11.5s-37 -18.833 -37 -35.5c0 -2 1 -6.83301 3 -14.5s5.33301 -17.167 10 -28.5
c6.66699 -21.333 38.167 -106.166 94.5 -254.499l113.5 -302.5l76 162.5c33.333 69.667 55.333 117.834 66 144.501c-6.66699 21.333 -21.5 63.5 -44.5 126.5s-36.833 100.167 -41.5 111.5c-11.333 34.667 -26.666 59.667 -45.999 75s-41.666 24.333 -66.999 27v13h594v-13
c-22.667 -0.666992 -49.167 -4.33398 -79.5 -11.001s-45.5 -19.334 -45.5 -38.001c0 -0.666992 1 -4.83398 3 -12.501s4.33301 -17.167 7 -28.5c9.33301 -29.333 40.333 -112.166 93 -248.499l108 -283.5c14.667 42 44.334 118 89.001 228s76.334 189.667 95.001 239
c5.33301 12 11.166 27.833 17.499 47.5s9.5 33.834 9.5 42.501c0 23.333 -18.333 39.333 -55 48s-76.334 14.334 -119.001 17.001v13h358v-13c-34 -2.66699 -62.5 -9.83398 -85.5 -21.501s-44.167 -39.834 -63.5 -84.501l-129.5 -304l-126.5 -304l-50.5 -124.5
c-16.333 -41 -30.833 -83.5 -43.5 -127.5h-158l-102 287.5l-103 289.5c-4.66699 -8.66699 -28 -57.834 -70 -147.501s-68.333 -148.834 -79 -177.501l-47.5 -123.5c-16.333 -43.667 -30.166 -86.5 -41.499 -128.5h-161z" />
    <glyph glyph-name="x" unicode="x" horiz-adv-x="1067" 
d="M-29 0l-0.00292969 12.0029c52 7.33301 91.333 22.833 118 46.5s50.334 47.167 71.001 70.5l126 148.5c51.333 62.333 88.333 108.5 111 138.5l-143.5 233.5l-132.5 212.5c-23.333 36.667 -48.833 60.667 -76.5 72s-52.834 18 -75.501 20v13h633v-13
c-19.333 0 -42.166 -2.16699 -68.499 -6.5s-41.833 -11.5 -46.5 -21.5c-2 -6.66699 -1.16699 -13.834 2.5 -21.501s7.83398 -15.5 12.501 -23.5c4.66699 -9.33301 27.334 -49.166 68.001 -119.499l89 -151.5l89.5 115.5c46.333 60.333 76.166 99.833 89.499 118.5
c6.66699 10 12.167 20.333 16.5 31s6.16602 19.334 5.49902 26.001c-2 14.667 -19 26.5 -51 35.5s-66.667 14.833 -104 17.5v13h370v-13c-50 -6.66699 -88.833 -20.834 -116.5 -42.501s-52.167 -44.834 -73.5 -69.501c-20.667 -23.333 -55.334 -64.666 -104.001 -123.999
s-83.667 -103.333 -105 -132l146.5 -239.5c83 -135 131.833 -212.833 146.5 -233.5c22.667 -32.667 41.834 -55.667 57.501 -69s40.834 -23.333 75.501 -30v-14h-625v14c22.667 0.666992 49.167 4.5 79.5 11.5s45.5 15.5 45.5 25.5c0 6 -2.33301 14 -7 24l-13 27
c-5.33301 10.667 -30 54.167 -74 130.5s-75.333 129.166 -94 158.499l-99 -125c-53.333 -68 -86.666 -112.333 -99.999 -133c-6.66699 -10 -13.5 -21 -20.5 -33s-10.5 -21.333 -10.5 -28c0 -16.667 17 -29.834 51 -39.501s71 -15.834 111 -18.501v-14h-375z" />
    <glyph glyph-name="y" unicode="y" horiz-adv-x="993" 
d="M137 -467c-35.333 0 -75.166 13.001 -119.499 39.001s-66.5 71.667 -66.5 137c0 36.667 14 70.834 42 102.501s64.333 47.5 109 47.5c28 0 58 -8.83301 90 -26.5s48 -50.5 48 -98.5c0 -22.667 -2.33301 -49 -7 -79s-7.33398 -48 -8.00098 -54
c52 14.667 100.333 54.167 145 118.5s80.334 130.5 107.001 198.5c-23.333 50 -93.833 210.667 -211.5 482l-197.5 454c-12.667 26.667 -29.5 49 -50.5 67s-48.833 29 -83.5 33v13h623v-13c-21.333 -0.666992 -47.5 -4.33398 -78.5 -11.001s-46.5 -18.667 -46.5 -36
c0 -2.66699 1.66699 -8.33398 5 -17.001s6.33301 -17.334 9 -26.001l103 -250.5c60 -146.333 99.667 -241.5 119 -285.5c23.333 52.667 56.5 132.834 99.5 240.501s71.833 181.834 86.5 222.501c6 16.667 11.167 33.667 15.5 51s5.16602 30.333 2.49902 39
c-4.66699 21.333 -23.167 37.666 -55.5 48.999s-74.5 19.333 -126.5 24v13h375v-13c-32 -0.666992 -59 -9.16699 -81 -25.5s-42.667 -46.5 -62 -90.5l-170.5 -386l-182.5 -421c-63.333 -148 -130.333 -268 -201 -360s-147.667 -138 -231 -138z" />
    <glyph glyph-name="z" unicode="z" horiz-adv-x="977" 
d="M29 0v17.999l532 926h-102c-44 0 -80.833 -1.33301 -110.5 -4s-53.834 -8 -72.501 -16c-25.333 -11.333 -55.833 -45.166 -91.5 -101.499l-102.5 -165.5h-16v310h886v-17l-530 -930h108c34.667 0 61.834 1 81.501 3l58.5 6c23.333 2.66699 45.5 12.167 66.5 28.5
s39.833 36.833 56.5 61.5l65 107l74 128h14v-354h-917z" />
    <glyph glyph-name="braceleft" unicode="{" horiz-adv-x="881" 
d="M815 -346c-178 0 -305.165 27.502 -381.498 82.502s-114.5 144.167 -114.5 267.5c0 42 5.5 85.833 16.5 131.5s16.5 89.834 16.5 132.501c0 105.333 -24.333 175.166 -73 209.499s-120.667 53.5 -216 57.5v108c104.667 6 179 26.333 223 61s66 103 66 205
c0 42.667 -5.5 89 -16.5 139s-16.5 92 -16.5 126c0 124 38.167 213.333 114.5 268s203.5 82 381.5 82v-17c-64 0 -107.333 -13.667 -130 -41s-34 -94 -34 -200c0 -40.667 3.16699 -84.834 9.5 -132.501s9.5 -91.834 9.5 -132.501c0 -116.667 -31.833 -200.667 -95.5 -252
s-173.834 -89.333 -330.501 -114v-92c163.333 -26 275.166 -65.5 335.499 -118.5s90.5 -135.833 90.5 -248.5c0 -40.667 -3.16699 -84.667 -9.5 -132s-9.5 -91.333 -9.5 -132c0 -108.667 11.833 -176.167 35.5 -202.5s66.5 -39.5 128.5 -39.5v-16z" />
    <glyph glyph-name="bar" unicode="|" horiz-adv-x="586" 
d="M246 -424v1952h94v-1952h-94z" />
    <glyph glyph-name="braceright" unicode="}" horiz-adv-x="881" 
d="M63 -346v15.9961c63.333 0.666992 106.5 13.5 129.5 38.5s34.5 92.833 34.5 203.5c0 40.667 -3 84.667 -9 132s-9 91.333 -9 132c0 106 26.833 185.833 80.5 239.5s168.834 96.167 345.501 127.5v92c-162.667 26 -274.334 65.333 -335.001 118s-91 135.334 -91 248.001
c0 40.667 3 84.834 9 132.501s9 91.834 9 132.501c0 105.333 -10.833 171.833 -32.5 199.5s-65.5 41.5 -131.5 41.5v17c182.667 0 311 -27.833 385 -83.5s111 -144.5 111 -266.5c0 -38 -5.5 -82.333 -16.5 -133s-16.5 -94.667 -16.5 -132c0 -95.333 20 -161.666 60 -198.999
s116.333 -59.666 229 -66.999v-108c-122 -8.66699 -200.667 -33.5 -236 -74.5s-53 -105.167 -53 -192.5c0 -42.667 5.5 -86.834 16.5 -132.501s16.5 -89.5 16.5 -131.5c0 -130 -40.667 -221.5 -122 -274.5s-206 -78.167 -374 -75.5z" />
    <glyph glyph-name="asciitilde" unicode="~" horiz-adv-x="1106" 
d="M133 391l-20.0029 6c22.667 81.333 56.334 158 101.001 230s105 108 181 108c76.667 0 145.334 -16 206.001 -48s117 -48 169 -48s92.667 8.16699 122 24.5s55.666 46.5 78.999 90.5l20 -6c-24.667 -88 -59.5 -166.333 -104.5 -235s-104.167 -103 -177.5 -103
c-81.333 0 -151.166 16 -209.499 48s-113.5 48 -165.5 48s-92.667 -8.16699 -122 -24.5s-55.666 -46.5 -78.999 -90.5z" />
    <glyph glyph-name="nonbreakingspace" unicode="&#xa0;" horiz-adv-x="201" 
 />
    <glyph glyph-name="exclamdown" unicode="&#xa1;" horiz-adv-x="676" 
d="M349.02 925.028c38.665 -184.655 79.4961 -334.979 122.493 -450.973s64.4961 -221.653 64.4961 -316.98c0 -53.3311 -17.332 -99.1621 -51.9971 -137.493s-83.6621 -57.4961 -146.991 -57.4961s-112.326 19.165 -146.991 57.4961
c-34.6641 38.3311 -51.9961 84.1621 -51.9961 137.493c0 95.3271 21.832 201.487 65.4951 318.48c43.6641 116.993 85.4951 266.817 125.493 449.473h19.998zM337.021 1423c55.3301 0 102.994 -19.165 142.991 -57.4961s59.9961 -85.4951 59.9961 -141.492
s-19.999 -103.161 -59.9961 -141.492s-87.6611 -57.4971 -142.991 -57.4971s-102.994 19.166 -142.991 57.4971s-59.9961 85.4951 -59.9961 141.492s19.999 103.161 59.9961 141.492s87.6611 57.4961 142.991 57.4961z" />
    <glyph glyph-name="cent" unicode="&#xa2;" horiz-adv-x="1010" 
d="M350 -231l-39.001 7.99902l84 358c-104.667 32 -186.167 88.333 -244.5 169s-87.5 185.334 -87.5 314.001s46.333 243.5 139 344.5s218.667 151.5 378 151.5c8 0 15.667 -0.166992 23 -0.5s14.666 -0.833008 21.999 -1.5l61 262l41 -8l-59 -256
c83.333 -11.333 151.5 -37.5 204.5 -78.5s79.5 -90.5 79.5 -148.5c0 -40.667 -11.5 -76.167 -34.5 -106.5s-57.833 -45.5 -104.5 -45.5c-38 0 -70.333 12.167 -97 36.5s-40 55.833 -40 94.5c0 44 6.33301 79 19 105s19.334 48.333 20.001 67
c-2 7.33301 -9.16699 15.166 -21.5 23.499s-23.833 14.833 -34.5 19.5l-178 -747c17.333 -30.667 43.5 -54 78.5 -70s70.5 -24 106.5 -24c69.333 0 126.333 15 171 45s79.667 73.667 105 131l23 -13c-32 -79.333 -82 -147.166 -150 -203.499s-148 -84.5 -240 -84.5
c-20 0 -44.167 1.33301 -72.5 4s-51.166 6 -68.499 10zM452.999 376.999l165 710.002c-4.66699 1.33301 -9.66699 2.16602 -15 2.49902s-10.333 0.5 -15 0.5c-49.333 0 -91.666 -38.667 -126.999 -116s-53 -190.333 -53 -339c0 -48 3.66699 -94.833 11 -140.5
s18.666 -84.834 33.999 -117.501z" />
    <glyph glyph-name="sterling" unicode="&#xa3;" horiz-adv-x="1556" 
d="M106 -201c-87.333 0 -149.005 16.667 -185.005 50s-54 77.666 -54 132.999c0 69.333 36.333 135.333 109 198s162 94 268 94c54.667 0 106.334 -3.83301 155.001 -11.5s95.334 -18.167 140.001 -31.5c0.666992 17.333 -0.5 37.833 -3.5 61.5s-5.5 47.834 -7.5 72.501
h-362v43h358c-2.66699 26.667 -6.16699 57.167 -10.5 91.5s-6.83301 61.833 -7.5 82.5h-328v43h326c-4 235.333 53.667 428.333 173 579s277.333 226 474 226c152.667 0 266 -34.833 340 -104.5s111 -148.167 111 -235.5c0 -97.333 -35.333 -178 -106 -242
s-170.667 -96 -300 -96c-83.333 0 -145.5 21.667 -186.5 65s-61.5 98.666 -61.5 165.999c0 30.667 3.66699 61.167 11 91.5s18 61.833 32 94.5l21 -4c-11.333 -24.667 -20 -49.334 -26 -74.001s-9 -49.667 -9 -75c0 -67.333 16.833 -120 50.5 -158s79.5 -57 137.5 -57
c57.333 0 103.833 22.167 139.5 66.5s53.5 114.833 53.5 211.5c0 85.333 -17 161.333 -51 228s-86.667 100 -158 100c-112.667 0 -188.667 -49.5 -228 -148.5s-59 -244.833 -59 -437.5c0 -29.333 -1.5 -63 -4.5 -101s-6.83301 -69.667 -11.5 -95h336v-43h-344
c-6.66699 -30 -17 -60.167 -31 -90.5s-30.333 -58.166 -49 -83.499h407v-43h-430c-18.667 -28 -40 -55 -64 -81s-47.667 -50.333 -71 -73l257 -100.5c84 -34.333 163.667 -51.5 239 -51.5c124.667 0 205.667 27.333 243 82s61.333 116.334 72 185.001l25 -4
c-14.667 -112.667 -55.167 -224.167 -121.5 -334.5s-187.166 -165.5 -362.499 -165.5c-85.333 0 -169.166 15.833 -251.499 47.5s-159.5 64.167 -231.5 97.5c-42 -48 -95.167 -88 -159.5 -120s-132.166 -48 -203.499 -48zM103.995 -162c62 0 121.831 13.167 179.498 39.5
s107.834 62.5 150.501 108.5c-50.667 22.667 -107.167 43 -169.5 61s-123.166 27 -182.499 27c-50.667 0 -91 -11 -121 -33s-45 -50 -45 -84c0 -36.667 16.333 -65.667 49 -87s79 -32 139 -32z" />
    <glyph glyph-name="yen" unicode="&#xa5;" horiz-adv-x="1212" 
d="M223 0l-0.00195312 13.999c18.667 0.666992 44.667 3.16699 78 7.5s57.333 8.83301 72 13.5c18.667 6 33.834 17.833 45.501 35.5s17.5 37.834 17.5 60.501v174h-309v43h309v152h-309v43h301l-278 526c-16.667 32.667 -34.334 59.667 -53.001 81s-38.667 38 -60 50
c-15.333 9.33301 -32.333 16.333 -51 21s-36.667 7.33398 -54 8.00098v14h736v-14c-30.667 -2 -66 -7 -106 -15s-60 -21.333 -60 -40c0 -12.667 31.667 -80.834 95 -204.501l198 -381.5l193.5 348.5c65.667 120.333 98.5 191.833 98.5 214.5c0 26.667 -18.333 45.667 -55 57
s-74.667 18.333 -114 21v14h399v-14c-44 -7.33301 -81.167 -23.333 -111.5 -48s-56.166 -53.667 -77.499 -87l-151.5 -253l-167.5 -298h317v-43h-321v-152h321v-43h-321v-164c0 -21.333 5.16699 -41 15.5 -59s24.833 -31 43.5 -39c15.333 -6.66699 37.833 -13 67.5 -19
s53.834 -9.33301 72.501 -10v-14h-781z" />
    <glyph glyph-name="brokenbar" unicode="&#xa6;" horiz-adv-x="586" 
d="M246 -424v803h94v-803h-94zM246 745v783h94v-783h-94z" />
    <glyph glyph-name="section" unicode="&#xa7;" horiz-adv-x="1126" 
d="M514 -465c-108.667 0 -186.332 33.167 -232.999 99.5s-70 118.5 -70 156.5c0 50 13.5 94.333 40.5 133s71.5 58 133.5 58c44.667 0 80 -16.5 106 -49.5s39 -65.833 39 -98.5c0 -46 -17 -82.667 -51 -110s-51 -52.666 -51 -75.999c0 -28 8.83301 -49.667 26.5 -65
s40.167 -23 67.5 -23c38 0 70.833 17.5 98.5 52.5s41.5 81.5 41.5 139.5c0 48.667 -14.333 95.5 -43 140.5s-63 90.5 -103 136.5l-120 138.5l-142 166.5c-52 61.333 -88.5 115.166 -109.5 161.499s-31.5 95.5 -31.5 147.5c0 74.667 28.667 138.167 86 190.5
s120.666 87.833 189.999 106.5c-25.333 34 -47 75.167 -65 123.5s-27 96.5 -27 144.5c0 79.333 31.167 149.666 93.5 210.999s154.166 92 275.499 92c108.667 0 184.167 -33.167 226.5 -99.5s63.5 -118.5 63.5 -156.5c0 -50 -13.5 -94.167 -40.5 -132.5
s-71.5 -57.5 -133.5 -57.5c-44.667 0 -80 15.333 -106 46s-39 63 -39 97c0 46 16.333 83.167 49 111.5s49 54.166 49 77.499c0 27.333 -7.5 49.166 -22.5 65.499s-37.5 24.5 -67.5 24.5c-44 0 -78.5 -17.167 -103.5 -51.5s-37.5 -82.166 -37.5 -143.499
c0 -48.667 13.333 -93.5 40 -134.5s62.334 -87.5 107.001 -139.5l122 -141l140 -164c52 -61.333 88.667 -115.833 110 -163.5s32 -96.5 32 -146.5c0 -73.333 -29.333 -135.666 -88 -186.999s-123.667 -85 -195 -101c27.333 -34.667 50.5 -77 69.5 -127s28.5 -100 28.5 -150
c0 -79.333 -29 -149.666 -87 -210.999s-147.667 -92 -269 -92zM754.002 137c31.333 13.333 53.834 33.668 67.501 61.001s20.5 60.333 20.5 99c0 34 -10.333 72 -31 114s-44 78.333 -70 109l-179.5 210l-155.5 185c-30.667 -14.667 -52.834 -34.667 -66.501 -60
s-20.5 -57 -20.5 -95c0 -34 11.5 -73.833 34.5 -119.5s47.167 -83.834 72.5 -114.501l175 -206.5z" />
    <glyph glyph-name="dieresis" unicode="&#xa8;" 
d="M272 1116c-46 0 -85.167 17.667 -117.5 53s-48.5 76.333 -48.5 123s16.167 87.667 48.5 123s71.5 53 117.5 53c44.667 0 83.5 -17.667 116.5 -53s49.5 -76.333 49.5 -123s-16.5 -87.667 -49.5 -123s-71.833 -53 -116.5 -53zM752 1116c-46 0 -85.167 17.667 -117.5 53
s-48.5 76.333 -48.5 123s16.167 87.667 48.5 123s71.5 53 117.5 53c44.667 0 83.5 -17.667 116.5 -53s49.5 -76.333 49.5 -123s-16.5 -87.667 -49.5 -123s-71.833 -53 -116.5 -53z" />
    <glyph glyph-name="copyright" unicode="&#xa9;" horiz-adv-x="1946" 
d="M987 27c-162 0 -287.502 43.166 -376.502 129.499s-133.5 202.833 -133.5 349.5c0 144 45 263 135 357s223.333 141 400 141c50 0 101.5 -8.33301 154.5 -25s84.833 -29 95.5 -37l61 76h16l9 -371h-21c-25.333 75.333 -63.166 149.5 -113.499 222.5
s-114.833 109.5 -193.5 109.5c-65.333 0 -118.166 -40.167 -158.499 -120.5s-60.5 -194.5 -60.5 -342.5c0 -121.333 19 -221.666 57 -300.999s105 -119 201 -119c62 0 119 22.333 171 67s94 99 126 163l22 -13c-35.333 -80 -82.833 -147.667 -142.5 -203
s-142.5 -83 -248.5 -83zM974.998 -371.001c-246.667 0 -457.5 87 -632.5 261s-262.5 382 -262.5 624c0 240 87.167 446.833 261.5 620.5s385.5 260.5 633.5 260.5c245.333 0 455.166 -86.833 629.499 -260.5s261.5 -380.5 261.5 -620.5c0 -242 -87.167 -450 -261.5 -624
s-384.166 -261 -629.499 -261zM974.998 -295.001c220.667 0 408.667 79.167 564 237.5s233 348.833 233 571.5c0 220 -77.667 408.833 -233 566.5s-343.333 236.5 -564 236.5c-222.667 0 -411.834 -78.833 -567.501 -236.5s-233.5 -346.5 -233.5 -566.5
c0 -222.667 77.833 -413.167 233.5 -571.5s344.834 -237.5 567.501 -237.5z" />
    <glyph glyph-name="ordfeminine" unicode="&#xaa;" horiz-adv-x="799" 
d="M260 655c-67.333 0 -114.831 13.335 -142.498 40.002s-41.5 60 -41.5 100c0 46 11.333 80 34 102s49.334 38.333 80.001 49c36.667 13.333 83.167 26.166 139.5 38.499s91.833 24.166 106.5 35.499v108c0 20.667 -3 46.334 -9 77.001s-26 46 -60 46
c-15.333 0 -28.333 -1.83301 -39 -5.5s-19 -7.83398 -25 -12.501c2 -10.667 6.66699 -27.167 14 -49.5s11 -44.166 11 -65.499c0 -14 -9.5 -30.5 -28.5 -49.5s-46.5 -28.5 -82.5 -28.5c-34.667 0 -59.667 10.167 -75 30.5s-23 41.833 -23 64.5c0 42 29.667 75 89 99
s115.666 36 168.999 36c65.333 0 127.666 -10.5 186.999 -31.5s89 -72.167 89 -153.5c0 -56 -1.33301 -114.667 -4 -176s-4 -102.333 -4 -123c0 -14 3.66699 -27 11 -39s18.666 -18 33.999 -18c18.667 0 32.5 11.167 41.5 33.5s13.5 47.5 13.5 75.5h23
c-0.666992 -58 -15 -102.667 -43 -134s-69.667 -47 -125 -47c-50.667 0 -87.667 8.16699 -111 24.5s-39.666 36.166 -48.999 59.499c-18.667 -21.333 -41.334 -41 -68.001 -59s-64 -27 -112 -27zM365.002 725.002c16 0 29.499 3.5 40.499 10.5s19.833 15.833 26.5 26.5
l6 237c-42.667 -16 -76.5 -35.333 -101.5 -58s-37.5 -60 -37.5 -112c0 -35.333 5.83301 -61.5 17.5 -78.5s27.834 -25.5 48.501 -25.5zM88.001 469.002v82h623v-82h-623z" />
    <glyph glyph-name="guillemotleft" unicode="&#xab;" horiz-adv-x="1192" 
d="M633 27l-275 181l-221 148c-22.667 14.667 -37.5 27.334 -44.5 38.001s-10.5 32.334 -10.5 65.001c0 29.333 3.33301 49.666 10 60.999s19.667 23.666 39 36.999l220 149l280 185l14 -12l-260 -420l260 -422zM1085 27l-274 181l-221 148
c-22.667 14.667 -37.5 27.334 -44.5 38.001s-10.5 32.334 -10.5 65.001c0 29.333 3.33301 49.666 10 60.999s19.667 23.666 39 36.999l220 149l279 185l15 -12l-260 -420l260 -422z" />
    <glyph glyph-name="logicalnot" unicode="&#xac;" horiz-adv-x="1167" 
d="M915 80v422h-825v119h959v-541h-134z" />
    <glyph glyph-name="registered" unicode="&#xae;" horiz-adv-x="971" 
d="M684 809c-36.667 0 -64.666 9.66699 -83.999 29s-31 48 -35 86c-4 26.667 -6.66699 53 -8 79s-21 39 -59 39h-6v-174c0 -8 1.33301 -15 4 -21s8 -10.333 16 -13c4 -2.66699 8.66699 -4.5 14 -5.5s11.666 -1.5 18.999 -1.5v-12h-244v12c6 0 14.5 0.833008 25.5 2.5
s17.5 3.16699 19.5 4.5c6.66699 2.66699 11.834 7 15.501 13s5.5 13 5.5 21v355c0 8 -1.5 15.167 -4.5 21.5s-8.5 10.5 -16.5 12.5c-6 3.33301 -13.5 5.66602 -22.5 6.99902s-16.5 2 -22.5 2v12h248c33.333 0 70.666 -6.16699 111.999 -18.5s62 -40.833 62 -85.5
c0 -34 -14.167 -61 -42.5 -81s-70.166 -32 -125.499 -36v-6c44 -6.66699 78 -16.667 102 -30s38.333 -32.666 43 -57.999l17 -78c2.66699 -11.333 6 -19.333 10 -24s8 -7 12 -7c9.33301 0 16.5 3.83301 21.5 11.5s7.5 20.167 7.5 37.5h18
c0 -32.667 -8.33301 -56.5 -25 -71.5s-42.334 -22.5 -77.001 -22.5zM522.001 621c-114.667 0 -211.5 39.5 -290.5 118.5s-118.5 175.833 -118.5 290.5c0 115.333 39.5 212.5 118.5 291.5s175.833 118.5 290.5 118.5c115.333 0 212.5 -39.5 291.5 -118.5
s118.5 -176.167 118.5 -291.5c0 -114.667 -39.5 -211.5 -118.5 -290.5s-176.167 -118.5 -291.5 -118.5zM522.001 662c102.667 0 188.5 35.667 257.5 107s103.5 158.333 103.5 261s-34.5 189.834 -103.5 261.501s-154.833 107.5 -257.5 107.5
s-188.334 -35.833 -257.001 -107.5s-103 -158.834 -103 -261.501s34.333 -189.667 103 -261s154.334 -107 257.001 -107zM492.001 1061h14c30.667 0 51.667 8.33301 63 25s17 41.667 17 75c0 32 -7.33301 57.167 -22 75.5s-34.667 27.5 -60 27.5h-12v-203z" />
    <glyph glyph-name="macron" unicode="&#xaf;" 
d="M174 1157v227h676v-227h-676z" />
    <glyph glyph-name="macron" unicode="&#x2c9;" 
d="M174 1157v227h676v-227h-676z" />
    <glyph glyph-name="degree" unicode="&#xb0;" horiz-adv-x="799" 
d="M395 848c-93.333 0 -171.5 25.1689 -234.5 75.502s-94.5 124.166 -94.5 221.499c0 89.333 33.167 163.166 99.5 221.499s142.833 87.5 229.5 87.5c93.333 0 173 -25 239 -75s99 -127.333 99 -232c0 -83.333 -33 -154 -99 -212s-145.667 -87 -239 -87zM401 868.002
c42.667 0 74.167 27.166 94.5 81.499s30.5 118.833 30.5 193.5c0 78 -9 145.667 -27 203s-52 86 -102 86s-83.667 -29.167 -101 -87.5s-26 -122.166 -26 -191.499c0 -72 8.83301 -137.5 26.5 -196.5s52.5 -88.5 104.5 -88.5z" />
    <glyph glyph-name="twosuperior" unicode="&#xb2;" horiz-adv-x="946" 
d="M115 690l-0.000976562 49.001c88.667 52 164.167 102 226.5 150s114.5 91 156.5 129c50 46 87.333 94.667 112 146s37 107 37 167c0 46 -12.5 87.167 -37.5 123.5s-56.833 54.5 -95.5 54.5c-67.333 0 -121 -28.167 -161 -84.5s-60 -109.833 -60 -160.5
c0 -26.667 6 -51.834 18 -75.501s37.333 -35.5 76 -35.5c38 0 72.5 14.5 103.5 43.5s53.167 54.167 66.5 75.5l10 -8c-17.333 -34.667 -47.666 -75.5 -90.999 -122.5s-102.333 -70.5 -177 -70.5c-70 0 -119.167 15.333 -147.5 46s-42.5 68 -42.5 112
c0 62 36 127.333 108 196s177 103 315 103c109.333 0 194.833 -22.167 256.5 -66.5s92.5 -104.833 92.5 -181.5c0 -92.667 -43.667 -165.667 -131 -219s-204.333 -108 -351 -164l-71 -43h434c36 0 65.667 12.5 89 37.5s47 56.833 71 95.5l12 -6l-119 -291h-700z" />
    <glyph glyph-name="threesuperior" unicode="&#xb3;" horiz-adv-x="956" 
d="M395 680c-80.667 0 -154.331 15.1641 -220.998 45.4971s-100 80.833 -100 151.5c0 42 14.833 77.333 44.5 106s63.834 43 102.501 43c32 0 57.5 -8.16699 76.5 -24.5s28.5 -38.166 28.5 -65.499c0 -40.667 -19.5 -66 -58.5 -76s-58.5 -26.333 -58.5 -49
c0 -25.333 15.5 -50.166 46.5 -74.499s75.5 -36.5 133.5 -36.5c67.333 0 125.833 30 175.5 90s74.5 125 74.5 195c0 42 -9.5 78.5 -28.5 109.5s-47.833 46.5 -86.5 46.5c-26.667 0 -54 -13.167 -82 -39.5s-49.667 -48.166 -65 -65.499l-33 47
c76.667 34.667 143.667 73.834 201 117.501s86 100.167 86 169.5c0 34 -7.66699 65.667 -23 95s-43.333 44 -84 44c-44.667 0 -85.834 -18 -123.501 -54s-56.5 -80 -56.5 -132c0 -24.667 5.16699 -44.834 15.5 -60.501s27.833 -23.5 52.5 -23.5
c26.667 0 48.667 6.83301 66 20.5s32 25.834 44 36.501l13 -10c-18.667 -23.333 -47.334 -49 -86.001 -77s-82 -42 -130 -42c-54 0 -95.333 10.833 -124 32.5s-43 52.5 -43 92.5c0 62 37.833 116.833 113.5 164.5s174.167 71.5 295.5 71.5
c106.667 0 183.167 -16.5 229.5 -49.5s69.5 -76.5 69.5 -130.5c0 -38.667 -24.5 -76.334 -73.5 -113.001s-130.833 -62.667 -245.5 -78c93.333 6.66699 172.666 -3.83301 237.999 -31.5s98 -76.5 98 -146.5c0 -88.667 -46.167 -160.667 -138.5 -216s-206.833 -83 -343.5 -83
z" />
    <glyph glyph-name="acute" unicode="&#xb4;" 
d="M348 1071l-14 15.9971l155 312c20.667 40.667 46.5 76.667 77.5 108s66.833 47 107.5 47c42 0 76.333 -13 103 -39s40 -57.333 40 -94c0 -37.333 -12.5 -69.666 -37.5 -96.999s-59.5 -53.666 -103.5 -78.999c-34 -19.333 -81.167 -44.166 -141.5 -74.499
s-122.5 -63.5 -186.5 -99.5z" />
    <glyph glyph-name="mu" unicode="&#xb5;" horiz-adv-x="1313" 
d="M182 -463c-27.333 0 -51.5039 10.3301 -72.5039 30.9971s-31.5 48 -31.5 82c0 40 7.5 88.167 22.5 144.5s24.5 100.833 28.5 133.5s6.66699 65.334 8 98.001s2 67 2 103v832h363v-699c0 -68 12 -115.667 36 -143s53 -41 87 -41c36 0 71.167 11.167 105.5 33.5
s57.833 43.833 70.5 64.5v785h358v-766c0 -40 6 -67.833 18 -83.5s24.333 -23.5 37 -23.5c38.667 0 67.834 16.333 87.501 49s30.834 68.334 33.501 107.001h25c-6 -95.333 -36 -162.833 -90 -202.5s-115.667 -59.5 -185 -59.5c-74 0 -134.667 13.333 -182 40
s-79.333 65 -96 115h-6c-49.333 -58 -98.166 -98.667 -146.499 -122s-102.5 -35 -162.5 -35c-69.333 0 -128.166 11.833 -176.499 35.5s-90.833 62.834 -127.5 117.501h-4v-106c0 -64 16.833 -127.833 50.5 -191.5s50.5 -123.5 50.5 -179.5
c0 -38.667 -10.167 -68.167 -30.5 -88.5s-44.5 -30.5 -72.5 -30.5z" />
    <glyph glyph-name="mu" unicode="&#x3bc;" horiz-adv-x="1313" 
d="M182 -463c-27.333 0 -51.5039 10.3301 -72.5039 30.9971s-31.5 48 -31.5 82c0 40 7.5 88.167 22.5 144.5s24.5 100.833 28.5 133.5s6.66699 65.334 8 98.001s2 67 2 103v832h363v-699c0 -68 12 -115.667 36 -143s53 -41 87 -41c36 0 71.167 11.167 105.5 33.5
s57.833 43.833 70.5 64.5v785h358v-766c0 -40 6 -67.833 18 -83.5s24.333 -23.5 37 -23.5c38.667 0 67.834 16.333 87.501 49s30.834 68.334 33.501 107.001h25c-6 -95.333 -36 -162.833 -90 -202.5s-115.667 -59.5 -185 -59.5c-74 0 -134.667 13.333 -182 40
s-79.333 65 -96 115h-6c-49.333 -58 -98.166 -98.667 -146.499 -122s-102.5 -35 -162.5 -35c-69.333 0 -128.166 11.833 -176.499 35.5s-90.833 62.834 -127.5 117.501h-4v-106c0 -64 16.833 -127.833 50.5 -191.5s50.5 -123.5 50.5 -179.5
c0 -38.667 -10.167 -68.167 -30.5 -88.5s-44.5 -30.5 -72.5 -30.5z" />
    <glyph glyph-name="paragraph" unicode="&#xb6;" horiz-adv-x="1309" 
d="M653 -256v834.001h-61c-181.333 0 -305.5 47.167 -372.5 141.5s-100.5 182.166 -100.5 263.499c0 76.667 29.333 165.167 88 265.5s176.667 150.5 354 150.5h674v-45h-291v-1610h-57v1610h-176v-1610h-58z" />
    <glyph glyph-name="periodcentered" unicode="&#xb7;" horiz-adv-x="551" 
d="M276 356c-54.667 0 -102 19.167 -142 57.5s-60 85.5 -60 141.5s20 103.167 60 141.5s87.333 57.5 142 57.5c55.333 0 103 -19.167 143 -57.5s60 -85.5 60 -141.5s-20 -103.167 -60 -141.5s-87.667 -57.5 -143 -57.5z" />
    <glyph glyph-name="periodcentered" unicode="&#x2219;" horiz-adv-x="551" 
d="M276 356c-54.667 0 -102 19.167 -142 57.5s-60 85.5 -60 141.5s20 103.167 60 141.5s87.333 57.5 142 57.5c55.333 0 103 -19.167 143 -57.5s60 -85.5 60 -141.5s-20 -103.167 -60 -141.5s-87.667 -57.5 -143 -57.5z" />
    <glyph glyph-name="cedilla" unicode="&#xb8;" 
d="M283 -483l0.00195312 30c65.333 0 126.666 7 183.999 21s86 51.667 86 113c0 31.333 -12.5 53 -37.5 65s-51.5 18 -79.5 18v236h31v-88c83.333 2 156.666 -11 219.999 -39s95 -75 95 -141c0 -88.667 -43 -150.5 -129 -185.5s-209.333 -44.833 -370 -29.5z" />
    <glyph glyph-name="onesuperior" unicode="&#xb9;" horiz-adv-x="737" 
d="M90 694l-0.000976562 13.002c15.333 0.666992 39.833 2.5 73.5 5.5s56.834 6.5 69.501 10.5c13.333 4 25 10.833 35 20.5s15 23.834 15 42.501v646c-7.33301 -0.666992 -16.5 -1.66699 -27.5 -3s-23.833 -2 -38.5 -2c-26.667 0 -56.334 6.66699 -89.001 20
s-63.667 30.666 -93 51.999l6 8c24.667 -8.66699 51.334 -16.167 80.001 -22.5s59.334 -9.5 92.001 -9.5c46 0 100.167 6.66699 162.5 20s105.833 26.333 130.5 39h22c-6 -29.333 -10.167 -63.5 -12.5 -102.5s-3.5 -74.5 -3.5 -106.5v-534
c0 -14.667 4.16699 -27.834 12.5 -39.501s19.833 -19.834 34.5 -24.501c13.333 -4.66699 36.666 -9.16699 69.999 -13.5s56.333 -6.5 69 -6.5v-13h-608z" />
    <glyph glyph-name="ordmasculine" unicode="&#xba;" horiz-adv-x="778" 
d="M385 655c-82.667 0 -159.667 25.165 -231 75.498s-107 128.5 -107 234.5c0 98.667 34 174.167 102 226.5s148.667 78.5 242 78.5c95.333 0 175.833 -26.167 241.5 -78.5s98.5 -127.166 98.5 -224.499s-32.167 -173.666 -96.5 -228.999s-147.5 -83 -249.5 -83z
M391 673.998c46.667 0 76.167 30.499 88.5 91.499s18.5 128.833 18.5 203.5c0 70 -6.33301 134.5 -19 193.5s-42 88.5 -88 88.5c-48 0 -78 -30.333 -90 -91s-18 -123.667 -18 -189c0 -73.333 5.5 -141.166 16.5 -203.499s41.5 -93.5 91.5 -93.5zM78 468.997v82h622v-82h-622
z" />
    <glyph glyph-name="guillemotright" unicode="&#xbb;" horiz-adv-x="1192" 
d="M106 27l-12 10l260 422l-260 420l15 12l279 -185l220 -149c19.333 -13.333 32.333 -25.666 39 -36.999s10 -31.666 10 -60.999c0 -32.667 -3.5 -54.334 -10.5 -65.001s-21.833 -23.334 -44.5 -38.001l-221 -148zM559 27l-12 10l260 422l-260 420l14 12l279.5 -185
l220.5 -149c19.333 -13.333 32.333 -25.666 39 -36.999s10 -31.666 10 -60.999c0 -32.667 -3.5 -54.334 -10.5 -65.001s-21.833 -23.334 -44.5 -38.001l-221 -148z" />
    <glyph glyph-name="onequarter" unicode="&#xbc;" horiz-adv-x="1178" 
d="M444 -465l0.00390625 11.998c13.333 0.666992 31.166 2.33398 53.499 5.00098s38.833 5.33398 49.5 8.00098c12.667 4 23 11.5 31 22.5s12 23.833 12 38.5v172h-434v76l512 508h141v-506h105.5c27.667 0 49.167 6 64.5 18c12.667 9.33301 22.667 24.333 30 45
s11 39.334 11 56.001h12v-322h-12c-0.666992 19.333 -4.33398 39.833 -11.001 61.5s-17.334 38.167 -32.001 49.5c-12.667 8.66699 -32.834 13.167 -60.501 13.5s-63.5 0.5 -107.5 0.5v-164c0 -14 3.16699 -26.833 9.5 -38.5s16.833 -19.834 31.5 -24.501
c10 -4 26 -8 48 -12s40 -6.33301 54 -7v-12h-508zM299.004 693.998l-0.000976562 13.002c15.333 0.666992 39.833 2.5 73.5 5.5s56.834 6.5 69.501 10.5c13.333 4 25 10.833 35 20.5s15 23.834 15 42.501v646c-7.33301 -0.666992 -16.5 -1.66699 -27.5 -3
s-23.833 -2 -38.5 -2c-26.667 0 -56.334 6.66699 -89.001 20s-63.667 30.666 -93 51.999l6 8c24.667 -8.66699 51.334 -16.167 80.001 -22.5s59.334 -9.5 92.001 -9.5c46 0 100.167 6.66699 162.5 20s105.833 26.333 130.5 39h22c-6 -29.333 -10.167 -63.5 -12.5 -102.5
s-3.5 -74.5 -3.5 -106.5v-534c0 -14.667 4.16699 -27.834 12.5 -39.501s19.833 -19.834 34.5 -24.501c13.333 -4.66699 36.666 -9.16699 69.999 -13.5s56.333 -6.5 69 -6.5v-13h-608zM68.0029 487v84h1042v-84h-1042zM203.003 -129h387v385z" />
    <glyph glyph-name="onehalf" unicode="&#xbd;" horiz-adv-x="1178" 
d="M221 -465v49.001c88.667 52 164.167 102 226.5 150s114.5 91 156.5 129c50 46 87.5 94.667 112.5 146s37.5 107 37.5 167c0 46 -12.667 87.167 -38 123.5s-57 54.5 -95 54.5c-67.333 0 -121.166 -28.167 -161.499 -84.5s-60.5 -109.833 -60.5 -160.5
c0 -26.667 6.16699 -51.834 18.5 -75.501s37.833 -35.5 76.5 -35.5c37.333 0 71.666 14.5 102.999 43.5s53.666 54.167 66.999 75.5l10 -8c-17.333 -34.667 -47.833 -75.5 -91.5 -122.5s-102.5 -70.5 -176.5 -70.5c-70.667 0 -120.167 15.333 -148.5 46s-42.5 68 -42.5 112
c0 62 36 127.333 108 196s177.333 103 316 103c108.667 0 193.834 -22.167 255.501 -66.5s92.5 -104.833 92.5 -181.5c0 -92.667 -43.5 -165.667 -130.5 -219s-203.833 -108 -350.5 -164l-72 -43h434c36 0 65.833 12.5 89.5 37.5s47.167 56.833 70.5 95.5l12 -6l-118 -291
h-701zM299 694.001l-0.000976562 13.002c15.333 0.666992 39.833 2.5 73.5 5.5s56.834 6.5 69.501 10.5c13.333 4 25 10.833 35 20.5s15 23.834 15 42.501v646c-7.33301 -0.666992 -16.5 -1.66699 -27.5 -3s-23.833 -2 -38.5 -2c-26.667 0 -56.334 6.66699 -89.001 20
s-63.667 30.666 -93 51.999l6 8c24.667 -8.66699 51.334 -16.167 80.001 -22.5s59.334 -9.5 92.001 -9.5c46 0 100.167 6.66699 162.5 20s105.833 26.333 130.5 39h22c-6 -29.333 -10.167 -63.5 -12.5 -102.5s-3.5 -74.5 -3.5 -106.5v-534
c0 -14.667 4.16699 -27.834 12.5 -39.501s19.833 -19.834 34.5 -24.501c13.333 -4.66699 36.666 -9.16699 69.999 -13.5s56.333 -6.5 69 -6.5v-13h-608zM67.999 487.003v84h1042v-84h-1042z" />
    <glyph glyph-name="threequarters" unicode="&#xbe;" horiz-adv-x="1178" 
d="M500 680c-80.667 0 -154.498 15.165 -221.498 45.498s-100.5 80.833 -100.5 151.5c0 42 15 77.333 45 106s64.333 43 103 43c31.333 0 56.5 -8.16699 75.5 -24.5s28.5 -38.166 28.5 -65.499c0 -40.667 -19.5 -66 -58.5 -76s-58.5 -26.333 -58.5 -49
c0 -25.333 15.667 -50.166 47 -74.499s76 -36.5 134 -36.5c67.333 0 125.666 30 174.999 90s74 125 74 195c0 42 -9.33301 78.5 -28 109.5s-47.334 46.5 -86.001 46.5c-26.667 0 -54.167 -13.167 -82.5 -39.5s-50.166 -48.166 -65.499 -65.499l-32 47
c76 34.667 142.667 73.834 200 117.501s86 100.167 86 169.5c0 34 -7.5 65.667 -22.5 95s-42.833 44 -83.5 44c-44.667 0 -85.834 -18 -123.501 -54s-56.5 -80 -56.5 -132c0 -24.667 5 -44.834 15 -60.501s27.333 -23.5 52 -23.5c26.667 0 48.667 6.83301 66 20.5l45 36.5
l12 -10c-18.667 -23.333 -47.167 -49 -85.5 -77s-81.5 -42 -129.5 -42c-54 0 -95.5 10.833 -124.5 32.5s-43.5 52.5 -43.5 92.5c0 62 38 116.833 114 164.5s174.667 71.5 296 71.5c106.667 0 183.167 -16.5 229.5 -49.5s69.5 -76.5 69.5 -130.5
c0 -38.667 -24.5 -76.334 -73.5 -113.001s-131.167 -62.667 -246.5 -78c94 6.66699 173.5 -3.83301 238.5 -31.5s97.5 -76.5 97.5 -146.5c0 -88.667 -46.167 -160.667 -138.5 -216s-206.5 -83 -342.5 -83zM444.002 -465.002l0.00390625 11.998
c13.333 0.666992 31.166 2.33398 53.499 5.00098s38.833 5.33398 49.5 8.00098c12.667 4 23 11.5 31 22.5s12 23.833 12 38.5v172h-434v76l512 508h141v-506h105.5c27.667 0 49.167 6 64.5 18c12.667 9.33301 22.667 24.333 30 45s11 39.334 11 56.001h12v-322h-12
c-0.666992 19.333 -4.33398 39.833 -11.001 61.5s-17.334 38.167 -32.001 49.5c-12.667 8.66699 -32.834 13.167 -60.501 13.5s-63.5 0.5 -107.5 0.5v-164c0 -14 3.16699 -26.833 9.5 -38.5s16.833 -19.834 31.5 -24.501c10 -4 26 -8 48 -12s40 -6.33301 54 -7v-12h-508z
M68.0059 486.996v84h1042v-84h-1042zM203.006 -129.004h387v385z" />
    <glyph glyph-name="questiondown" unicode="&#xbf;" horiz-adv-x="1114" 
d="M720.025 941.027l10.998 -392.974c-87.3281 -8.66602 -153.99 -37.3311 -199.987 -85.9951c-45.9971 -48.6631 -68.9961 -112.659 -68.9961 -191.988c0 -82.6611 14.332 -150.157 42.9971 -202.487s77.3291 -78.4951 145.991 -78.4951
c33.998 0 63.3301 6.5 87.9951 19.499s44.3301 27.8311 58.9961 44.4961c-18.665 24.665 -35.6641 52.9971 -50.9971 84.9951c-15.332 31.998 -22.998 66.9961 -22.998 104.993c0 57.3301 16.332 102.661 48.9971 135.992s76.6621 49.9961 131.991 49.9961
c61.3301 0 105.994 -17.999 133.992 -53.9961c27.998 -35.998 41.9971 -79.3291 41.9971 -129.992c0 -77.3291 -43.9971 -143.492 -131.991 -198.489c-87.9951 -54.9961 -191.655 -82.4941 -310.981 -82.4941c-162.657 0 -293.315 35.3311 -391.976 105.993
c-98.6611 70.6621 -147.991 169.322 -147.991 295.981c0 133.325 53.9971 239.985 161.99 319.98s249.651 127.659 424.975 142.991l10.999 111.993h23.999zM696.025 1423c54.6631 0 101.993 -19.165 141.99 -57.4961c39.998 -38.3311 59.9971 -85.4951 59.9971 -141.492
s-19.999 -103.161 -59.9971 -141.492c-39.9971 -38.3311 -87.3271 -57.4971 -141.99 -57.4971c-55.3291 0 -102.993 19.166 -142.991 57.4971c-39.9971 38.3311 -59.9961 85.4951 -59.9961 141.492s19.999 103.161 59.9961 141.492
c39.998 38.3311 87.6621 57.4961 142.991 57.4961z" />
    <glyph glyph-name="Agrave" unicode="&#xc0;" horiz-adv-x="1430" 
d="M-74 0v13.9961c18.667 2 38.167 5 58.5 9s39.166 11.333 56.499 22c25.333 16.667 47.5 39.834 66.5 69.501s35.833 61.834 50.5 96.501l233 597.5l238 612.5h186l265 -692.5c128.667 -341.667 202 -534.5 220 -578.5c8.66699 -20.667 19 -40 31 -58
s29.667 -34.333 53 -49c18.667 -11.333 37.5 -18.5 56.5 -21.5s37.167 -5.5 54.5 -7.5v-14h-838v14c34.667 2.66699 78.834 9 132.501 19s80.5 27.667 80.5 53c0 8 -0.833008 16 -2.5 24s-3.5 14.333 -5.5 19l-129 369h-422l-92 -269
c-8.66699 -26.667 -15 -51.167 -19 -73.5s-5 -40.166 -3 -53.499c4.66699 -35.333 37.5 -58.166 98.5 -68.499s108.5 -16.833 142.5 -19.5v-14h-512zM328 536.996h393l-199 516zM862 1462c-64 36 -126.167 69.1699 -186.5 99.5029s-107.5 55.166 -141.5 74.499
c-44 25.333 -78.5 51.666 -103.5 78.999s-37.5 59.666 -37.5 96.999c0 36.667 13.333 68 40 94s61 39 103 39c40.667 0 76.5 -15.667 107.5 -47s56.833 -67.333 77.5 -108l155 -312z" />
    <glyph glyph-name="Aacute" unicode="&#xc1;" horiz-adv-x="1430" 
d="M-74 0v13.9961c18.667 2 38.167 5 58.5 9s39.166 11.333 56.499 22c25.333 16.667 47.5 39.834 66.5 69.501s35.833 61.834 50.5 96.501l233 597.5l238 612.5h186l265 -692.5c128.667 -341.667 202 -534.5 220 -578.5c8.66699 -20.667 19 -40 31 -58
s29.667 -34.333 53 -49c18.667 -11.333 37.5 -18.5 56.5 -21.5s37.167 -5.5 54.5 -7.5v-14h-838v14c34.667 2.66699 78.834 9 132.501 19s80.5 27.667 80.5 53c0 8 -0.833008 16 -2.5 24s-3.5 14.333 -5.5 19l-129 369h-422l-92 -269
c-8.66699 -26.667 -15 -51.167 -19 -73.5s-5 -40.166 -3 -53.499c4.66699 -35.333 37.5 -58.166 98.5 -68.499s108.5 -16.833 142.5 -19.5v-14h-512zM328 536.996h393l-199 516zM534 1462l-14 15.9971l155 312c20.667 40.667 46.5 76.667 77.5 108s66.833 47 107.5 47
c42 0 76.333 -13 103 -39s40 -57.333 40 -94c0 -37.333 -12.5 -69.666 -37.5 -96.999s-59.5 -53.666 -103.5 -78.999c-34 -19.333 -81.167 -44.166 -141.5 -74.499s-122.5 -63.5 -186.5 -99.5z" />
    <glyph glyph-name="Acircumflex" unicode="&#xc2;" horiz-adv-x="1430" 
d="M-74 0v13.9961c18.667 2 38.167 5 58.5 9s39.166 11.333 56.499 22c25.333 16.667 47.5 39.834 66.5 69.501s35.833 61.834 50.5 96.501l233 597.5l238 612.5h186l265 -692.5c128.667 -341.667 202 -534.5 220 -578.5c8.66699 -20.667 19 -40 31 -58
s29.667 -34.333 53 -49c18.667 -11.333 37.5 -18.5 56.5 -21.5s37.167 -5.5 54.5 -7.5v-14h-838v14c34.667 2.66699 78.834 9 132.501 19s80.5 27.667 80.5 53c0 8 -0.833008 16 -2.5 24s-3.5 14.333 -5.5 19l-129 369h-422l-92 -269
c-8.66699 -26.667 -15 -51.167 -19 -73.5s-5 -40.166 -3 -53.499c4.66699 -35.333 37.5 -58.166 98.5 -68.499s108.5 -16.833 142.5 -19.5v-14h-512zM328 536.996h393l-199 516zM1036 1476l-340.001 218l-336 -216l-20 15l131 218.5l106 170.5
c10.667 16.667 24.834 27.667 42.501 33s44.5 8 80.5 8s62.667 -3 80 -9s30.333 -15.333 39 -28l104.5 -166l134.5 -227z" />
    <glyph glyph-name="Atilde" unicode="&#xc3;" horiz-adv-x="1430" 
d="M-74 0v13.9961c18.667 2 38.167 5 58.5 9s39.166 11.333 56.499 22c25.333 16.667 47.5 39.834 66.5 69.501s35.833 61.834 50.5 96.501l233 597.5l238 612.5h186l265 -692.5c128.667 -341.667 202 -534.5 220 -578.5c8.66699 -20.667 19 -40 31 -58
s29.667 -34.333 53 -49c18.667 -11.333 37.5 -18.5 56.5 -21.5s37.167 -5.5 54.5 -7.5v-14h-838v14c34.667 2.66699 78.834 9 132.501 19s80.5 27.667 80.5 53c0 8 -0.833008 16 -2.5 24s-3.5 14.333 -5.5 19l-129 369h-422l-92 -269
c-8.66699 -26.667 -15 -51.167 -19 -73.5s-5 -40.166 -3 -53.499c4.66699 -35.333 37.5 -58.166 98.5 -68.499s108.5 -16.833 142.5 -19.5v-14h-512zM328 536.996h393l-199 516zM317 1501l-27.0049 10c33.333 94.667 76.5 176.667 129.5 246s108.833 104 167.5 104
c59.333 0 117.833 -17.5 175.5 -52.5s107.834 -52.5 150.501 -52.5c34.667 0 66.334 9.66699 95.001 29s52.334 52.333 71.001 99l27 -8c-24 -86.667 -61.167 -167 -111.5 -241s-108.166 -111 -173.499 -111c-58 0 -117.667 17.5 -179 52.5s-111.666 52.5 -150.999 52.5
c-32.667 0 -64.167 -9.83301 -94.5 -29.5s-56.833 -52.5 -79.5 -98.5z" />
    <glyph glyph-name="Adieresis" unicode="&#xc4;" horiz-adv-x="1430" 
d="M-74 0v13.9961c18.667 2 38.167 5 58.5 9s39.166 11.333 56.499 22c25.333 16.667 47.5 39.834 66.5 69.501s35.833 61.834 50.5 96.501l233 597.5l238 612.5h186l265 -692.5c128.667 -341.667 202 -534.5 220 -578.5c8.66699 -20.667 19 -40 31 -58
s29.667 -34.333 53 -49c18.667 -11.333 37.5 -18.5 56.5 -21.5s37.167 -5.5 54.5 -7.5v-14h-838v14c34.667 2.66699 78.834 9 132.501 19s80.5 27.667 80.5 53c0 8 -0.833008 16 -2.5 24s-3.5 14.333 -5.5 19l-129 369h-422l-92 -269
c-8.66699 -26.667 -15 -51.167 -19 -73.5s-5 -40.166 -3 -53.499c4.66699 -35.333 37.5 -58.166 98.5 -68.499s108.5 -16.833 142.5 -19.5v-14h-512zM328 536.996h393l-199 516zM458 1507c-46 0 -85.167 17.667 -117.5 53s-48.5 76.333 -48.5 123s16.167 87.667 48.5 123
s71.5 53 117.5 53c44.667 0 83.5 -17.667 116.5 -53s49.5 -76.333 49.5 -123s-16.5 -87.667 -49.5 -123s-71.833 -53 -116.5 -53zM938 1507c-46 0 -85.167 17.667 -117.5 53s-48.5 76.333 -48.5 123s16.167 87.667 48.5 123s71.5 53 117.5 53
c44.667 0 83.5 -17.667 116.5 -53s49.5 -76.333 49.5 -123s-16.5 -87.667 -49.5 -123s-71.833 -53 -116.5 -53z" />
    <glyph glyph-name="Aring" unicode="&#xc5;" horiz-adv-x="1430" 
d="M-74 0v13.9961c18.667 2 38.167 5 58.5 9s39.166 11.333 56.499 22c25.333 16.667 47.5 39.834 66.5 69.501s35.833 61.834 50.5 96.501l233 597.5l238 612.5h186l265 -692.5c128.667 -341.667 202 -534.5 220 -578.5c8.66699 -20.667 19 -40 31 -58
s29.667 -34.333 53 -49c18.667 -11.333 37.5 -18.5 56.5 -21.5s37.167 -5.5 54.5 -7.5v-14h-838v14c34.667 2.66699 78.834 9 132.501 19s80.5 27.667 80.5 53c0 8 -0.833008 16 -2.5 24s-3.5 14.333 -5.5 19l-129 369h-422l-92 -269
c-8.66699 -26.667 -15 -51.167 -19 -73.5s-5 -40.166 -3 -53.499c4.66699 -35.333 37.5 -58.166 98.5 -68.499s108.5 -16.833 142.5 -19.5v-14h-512zM328 536.996h393l-199 516zM710 1466c-79.333 0 -146.667 20 -202 60s-83 93 -83 159c0 65.333 29.5 118.166 88.5 158.499
s124.5 60.5 196.5 60.5c75.333 0 141.666 -20 198.999 -60s86 -93 86 -159c0 -63.333 -27.667 -115.666 -83 -156.999s-122.666 -62 -201.999 -62zM709.999 1495c36 0 61.333 18 76 54s22 81.333 22 136c0 53.333 -7.33301 98.5 -22 135.5s-40 55.5 -76 55.5
c-34.667 0 -59.667 -17.833 -75 -53.5s-23 -81.5 -23 -137.5c0 -54 7.33301 -99.167 22 -135.5s40 -54.5 76 -54.5z" />
    <glyph glyph-name="AE" unicode="&#xc6;" horiz-adv-x="2120" 
d="M-74 0l0.00292969 9.99902c19.333 0.666992 42 4.83398 68 12.501s48.333 16.5 67 26.5c36 18.667 72.333 55.834 109 111.501s73 114.167 109 175.5l598 1030c-17.333 6 -49.5 10.333 -96.5 13s-81.167 4.33398 -102.5 5.00098v15h1290v-367h-22
c-34.667 65.333 -80.834 134.166 -138.501 206.499s-113.5 114.166 -167.5 125.499c-24.667 4.66699 -48.834 7.5 -72.501 8.5s-51.167 1.5 -82.5 1.5h-121v-637h72c56 0 96.667 6.66699 122 20s44.666 26.666 57.999 39.999c21.333 21.333 44 52.833 68 94.5
s41.667 81.834 53 120.501h22v-584h-22c-11.333 40 -30 82.833 -56 128.5s-47.667 77.834 -65 96.501c-14.667 15.333 -34.834 29.166 -60.501 41.499s-65.5 18.5 -119.5 18.5h-72v-535c0 -68 9.16699 -110.5 27.5 -127.5s61.166 -25.5 128.499 -25.5
c56 0 105.833 2 149.5 6s77.834 18.333 102.501 43c41.333 40.667 86.333 92.5 135 155.5s97 129.167 145 198.5h21l-27 -428h-1329v14c28.667 2 59.667 4.66699 93 8s56.333 7 69 11c24.667 8 41 20 49 36s12 35.333 12 58v475h-457l-207 -366
c-20 -36 -31.667 -62.833 -35 -80.5s-5 -32.5 -5 -44.5c0 -34 28.333 -58.167 85 -72.5s101.334 -22.5 134.001 -24.5v-14h-529zM504.003 640.999h436v721h-25l-169 -292.5z" />
    <glyph glyph-name="Ccedilla" unicode="&#xc7;" horiz-adv-x="1421" 
d="M518 -483v29.999c65.333 0 126.666 7 183.999 21s86 51.667 86 113c0 31.333 -12.5 53 -37.5 65s-51.167 18 -78.5 18v213c-191.333 26 -344 100.667 -458 224s-171 284.333 -171 483c0 240.667 75.833 425.5 227.5 554.5s346.167 193.5 583.5 193.5
c79.333 0 153.833 -9.16699 223.5 -27.5s126.834 -39.5 171.501 -63.5l66 76h24l9 -524h-25c-67.333 150.667 -138.333 274 -213 370s-156.667 144 -246 144c-118.667 0 -208 -62 -268 -186s-90 -291.333 -90 -502c0 -227.333 36 -396.166 108 -506.499
s167 -165.5 285 -165.5c104.667 0 197.5 30.833 278.5 92.5s148.5 141.5 202.5 239.5l23 -12c-44.667 -108 -115 -201.667 -211 -281s-218.333 -119 -367 -119c-21.333 0 -42.333 0.5 -63 1.5s-40.667 2.5 -60 4.5v-61c83.333 2 156.833 -11 220.5 -39s95.5 -75 95.5 -141
c0 -88.667 -43 -150.5 -129 -185.5s-209.667 -44.833 -371 -29.5z" />
    <glyph glyph-name="Egrave" unicode="&#xc8;" horiz-adv-x="1421" 
d="M18 0v14.002c28.667 2 59.834 4.66699 93.501 8s56.5 7 68.5 11c24.667 8 41.167 20 49.5 36s12.5 35.333 12.5 58v1137c0 22.667 -4.16699 43 -12.5 61s-24.833 31 -49.5 39c-16.667 4.66699 -41.334 8.66699 -74.001 12s-62 6 -88 8v15h1252v-367h-23
c-34 65.333 -79.833 134.166 -137.5 206.499s-113.5 114.166 -167.5 125.499c-24.667 4.66699 -48.834 7.5 -72.501 8.5s-51.5 1.5 -83.5 1.5h-120v-637h71c56 0 96.833 6.66699 122.5 20s45.167 26.666 58.5 39.999c21.333 21.333 44 52.833 68 94.5
s41.333 81.834 52 120.501h23v-584h-23c-10.667 40 -29.167 82.833 -55.5 128.5s-47.833 77.834 -64.5 96.501c-14.667 15.333 -35 29.166 -61 41.499s-66 18.5 -120 18.5h-71v-535c0 -68 9 -110.5 27 -127.5s60.667 -25.5 128 -25.5c56 0 105.833 2 149.5 6
s77.834 18.333 102.501 43c42 40.667 87.333 92.5 136 155.5s97 129.167 145 198.5h20l-26 -428h-1330zM929 1462c-64 36 -126.167 69.1699 -186.5 99.5029s-107.5 55.166 -141.5 74.499c-44 25.333 -78.5 51.666 -103.5 78.999s-37.5 59.666 -37.5 96.999
c0 36.667 13.333 68 40 94s61 39 103 39c40.667 0 76.5 -15.667 107.5 -47s56.833 -67.333 77.5 -108l155 -312z" />
    <glyph glyph-name="Eacute" unicode="&#xc9;" horiz-adv-x="1421" 
d="M18 0v14.002c28.667 2 59.834 4.66699 93.501 8s56.5 7 68.5 11c24.667 8 41.167 20 49.5 36s12.5 35.333 12.5 58v1137c0 22.667 -4.16699 43 -12.5 61s-24.833 31 -49.5 39c-16.667 4.66699 -41.334 8.66699 -74.001 12s-62 6 -88 8v15h1252v-367h-23
c-34 65.333 -79.833 134.166 -137.5 206.499s-113.5 114.166 -167.5 125.499c-24.667 4.66699 -48.834 7.5 -72.501 8.5s-51.5 1.5 -83.5 1.5h-120v-637h71c56 0 96.833 6.66699 122.5 20s45.167 26.666 58.5 39.999c21.333 21.333 44 52.833 68 94.5
s41.333 81.834 52 120.501h23v-584h-23c-10.667 40 -29.167 82.833 -55.5 128.5s-47.833 77.834 -64.5 96.501c-14.667 15.333 -35 29.166 -61 41.499s-66 18.5 -120 18.5h-71v-535c0 -68 9 -110.5 27 -127.5s60.667 -25.5 128 -25.5c56 0 105.833 2 149.5 6
s77.834 18.333 102.501 43c42 40.667 87.333 92.5 136 155.5s97 129.167 145 198.5h20l-26 -428h-1330zM550 1462l-14 15.9971l155 312c20.667 40.667 46.5 76.667 77.5 108s66.833 47 107.5 47c42 0 76.333 -13 103 -39s40 -57.333 40 -94
c0 -37.333 -12.5 -69.666 -37.5 -96.999s-59.5 -53.666 -103.5 -78.999c-34 -19.333 -81.167 -44.166 -141.5 -74.499s-122.5 -63.5 -186.5 -99.5z" />
    <glyph glyph-name="Ecircumflex" unicode="&#xca;" horiz-adv-x="1421" 
d="M18 0v14.002c28.667 2 59.834 4.66699 93.501 8s56.5 7 68.5 11c24.667 8 41.167 20 49.5 36s12.5 35.333 12.5 58v1137c0 22.667 -4.16699 43 -12.5 61s-24.833 31 -49.5 39c-16.667 4.66699 -41.334 8.66699 -74.001 12s-62 6 -88 8v15h1252v-367h-23
c-34 65.333 -79.833 134.166 -137.5 206.499s-113.5 114.166 -167.5 125.499c-24.667 4.66699 -48.834 7.5 -72.501 8.5s-51.5 1.5 -83.5 1.5h-120v-637h71c56 0 96.833 6.66699 122.5 20s45.167 26.666 58.5 39.999c21.333 21.333 44 52.833 68 94.5
s41.333 81.834 52 120.501h23v-584h-23c-10.667 40 -29.167 82.833 -55.5 128.5s-47.833 77.834 -64.5 96.501c-14.667 15.333 -35 29.166 -61 41.499s-66 18.5 -120 18.5h-71v-535c0 -68 9 -110.5 27 -127.5s60.667 -25.5 128 -25.5c56 0 105.833 2 149.5 6
s77.834 18.333 102.501 43c42 40.667 87.333 92.5 136 155.5s97 129.167 145 198.5h20l-26 -428h-1330zM1052 1476l-340.001 218l-336 -216l-20 15l131 218.5l106 170.5c10.667 16.667 24.834 27.667 42.501 33s44.5 8 80.5 8s62.667 -3 80 -9s30.333 -15.333 39 -28
l104.5 -166l134.5 -227z" />
    <glyph glyph-name="Edieresis" unicode="&#xcb;" horiz-adv-x="1421" 
d="M18 0v14.002c28.667 2 59.834 4.66699 93.501 8s56.5 7 68.5 11c24.667 8 41.167 20 49.5 36s12.5 35.333 12.5 58v1137c0 22.667 -4.16699 43 -12.5 61s-24.833 31 -49.5 39c-16.667 4.66699 -41.334 8.66699 -74.001 12s-62 6 -88 8v15h1252v-367h-23
c-34 65.333 -79.833 134.166 -137.5 206.499s-113.5 114.166 -167.5 125.499c-24.667 4.66699 -48.834 7.5 -72.501 8.5s-51.5 1.5 -83.5 1.5h-120v-637h71c56 0 96.833 6.66699 122.5 20s45.167 26.666 58.5 39.999c21.333 21.333 44 52.833 68 94.5
s41.333 81.834 52 120.501h23v-584h-23c-10.667 40 -29.167 82.833 -55.5 128.5s-47.833 77.834 -64.5 96.501c-14.667 15.333 -35 29.166 -61 41.499s-66 18.5 -120 18.5h-71v-535c0 -68 9 -110.5 27 -127.5s60.667 -25.5 128 -25.5c56 0 105.833 2 149.5 6
s77.834 18.333 102.501 43c42 40.667 87.333 92.5 136 155.5s97 129.167 145 198.5h20l-26 -428h-1330zM480 1507c-46 0 -85.167 17.667 -117.5 53s-48.5 76.333 -48.5 123s16.167 87.667 48.5 123s71.5 53 117.5 53c44.667 0 83.5 -17.667 116.5 -53
s49.5 -76.333 49.5 -123s-16.5 -87.667 -49.5 -123s-71.833 -53 -116.5 -53zM960 1507c-46 0 -85.167 17.667 -117.5 53s-48.5 76.333 -48.5 123s16.167 87.667 48.5 123s71.5 53 117.5 53c44.667 0 83.5 -17.667 116.5 -53s49.5 -76.333 49.5 -123
s-16.5 -87.667 -49.5 -123s-71.833 -53 -116.5 -53z" />
    <glyph glyph-name="Igrave" unicode="&#xcc;" horiz-adv-x="915" 
d="M23 0v14.0029c28.667 2 59.667 4.66699 93 8s56 7 68 11c24.667 8 41.167 20 49.5 36s12.5 35.333 12.5 58v1137c0 22.667 -4.16699 43 -12.5 61s-24.833 31 -49.5 39c-16 4.66699 -40.5 8.66699 -73.5 12s-62.167 6 -87.5 8v15h870v-15
c-17.333 -2 -44.333 -4.33301 -81 -7s-63.667 -6.33398 -81 -11.001c-24.667 -6.66699 -41 -19.334 -49 -38.001s-12 -39.334 -12 -62.001v-1135c0 -22.667 4.33301 -42.667 13 -60s24.667 -30 48 -38c12.667 -4 37 -7.66699 73 -11l89 -8v-14h-870zM642 1462
c-64 36 -126.167 69.1699 -186.5 99.5029s-107.5 55.166 -141.5 74.499c-44 25.333 -78.5 51.666 -103.5 78.999s-37.5 59.666 -37.5 96.999c0 36.667 13.333 68 40 94s61 39 103 39c40.667 0 76.5 -15.667 107.5 -47s56.833 -67.333 77.5 -108l155 -312z" />
    <glyph glyph-name="Iacute" unicode="&#xcd;" horiz-adv-x="915" 
d="M23 0v14.0029c28.667 2 59.667 4.66699 93 8s56 7 68 11c24.667 8 41.167 20 49.5 36s12.5 35.333 12.5 58v1137c0 22.667 -4.16699 43 -12.5 61s-24.833 31 -49.5 39c-16 4.66699 -40.5 8.66699 -73.5 12s-62.167 6 -87.5 8v15h870v-15
c-17.333 -2 -44.333 -4.33301 -81 -7s-63.667 -6.33398 -81 -11.001c-24.667 -6.66699 -41 -19.334 -49 -38.001s-12 -39.334 -12 -62.001v-1135c0 -22.667 4.33301 -42.667 13 -60s24.667 -30 48 -38c12.667 -4 37 -7.66699 73 -11l89 -8v-14h-870zM289 1462l-14 15.9971
l155 312c20.667 40.667 46.5 76.667 77.5 108s66.833 47 107.5 47c42 0 76.333 -13 103 -39s40 -57.333 40 -94c0 -37.333 -12.5 -69.666 -37.5 -96.999s-59.5 -53.666 -103.5 -78.999c-34 -19.333 -81.167 -44.166 -141.5 -74.499s-122.5 -63.5 -186.5 -99.5z" />
    <glyph glyph-name="Icircumflex" unicode="&#xce;" horiz-adv-x="915" 
d="M23 0v14.0029c28.667 2 59.667 4.66699 93 8s56 7 68 11c24.667 8 41.167 20 49.5 36s12.5 35.333 12.5 58v1137c0 22.667 -4.16699 43 -12.5 61s-24.833 31 -49.5 39c-16 4.66699 -40.5 8.66699 -73.5 12s-62.167 6 -87.5 8v15h870v-15
c-17.333 -2 -44.333 -4.33301 -81 -7s-63.667 -6.33398 -81 -11.001c-24.667 -6.66699 -41 -19.334 -49 -38.001s-12 -39.334 -12 -62.001v-1135c0 -22.667 4.33301 -42.667 13 -60s24.667 -30 48 -38c12.667 -4 37 -7.66699 73 -11l89 -8v-14h-870zM793 1476l-340.001 218
l-336 -216l-20 15l131 218.5l106 170.5c10.667 16.667 24.834 27.667 42.501 33s44.5 8 80.5 8s62.667 -3 80 -9s30.333 -15.333 39 -28l104.5 -166l134.5 -227z" />
    <glyph glyph-name="Idieresis" unicode="&#xcf;" horiz-adv-x="915" 
d="M23 0v14.0029c28.667 2 59.667 4.66699 93 8s56 7 68 11c24.667 8 41.167 20 49.5 36s12.5 35.333 12.5 58v1137c0 22.667 -4.16699 43 -12.5 61s-24.833 31 -49.5 39c-16 4.66699 -40.5 8.66699 -73.5 12s-62.167 6 -87.5 8v15h870v-15
c-17.333 -2 -44.333 -4.33301 -81 -7s-63.667 -6.33398 -81 -11.001c-24.667 -6.66699 -41 -19.334 -49 -38.001s-12 -39.334 -12 -62.001v-1135c0 -22.667 4.33301 -42.667 13 -60s24.667 -30 48 -38c12.667 -4 37 -7.66699 73 -11l89 -8v-14h-870zM217 1507
c-46 0 -85.167 17.667 -117.5 53s-48.5 76.333 -48.5 123s16.167 87.667 48.5 123s71.5 53 117.5 53c44.667 0 83.5 -17.667 116.5 -53s49.5 -76.333 49.5 -123s-16.5 -87.667 -49.5 -123s-71.833 -53 -116.5 -53zM697 1507c-46 0 -85.167 17.667 -117.5 53
s-48.5 76.333 -48.5 123s16.167 87.667 48.5 123s71.5 53 117.5 53c44.667 0 83.5 -17.667 116.5 -53s49.5 -76.333 49.5 -123s-16.5 -87.667 -49.5 -123s-71.833 -53 -116.5 -53z" />
    <glyph glyph-name="Eth" unicode="&#xd0;" horiz-adv-x="1638" 
d="M18 0v13.999c28.667 2 59.834 4.66699 93.501 8s56.5 7 68.5 11c24.667 8 41.167 20 49.5 36s12.5 35.333 12.5 58v567h-144v68h144v502c0 22.667 -4.16699 43 -12.5 61s-24.833 31 -49.5 39c-16.667 4.66699 -41.334 8.66699 -74.001 12s-62 6 -88 8v15h801
c216.667 0 400.167 -61.333 550.5 -184s225.5 -297.667 225.5 -525c0 -217.333 -77 -386.666 -231 -507.999s-348.667 -182 -584 -182h-762zM778 22.999c123.333 0 212.833 60.668 268.5 182.001s83.5 283.666 83.5 486.999c0 206 -33 371.5 -99 496.5
s-166 187.5 -300 187.5c-8.66699 0 -20.167 -0.5 -34.5 -1.5s-24.5 -1.83301 -30.5 -2.5v-610h221v-68h-221v-530c0 -44 8.16699 -78.5 24.5 -103.5s45.5 -37.5 87.5 -37.5z" />
    <glyph glyph-name="Ntilde" unicode="&#xd1;" horiz-adv-x="1597" 
d="M1169 -6l-890 1151v-811c0 -79.333 3.66699 -140.833 11 -184.5s22.666 -75.167 45.999 -94.5c22.667 -18.667 61.834 -29.667 117.501 -33s92.834 -6 111.501 -8v-14h-573v14c17.333 2 46.5 4.66699 87.5 8s73.167 13.666 96.5 30.999s40.166 48.833 50.499 94.5
s15.5 107.167 15.5 184.5v811c0 31.333 -5 60.5 -15 87.5s-26.333 51.833 -49 74.5c-21.333 21.333 -48.666 39.166 -81.999 53.499s-70 22.833 -110 25.5v15h592l735 -940v606c0 79.333 -3.66699 140.833 -11 184.5s-23 74.834 -47 93.501
c-22.667 18.667 -61.834 29.667 -117.501 33s-92.834 6 -111.501 8v15h573v-15c-16.667 -2 -45.667 -4.66699 -87 -8s-73.666 -13.333 -96.999 -30c-23.333 -17.333 -40 -48.833 -50 -94.5s-15 -107.167 -15 -184.5v-1073h-181zM460 1501l-27.0049 10
c33.333 94.667 76.5 176.667 129.5 246s108.833 104 167.5 104c59.333 0 117.833 -17.5 175.5 -52.5s107.834 -52.5 150.501 -52.5c34.667 0 66.334 9.66699 95.001 29s52.334 52.333 71.001 99l27 -8c-24 -86.667 -61.167 -167 -111.5 -241s-108.166 -111 -173.499 -111
c-58 0 -117.667 17.5 -179 52.5s-111.666 52.5 -150.999 52.5c-32.667 0 -64.167 -9.83301 -94.5 -29.5s-56.833 -52.5 -79.5 -98.5z" />
    <glyph glyph-name="Ograve" unicode="&#xd2;" horiz-adv-x="1636" 
d="M811 -33c-108 0 -208.166 16.3301 -300.499 48.9971s-171.833 80 -238.5 142c-66 62 -120.667 137.667 -164 227s-65 189 -65 299c0 122.667 23.5 231.834 70.5 327.501s106.833 175.5 179.5 239.5c65.333 58 142.666 102.667 231.999 134s187.333 47 294 47
c106 0 204.833 -15.167 296.5 -45.5s170.5 -75.5 236.5 -135.5c68 -62 125.167 -138.667 171.5 -230s69.5 -195.333 69.5 -312c0 -113.333 -22.333 -219.166 -67 -317.499s-104 -181.166 -178 -248.499c-64 -58 -140.5 -101.833 -229.5 -131.5s-191.5 -44.5 -307.5 -44.5z
M819.001 -8.00293c116.667 0 196.999 67.6689 240.999 203.002s66 304.333 66 507c0 179.333 -20 341.666 -60 486.999s-122.333 218 -247 218c-106 0 -184 -62.667 -234 -188s-75 -300.333 -75 -525c0 -196.667 22.333 -362.834 67 -498.501s125.334 -203.5 242.001 -203.5
zM1003 1462c-64 36 -126.167 69.1699 -186.5 99.5029s-107.5 55.166 -141.5 74.499c-44 25.333 -78.5 51.666 -103.5 78.999s-37.5 59.666 -37.5 96.999c0 36.667 13.333 68 40 94s61 39 103 39c40.667 0 76.5 -15.667 107.5 -47s56.833 -67.333 77.5 -108l155 -312z" />
    <glyph glyph-name="Oacute" unicode="&#xd3;" horiz-adv-x="1636" 
d="M811 -33c-108 0 -208.166 16.3301 -300.499 48.9971s-171.833 80 -238.5 142c-66 62 -120.667 137.667 -164 227s-65 189 -65 299c0 122.667 23.5 231.834 70.5 327.501s106.833 175.5 179.5 239.5c65.333 58 142.666 102.667 231.999 134s187.333 47 294 47
c106 0 204.833 -15.167 296.5 -45.5s170.5 -75.5 236.5 -135.5c68 -62 125.167 -138.667 171.5 -230s69.5 -195.333 69.5 -312c0 -113.333 -22.333 -219.166 -67 -317.499s-104 -181.166 -178 -248.499c-64 -58 -140.5 -101.833 -229.5 -131.5s-191.5 -44.5 -307.5 -44.5z
M819.001 -8.00293c116.667 0 196.999 67.6689 240.999 203.002s66 304.333 66 507c0 179.333 -20 341.666 -60 486.999s-122.333 218 -247 218c-106 0 -184 -62.667 -234 -188s-75 -300.333 -75 -525c0 -196.667 22.333 -362.834 67 -498.501s125.334 -203.5 242.001 -203.5
zM614 1462l-14 15.9971l155 312c20.667 40.667 46.5 76.667 77.5 108s66.833 47 107.5 47c42 0 76.333 -13 103 -39s40 -57.333 40 -94c0 -37.333 -12.5 -69.666 -37.5 -96.999s-59.5 -53.666 -103.5 -78.999c-34 -19.333 -81.167 -44.166 -141.5 -74.499
s-122.5 -63.5 -186.5 -99.5z" />
    <glyph glyph-name="Ocircumflex" unicode="&#xd4;" horiz-adv-x="1636" 
d="M811 -33c-108 0 -208.166 16.3301 -300.499 48.9971s-171.833 80 -238.5 142c-66 62 -120.667 137.667 -164 227s-65 189 -65 299c0 122.667 23.5 231.834 70.5 327.501s106.833 175.5 179.5 239.5c65.333 58 142.666 102.667 231.999 134s187.333 47 294 47
c106 0 204.833 -15.167 296.5 -45.5s170.5 -75.5 236.5 -135.5c68 -62 125.167 -138.667 171.5 -230s69.5 -195.333 69.5 -312c0 -113.333 -22.333 -219.166 -67 -317.499s-104 -181.166 -178 -248.499c-64 -58 -140.5 -101.833 -229.5 -131.5s-191.5 -44.5 -307.5 -44.5z
M819.001 -8.00293c116.667 0 196.999 67.6689 240.999 203.002s66 304.333 66 507c0 179.333 -20 341.666 -60 486.999s-122.333 218 -247 218c-106 0 -184 -62.667 -234 -188s-75 -300.333 -75 -525c0 -196.667 22.333 -362.834 67 -498.501s125.334 -203.5 242.001 -203.5
zM1161 1476l-340.001 218l-336 -216l-20 15l131 218.5l106 170.5c10.667 16.667 24.834 27.667 42.501 33s44.5 8 80.5 8s62.667 -3 80 -9s30.333 -15.333 39 -28l104.5 -166l134.5 -227z" />
    <glyph glyph-name="Otilde" unicode="&#xd5;" horiz-adv-x="1636" 
d="M811 -33c-108 0 -208.166 16.3301 -300.499 48.9971s-171.833 80 -238.5 142c-66 62 -120.667 137.667 -164 227s-65 189 -65 299c0 122.667 23.5 231.834 70.5 327.501s106.833 175.5 179.5 239.5c65.333 58 142.666 102.667 231.999 134s187.333 47 294 47
c106 0 204.833 -15.167 296.5 -45.5s170.5 -75.5 236.5 -135.5c68 -62 125.167 -138.667 171.5 -230s69.5 -195.333 69.5 -312c0 -113.333 -22.333 -219.166 -67 -317.499s-104 -181.166 -178 -248.499c-64 -58 -140.5 -101.833 -229.5 -131.5s-191.5 -44.5 -307.5 -44.5z
M819.001 -8.00293c116.667 0 196.999 67.6689 240.999 203.002s66 304.333 66 507c0 179.333 -20 341.666 -60 486.999s-122.333 218 -247 218c-106 0 -184 -62.667 -234 -188s-75 -300.333 -75 -525c0 -196.667 22.333 -362.834 67 -498.501s125.334 -203.5 242.001 -203.5
zM442 1501l-27.0049 10c33.333 94.667 76.5 176.667 129.5 246s108.833 104 167.5 104c59.333 0 117.833 -17.5 175.5 -52.5s107.834 -52.5 150.501 -52.5c34.667 0 66.334 9.66699 95.001 29s52.334 52.333 71.001 99l27 -8c-24 -86.667 -61.167 -167 -111.5 -241
s-108.166 -111 -173.499 -111c-58 0 -117.667 17.5 -179 52.5s-111.666 52.5 -150.999 52.5c-32.667 0 -64.167 -9.83301 -94.5 -29.5s-56.833 -52.5 -79.5 -98.5z" />
    <glyph glyph-name="Odieresis" unicode="&#xd6;" horiz-adv-x="1636" 
d="M811 -33c-108 0 -208.166 16.3301 -300.499 48.9971s-171.833 80 -238.5 142c-66 62 -120.667 137.667 -164 227s-65 189 -65 299c0 122.667 23.5 231.834 70.5 327.501s106.833 175.5 179.5 239.5c65.333 58 142.666 102.667 231.999 134s187.333 47 294 47
c106 0 204.833 -15.167 296.5 -45.5s170.5 -75.5 236.5 -135.5c68 -62 125.167 -138.667 171.5 -230s69.5 -195.333 69.5 -312c0 -113.333 -22.333 -219.166 -67 -317.499s-104 -181.166 -178 -248.499c-64 -58 -140.5 -101.833 -229.5 -131.5s-191.5 -44.5 -307.5 -44.5z
M819.001 -8.00293c116.667 0 196.999 67.6689 240.999 203.002s66 304.333 66 507c0 179.333 -20 341.666 -60 486.999s-122.333 218 -247 218c-106 0 -184 -62.667 -234 -188s-75 -300.333 -75 -525c0 -196.667 22.333 -362.834 67 -498.501s125.334 -203.5 242.001 -203.5
zM583 1507c-46 0 -85.167 17.667 -117.5 53s-48.5 76.333 -48.5 123s16.167 87.667 48.5 123s71.5 53 117.5 53c44.667 0 83.5 -17.667 116.5 -53s49.5 -76.333 49.5 -123s-16.5 -87.667 -49.5 -123s-71.833 -53 -116.5 -53zM1063 1507c-46 0 -85.167 17.667 -117.5 53
s-48.5 76.333 -48.5 123s16.167 87.667 48.5 123s71.5 53 117.5 53c44.667 0 83.5 -17.667 116.5 -53s49.5 -76.333 49.5 -123s-16.5 -87.667 -49.5 -123s-71.833 -53 -116.5 -53z" />
    <glyph glyph-name="multiply" unicode="&#xd7;" horiz-adv-x="1167" 
d="M221 88l-78 78l367 362l-354 355l84 84l354 -355l348 353l76 -76l-352 -350l360 -359l-84 -84l-360 359z" />
    <glyph glyph-name="Oslash" unicode="&#xd8;" horiz-adv-x="1636" 
d="M84 -68l-31 26.9971l205 211c-63.333 62 -115 136.667 -155 224s-60 184 -60 290c0 122.667 23.5 231.834 70.5 327.501s106.833 175.5 179.5 239.5c65.333 58 142.666 102.667 231.999 134s187.333 47 294 47c99.333 0 192.5 -13.5 279.5 -40.5
s163.167 -66.833 228.5 -119.5l180 186l33 -28l-180 -187c66 -62 121.333 -138 166 -228s67 -192 67 -306c0 -113.333 -22.333 -219.166 -67 -317.499s-104 -181.166 -178 -248.499c-64 -58 -140.5 -101.833 -229.5 -131.5s-191.5 -44.5 -307.5 -44.5
c-104 0 -200.667 14.833 -290 44.5s-166.666 73.5 -231.999 131.5zM819 -8.00293c116.667 0 197 67.666 241 202.999s66 304.333 66 507c0 49.333 -1.16699 101.833 -3.5 157.5s-6.5 105.834 -12.5 150.501l-582 -641c14.667 -100.667 45.667 -188.667 93 -264
s113.333 -113 198 -113zM522 421.996l580 639c-15.333 91.333 -45.5 171.833 -90.5 241.5s-109.167 104.5 -192.5 104.5c-106 0 -184 -62.667 -234 -188s-75 -300.333 -75 -525c0 -44.667 1 -91.5 3 -140.5s5 -92.833 9 -131.5z" />
    <glyph glyph-name="Ugrave" unicode="&#xd9;" horiz-adv-x="1583" 
d="M860 -33c-188.667 0 -343.335 38.1689 -464.002 114.502s-181 204.833 -181 385.5v797c0 22.667 -4 43 -12 61s-24.333 31 -49 39c-16.667 4.66699 -40.167 8.66699 -70.5 12s-58.166 6 -83.499 8v15h846v-15c-17.333 -2 -41.333 -4.33301 -72 -7
s-54.667 -6.33398 -72 -11.001c-24.667 -6.66699 -41 -19.334 -49 -38.001s-12 -39.334 -12 -62.001v-758c0 -140 26.667 -241.167 80 -303.5s134.666 -93.5 243.999 -93.5c106.667 0 199.167 30.833 277.5 92.5s117.5 166.5 117.5 314.5v547
c0 79.333 -3.66699 140.833 -11 184.5s-22.666 74.834 -45.999 93.501c-22.667 18.667 -62 29.667 -118 33s-93.333 6 -112 8v15h574v-15c-17.333 -2 -46.666 -4.66699 -87.999 -8s-73.666 -13.333 -96.999 -30c-23.333 -17.333 -40 -48.833 -50 -94.5
s-15 -107.167 -15 -184.5v-580c0 -176 -53.333 -306.667 -160 -392s-232.334 -128 -377.001 -128zM1091 1462c-64 36 -126.167 69.1699 -186.5 99.5029s-107.5 55.166 -141.5 74.499c-44 25.333 -78.5 51.666 -103.5 78.999s-37.5 59.666 -37.5 96.999
c0 36.667 13.333 68 40 94s61 39 103 39c40.667 0 76.5 -15.667 107.5 -47s56.833 -67.333 77.5 -108l155 -312z" />
    <glyph glyph-name="Uacute" unicode="&#xda;" horiz-adv-x="1583" 
d="M860 -33c-188.667 0 -343.335 38.1689 -464.002 114.502s-181 204.833 -181 385.5v797c0 22.667 -4 43 -12 61s-24.333 31 -49 39c-16.667 4.66699 -40.167 8.66699 -70.5 12s-58.166 6 -83.499 8v15h846v-15c-17.333 -2 -41.333 -4.33301 -72 -7
s-54.667 -6.33398 -72 -11.001c-24.667 -6.66699 -41 -19.334 -49 -38.001s-12 -39.334 -12 -62.001v-758c0 -140 26.667 -241.167 80 -303.5s134.666 -93.5 243.999 -93.5c106.667 0 199.167 30.833 277.5 92.5s117.5 166.5 117.5 314.5v547
c0 79.333 -3.66699 140.833 -11 184.5s-22.666 74.834 -45.999 93.501c-22.667 18.667 -62 29.667 -118 33s-93.333 6 -112 8v15h574v-15c-17.333 -2 -46.666 -4.66699 -87.999 -8s-73.666 -13.333 -96.999 -30c-23.333 -17.333 -40 -48.833 -50 -94.5
s-15 -107.167 -15 -184.5v-580c0 -176 -53.333 -306.667 -160 -392s-232.334 -128 -377.001 -128zM754.999 1462l-14 15.9971l155 312c20.667 40.667 46.5 76.667 77.5 108s66.833 47 107.5 47c42 0 76.333 -13 103 -39s40 -57.333 40 -94
c0 -37.333 -12.5 -69.666 -37.5 -96.999s-59.5 -53.666 -103.5 -78.999c-34 -19.333 -81.167 -44.166 -141.5 -74.499s-122.5 -63.5 -186.5 -99.5z" />
    <glyph glyph-name="Ucircumflex" unicode="&#xdb;" horiz-adv-x="1583" 
d="M860 -33c-188.667 0 -343.335 38.1689 -464.002 114.502s-181 204.833 -181 385.5v797c0 22.667 -4 43 -12 61s-24.333 31 -49 39c-16.667 4.66699 -40.167 8.66699 -70.5 12s-58.166 6 -83.499 8v15h846v-15c-17.333 -2 -41.333 -4.33301 -72 -7
s-54.667 -6.33398 -72 -11.001c-24.667 -6.66699 -41 -19.334 -49 -38.001s-12 -39.334 -12 -62.001v-758c0 -140 26.667 -241.167 80 -303.5s134.666 -93.5 243.999 -93.5c106.667 0 199.167 30.833 277.5 92.5s117.5 166.5 117.5 314.5v547
c0 79.333 -3.66699 140.833 -11 184.5s-22.666 74.834 -45.999 93.501c-22.667 18.667 -62 29.667 -118 33s-93.333 6 -112 8v15h574v-15c-17.333 -2 -46.666 -4.66699 -87.999 -8s-73.666 -13.333 -96.999 -30c-23.333 -17.333 -40 -48.833 -50 -94.5
s-15 -107.167 -15 -184.5v-580c0 -176 -53.333 -306.667 -160 -392s-232.334 -128 -377.001 -128zM1228 1476l-340.001 218l-336 -216l-20 15l131 218.5l106 170.5c10.667 16.667 24.834 27.667 42.501 33s44.5 8 80.5 8s62.667 -3 80 -9s30.333 -15.333 39 -28l104.5 -166
l134.5 -227z" />
    <glyph glyph-name="Udieresis" unicode="&#xdc;" horiz-adv-x="1583" 
d="M860 -33c-188.667 0 -343.335 38.1689 -464.002 114.502s-181 204.833 -181 385.5v797c0 22.667 -4 43 -12 61s-24.333 31 -49 39c-16.667 4.66699 -40.167 8.66699 -70.5 12s-58.166 6 -83.499 8v15h846v-15c-17.333 -2 -41.333 -4.33301 -72 -7
s-54.667 -6.33398 -72 -11.001c-24.667 -6.66699 -41 -19.334 -49 -38.001s-12 -39.334 -12 -62.001v-758c0 -140 26.667 -241.167 80 -303.5s134.666 -93.5 243.999 -93.5c106.667 0 199.167 30.833 277.5 92.5s117.5 166.5 117.5 314.5v547
c0 79.333 -3.66699 140.833 -11 184.5s-22.666 74.834 -45.999 93.501c-22.667 18.667 -62 29.667 -118 33s-93.333 6 -112 8v15h574v-15c-17.333 -2 -46.666 -4.66699 -87.999 -8s-73.666 -13.333 -96.999 -30c-23.333 -17.333 -40 -48.833 -50 -94.5
s-15 -107.167 -15 -184.5v-580c0 -176 -53.333 -306.667 -160 -392s-232.334 -128 -377.001 -128zM672.999 1507c-46 0 -85.167 17.667 -117.5 53s-48.5 76.333 -48.5 123s16.167 87.667 48.5 123s71.5 53 117.5 53c44.667 0 83.5 -17.667 116.5 -53s49.5 -76.333 49.5 -123
s-16.5 -87.667 -49.5 -123s-71.833 -53 -116.5 -53zM1153 1507c-46 0 -85.167 17.667 -117.5 53s-48.5 76.333 -48.5 123s16.167 87.667 48.5 123s71.5 53 117.5 53c44.667 0 83.5 -17.667 116.5 -53s49.5 -76.333 49.5 -123s-16.5 -87.667 -49.5 -123
s-71.833 -53 -116.5 -53z" />
    <glyph glyph-name="Yacute" unicode="&#xdd;" horiz-adv-x="1483" 
d="M297 0v13.998c28.667 2 60.667 4.66699 96 8s59.333 7 72 11c24.667 8 41 20 49 36s12 35.333 12 58v326c0 44.667 -3.66699 80.167 -11 106.5s-24.666 64.5 -51.999 114.5l-150 274.5c-75.333 138.333 -123.666 225.5 -144.999 261.5c-18.667 30.667 -39 58.667 -61 84
s-44.667 45.333 -68 60c-18.667 10.667 -37.334 18.167 -56.001 22.5s-37.667 6.83301 -57 7.5v15h883v-15c-36 -2 -81.833 -7.5 -137.5 -16.5s-83.5 -23.167 -83.5 -42.5c0 -6.66699 8.33301 -28.667 25 -66s38.334 -81 65.001 -131
c10.667 -21.333 48 -92.166 112 -212.499s115.333 -212.5 154 -276.5c18.667 28.667 55.5 95.667 110.5 201l131.5 250c33.333 64 56.666 114.833 69.999 152.5s20 61.834 20 72.501c0 27.333 -27.833 45 -83.5 53s-106.5 13.333 -152.5 16v15h521v-15l-70.5 -7.5
c-22.333 -2.33301 -41.833 -8.5 -58.5 -18.5c-28.667 -17.333 -53.5 -39 -74.5 -65s-40.167 -54.333 -57.5 -85l-134.5 -239l-143.5 -260c-34.667 -63.333 -55.334 -112.833 -62.001 -148.5s-10 -85.167 -10 -148.5v-281c0 -22.667 4.5 -42.667 13.5 -60
s25.167 -30 48.5 -38c12 -4 36.333 -7.66699 73 -11s67 -6 91 -8v-14h-879zM718 1462l-14 15.9971l155 312c20.667 40.667 46.5 76.667 77.5 108s66.833 47 107.5 47c42 0 76.333 -13 103 -39s40 -57.333 40 -94c0 -37.333 -12.5 -69.666 -37.5 -96.999
s-59.5 -53.666 -103.5 -78.999c-34 -19.333 -81.167 -44.166 -141.5 -74.499s-122.5 -63.5 -186.5 -99.5z" />
    <glyph glyph-name="Thorn" unicode="&#xde;" horiz-adv-x="1452" 
d="M18 0v13.998c18.667 0.666992 47.334 2.83398 86.001 6.50098s64 7.83398 76 12.501c24.667 8.66699 41.167 21.834 49.5 39.501s12.5 37.834 12.5 60.501v1131c0 22.667 -4 42.334 -12 59.001s-24.667 30.334 -50 41.001c-19.333 6.66699 -45.833 11.167 -79.5 13.5
s-58.834 4.5 -75.501 6.5v15h847v-15c-18 -0.666992 -41.333 -2 -70 -4s-52.334 -6 -71.001 -12c-24.667 -8 -41.667 -20 -51 -36s-14 -35.333 -14 -58v-174h247c176.667 0 310.334 -31.833 401.001 -95.5s136 -154.834 136 -273.501c0 -150 -62.667 -256.833 -188 -320.5
s-266 -95.5 -422 -95.5h-174v-180c0 -22.667 4.33301 -42.834 13 -60.501s24.667 -30.834 48 -39.501c12.667 -4.66699 35.167 -8.83398 67.5 -12.501s66.5 -6.5 102.5 -8.5v-14h-879zM666 343.998h36c111.333 0 189 36.5 233 109.5s66 155.833 66 248.5
c0 102.667 -20 190.167 -60 262.5s-110 108.5 -210 108.5h-65v-729z" />
    <glyph glyph-name="germandbls" unicode="&#xdf;" horiz-adv-x="1343" 
d="M903 -29c-120 0 -203.836 21.1689 -251.503 63.502s-71.5 91.5 -71.5 147.5c0 36.667 11.333 72.834 34 108.501s59 53.5 109 53.5c46.667 0 82.167 -12.667 106.5 -38s36.5 -56.333 36.5 -93c0 -31.333 -7.5 -56.833 -22.5 -76.5s-22.5 -39.167 -22.5 -58.5
c0 -20.667 6.83301 -39.834 20.5 -57.501s34.834 -26.5 63.501 -26.5c40 0 74 16 102 48s42 72 42 120c0 44 -14.167 87.167 -42.5 129.5s-85.833 84.5 -172.5 126.5c-82.667 40 -145 79.833 -187 119.5s-63 90.5 -63 152.5c0 54 14.833 98.667 44.5 134
s69.5 77.333 119.5 126c26.667 26.667 46.167 62.167 58.5 106.5s18.5 95.5 18.5 153.5c0 92 -11.667 164.833 -35 218.5s-57.333 80.5 -102 80.5c-54 0 -94.833 -32.667 -122.5 -98s-41.5 -176 -41.5 -332c0 -14.667 0.333008 -76.667 1 -186s1 -407 1 -893h-499v14
c18 0.666992 33.167 2.16699 45.5 4.5s25.833 5.83301 40.5 10.5c19.333 6 33.333 17.167 42 33.5s13 35.833 13 58.5v764h-172v37h172v63c0 84.667 11.667 160.5 35 227.5s58 124.833 104 173.5c42 45.333 99.333 80.666 172 105.999s154.667 38 246 38
c104.667 0 197.667 -23.5 279 -70.5s122 -112.167 122 -195.5c0 -66.667 -18 -120 -54 -160s-80 -71.333 -132 -94c-50 -21.333 -95.667 -39.166 -137 -53.499s-62 -36.833 -62 -67.5c0 -28.667 30.833 -58.334 92.5 -89.001s138.834 -71.334 231.501 -122.001
c100 -55.333 167 -110.833 201 -166.5s51 -121.167 51 -196.5c0 -108.667 -40.167 -193.167 -120.5 -253.5s-178.166 -90.5 -293.499 -90.5z" />
    <glyph glyph-name="agrave" unicode="&#xe0;" horiz-adv-x="1155" 
d="M350 -31c-105.333 0 -183.171 20.3359 -233.504 61.0029s-75.5 98.334 -75.5 173.001c0 66.667 16.833 119.667 50.5 159s80.834 69.666 141.501 90.999c50.667 18 125.334 38.833 224.001 62.5s160.667 44.167 186 61.5v187c0 80.667 -10.333 135.334 -31 164.001
s-49.334 43 -86.001 43c-23.333 0 -44.166 -3 -62.499 -9s-32.166 -13.333 -41.499 -22c2.66699 -18.667 10.167 -47.834 22.5 -87.501s18.5 -76.834 18.5 -111.501c0 -24.667 -16.333 -52.334 -49 -83.001s-78.667 -46 -138 -46c-58 0 -99.333 16.833 -124 50.5
s-37 68.834 -37 105.501c0 62 46 115 138 159s188.667 66 290 66c168.667 0 287.667 -26 357 -78s104 -128.333 104 -229c0 -92.667 -2.16699 -191.334 -6.5 -296.001s-6.5 -174 -6.5 -208c0 -24.667 6 -46.834 18 -66.501s30.667 -29.5 56 -29.5
c30.667 0 54.834 19.5 72.501 58.5s26.834 81.5 27.501 127.5h31c-2 -90 -27.167 -162.333 -75.5 -217s-116.833 -82 -205.5 -82c-79.333 0 -138.5 12 -177.5 36s-68.5 56.333 -88.5 97h-6c-33.333 -38 -71.833 -70.333 -115.5 -97s-102.834 -40 -177.501 -40z
M523.995 78.0029c26.667 0 49 5.83105 67 17.498s33.333 26.834 46 45.501l8 408c-78 -29.333 -136 -65.166 -174 -107.499s-57 -102.833 -57 -181.5c0 -60 9.83301 -105.333 29.5 -136s46.5 -46 80.5 -46zM763.995 1071c-64 36 -126.167 69.1699 -186.5 99.5029
s-107.5 55.166 -141.5 74.499c-44 25.333 -78.5 51.666 -103.5 78.999s-37.5 59.666 -37.5 96.999c0 36.667 13.333 68 40 94s61 39 103 39c40.667 0 76.5 -15.667 107.5 -47s56.833 -67.333 77.5 -108l155 -312z" />
    <glyph glyph-name="aacute" unicode="&#xe1;" horiz-adv-x="1155" 
d="M350 -31c-105.333 0 -183.171 20.3359 -233.504 61.0029s-75.5 98.334 -75.5 173.001c0 66.667 16.833 119.667 50.5 159s80.834 69.666 141.501 90.999c50.667 18 125.334 38.833 224.001 62.5s160.667 44.167 186 61.5v187c0 80.667 -10.333 135.334 -31 164.001
s-49.334 43 -86.001 43c-23.333 0 -44.166 -3 -62.499 -9s-32.166 -13.333 -41.499 -22c2.66699 -18.667 10.167 -47.834 22.5 -87.501s18.5 -76.834 18.5 -111.501c0 -24.667 -16.333 -52.334 -49 -83.001s-78.667 -46 -138 -46c-58 0 -99.333 16.833 -124 50.5
s-37 68.834 -37 105.501c0 62 46 115 138 159s188.667 66 290 66c168.667 0 287.667 -26 357 -78s104 -128.333 104 -229c0 -92.667 -2.16699 -191.334 -6.5 -296.001s-6.5 -174 -6.5 -208c0 -24.667 6 -46.834 18 -66.501s30.667 -29.5 56 -29.5
c30.667 0 54.834 19.5 72.501 58.5s26.834 81.5 27.501 127.5h31c-2 -90 -27.167 -162.333 -75.5 -217s-116.833 -82 -205.5 -82c-79.333 0 -138.5 12 -177.5 36s-68.5 56.333 -88.5 97h-6c-33.333 -38 -71.833 -70.333 -115.5 -97s-102.834 -40 -177.501 -40z
M523.995 78.0029c26.667 0 49 5.83105 67 17.498s33.333 26.834 46 45.501l8 408c-78 -29.333 -136 -65.166 -174 -107.499s-57 -102.833 -57 -181.5c0 -60 9.83301 -105.333 29.5 -136s46.5 -46 80.5 -46zM426.995 1071l-14 15.9971l155 312
c20.667 40.667 46.5 76.667 77.5 108s66.833 47 107.5 47c42 0 76.333 -13 103 -39s40 -57.333 40 -94c0 -37.333 -12.5 -69.666 -37.5 -96.999s-59.5 -53.666 -103.5 -78.999c-34 -19.333 -81.167 -44.166 -141.5 -74.499s-122.5 -63.5 -186.5 -99.5z" />
    <glyph glyph-name="acircumflex" unicode="&#xe2;" horiz-adv-x="1155" 
d="M350 -31c-105.333 0 -183.171 20.3359 -233.504 61.0029s-75.5 98.334 -75.5 173.001c0 66.667 16.833 119.667 50.5 159s80.834 69.666 141.501 90.999c50.667 18 125.334 38.833 224.001 62.5s160.667 44.167 186 61.5v187c0 80.667 -10.333 135.334 -31 164.001
s-49.334 43 -86.001 43c-23.333 0 -44.166 -3 -62.499 -9s-32.166 -13.333 -41.499 -22c2.66699 -18.667 10.167 -47.834 22.5 -87.501s18.5 -76.834 18.5 -111.501c0 -24.667 -16.333 -52.334 -49 -83.001s-78.667 -46 -138 -46c-58 0 -99.333 16.833 -124 50.5
s-37 68.834 -37 105.501c0 62 46 115 138 159s188.667 66 290 66c168.667 0 287.667 -26 357 -78s104 -128.333 104 -229c0 -92.667 -2.16699 -191.334 -6.5 -296.001s-6.5 -174 -6.5 -208c0 -24.667 6 -46.834 18 -66.501s30.667 -29.5 56 -29.5
c30.667 0 54.834 19.5 72.501 58.5s26.834 81.5 27.501 127.5h31c-2 -90 -27.167 -162.333 -75.5 -217s-116.833 -82 -205.5 -82c-79.333 0 -138.5 12 -177.5 36s-68.5 56.333 -88.5 97h-6c-33.333 -38 -71.833 -70.333 -115.5 -97s-102.834 -40 -177.501 -40z
M523.995 78.0029c26.667 0 49 5.83105 67 17.498s33.333 26.834 46 45.501l8 408c-78 -29.333 -136 -65.166 -174 -107.499s-57 -102.833 -57 -181.5c0 -60 9.83301 -105.333 29.5 -136s46.5 -46 80.5 -46zM920.995 1085l-340.001 218l-336 -216l-20 15l131 218.5l106 170.5
c10.667 16.667 24.834 27.667 42.501 33s44.5 8 80.5 8s62.667 -3 80 -9s30.333 -15.333 39 -28l104.5 -166l134.5 -227z" />
    <glyph glyph-name="atilde" unicode="&#xe3;" horiz-adv-x="1155" 
d="M350 -31c-105.333 0 -183.171 20.3359 -233.504 61.0029s-75.5 98.334 -75.5 173.001c0 66.667 16.833 119.667 50.5 159s80.834 69.666 141.501 90.999c50.667 18 125.334 38.833 224.001 62.5s160.667 44.167 186 61.5v187c0 80.667 -10.333 135.334 -31 164.001
s-49.334 43 -86.001 43c-23.333 0 -44.166 -3 -62.499 -9s-32.166 -13.333 -41.499 -22c2.66699 -18.667 10.167 -47.834 22.5 -87.501s18.5 -76.834 18.5 -111.501c0 -24.667 -16.333 -52.334 -49 -83.001s-78.667 -46 -138 -46c-58 0 -99.333 16.833 -124 50.5
s-37 68.834 -37 105.501c0 62 46 115 138 159s188.667 66 290 66c168.667 0 287.667 -26 357 -78s104 -128.333 104 -229c0 -92.667 -2.16699 -191.334 -6.5 -296.001s-6.5 -174 -6.5 -208c0 -24.667 6 -46.834 18 -66.501s30.667 -29.5 56 -29.5
c30.667 0 54.834 19.5 72.501 58.5s26.834 81.5 27.501 127.5h31c-2 -90 -27.167 -162.333 -75.5 -217s-116.833 -82 -205.5 -82c-79.333 0 -138.5 12 -177.5 36s-68.5 56.333 -88.5 97h-6c-33.333 -38 -71.833 -70.333 -115.5 -97s-102.834 -40 -177.501 -40z
M523.995 78.0029c26.667 0 49 5.83105 67 17.498s33.333 26.834 46 45.501l8 408c-78 -29.333 -136 -65.166 -174 -107.499s-57 -102.833 -57 -181.5c0 -60 9.83301 -105.333 29.5 -136s46.5 -46 80.5 -46zM226.995 1110l-27.0049 10c33.333 94.667 76.5 176.667 129.5 246
s108.833 104 167.5 104c59.333 0 117.833 -17.5 175.5 -52.5s107.834 -52.5 150.501 -52.5c34.667 0 66.334 9.66699 95.001 29s52.334 52.333 71.001 99l27 -8c-24 -86.667 -61.167 -167 -111.5 -241s-108.166 -111 -173.499 -111c-58 0 -117.667 17.5 -179 52.5
s-111.666 52.5 -150.999 52.5c-32.667 0 -64.167 -9.83301 -94.5 -29.5s-56.833 -52.5 -79.5 -98.5z" />
    <glyph glyph-name="adieresis" unicode="&#xe4;" horiz-adv-x="1155" 
d="M350 -31c-105.333 0 -183.171 20.3359 -233.504 61.0029s-75.5 98.334 -75.5 173.001c0 66.667 16.833 119.667 50.5 159s80.834 69.666 141.501 90.999c50.667 18 125.334 38.833 224.001 62.5s160.667 44.167 186 61.5v187c0 80.667 -10.333 135.334 -31 164.001
s-49.334 43 -86.001 43c-23.333 0 -44.166 -3 -62.499 -9s-32.166 -13.333 -41.499 -22c2.66699 -18.667 10.167 -47.834 22.5 -87.501s18.5 -76.834 18.5 -111.501c0 -24.667 -16.333 -52.334 -49 -83.001s-78.667 -46 -138 -46c-58 0 -99.333 16.833 -124 50.5
s-37 68.834 -37 105.501c0 62 46 115 138 159s188.667 66 290 66c168.667 0 287.667 -26 357 -78s104 -128.333 104 -229c0 -92.667 -2.16699 -191.334 -6.5 -296.001s-6.5 -174 -6.5 -208c0 -24.667 6 -46.834 18 -66.501s30.667 -29.5 56 -29.5
c30.667 0 54.834 19.5 72.501 58.5s26.834 81.5 27.501 127.5h31c-2 -90 -27.167 -162.333 -75.5 -217s-116.833 -82 -205.5 -82c-79.333 0 -138.5 12 -177.5 36s-68.5 56.333 -88.5 97h-6c-33.333 -38 -71.833 -70.333 -115.5 -97s-102.834 -40 -177.501 -40z
M523.995 78.0029c26.667 0 49 5.83105 67 17.498s33.333 26.834 46 45.501l8 408c-78 -29.333 -136 -65.166 -174 -107.499s-57 -102.833 -57 -181.5c0 -60 9.83301 -105.333 29.5 -136s46.5 -46 80.5 -46zM340.995 1116c-46 0 -85.167 17.667 -117.5 53
s-48.5 76.333 -48.5 123s16.167 87.667 48.5 123s71.5 53 117.5 53c44.667 0 83.5 -17.667 116.5 -53s49.5 -76.333 49.5 -123s-16.5 -87.667 -49.5 -123s-71.833 -53 -116.5 -53zM820.995 1116c-46 0 -85.167 17.667 -117.5 53s-48.5 76.333 -48.5 123
s16.167 87.667 48.5 123s71.5 53 117.5 53c44.667 0 83.5 -17.667 116.5 -53s49.5 -76.333 49.5 -123s-16.5 -87.667 -49.5 -123s-71.833 -53 -116.5 -53z" />
    <glyph glyph-name="aring" unicode="&#xe5;" horiz-adv-x="1155" 
d="M350 -31c-105.333 0 -183.171 20.3359 -233.504 61.0029s-75.5 98.334 -75.5 173.001c0 66.667 16.833 119.667 50.5 159s80.834 69.666 141.501 90.999c50.667 18 125.334 38.833 224.001 62.5s160.667 44.167 186 61.5v187c0 80.667 -10.333 135.334 -31 164.001
s-49.334 43 -86.001 43c-23.333 0 -44.166 -3 -62.499 -9s-32.166 -13.333 -41.499 -22c2.66699 -18.667 10.167 -47.834 22.5 -87.501s18.5 -76.834 18.5 -111.501c0 -24.667 -16.333 -52.334 -49 -83.001s-78.667 -46 -138 -46c-58 0 -99.333 16.833 -124 50.5
s-37 68.834 -37 105.501c0 62 46 115 138 159s188.667 66 290 66c168.667 0 287.667 -26 357 -78s104 -128.333 104 -229c0 -92.667 -2.16699 -191.334 -6.5 -296.001s-6.5 -174 -6.5 -208c0 -24.667 6 -46.834 18 -66.501s30.667 -29.5 56 -29.5
c30.667 0 54.834 19.5 72.501 58.5s26.834 81.5 27.501 127.5h31c-2 -90 -27.167 -162.333 -75.5 -217s-116.833 -82 -205.5 -82c-79.333 0 -138.5 12 -177.5 36s-68.5 56.333 -88.5 97h-6c-33.333 -38 -71.833 -70.333 -115.5 -97s-102.834 -40 -177.501 -40z
M523.995 78.0029c26.667 0 49 5.83105 67 17.498s33.333 26.834 46 45.501l8 408c-78 -29.333 -136 -65.166 -174 -107.499s-57 -102.833 -57 -181.5c0 -60 9.83301 -105.333 29.5 -136s46.5 -46 80.5 -46zM570.995 1075c-79.333 0 -146.667 20 -202 60s-83 93 -83 159
c0 65.333 29.5 118.166 88.5 158.499s124.5 60.5 196.5 60.5c75.333 0 141.666 -20 198.999 -60s86 -93 86 -159c0 -63.333 -27.667 -115.666 -83 -156.999s-122.666 -62 -201.999 -62zM570.994 1104c36 0 61.333 18 76 54s22 81.333 22 136
c0 53.333 -7.33301 98.5 -22 135.5s-40 55.5 -76 55.5c-34.667 0 -59.667 -17.833 -75 -53.5s-23 -81.5 -23 -137.5c0 -54 7.33301 -99.167 22 -135.5s40 -54.5 76 -54.5z" />
    <glyph glyph-name="ae" unicode="&#xe6;" horiz-adv-x="1606" 
d="M350 -31c-112 0 -191.498 22.1689 -238.498 66.502s-70.5 100.166 -70.5 167.499c0 75.333 19.333 131.166 58 167.499s83.334 63.833 134.001 82.5c61.333 22.667 138.666 44.334 231.999 65.001s152.666 40.667 177.999 60v186c0 34.667 -5 77.834 -15 129.501
s-44 77.5 -102 77.5c-25.333 0 -46.833 -3.16699 -64.5 -9.5s-30.834 -13.5 -39.501 -21.5c2.66699 -18.667 10.167 -47.834 22.5 -87.501s18.5 -76.834 18.5 -111.501c0 -24.667 -16.333 -52.334 -49 -83.001s-78.667 -46 -138 -46c-58 0 -99.333 16.833 -124 50.5
s-37 68.834 -37 105.501c0 69.333 49.5 124.166 148.5 164.499s192.167 60.5 279.5 60.5c58 0 115 -5 171 -15s106 -32.333 150 -67c34.667 24.667 76.5 44.5 125.5 59.5s99.5 22.5 151.5 22.5c156 0 268 -44.833 336 -134.5s102 -187.5 102 -293.5v-12h-580v-59
c0 -120.667 21 -221.167 63 -301.5s112.667 -120.5 212 -120.5c62 0 119.167 14.5 171.5 43.5s96.833 79.167 133.5 150.5l23 -16c-38 -77.333 -93.833 -143.5 -167.5 -198.5s-161.5 -82.5 -263.5 -82.5c-101.333 0 -193 16 -275 48s-148.667 81 -200 147
c-42 -55.333 -90.333 -101.666 -145 -138.999s-121.667 -56 -201 -56zM524.002 78.002c26.667 0 49 5.83203 67 17.499s33.333 26.834 46 45.501l8 408c-70 -27.333 -126 -61 -168 -101s-63 -102.667 -63 -188c0 -60 9.83301 -105.333 29.5 -136s46.5 -46 80.5 -46z
M999.002 580.001l241.999 4c0 79.333 -4.66699 163.333 -14 252s-43 133 -101 133c-46.667 0 -78.667 -39.167 -96 -117.5s-27.666 -168.833 -30.999 -271.5z" />
    <glyph glyph-name="ccedilla" unicode="&#xe7;" horiz-adv-x="973" 
d="M283 -483l0.00390625 30.001c65.333 0 126.666 7 183.999 21s86 51.667 86 113c0 31.333 -12.5 53 -37.5 65s-51.5 18 -79.5 18v213c-128.667 18.667 -227.334 71.334 -296.001 158.001s-103 207.667 -103 363c0 148 52 267.5 156 358.5s237.667 136.5 401 136.5
c116 0 202.333 -22.833 259 -68.5s85 -102.5 85 -170.5c0 -40.667 -13.333 -77.167 -40 -109.5s-66 -48.5 -118 -48.5c-48.667 0 -88.834 12.667 -120.501 38s-47.5 64.666 -47.5 117.999c0 37.333 10.333 70.166 31 98.499s33 49.833 37 64.5
c-2.66699 15.333 -11.167 28.5 -25.5 39.5s-33.833 16.5 -58.5 16.5c-48.667 0 -89.834 -40.667 -123.501 -122s-50.5 -196.333 -50.5 -345c0 -154 22.5 -263.833 67.5 -329.5s103.167 -98.5 174.5 -98.5c69.333 0 127.833 17.667 175.5 53s87.167 82.333 118.5 141l21 -12
c-32 -79.333 -84 -147.333 -156 -204s-163.333 -85 -274 -85c-14.667 0 -28.667 0.5 -42 1.5s-26.666 1.83301 -39.999 2.5v-61c83.333 2 156.666 -11 219.999 -39s95 -75 95 -141c0 -88.667 -43 -150.5 -129 -185.5s-209.333 -44.833 -370 -29.5z" />
    <glyph glyph-name="egrave" unicode="&#xe8;" horiz-adv-x="1044" 
d="M610 -31c-167.333 0 -304.666 44.5 -411.999 133.5s-161 213.833 -161 374.5c0 152 52 276 156 372s233 144 387 144c141.333 0 249.666 -41 324.999 -123s113 -183.667 113 -305v-12h-580v-59c0 -120.667 21 -221.167 63 -301.5s112.667 -120.5 212 -120.5
c62 0 119.167 14.5 171.5 43.5s96.833 79.167 133.5 150.5l22 -16c-37.333 -77.333 -92.833 -143.5 -166.5 -198.5s-161.5 -82.5 -263.5 -82.5zM438 580l242 4c0 145.333 -8.83301 245.833 -26.5 301.5s-47.167 83.5 -88.5 83.5c-44.667 0 -77 -38 -97 -114
s-30 -167.667 -30 -275zM737 1071c-64 36 -126.167 69.1699 -186.5 99.5029s-107.5 55.166 -141.5 74.499c-44 25.333 -78.5 51.666 -103.5 78.999s-37.5 59.666 -37.5 96.999c0 36.667 13.333 68 40 94s61 39 103 39c40.667 0 76.5 -15.667 107.5 -47
s56.833 -67.333 77.5 -108l155 -312z" />
    <glyph glyph-name="eacute" unicode="&#xe9;" horiz-adv-x="1044" 
d="M610 -31c-167.333 0 -304.666 44.5 -411.999 133.5s-161 213.833 -161 374.5c0 152 52 276 156 372s233 144 387 144c141.333 0 249.666 -41 324.999 -123s113 -183.667 113 -305v-12h-580v-59c0 -120.667 21 -221.167 63 -301.5s112.667 -120.5 212 -120.5
c62 0 119.167 14.5 171.5 43.5s96.833 79.167 133.5 150.5l22 -16c-37.333 -77.333 -92.833 -143.5 -166.5 -198.5s-161.5 -82.5 -263.5 -82.5zM438 580l242 4c0 145.333 -8.83301 245.833 -26.5 301.5s-47.167 83.5 -88.5 83.5c-44.667 0 -77 -38 -97 -114
s-30 -167.667 -30 -275zM399 1071l-14 15.9971l155 312c20.667 40.667 46.5 76.667 77.5 108s66.833 47 107.5 47c42 0 76.333 -13 103 -39s40 -57.333 40 -94c0 -37.333 -12.5 -69.666 -37.5 -96.999s-59.5 -53.666 -103.5 -78.999
c-34 -19.333 -81.167 -44.166 -141.5 -74.499s-122.5 -63.5 -186.5 -99.5z" />
    <glyph glyph-name="ecircumflex" unicode="&#xea;" horiz-adv-x="1044" 
d="M610 -31c-167.333 0 -304.666 44.5 -411.999 133.5s-161 213.833 -161 374.5c0 152 52 276 156 372s233 144 387 144c141.333 0 249.666 -41 324.999 -123s113 -183.667 113 -305v-12h-580v-59c0 -120.667 21 -221.167 63 -301.5s112.667 -120.5 212 -120.5
c62 0 119.167 14.5 171.5 43.5s96.833 79.167 133.5 150.5l22 -16c-37.333 -77.333 -92.833 -143.5 -166.5 -198.5s-161.5 -82.5 -263.5 -82.5zM438 580l242 4c0 145.333 -8.83301 245.833 -26.5 301.5s-47.167 83.5 -88.5 83.5c-44.667 0 -77 -38 -97 -114
s-30 -167.667 -30 -275zM886 1085l-340.001 218l-336 -216l-20 15l131 218.5l106 170.5c10.667 16.667 24.834 27.667 42.501 33s44.5 8 80.5 8s62.667 -3 80 -9s30.333 -15.333 39 -28l104.5 -166l134.5 -227z" />
    <glyph glyph-name="edieresis" unicode="&#xeb;" horiz-adv-x="1044" 
d="M610 -31c-167.333 0 -304.666 44.5 -411.999 133.5s-161 213.833 -161 374.5c0 152 52 276 156 372s233 144 387 144c141.333 0 249.666 -41 324.999 -123s113 -183.667 113 -305v-12h-580v-59c0 -120.667 21 -221.167 63 -301.5s112.667 -120.5 212 -120.5
c62 0 119.167 14.5 171.5 43.5s96.833 79.167 133.5 150.5l22 -16c-37.333 -77.333 -92.833 -143.5 -166.5 -198.5s-161.5 -82.5 -263.5 -82.5zM438 580l242 4c0 145.333 -8.83301 245.833 -26.5 301.5s-47.167 83.5 -88.5 83.5c-44.667 0 -77 -38 -97 -114
s-30 -167.667 -30 -275zM323 1116c-46 0 -85.167 17.667 -117.5 53s-48.5 76.333 -48.5 123s16.167 87.667 48.5 123s71.5 53 117.5 53c44.667 0 83.5 -17.667 116.5 -53s49.5 -76.333 49.5 -123s-16.5 -87.667 -49.5 -123s-71.833 -53 -116.5 -53zM803 1116
c-46 0 -85.167 17.667 -117.5 53s-48.5 76.333 -48.5 123s16.167 87.667 48.5 123s71.5 53 117.5 53c44.667 0 83.5 -17.667 116.5 -53s49.5 -76.333 49.5 -123s-16.5 -87.667 -49.5 -123s-71.833 -53 -116.5 -53z" />
    <glyph glyph-name="igrave" unicode="&#xec;" horiz-adv-x="670" 
d="M27 0l0.00390625 14c16.667 0.666992 32.167 1.66699 46.5 3s28.166 4.66602 41.499 9.99902c18.667 6.66699 32.167 18 40.5 34s12.5 34.667 12.5 56v694c0 22.667 -4.33301 42.667 -13 60s-21.334 31.333 -38.001 42c-12.667 8.66699 -31.334 15.834 -56.001 21.501
s-46.334 8.83398 -65.001 9.50098v12l522 25l8 -8v-850c0 -21.333 4.66699 -39.833 14 -55.5s23.333 -27.834 42 -36.501c14 -7.33301 28 -11.5 42 -12.5s29.333 -2.5 46 -4.5v-14h-643zM509.004 1071c-64 36 -126.167 69.1699 -186.5 99.5029s-107.5 55.166 -141.5 74.499
c-44 25.333 -78.5 51.666 -103.5 78.999s-37.5 59.666 -37.5 96.999c0 36.667 13.333 68 40 94s61 39 103 39c40.667 0 76.5 -15.667 107.5 -47s56.833 -67.333 77.5 -108l155 -312z" />
    <glyph glyph-name="iacute" unicode="&#xed;" horiz-adv-x="670" 
d="M27 0l0.00390625 14c16.667 0.666992 32.167 1.66699 46.5 3s28.166 4.66602 41.499 9.99902c18.667 6.66699 32.167 18 40.5 34s12.5 34.667 12.5 56v694c0 22.667 -4.33301 42.667 -13 60s-21.334 31.333 -38.001 42c-12.667 8.66699 -31.334 15.834 -56.001 21.501
s-46.334 8.83398 -65.001 9.50098v12l522 25l8 -8v-850c0 -21.333 4.66699 -39.833 14 -55.5s23.333 -27.834 42 -36.501c14 -7.33301 28 -11.5 42 -12.5s29.333 -2.5 46 -4.5v-14h-643zM140.004 1071l-14 15.9971l155 312c20.667 40.667 46.5 76.667 77.5 108
s66.833 47 107.5 47c42 0 76.333 -13 103 -39s40 -57.333 40 -94c0 -37.333 -12.5 -69.666 -37.5 -96.999s-59.5 -53.666 -103.5 -78.999c-34 -19.333 -81.167 -44.166 -141.5 -74.499s-122.5 -63.5 -186.5 -99.5z" />
    <glyph glyph-name="icircumflex" unicode="&#xee;" horiz-adv-x="670" 
d="M23 1087l-21.002 15c42 72 78.833 144.833 110.5 218.5s60.5 130.5 86.5 170.5c10 16.667 24 27.667 42 33s45 8 81 8c35.333 0 61.833 -3 79.5 -9s30.5 -15.333 38.5 -28c22.667 -34.667 50.834 -90 84.501 -166s71.834 -151.667 114.501 -227l-23 -17l-299 218z
M26.998 0l0.00390625 14c16.667 0.666992 32.167 1.66699 46.5 3s28.166 4.66602 41.499 9.99902c18.667 6.66699 32.167 18 40.5 34s12.5 34.667 12.5 56v694c0 22.667 -4.33301 42.667 -13 60s-21.334 31.333 -38.001 42c-12.667 8.66699 -31.334 15.834 -56.001 21.501
s-46.334 8.83398 -65.001 9.50098v12l522 25l8 -8v-850c0 -21.333 4.66699 -39.833 14 -55.5s23.333 -27.834 42 -36.501c14 -7.33301 28 -11.5 42 -12.5s29.333 -2.5 46 -4.5v-14h-643z" />
    <glyph glyph-name="idieresis" unicode="&#xef;" horiz-adv-x="670" 
d="M94 1116c-46 0 -85.167 17.667 -117.5 53s-48.5 76.333 -48.5 123s16.167 87.667 48.5 123s71.5 53 117.5 53c44.667 0 83.5 -17.667 116.5 -53s49.5 -76.333 49.5 -123s-16.5 -87.667 -49.5 -123s-71.833 -53 -116.5 -53zM532 1116c-46 0 -85 17.667 -117 53
s-48 76.333 -48 123s16 87.667 48 123s71 53 117 53c45.333 0 84.333 -17.667 117 -53s49 -76.333 49 -123s-16.333 -87.667 -49 -123s-71.667 -53 -117 -53zM27 0l0.00390625 14c16.667 0.666992 32.167 1.66699 46.5 3s28.166 4.66602 41.499 9.99902
c18.667 6.66699 32.167 18 40.5 34s12.5 34.667 12.5 56v694c0 22.667 -4.33301 42.667 -13 60s-21.334 31.333 -38.001 42c-12.667 8.66699 -31.334 15.834 -56.001 21.501s-46.334 8.83398 -65.001 9.50098v12l522 25l8 -8v-850c0 -21.333 4.66699 -39.833 14 -55.5
s23.333 -27.834 42 -36.501c14 -7.33301 28 -11.5 42 -12.5s29.333 -2.5 46 -4.5v-14h-643z" />
    <glyph glyph-name="eth" unicode="&#xf0;" horiz-adv-x="1214" 
d="M602 -31c-137.333 0 -265.834 41.6631 -385.501 124.996s-179.5 213 -179.5 389c0 166 55.167 292.5 165.5 379.5s234.5 130.5 372.5 130.5c45.333 0 84.333 -7.66699 117 -23s58.667 -33.666 78 -54.999l8 3c-10.667 60.667 -28.5 120.834 -53.5 180.501
s-52.833 113.5 -83.5 161.5l-244 -148l-30 47l243 146c-27.333 35.333 -61.666 73.666 -102.999 114.999s-76 73.333 -104 96l15 18c34 -15.333 81.167 -39.666 141.5 -72.999s111.5 -63.666 153.5 -90.999l198 117l31 -47l-176 -103c99.333 -74 192.833 -171 280.5 -291
s131.5 -268 131.5 -444c0 -181.333 -53.5 -332.166 -160.5 -452.499s-245.5 -180.5 -415.5 -180.5zM609.999 -8.00391c79.333 0 128.832 52.501 148.499 157.501s29.5 219.167 29.5 342.5c0 116.667 -10.5 225 -31.5 325s-69.167 150 -144.5 150
c-79.333 0 -129.5 -51.5 -150.5 -154.5s-31.5 -208.5 -31.5 -316.5c0 -122.667 9.33301 -237.334 28 -344.001s69.334 -160 152.001 -160z" />
    <glyph glyph-name="ntilde" unicode="&#xf1;" horiz-adv-x="1346" 
d="M29 0l-0.00292969 13.999c16 0.666992 31.333 1.83398 46 3.50098s28.667 4.83398 42 9.50098c18.667 6 31.5 15 38.5 27s10.5 29.333 10.5 52v699c0 26.667 -4 49.167 -12 67.5s-19.667 32.5 -35 42.5c-12.667 8.66699 -29.167 15.5 -49.5 20.5
s-38.833 7.83301 -55.5 8.5v12l502 25l8 -8v-148h6c36.667 38.667 76.834 76.334 120.501 113.001s108.167 55 193.5 55c106.667 0 190.334 -29.333 251.001 -88s91 -136.334 91 -233.001v-557c0 -22.667 2.33301 -40.667 7 -54s16.667 -23.333 36 -30
c14 -5.33301 28.167 -9 42.5 -11s30.833 -4 49.5 -6v-14h-604v14c12.667 0.666992 25.834 2.16699 39.501 4.5s25.834 5.83301 36.501 10.5c14 4.66699 22.5 15.167 25.5 31.5s4.5 35.833 4.5 58.5v559c0 70 -13.5 118.833 -40.5 146.5s-58.5 41.5 -94.5 41.5
c-46 0 -82 -9.33301 -108 -28s-44.667 -38.667 -56 -60v-661c0 -22.667 1.83301 -40.834 5.5 -54.501s12.167 -23.5 25.5 -29.5c13.333 -6.66699 26.666 -11 39.999 -13l42 -6v-14h-608zM312.997 1110l-27.0049 10c33.333 94.667 76.5 176.667 129.5 246
s108.833 104 167.5 104c59.333 0 117.833 -17.5 175.5 -52.5s107.834 -52.5 150.501 -52.5c34.667 0 66.334 9.66699 95.001 29s52.334 52.333 71.001 99l27 -8c-24 -86.667 -61.167 -167 -111.5 -241s-108.166 -111 -173.499 -111c-58 0 -117.667 17.5 -179 52.5
s-111.666 52.5 -150.999 52.5c-32.667 0 -64.167 -9.83301 -94.5 -29.5s-56.833 -52.5 -79.5 -98.5z" />
    <glyph glyph-name="ograve" unicode="&#xf2;" horiz-adv-x="1217" 
d="M602 -31c-158.667 0 -292.501 46.5 -401.501 139.5s-163.5 217.833 -163.5 374.5c0 160 54.5 285 163.5 375s245.5 135 409.5 135c168.667 0 305.834 -45 411.501 -135s158.5 -213 158.5 -369c0 -160.667 -52.833 -287.5 -158.5 -380.5s-245.5 -139.5 -419.5 -139.5z
M609.999 -8c62.667 0 107.999 38 135.999 114s42 204.667 42 386c0 161.333 -13.833 281.5 -41.5 360.5s-72.5 118.5 -134.5 118.5s-107.833 -38.667 -137.5 -116s-44.5 -197 -44.5 -359c0 -192 14.833 -324 44.5 -396s74.834 -108 135.501 -108zM777.998 1071
c-64 36 -126.167 69.1699 -186.5 99.5029s-107.5 55.166 -141.5 74.499c-44 25.333 -78.5 51.666 -103.5 78.999s-37.5 59.666 -37.5 96.999c0 36.667 13.333 68 40 94s61 39 103 39c40.667 0 76.5 -15.667 107.5 -47s56.833 -67.333 77.5 -108l155 -312z" />
    <glyph glyph-name="oacute" unicode="&#xf3;" horiz-adv-x="1217" 
d="M602 -31c-158.667 0 -292.501 46.5 -401.501 139.5s-163.5 217.833 -163.5 374.5c0 160 54.5 285 163.5 375s245.5 135 409.5 135c168.667 0 305.834 -45 411.501 -135s158.5 -213 158.5 -369c0 -160.667 -52.833 -287.5 -158.5 -380.5s-245.5 -139.5 -419.5 -139.5z
M609.999 -8c62.667 0 107.999 38 135.999 114s42 204.667 42 386c0 161.333 -13.833 281.5 -41.5 360.5s-72.5 118.5 -134.5 118.5s-107.833 -38.667 -137.5 -116s-44.5 -197 -44.5 -359c0 -192 14.833 -324 44.5 -396s74.834 -108 135.501 -108zM443.998 1071l-14 15.9971
l155 312c20.667 40.667 46.5 76.667 77.5 108s66.833 47 107.5 47c42 0 76.333 -13 103 -39s40 -57.333 40 -94c0 -37.333 -12.5 -69.666 -37.5 -96.999s-59.5 -53.666 -103.5 -78.999c-34 -19.333 -81.167 -44.166 -141.5 -74.499s-122.5 -63.5 -186.5 -99.5z" />
    <glyph glyph-name="ocircumflex" unicode="&#xf4;" horiz-adv-x="1217" 
d="M602 -31c-158.667 0 -292.501 46.5 -401.501 139.5s-163.5 217.833 -163.5 374.5c0 160 54.5 285 163.5 375s245.5 135 409.5 135c168.667 0 305.834 -45 411.501 -135s158.5 -213 158.5 -369c0 -160.667 -52.833 -287.5 -158.5 -380.5s-245.5 -139.5 -419.5 -139.5z
M609.999 -8c62.667 0 107.999 38 135.999 114s42 204.667 42 386c0 161.333 -13.833 281.5 -41.5 360.5s-72.5 118.5 -134.5 118.5s-107.833 -38.667 -137.5 -116s-44.5 -197 -44.5 -359c0 -192 14.833 -324 44.5 -396s74.834 -108 135.501 -108zM945.998 1085l-340.001 218
l-336 -216l-20 15l131 218.5l106 170.5c10.667 16.667 24.834 27.667 42.501 33s44.5 8 80.5 8s62.667 -3 80 -9s30.333 -15.333 39 -28l104.5 -166l134.5 -227z" />
    <glyph glyph-name="otilde" unicode="&#xf5;" horiz-adv-x="1217" 
d="M602 -31c-158.667 0 -292.501 46.5 -401.501 139.5s-163.5 217.833 -163.5 374.5c0 160 54.5 285 163.5 375s245.5 135 409.5 135c168.667 0 305.834 -45 411.501 -135s158.5 -213 158.5 -369c0 -160.667 -52.833 -287.5 -158.5 -380.5s-245.5 -139.5 -419.5 -139.5z
M609.999 -8c62.667 0 107.999 38 135.999 114s42 204.667 42 386c0 161.333 -13.833 281.5 -41.5 360.5s-72.5 118.5 -134.5 118.5s-107.833 -38.667 -137.5 -116s-44.5 -197 -44.5 -359c0 -192 14.833 -324 44.5 -396s74.834 -108 135.501 -108zM232.998 1110l-27.0049 10
c33.333 94.667 76.5 176.667 129.5 246s108.833 104 167.5 104c59.333 0 117.833 -17.5 175.5 -52.5s107.834 -52.5 150.501 -52.5c34.667 0 66.334 9.66699 95.001 29s52.334 52.333 71.001 99l27 -8c-24 -86.667 -61.167 -167 -111.5 -241s-108.166 -111 -173.499 -111
c-58 0 -117.667 17.5 -179 52.5s-111.666 52.5 -150.999 52.5c-32.667 0 -64.167 -9.83301 -94.5 -29.5s-56.833 -52.5 -79.5 -98.5z" />
    <glyph glyph-name="odieresis" unicode="&#xf6;" horiz-adv-x="1217" 
d="M602 -31c-158.667 0 -292.501 46.5 -401.501 139.5s-163.5 217.833 -163.5 374.5c0 160 54.5 285 163.5 375s245.5 135 409.5 135c168.667 0 305.834 -45 411.501 -135s158.5 -213 158.5 -369c0 -160.667 -52.833 -287.5 -158.5 -380.5s-245.5 -139.5 -419.5 -139.5z
M609.999 -8c62.667 0 107.999 38 135.999 114s42 204.667 42 386c0 161.333 -13.833 281.5 -41.5 360.5s-72.5 118.5 -134.5 118.5s-107.833 -38.667 -137.5 -116s-44.5 -197 -44.5 -359c0 -192 14.833 -324 44.5 -396s74.834 -108 135.501 -108zM365.998 1116
c-46 0 -85.167 17.667 -117.5 53s-48.5 76.333 -48.5 123s16.167 87.667 48.5 123s71.5 53 117.5 53c44.667 0 83.5 -17.667 116.5 -53s49.5 -76.333 49.5 -123s-16.5 -87.667 -49.5 -123s-71.833 -53 -116.5 -53zM845.998 1116c-46 0 -85.167 17.667 -117.5 53
s-48.5 76.333 -48.5 123s16.167 87.667 48.5 123s71.5 53 117.5 53c44.667 0 83.5 -17.667 116.5 -53s49.5 -76.333 49.5 -123s-16.5 -87.667 -49.5 -123s-71.833 -53 -116.5 -53z" />
    <glyph glyph-name="divide" unicode="&#xf7;" horiz-adv-x="1167" 
d="M584 104c-38.667 0 -71.667 13.667 -99 41s-41 60.333 -41 99c0 37.333 13.667 69.5 41 96.5s60.333 40.5 99 40.5s71.5 -13.5 98.5 -40.5s40.5 -59.167 40.5 -96.5c0 -38.667 -13.5 -71.667 -40.5 -99s-59.833 -41 -98.5 -41zM584 682c-38.667 0 -71.667 13.333 -99 40
s-41 59 -41 97c0 38.667 13.667 71.167 41 97.5s60.333 39.5 99 39.5s71.5 -13.167 98.5 -39.5s40.5 -58.833 40.5 -97.5c0 -38 -13.5 -70.333 -40.5 -97s-59.833 -40 -98.5 -40zM102 473v119h963v-119h-963z" />
    <glyph glyph-name="oslash" unicode="&#xf8;" horiz-adv-x="1217" 
d="M106 -51l-28.001 23.999l127 127c-50 42 -90.5 95 -121.5 159s-46.5 138.667 -46.5 224c0 166 56.5 292.5 169.5 379.5s247.5 130.5 403.5 130.5c72.667 0 141.167 -9.16699 205.5 -27.5s121.5 -45.166 171.5 -80.499l119 121l27 -25l-117 -119
c50 -42 89.833 -94.5 119.5 -157.5s44.5 -134.833 44.5 -215.5c0 -162 -53.833 -289.167 -161.5 -381.5s-246.5 -138.5 -416.5 -138.5c-65.333 0 -129.666 9 -192.999 27s-121 45.333 -173 82zM609.999 -8.00098c79.333 0 128.834 52.5 148.501 157.5
s29.5 219.167 29.5 342.5c0 23.333 -0.5 50 -1.5 80s-1.83301 56.333 -2.5 79l-348 -391c11.333 -75.333 28.666 -138.833 51.999 -190.5s64 -77.5 122 -77.5zM434 308.999l346.001 388.999c-6.66699 80.667 -23.834 146.334 -51.501 197.001s-66.5 76 -116.5 76
c-79.333 0 -129.5 -52.167 -150.5 -156.5s-31.5 -210.5 -31.5 -318.5c0 -28 0.166992 -59.5 0.5 -94.5s1.5 -65.833 3.5 -92.5z" />
    <glyph glyph-name="ugrave" unicode="&#xf9;" horiz-adv-x="1292" 
d="M442 -27c-92.667 0 -166.333 24.9971 -221 74.9971s-82 136.333 -82 259v504c0 21.333 -4.66699 41.333 -14 60s-22.333 33.334 -39 44.001c-12.667 8.66699 -28.334 15.834 -47.001 21.501s-37 8.83398 -55 9.50098v10l512 25l6 -8v-686c0 -66 12.833 -115 38.5 -147
s59.834 -48 102.501 -48c42 0 76.167 9.16699 102.5 27.5s44.833 37.166 55.5 56.499v637c0 20.667 -4 39.834 -12 57.501s-19 31.834 -33 42.501c-10.667 8.66699 -27.334 15.834 -50.001 21.501s-45.667 8.83398 -69 9.50098v12l514 25l8 -8v-811
c0 -22.667 4.83301 -42.334 14.5 -59.001s21.834 -30.667 36.501 -42c12.667 -8.66699 29.167 -15.334 49.5 -20.001s38.166 -7.33398 53.499 -8.00098v-13l-502 -28l-8 8v133h-6c-34.667 -38.667 -81.167 -75 -139.5 -109s-130.166 -51 -215.499 -51zM800.001 1071
c-64 36 -126.167 69.1699 -186.5 99.5029s-107.5 55.166 -141.5 74.499c-44 25.333 -78.5 51.666 -103.5 78.999s-37.5 59.666 -37.5 96.999c0 36.667 13.333 68 40 94s61 39 103 39c40.667 0 76.5 -15.667 107.5 -47s56.833 -67.333 77.5 -108l155 -312z" />
    <glyph glyph-name="uacute" unicode="&#xfa;" horiz-adv-x="1292" 
d="M442 -27c-92.667 0 -166.333 24.9971 -221 74.9971s-82 136.333 -82 259v504c0 21.333 -4.66699 41.333 -14 60s-22.333 33.334 -39 44.001c-12.667 8.66699 -28.334 15.834 -47.001 21.501s-37 8.83398 -55 9.50098v10l512 25l6 -8v-686c0 -66 12.833 -115 38.5 -147
s59.834 -48 102.501 -48c42 0 76.167 9.16699 102.5 27.5s44.833 37.166 55.5 56.499v637c0 20.667 -4 39.834 -12 57.501s-19 31.834 -33 42.501c-10.667 8.66699 -27.334 15.834 -50.001 21.501s-45.667 8.83398 -69 9.50098v12l514 25l8 -8v-811
c0 -22.667 4.83301 -42.334 14.5 -59.001s21.834 -30.667 36.501 -42c12.667 -8.66699 29.167 -15.334 49.5 -20.001s38.166 -7.33398 53.499 -8.00098v-13l-502 -28l-8 8v133h-6c-34.667 -38.667 -81.167 -75 -139.5 -109s-130.166 -51 -215.499 -51zM495.001 1071
l-14 15.9971l155 312c20.667 40.667 46.5 76.667 77.5 108s66.833 47 107.5 47c42 0 76.333 -13 103 -39s40 -57.333 40 -94c0 -37.333 -12.5 -69.666 -37.5 -96.999s-59.5 -53.666 -103.5 -78.999c-34 -19.333 -81.167 -44.166 -141.5 -74.499s-122.5 -63.5 -186.5 -99.5z
" />
    <glyph glyph-name="ucircumflex" unicode="&#xfb;" horiz-adv-x="1292" 
d="M442 -27c-92.667 0 -166.333 24.9971 -221 74.9971s-82 136.333 -82 259v504c0 21.333 -4.66699 41.333 -14 60s-22.333 33.334 -39 44.001c-12.667 8.66699 -28.334 15.834 -47.001 21.501s-37 8.83398 -55 9.50098v10l512 25l6 -8v-686c0 -66 12.833 -115 38.5 -147
s59.834 -48 102.501 -48c42 0 76.167 9.16699 102.5 27.5s44.833 37.166 55.5 56.499v637c0 20.667 -4 39.834 -12 57.501s-19 31.834 -33 42.501c-10.667 8.66699 -27.334 15.834 -50.001 21.501s-45.667 8.83398 -69 9.50098v12l514 25l8 -8v-811
c0 -22.667 4.83301 -42.334 14.5 -59.001s21.834 -30.667 36.501 -42c12.667 -8.66699 29.167 -15.334 49.5 -20.001s38.166 -7.33398 53.499 -8.00098v-13l-502 -28l-8 8v133h-6c-34.667 -38.667 -81.167 -75 -139.5 -109s-130.166 -51 -215.499 -51zM991.001 1085
l-340.001 218l-336 -216l-20 15l131 218.5l106 170.5c10.667 16.667 24.834 27.667 42.501 33s44.5 8 80.5 8s62.667 -3 80 -9s30.333 -15.333 39 -28l104.5 -166l134.5 -227z" />
    <glyph glyph-name="udieresis" unicode="&#xfc;" horiz-adv-x="1292" 
d="M442 -27c-92.667 0 -166.333 24.9971 -221 74.9971s-82 136.333 -82 259v504c0 21.333 -4.66699 41.333 -14 60s-22.333 33.334 -39 44.001c-12.667 8.66699 -28.334 15.834 -47.001 21.501s-37 8.83398 -55 9.50098v10l512 25l6 -8v-686c0 -66 12.833 -115 38.5 -147
s59.834 -48 102.501 -48c42 0 76.167 9.16699 102.5 27.5s44.833 37.166 55.5 56.499v637c0 20.667 -4 39.834 -12 57.501s-19 31.834 -33 42.501c-10.667 8.66699 -27.334 15.834 -50.001 21.501s-45.667 8.83398 -69 9.50098v12l514 25l8 -8v-811
c0 -22.667 4.83301 -42.334 14.5 -59.001s21.834 -30.667 36.501 -42c12.667 -8.66699 29.167 -15.334 49.5 -20.001s38.166 -7.33398 53.499 -8.00098v-13l-502 -28l-8 8v133h-6c-34.667 -38.667 -81.167 -75 -139.5 -109s-130.166 -51 -215.499 -51zM390.001 1116
c-46 0 -85.167 17.667 -117.5 53s-48.5 76.333 -48.5 123s16.167 87.667 48.5 123s71.5 53 117.5 53c44.667 0 83.5 -17.667 116.5 -53s49.5 -76.333 49.5 -123s-16.5 -87.667 -49.5 -123s-71.833 -53 -116.5 -53zM870.001 1116c-46 0 -85.167 17.667 -117.5 53
s-48.5 76.333 -48.5 123s16.167 87.667 48.5 123s71.5 53 117.5 53c44.667 0 83.5 -17.667 116.5 -53s49.5 -76.333 49.5 -123s-16.5 -87.667 -49.5 -123s-71.833 -53 -116.5 -53z" />
    <glyph glyph-name="yacute" unicode="&#xfd;" horiz-adv-x="993" 
d="M137 -467c-35.333 0 -75.166 13.001 -119.499 39.001s-66.5 71.667 -66.5 137c0 36.667 14 70.834 42 102.501s64.333 47.5 109 47.5c28 0 58 -8.83301 90 -26.5s48 -50.5 48 -98.5c0 -22.667 -2.33301 -49 -7 -79s-7.33398 -48 -8.00098 -54
c52 14.667 100.333 54.167 145 118.5s80.334 130.5 107.001 198.5c-23.333 50 -93.833 210.667 -211.5 482l-197.5 454c-12.667 26.667 -29.5 49 -50.5 67s-48.833 29 -83.5 33v13h623v-13c-21.333 -0.666992 -47.5 -4.33398 -78.5 -11.001s-46.5 -18.667 -46.5 -36
c0 -2.66699 1.66699 -8.33398 5 -17.001s6.33301 -17.334 9 -26.001l103 -250.5c60 -146.333 99.667 -241.5 119 -285.5c23.333 52.667 56.5 132.834 99.5 240.501s71.833 181.834 86.5 222.501c6 16.667 11.167 33.667 15.5 51s5.16602 30.333 2.49902 39
c-4.66699 21.333 -23.167 37.666 -55.5 48.999s-74.5 19.333 -126.5 24v13h375v-13c-32 -0.666992 -59 -9.16699 -81 -25.5s-42.667 -46.5 -62 -90.5l-170.5 -386l-182.5 -421c-63.333 -148 -130.333 -268 -201 -360s-147.667 -138 -231 -138zM474 1071l-14 15.9971l155 312
c20.667 40.667 46.5 76.667 77.5 108s66.833 47 107.5 47c42 0 76.333 -13 103 -39s40 -57.333 40 -94c0 -37.333 -12.5 -69.666 -37.5 -96.999s-59.5 -53.666 -103.5 -78.999c-34 -19.333 -81.167 -44.166 -141.5 -74.499s-122.5 -63.5 -186.5 -99.5z" />
    <glyph glyph-name="thorn" unicode="&#xfe;" horiz-adv-x="1282" 
d="M-18 -463l-0.00195312 13.998c21.333 1.33301 42.333 2.83301 63 4.5s37 4.5 49 8.5c19.333 6 32.666 17.833 39.999 35.5s11 37.167 11 58.5v1681c0 22.667 -4.16699 45.334 -12.5 68.001s-21.166 39 -38.499 49c-17.333 10.667 -41.5 18.667 -72.5 24
s-55.833 8.33301 -74.5 9v14l549 25l8 -8v-658l8 -2c22.667 25.333 57.834 53.833 105.501 85.5s104.5 47.5 170.5 47.5c115.333 0 217 -38 305 -114s132 -203 132 -381c0 -170 -51.5 -299.667 -154.5 -389s-216.167 -134 -339.5 -134c-56 0 -101 6.33301 -135 19
s-62.667 27.667 -86 45h-8v-371c0 -25.333 4.83301 -45.666 14.5 -60.999s23.834 -26.333 42.501 -33c25.333 -8.66699 50.833 -14 76.5 -16s50.167 -4.33301 73.5 -7v-14h-727zM663.998 7.99805c67.333 0 113.168 44.332 137.501 132.999s36.5 199.334 36.5 332.001
c0 104 -12 200.333 -36 289s-73.667 133 -149 133c-36 0 -65 -7 -87 -21s-43.333 -33.667 -64 -59v-659c10 -32 26.667 -64.667 50 -98s60.666 -50 111.999 -50z" />
    <glyph glyph-name="ydieresis" unicode="&#xff;" horiz-adv-x="993" 
d="M137 -467c-35.333 0 -75.166 13.001 -119.499 39.001s-66.5 71.667 -66.5 137c0 36.667 14 70.834 42 102.501s64.333 47.5 109 47.5c28 0 58 -8.83301 90 -26.5s48 -50.5 48 -98.5c0 -22.667 -2.33301 -49 -7 -79s-7.33398 -48 -8.00098 -54
c52 14.667 100.333 54.167 145 118.5s80.334 130.5 107.001 198.5c-23.333 50 -93.833 210.667 -211.5 482l-197.5 454c-12.667 26.667 -29.5 49 -50.5 67s-48.833 29 -83.5 33v13h623v-13c-21.333 -0.666992 -47.5 -4.33398 -78.5 -11.001s-46.5 -18.667 -46.5 -36
c0 -2.66699 1.66699 -8.33398 5 -17.001s6.33301 -17.334 9 -26.001l103 -250.5c60 -146.333 99.667 -241.5 119 -285.5c23.333 52.667 56.5 132.834 99.5 240.501s71.833 181.834 86.5 222.501c6 16.667 11.167 33.667 15.5 51s5.16602 30.333 2.49902 39
c-4.66699 21.333 -23.167 37.666 -55.5 48.999s-74.5 19.333 -126.5 24v13h375v-13c-32 -0.666992 -59 -9.16699 -81 -25.5s-42.667 -46.5 -62 -90.5l-170.5 -386l-182.5 -421c-63.333 -148 -130.333 -268 -201 -360s-147.667 -138 -231 -138zM331 1116
c-46 0 -85.167 17.667 -117.5 53s-48.5 76.333 -48.5 123s16.167 87.667 48.5 123s71.5 53 117.5 53c44.667 0 83.5 -17.667 116.5 -53s49.5 -76.333 49.5 -123s-16.5 -87.667 -49.5 -123s-71.833 -53 -116.5 -53zM811 1116c-46 0 -85.167 17.667 -117.5 53
s-48.5 76.333 -48.5 123s16.167 87.667 48.5 123s71.5 53 117.5 53c44.667 0 83.5 -17.667 116.5 -53s49.5 -76.333 49.5 -123s-16.5 -87.667 -49.5 -123s-71.833 -53 -116.5 -53z" />
    <glyph glyph-name="dotlessi" unicode="&#x131;" horiz-adv-x="670" 
d="M27 0l0.00390625 14c16.667 0.666992 32.167 1.66699 46.5 3s28.166 4.66602 41.499 9.99902c18.667 6.66699 32.167 18 40.5 34s12.5 34.667 12.5 56v694c0 22.667 -4.33301 42.667 -13 60s-21.334 31.333 -38.001 42c-12.667 8.66699 -31.334 15.834 -56.001 21.501
s-46.334 8.83398 -65.001 9.50098v12l522 25l8 -8v-850c0 -21.333 4.66699 -39.833 14 -55.5s23.333 -27.834 42 -36.501c14 -7.33301 28 -11.5 42 -12.5s29.333 -2.5 46 -4.5v-14h-643z" />
    <glyph glyph-name="Lslash" unicode="&#x141;" horiz-adv-x="1354" 
 />
    <glyph glyph-name="lslash" unicode="&#x142;" horiz-adv-x="649" 
 />
    <glyph glyph-name="OE" unicode="&#x152;" horiz-adv-x="2243" 
d="M811 0c-214 0 -395.498 56.334 -544.498 169.001s-223.5 284.334 -223.5 515.001c0 224.667 72.167 400 216.5 526s330.833 189 559.5 189h1272v-367h-23c-34 65.333 -79.833 134.166 -137.5 206.499s-113.5 114.166 -167.5 125.499
c-24.667 4.66699 -48.834 7.5 -72.501 8.5s-51.167 1.5 -82.5 1.5h-121v-637h72c56 0 96.667 6.66699 122 20s44.666 26.666 57.999 39.999c21.333 21.333 44 52.833 68 94.5s41.667 81.834 53 120.501h22v-584h-22c-11.333 40 -30 82.833 -56 128.5
s-47.667 77.834 -65 96.501c-14.667 15.333 -34.834 29.166 -60.501 41.499s-65.5 18.5 -119.5 18.5h-72v-535c0 -68 9 -110.5 27 -127.5s60.667 -25.5 128 -25.5c56 0 105.833 2 149.5 6s77.834 18.333 102.501 43c42 40.667 87.333 92.5 136 155.5s97 129.167 145 198.5
h20l-26 -428h-1358zM819.002 25.001c40 0 75.832 7.83301 107.499 23.5s58.167 38.5 79.5 68.5c30.667 42 47.834 123.833 51.501 245.5s5.5 237.834 5.5 348.501c0 76 -1.33301 184.667 -4 326s-20.334 232 -53.001 272c-18.667 22.667 -42.5 39.167 -71.5 49.5
s-67.5 15.5 -115.5 15.5c-106 0 -184 -57.167 -234 -171.5s-75 -283.833 -75 -508.5c0 -196.667 22.333 -357.334 67 -482.001s125.334 -187 242.001 -187z" />
    <glyph glyph-name="oe" unicode="&#x153;" horiz-adv-x="1786" 
d="M602 -31c-158.667 0 -292.5 46.5 -401.5 139.5s-163.5 217.833 -163.5 374.5c0 160 54.5 285 163.5 375s245.5 135 409.5 135c70.667 0 138 -8.83301 202 -26.5s120.333 -43.5 169 -77.5c46 33.333 97.833 59 155.5 77s119.167 27 184.5 27c142 0 250.5 -41 325.5 -123
s112.5 -183.667 112.5 -305v-12h-579v-59c0 -120.667 20.833 -221.167 62.5 -301.5s112.167 -120.5 211.5 -120.5c62 0 119.333 14.5 172 43.5s97 79.167 133 150.5l23 -16c-38 -77.333 -93.833 -143.5 -167.5 -198.5s-161.167 -82.5 -262.5 -82.5
c-73.333 0 -142 8.83301 -206 26.5s-120.333 43.834 -169 78.501c-48.667 -34.667 -105 -60.834 -169 -78.501s-132.667 -26.5 -206 -26.5zM610 -8c63.333 0 108.832 38 136.499 114s41.5 204.667 41.5 386c0 161.333 -14 281.5 -42 360.5s-72.667 118.5 -134 118.5
c-62 0 -107.833 -38.667 -137.5 -116s-44.5 -197 -44.5 -359c0 -192 14.833 -324 44.5 -396s74.834 -108 135.501 -108zM1180 580l241.001 4c0 145.333 -8.83301 245.833 -26.5 301.5s-46.834 83.5 -87.501 83.5c-46 0 -78.667 -38.167 -98 -114.5s-29 -167.833 -29 -274.5z
" />
    <glyph glyph-name="Scaron" unicode="&#x160;" horiz-adv-x="1253" 
d="M596 -31c-106.667 0 -196.999 12.6641 -270.999 37.9971s-129 48.333 -165 69l-86 -92h-15l-12 516h23c75.333 -150 152.5 -271.167 231.5 -363.5s172.5 -138.5 280.5 -138.5c106.667 0 179.667 26 219 78s59 108.667 59 170c0 60 -18.667 110.5 -56 151.5
s-107.333 79.833 -210 116.5c-44.667 16.667 -88.167 31.167 -130.5 43.5s-79.5 25.166 -111.5 38.499c-86.667 36.667 -153.667 89.334 -201 158.001s-71 150.334 -71 245.001c0 144.667 55.667 253.334 167 326.001s243.333 109 396 109
c75.333 0 150.166 -10.167 224.499 -30.5s128.5 -41.166 162.5 -62.499l78 76h16l9 -485h-23c-56 127.333 -115.833 238 -179.5 332s-149.834 141 -258.501 141c-82.667 0 -146.667 -25.833 -192 -77.5s-68 -108.5 -68 -170.5c0 -72 25.167 -127.833 75.5 -167.5
s113.833 -73.167 190.5 -100.5c40.667 -15.333 84.334 -29.5 131.001 -42.5s86.334 -26.833 119.001 -41.5c79.333 -34 145.166 -80 197.499 -138s78.5 -141 78.5 -249c0 -124.667 -57 -230.667 -171 -318s-259.667 -131 -437 -131zM647.001 1505c-36 0 -62.666 3 -79.999 9
s-30.333 15 -39 27l-104.5 166.5l-134.5 227.5l22 16l340 -217l336 215l20 -14l-131 -219.5l-106 -169.5c-10.667 -16.667 -24.834 -27.667 -42.501 -33s-44.5 -8 -80.5 -8z" />
    <glyph glyph-name="scaron" unicode="&#x161;" horiz-adv-x="903" 
d="M430 -31c-65.333 0 -129.334 10.6699 -192.001 32.0029s-104.334 40 -125.001 56l-58 -69h-14l-10 354h14c40.667 -78.667 95.834 -156.667 165.501 -234s146.167 -116 229.5 -116c64 0 110.167 14 138.5 42s42.5 63 42.5 105c0 46.667 -23.167 84.167 -69.5 112.5
s-121.5 60.5 -225.5 96.5c-68.667 23.333 -130.667 58 -186 104s-83 116.667 -83 212c0 91.333 35.667 165.666 107 222.999s163.333 86 276 86c67.333 0 129.333 -6.16699 186 -18.5s99.334 -24.5 128.001 -36.5l47 57h14l12 -324h-14
c-64 108 -126.167 184.833 -186.5 230.5s-118.833 68.5 -175.5 68.5c-38 0 -70.5 -11.667 -97.5 -35s-40.5 -54 -40.5 -92c0 -52.667 28 -92.834 84 -120.501s123.667 -54.834 203 -81.501c89.333 -30 157.333 -70 204 -120s70 -116.667 70 -200
c0 -112.667 -47.5 -196.167 -142.5 -250.5s-195.5 -81.5 -301.5 -81.5zM450.999 1094c-36 0 -62.666 3 -79.999 9s-30.333 15 -39 27l-104.5 166.5l-134.5 227.5l22 16l340 -217l336 215l20 -14l-131 -219.5l-106 -169.5c-10.667 -16.667 -24.834 -27.667 -42.501 -33
s-44.5 -8 -80.5 -8z" />
    <glyph glyph-name="Ydieresis" unicode="&#x178;" horiz-adv-x="1483" 
d="M297 0v13.998c28.667 2 60.667 4.66699 96 8s59.333 7 72 11c24.667 8 41 20 49 36s12 35.333 12 58v326c0 44.667 -3.66699 80.167 -11 106.5s-24.666 64.5 -51.999 114.5l-150 274.5c-75.333 138.333 -123.666 225.5 -144.999 261.5c-18.667 30.667 -39 58.667 -61 84
s-44.667 45.333 -68 60c-18.667 10.667 -37.334 18.167 -56.001 22.5s-37.667 6.83301 -57 7.5v15h883v-15c-36 -2 -81.833 -7.5 -137.5 -16.5s-83.5 -23.167 -83.5 -42.5c0 -6.66699 8.33301 -28.667 25 -66s38.334 -81 65.001 -131
c10.667 -21.333 48 -92.166 112 -212.499s115.333 -212.5 154 -276.5c18.667 28.667 55.5 95.667 110.5 201l131.5 250c33.333 64 56.666 114.833 69.999 152.5s20 61.834 20 72.501c0 27.333 -27.833 45 -83.5 53s-106.5 13.333 -152.5 16v15h521v-15l-70.5 -7.5
c-22.333 -2.33301 -41.833 -8.5 -58.5 -18.5c-28.667 -17.333 -53.5 -39 -74.5 -65s-40.167 -54.333 -57.5 -85l-134.5 -239l-143.5 -260c-34.667 -63.333 -55.334 -112.833 -62.001 -148.5s-10 -85.167 -10 -148.5v-281c0 -22.667 4.5 -42.667 13.5 -60
s25.167 -30 48.5 -38c12 -4 36.333 -7.66699 73 -11s67 -6 91 -8v-14h-879zM611 1507c-46 0 -85.167 17.667 -117.5 53s-48.5 76.333 -48.5 123s16.167 87.667 48.5 123s71.5 53 117.5 53c44.667 0 83.5 -17.667 116.5 -53s49.5 -76.333 49.5 -123s-16.5 -87.667 -49.5 -123
s-71.833 -53 -116.5 -53zM1091 1507c-46 0 -85.167 17.667 -117.5 53s-48.5 76.333 -48.5 123s16.167 87.667 48.5 123s71.5 53 117.5 53c44.667 0 83.5 -17.667 116.5 -53s49.5 -76.333 49.5 -123s-16.5 -87.667 -49.5 -123s-71.833 -53 -116.5 -53z" />
    <glyph glyph-name="Zcaron" unicode="&#x17d;" horiz-adv-x="1364" 
d="M-8 0l0.000976562 14.002l872 1360h-243c-56 0 -99.833 -2.16699 -131.5 -6.5s-58.167 -10.833 -79.5 -19.5c-28.667 -12.667 -78.167 -57.834 -148.5 -135.501s-129.5 -152.834 -177.5 -225.501h-18l40 412h1237v-15l-874 -1359h274c110.667 0 187.167 4.5 229.5 13.5
s73.166 24.833 92.499 47.5c40 46 87.667 104.333 143 175s102 136 140 196h16l-47 -457h-1325zM690.001 1485c-36 0 -62.666 3 -79.999 9s-30.333 15 -39 27l-104.5 166.5l-134.5 227.5l22 16l340 -217l336 215l20 -14l-131 -219.5l-106 -169.5
c-10.667 -16.667 -24.834 -27.667 -42.501 -33s-44.5 -8 -80.5 -8z" />
    <glyph glyph-name="zcaron" unicode="&#x17e;" horiz-adv-x="977" 
d="M29 0v17.999l532 926h-102c-44 0 -80.833 -1.33301 -110.5 -4s-53.834 -8 -72.501 -16c-25.333 -11.333 -55.833 -45.166 -91.5 -101.499l-102.5 -165.5h-16v310h886v-17l-530 -930h108c34.667 0 61.834 1 81.501 3l58.5 6c23.333 2.66699 45.5 12.167 66.5 28.5
s39.833 36.833 56.5 61.5l65 107l74 128h14v-354h-917zM502 1094c-36 0 -62.666 3 -79.999 9s-30.333 15 -39 27l-104.5 166.5l-134.5 227.5l22 16l340 -217l336 215l20 -14l-131 -219.5l-106 -169.5c-10.667 -16.667 -24.834 -27.667 -42.501 -33s-44.5 -8 -80.5 -8z" />
    <glyph glyph-name="florin" unicode="&#x192;" horiz-adv-x="1176" 
d="M-104 -395c-58 0 -115.166 15.498 -171.499 46.498s-84.5 87.833 -84.5 170.5c0 42 15.167 77 45.5 105s64.833 42 103.5 42c46 0 83.833 -12.5 113.5 -37.5s44.5 -63.5 44.5 -115.5c0 -36.667 -13 -68.834 -39 -96.501s-53.333 -48.167 -82 -61.5
c6 -11.333 15.5 -20 28.5 -26s28.833 -9 47.5 -9c63.333 0 118.666 38.5 165.999 115.5s86.666 190.833 117.999 341.5c26.667 124.667 46.167 229 58.5 313s25.833 168.667 40.5 254h-217l8 43h215c18.667 110 44.334 200.333 77.001 271s78 132 136 184
c46 40.667 102 73 168 97s145.667 36 239 36c70.667 0 138.167 -19.333 202.5 -58s96.5 -95.667 96.5 -171c0 -38 -12.167 -71.833 -36.5 -101.5s-60.5 -44.5 -108.5 -44.5c-42.667 0 -80.334 11.5 -113.001 34.5s-49 57.833 -49 104.5c0 32.667 12.5 65.5 37.5 98.5
s50.167 59.833 75.5 80.5c-4.66699 6.66699 -16.334 14.334 -35.001 23.001s-42 13 -70 13c-64 0 -111.667 -37.833 -143 -113.5s-59.333 -186.5 -84 -332.5l-20 -121h258l-11 -43h-254l-47.5 -284c-12.333 -75.333 -27.166 -150.666 -44.499 -225.999
c-17.333 -77.333 -46.833 -149.666 -88.5 -216.999s-96.167 -126 -163.5 -176c-52 -38.667 -113.667 -71.5 -185 -98.5s-148.666 -40.5 -231.999 -40.5z" />
    <glyph glyph-name="quoteleft" unicode="&#x2bb;" horiz-adv-x="502" 
d="M266 918c-85.333 0 -143.5 28.1689 -174.5 84.502s-46.5 118.166 -46.5 185.499c0 104.667 43.333 191 130 259s171.667 117.333 255 148l12 -24c-58.667 -21.333 -120.5 -62.833 -185.5 -124.5s-99.833 -121.834 -104.5 -180.501h98c74 0 124.5 -21.5 151.5 -64.5
s40.5 -80.167 40.5 -111.5c0 -30.667 -14.333 -67 -43 -109s-73 -63 -133 -63z" />
    <glyph glyph-name="quoteleft" unicode="&#x2018;" horiz-adv-x="502" 
d="M266 918c-85.333 0 -143.5 28.1689 -174.5 84.502s-46.5 118.166 -46.5 185.499c0 104.667 43.333 191 130 259s171.667 117.333 255 148l12 -24c-58.667 -21.333 -120.5 -62.833 -185.5 -124.5s-99.833 -121.834 -104.5 -180.501h98c74 0 124.5 -21.5 151.5 -64.5
s40.5 -80.167 40.5 -111.5c0 -30.667 -14.333 -67 -43 -109s-73 -63 -133 -63z" />
    <glyph glyph-name="circumflex" unicode="&#x2c6;" 
d="M848 1085l-340.001 218l-336 -216l-20 15l131 218.5l106 170.5c10.667 16.667 24.834 27.667 42.501 33s44.5 8 80.5 8s62.667 -3 80 -9s30.333 -15.333 39 -28l104.5 -166l134.5 -227z" />
    <glyph glyph-name="caron" unicode="&#x2c7;" 
d="M510 1094c-36 0 -62.666 3 -79.999 9s-30.333 15 -39 27l-104.5 166.5l-134.5 227.5l22 16l340 -217l336 215l20 -14l-131 -219.5l-106 -169.5c-10.667 -16.667 -24.834 -27.667 -42.501 -33s-44.5 -8 -80.5 -8z" />
    <glyph glyph-name="breve" unicode="&#x2d8;" 
 />
    <glyph glyph-name="dotaccent" unicode="&#x2d9;" 
 />
    <glyph glyph-name="ring" unicode="&#x2da;" 
d="M512 1075c-79.333 0 -146.667 20 -202 60s-83 93 -83 159c0 65.333 29.5 118.166 88.5 158.499s124.5 60.5 196.5 60.5c75.333 0 141.666 -20 198.999 -60s86 -93 86 -159c0 -63.333 -27.667 -115.666 -83 -156.999s-122.666 -62 -201.999 -62zM511.999 1104
c36 0 61.333 18 76 54s22 81.333 22 136c0 53.333 -7.33301 98.5 -22 135.5s-40 55.5 -76 55.5c-34.667 0 -59.667 -17.833 -75 -53.5s-23 -81.5 -23 -137.5c0 -54 7.33301 -99.167 22 -135.5s40 -54.5 76 -54.5z" />
    <glyph glyph-name="ogonek" unicode="&#x2db;" 
 />
    <glyph glyph-name="tilde" unicode="&#x2dc;" 
d="M131 1110l-27.0049 10c33.333 94.667 76.5 176.667 129.5 246s108.833 104 167.5 104c59.333 0 117.833 -17.5 175.5 -52.5s107.834 -52.5 150.501 -52.5c34.667 0 66.334 9.66699 95.001 29s52.334 52.333 71.001 99l27 -8c-24 -86.667 -61.167 -167 -111.5 -241
s-108.166 -111 -173.499 -111c-58 0 -117.667 17.5 -179 52.5s-111.666 52.5 -150.999 52.5c-32.667 0 -64.167 -9.83301 -94.5 -29.5s-56.833 -52.5 -79.5 -98.5z" />
    <glyph glyph-name="hungarumlaut" unicode="&#x2dd;" 
 />
    <glyph glyph-name="endash" unicode="&#x2013;" horiz-adv-x="1114" 
d="M102 399v242h910v-242h-910z" />
    <glyph glyph-name="emdash" unicode="&#x2014;" horiz-adv-x="1810" 
d="M102 399v242h1606v-242h-1606z" />
    <glyph glyph-name="quoteright" unicode="&#x2019;" horiz-adv-x="502" 
d="M72 913l-13 25.001c59.333 21.333 121.5 62.666 186.5 123.999s99.833 121.666 104.5 180.999h-98c-74.667 0 -125.5 21.5 -152.5 64.5s-40.5 80.167 -40.5 111.5c0 30.667 14.5 67 43.5 109s73.5 63 133.5 63c85.333 0 143.5 -28.167 174.5 -84.5
s46.5 -118.166 46.5 -185.499c0 -104.667 -43.333 -191.167 -130 -259.5s-171.667 -117.833 -255 -148.5z" />
    <glyph glyph-name="quotesinglbase" unicode="&#x201a;" horiz-adv-x="551" 
d="M68 -358l-12.999 23.998c59.333 21.333 121.5 62.833 186.5 124.5s99.833 121.834 104.5 180.501h-98c-74.667 0 -125.5 21.5 -152.5 64.5s-40.5 80.167 -40.5 111.5c0 30.667 14.333 67 43 109s73 63 133 63c85.333 0 143.666 -28.167 174.999 -84.5
s47 -118.166 47 -185.499c0 -104.667 -43.333 -191 -130 -259s-171.667 -117.333 -255 -148z" />
    <glyph glyph-name="quotedblleft" unicode="&#x201c;" horiz-adv-x="973" 
d="M266 918c-85.333 0 -143.5 28.1689 -174.5 84.502s-46.5 118.166 -46.5 185.499c0 104.667 43.333 191 130 259s171.667 117.333 255 148l12 -24c-58.667 -21.333 -120.5 -62.833 -185.5 -124.5s-99.833 -121.834 -104.5 -180.501h98c74 0 124.5 -21.5 151.5 -64.5
s40.5 -80.167 40.5 -111.5c0 -30.667 -14.333 -67 -43 -109s-73 -63 -133 -63zM737 918.002c-85.333 0 -143.5 28.1689 -174.5 84.502s-46.5 118.166 -46.5 185.499c0 104.667 43.333 191 130 259s171.667 117.333 255 148l12 -24
c-58.667 -21.333 -120.5 -62.833 -185.5 -124.5s-99.833 -121.834 -104.5 -180.501h98c74 0 124.5 -21.5 151.5 -64.5s40.5 -80.167 40.5 -111.5c0 -30.667 -14.333 -67 -43 -109s-73 -63 -133 -63z" />
    <glyph glyph-name="quotedblright" unicode="&#x201d;" horiz-adv-x="973" 
d="M72 913l-13 25.001c59.333 21.333 121.5 62.666 186.5 123.999s99.833 121.666 104.5 180.999h-98c-74.667 0 -125.5 21.5 -152.5 64.5s-40.5 80.167 -40.5 111.5c0 30.667 14.5 67 43.5 109s73.5 63 133.5 63c85.333 0 143.5 -28.167 174.5 -84.5
s46.5 -118.166 46.5 -185.499c0 -104.667 -43.333 -191.167 -130 -259.5s-171.667 -117.833 -255 -148.5zM543 913.001l-13 25.001c59.333 21.333 121.5 62.666 186.5 123.999s99.833 121.666 104.5 180.999h-98c-74.667 0 -125.5 21.5 -152.5 64.5
s-40.5 80.167 -40.5 111.5c0 30.667 14.5 67 43.5 109s73.5 63 133.5 63c85.333 0 143.5 -28.167 174.5 -84.5s46.5 -118.166 46.5 -185.499c0 -104.667 -43.333 -191.167 -130 -259.5s-171.667 -117.833 -255 -148.5z" />
    <glyph glyph-name="quotedblbase" unicode="&#x201e;" horiz-adv-x="1022" 
d="M68 -358l-12.999 23.998c59.333 21.333 121.5 62.833 186.5 124.5s99.833 121.834 104.5 180.501h-98c-74.667 0 -125.5 21.5 -152.5 64.5s-40.5 80.167 -40.5 111.5c0 30.667 14.333 67 43 109s73 63 133 63c85.333 0 143.666 -28.167 174.999 -84.5
s47 -118.166 47 -185.499c0 -104.667 -43.333 -191 -130 -259s-171.667 -117.333 -255 -148zM539.001 -358.002l-12.999 23.998c59.333 21.333 121.5 62.833 186.5 124.5s99.833 121.834 104.5 180.501h-98c-74.667 0 -125.5 21.5 -152.5 64.5s-40.5 80.167 -40.5 111.5
c0 30.667 14.333 67 43 109s73 63 133 63c85.333 0 143.666 -28.167 174.999 -84.5s47 -118.166 47 -185.499c0 -104.667 -43.333 -191 -130 -259s-171.667 -117.333 -255 -148z" />
    <glyph glyph-name="dagger" unicode="&#x2020;" horiz-adv-x="887" 
d="M434 193c-8 118.667 -20.333 254.834 -37 408.501s-32.334 289.834 -47.001 408.501c-0.666992 6.66699 -2.5 17.834 -5.5 33.501s-7.83301 23.5 -14.5 23.5c-5.33301 0 -10.166 -4.66699 -14.499 -14s-9.83301 -19 -16.5 -29l-49.5 -69
c-19.667 -26.667 -44.834 -40 -75.501 -40c-34.667 0 -64.167 11 -88.5 33s-36.5 52 -36.5 90c0 23.333 8.5 43.833 25.5 61.5s37.167 26.5 60.5 26.5c19.333 0 37.666 -6.83301 54.999 -20.5s29 -33.167 35 -58.5l56 29.5c22 11.667 43.667 17.5 65 17.5
c12.667 0 26.834 -2.5 42.501 -7.5s28.834 -13.5 39.501 -25.5c-8.66699 44 -25.167 87.667 -49.5 131s-36.5 88.333 -36.5 135c0 27.333 8.33301 53.333 25 78s41.667 37 75 37c34 0 59.333 -12.333 76 -37s25 -50.667 25 -78c0 -46.667 -12.167 -91.167 -36.5 -133.5
s-41.5 -86.5 -51.5 -132.5c12 10.667 25 18.834 39 24.501s28.333 8.5 43 8.5c22.667 0 45 -5.33301 67 -16s40.333 -20.334 55 -29.001c7.33301 23.333 19.5 42 36.5 56s35.833 21 56.5 21c24.667 0 45.167 -8.83301 61.5 -26.5s24.5 -38.167 24.5 -61.5
c0 -38 -12.667 -68 -38 -90s-55 -33 -89 -33c-30.667 0 -55.5 12.667 -74.5 38s-34.5 47.666 -46.5 66.999c-6 10 -11.833 20.333 -17.5 31s-11.5 16 -17.5 16c-8 0 -12.833 -4.33301 -14.5 -13s-3.5 -23.334 -5.5 -44.001l-46 -425
c-17.333 -164.667 -29.333 -295.334 -36 -392.001h-19z" />
    <glyph glyph-name="daggerdbl" unicode="&#x2021;" horiz-adv-x="887" 
d="M444 10c-29.333 0 -53.335 10.3359 -72.002 31.0029s-28 43.334 -28 68.001c0 44.667 13.833 80.5 41.5 107.5s43.834 53.833 48.501 80.5c-8.66699 -8 -26.5 -17.167 -53.5 -27.5s-48.167 -15.5 -63.5 -15.5c-23.333 0 -39.666 2.16699 -48.999 6.5
s-18 8.83301 -26 13.5c-5.33301 -29.333 -16 -52 -32 -68s-35.333 -24 -58 -24s-42 9.5 -58 28.5s-24 40.167 -24 63.5c0 28 8.66699 52.5 26 73.5s43.333 31.5 78 31.5c40 0 65.667 -17.167 77 -51.5s30.666 -51.5 57.999 -51.5c11.333 0 19.833 7.33301 25.5 22
s11.5 32.667 17.5 54c7.33301 25.333 20.666 75.666 39.999 150.999s33.333 137 42 185h19c10 -46.667 24.833 -108.667 44.5 -186s32.834 -127.333 39.501 -150c6 -21.333 12 -39.333 18 -54s14.333 -22 25 -22c28.667 0 48.334 17.167 59.001 51.5s36 51.5 76 51.5
c34 0 59.833 -10.5 77.5 -31.5s26.5 -45.5 26.5 -73.5c0 -23.333 -8 -44.5 -24 -63.5s-35.333 -28.5 -58 -28.5s-42.167 7.66699 -58.5 23s-27.5 37.666 -33.5 66.999c-8 -4 -18 -8 -30 -12s-26.667 -6 -44 -6c-14.667 0 -35.5 5.16699 -62.5 15.5s-44.833 19.5 -53.5 27.5
c6 -29.333 22.5 -56.833 49.5 -82.5s40.5 -60.834 40.5 -105.501c0 -24.667 -9.33301 -47.334 -28 -68.001s-43 -31 -73 -31zM433.998 752.003c-10 46.667 -25 108.498 -45 185.498l-39 149.5c-6 21.333 -12 39.333 -18 54s-14.333 22 -25 22
c-28.667 0 -48.334 -17 -59.001 -51s-36 -51 -76 -51c-34.667 0 -60.667 10.5 -78 31.5s-26 45.167 -26 72.5c0 23.333 8 44.5 24 63.5s35.333 28.5 58 28.5s42 -7.5 58 -22.5s27.333 -37.5 34 -67.5c8 4.66699 18 9 30 13s26.333 6 43 6c15.333 0 36.5 -5.16699 63.5 -15.5
s44.833 -19.5 53.5 -27.5c-6 29.333 -22.5 56.833 -49.5 82.5s-40.5 60.834 -40.5 105.501c0 24.667 9.33301 47.334 28 68.001s42.667 31 72 31c30 0 54.333 -10.333 73 -31s28 -43.334 28 -68.001c0 -44.667 -13.833 -80.5 -41.5 -107.5s-43.834 -53.833 -48.501 -80.5
c8.66699 8 26.5 17.167 53.5 27.5s47.833 15.5 62.5 15.5c23.333 0 39.833 -2.16699 49.5 -6.5s18.5 -9.16602 26.5 -14.499c4.66699 30 15.167 52.833 31.5 68.5s35.833 23.5 58.5 23.5s42 -9.5 58 -28.5s24 -40.167 24 -63.5c0 -27.333 -8.83301 -51.5 -26.5 -72.5
s-43.5 -31.5 -77.5 -31.5c-40 0 -65.667 17 -77 51s-30.666 51 -57.999 51c-11.333 0 -19.833 -7.33301 -25.5 -22s-11.5 -32.667 -17.5 -54c-7.33301 -25.333 -20.666 -75.5 -39.999 -150.5s-33.333 -136.5 -42 -184.5h-19z" />
    <glyph glyph-name="bullet" unicode="&#x2022;" horiz-adv-x="901" 
d="M451 362c-82.667 0 -154.667 29.833 -216 89.5s-92 131.167 -92 214.5c0 82 30.667 153.333 92 214s133.333 91 216 91c82 0 153.667 -30.333 215 -91s92 -132 92 -214c0 -83.333 -30.667 -154.833 -92 -214.5s-133 -89.5 -215 -89.5z" />
    <glyph glyph-name="ellipsis" unicode="&#x2026;" horiz-adv-x="1653" 
d="M276 -27c-54.667 0 -102 19.167 -142 57.5s-60 85.5 -60 141.5s20 103.167 60 141.5s87.333 57.5 142 57.5c55.333 0 103 -19.167 143 -57.5s60 -85.5 60 -141.5s-20 -103.167 -60 -141.5s-87.667 -57.5 -143 -57.5zM827 -27c-54.667 0 -102 19.167 -142 57.5
s-60 85.5 -60 141.5s20 103.167 60 141.5s87.333 57.5 142 57.5c55.333 0 103 -19.167 143 -57.5s60 -85.5 60 -141.5s-20 -103.167 -60 -141.5s-87.667 -57.5 -143 -57.5zM1378 -27c-54.667 0 -102 19.167 -142 57.5s-60 85.5 -60 141.5s20 103.167 60 141.5
s87.333 57.5 142 57.5c55.333 0 103 -19.167 143 -57.5s60 -85.5 60 -141.5s-20 -103.167 -60 -141.5s-87.667 -57.5 -143 -57.5z" />
    <glyph glyph-name="perthousand" unicode="&#x2030;" horiz-adv-x="2677" 
d="M455 555c-114.667 0 -207.833 30.5 -279.5 91.5s-107.5 147.833 -107.5 260.5c0 104 38 190.833 114 260.5s167 104.5 273 104.5c112 0 205.833 -29.833 281.5 -89.5s113.5 -150.834 113.5 -273.501c0 -97.333 -37.833 -180.666 -113.5 -249.999s-169.5 -104 -281.5 -104
zM461.001 580c42.667 0 75.499 30.5 98.499 91.5s34.5 138.833 34.5 233.5c0 98 -9.66699 179.5 -29 244.5s-55.333 97.5 -108 97.5c-53.333 0 -89.666 -33 -108.999 -99s-29 -143.667 -29 -233c0 -91.333 9.66699 -170 29 -236s57 -99 113 -99zM1346 -27
c-114.667 0 -208 30.5 -280 91.5s-108 148.167 -108 261.5c0 104 38.167 190.667 114.5 260s167.5 104 273.5 104c112 0 205.833 -29.833 281.5 -89.5s113.5 -150.5 113.5 -272.5c0 -98 -37.833 -181.667 -113.5 -251s-169.5 -104 -281.5 -104zM1352 -2
c42.667 0 75.499 30.5 98.499 91.5s34.5 139.167 34.5 234.5c0 97.333 -9.66699 178.666 -29 243.999s-55.333 98 -108 98c-53.333 0 -89.666 -33.167 -108.999 -99.5s-29 -143.833 -29 -232.5c0 -91.333 9.66699 -170.166 29 -236.499s57 -99.5 113 -99.5zM2214 -27
c-114 0 -207 30.5 -279 91.5s-108 148.167 -108 261.5c0 104 38 190.667 114 260s167 104 273 104c112 0 205.833 -29.833 281.5 -89.5s113.5 -150.5 113.5 -272.5c0 -98 -37.833 -181.667 -113.5 -251s-169.5 -104 -281.5 -104zM2220 -2c42.667 0 75.5 30.5 98.5 91.5
s34.5 139.167 34.5 234.5c0 97.333 -9.66699 178.666 -29 243.999s-55.333 98 -108 98c-53.333 0 -89.5 -33.167 -108.5 -99.5s-28.5 -143.833 -28.5 -232.5c0 -91.333 9.5 -170.166 28.5 -236.499s56.5 -99.5 112.5 -99.5zM486.999 -197l-55 27l875 1583l59 -27z" />
    <glyph glyph-name="guilsinglleft" unicode="&#x2039;" horiz-adv-x="739" 
d="M633 27l-275 181l-221 148c-22.667 14.667 -37.5 27.334 -44.5 38.001s-10.5 32.334 -10.5 65.001c0 29.333 3.33301 49.666 10 60.999s19.667 23.666 39 36.999l220 149l280 185l14 -12l-260 -420l260 -422z" />
    <glyph glyph-name="guilsinglright" unicode="&#x203a;" horiz-adv-x="739" 
d="M106 27l-12 10l260 422l-260 420l15 12l279 -185l220 -149c19.333 -13.333 32.333 -25.666 39 -36.999s10 -31.666 10 -60.999c0 -32.667 -3.5 -54.334 -10.5 -65.001s-21.833 -23.334 -44.5 -38.001l-221 -148z" />
    <glyph glyph-name="fraction" unicode="&#x2044;" horiz-adv-x="672" 
 />
    <glyph glyph-name="fraction" unicode="&#x2215;" horiz-adv-x="672" 
 />
    <glyph glyph-name="Euro" unicode="&#x20ac;" horiz-adv-x="1280" 
d="M784 -29c-156.667 0 -288.669 44.165 -396.002 132.498s-172.333 215.5 -195 381.5h-152v43h149c-2 23.333 -2.66699 47.5 -2 72.5l2 71.5h-149v43h156c21.333 154 90.666 285 207.999 393s268.333 162 453 162c108.667 0 200.667 -25.167 276 -75.5
s113 -118.833 113 -205.5c0 -69.333 -15 -116.666 -45 -141.999s-62 -38 -96 -38c-42.667 0 -76.5 11.667 -101.5 35s-37.5 52 -37.5 86c0 40 15.333 76.833 46 110.5s46 65.834 46 96.501c-4.66699 26.667 -25.5 51.667 -62.5 75s-83.167 35 -138.5 35
c-85.333 0 -149.166 -46.333 -191.499 -139s-68.5 -223.667 -78.5 -393h399v-43h-401c0 -23.333 0.166992 -49.333 0.5 -78s0.833008 -50.667 1.5 -66h358v-43h-356c6 -118 34.833 -218.167 86.5 -300.5s123.167 -123.5 214.5 -123.5c76 0 140.833 21.333 194.5 64
s98.834 102.667 135.501 180l20 -12c-38.667 -86.667 -92.667 -162 -162 -226s-167.666 -96 -294.999 -96z" />
    <glyph glyph-name="trademark" unicode="&#x2122;" horiz-adv-x="1528" 
d="M662 866l-0.000976562 13.0039c6 0.666992 17.833 2.33398 35.5 5.00098s30.834 7 39.501 13s15 17.333 19 34s6 38.667 6 66v303c0 16.667 -2 30 -6 40s-9.66699 17.333 -17 22c-8.66699 6.66699 -20.5 12 -35.5 16s-26.833 6 -35.5 6v15h276l137 -363l119 295
c4 11.333 7.5 23.166 10.5 35.499s5.16699 23.166 6.5 32.499h280v-15c-6 0 -16.333 -1.5 -31 -4.5s-25.334 -5.5 -32.001 -7.5c-7.33301 -2.66699 -12.666 -7 -15.999 -13s-5 -13.333 -5 -22v-409c0 -9.33301 1.66699 -16.833 5 -22.5s8.66602 -9.83398 15.999 -12.501
c4.66699 -2.66699 15 -5.5 31 -8.5s27.333 -4.83301 34 -5.5v-13h-358v13l38.5 4.5c19.667 2.33301 32.167 4.83301 37.5 7.5c6.66699 4 11.667 8.83301 15 14.5s5 13.167 5 22.5v391h-12l-181 -447h-77l-17.5 50.5c-6.33301 18.333 -13.5 37.166 -21.5 56.499l-125 330h-12
v-314c0 -28.667 2.33301 -50.667 7 -66s10.334 -26 17.001 -32s20.167 -10.333 40.5 -13s33.5 -4.33398 39.5 -5.00098v-13h-233zM165.999 866.004l0.00292969 12.999l34 3.5c16 1.66699 27 3.83398 33 6.50098c8.66699 2.66699 15 6.66699 19 12s6 12.333 6 21v458h-31
c-8 0 -15.833 -0.166992 -23.5 -0.5s-16.167 -0.833008 -25.5 -1.5c-16.667 -2 -36.834 -24 -60.501 -66s-37.5 -70.333 -41.5 -85h-10v172h559v-172h-11c-4.66699 14.667 -18.334 43 -41.001 85s-42.334 64 -59.001 66c-8.66699 0.666992 -16.5 1.16699 -23.5 1.5
s-15.5 0.5 -25.5 0.5h-29v-454c0 -8.66699 2 -16 6 -22s9.66699 -10.333 17 -13l65 -12v-13h-358z" />
    <glyph glyph-name="minus" unicode="&#x2212;" horiz-adv-x="1167" 
 />
    <glyph glyph-name="lessequal" unicode="&#x2264;" horiz-adv-x="1167" 
 />
    <glyph glyph-name="greaterequal" unicode="&#x2265;" horiz-adv-x="1167" 
 />
    <glyph glyph-name="apple" unicode="&#xf8ff;" horiz-adv-x="1264" 
 />
    <glyph glyph-name="fi" unicode="&#xfb01;" horiz-adv-x="1325" 
d="M27 0l-0.000976562 14.001c16.667 0.666992 32.167 2.33398 46.5 5.00098s28.166 6.66699 41.499 12c18.667 6.66699 32.167 17.667 40.5 33s12.5 34.333 12.5 57v809h-197v37h197v26c0 82.667 11.5 155 34.5 217s57.833 115.333 104.5 160
c42.667 42 105.334 79.167 188.001 111.5s173.667 48.5 273 48.5c124.667 0 223.834 -25.167 297.501 -75.5s110.5 -108.5 110.5 -174.5c0 -34 -13.833 -70.5 -41.5 -109.5s-68.5 -58.5 -122.5 -58.5c-46 0 -85.833 12.167 -119.5 36.5s-50.5 60.5 -50.5 108.5
c0 26.667 5 55 15 85s15 62 15 96c0 21.333 -8.16699 38.166 -24.5 50.499s-42.833 18.5 -79.5 18.5c-75.333 0 -134.166 -37 -176.499 -111s-64.833 -181 -67.5 -321v-108h279c63.333 0 128.166 2.33301 194.499 7s125.166 11 176.499 19l8 -8v-854
c0 -21.333 4.5 -40 13.5 -56s22.833 -28 41.5 -36c14.667 -8 28.834 -13.667 42.501 -17s28.834 -6 45.501 -8v-14h-608v14c19.333 0.666992 35.333 3 48 7s23.334 9.33301 32.001 16c10 8.66699 16.833 20 20.5 34s5.5 30.667 5.5 50v708c0 21.333 -4 40.666 -12 57.999
s-20.333 31.666 -37 42.999h-248v-801c0 -15.333 1.16699 -28.666 3.5 -39.999s6.16602 -21.333 11.499 -30c8 -12.667 20.167 -22.167 36.5 -28.5s36.166 -11.833 59.499 -16.5v-14h-610z" />
    <glyph glyph-name="fl" unicode="&#xfb02;" horiz-adv-x="1325" 
d="M27 0v14.0039c16.667 0.666992 32.167 2.33398 46.5 5.00098s28.166 6.66699 41.499 12c18.667 6.66699 32.167 17.667 40.5 33s12.5 34.333 12.5 57v809h-197v37h197v26c0 82.667 11.5 155 34.5 217s57.833 116 104.5 162c42.667 42.667 98 79.667 166 111
s148.667 47 242 47c34 0 69.333 -3.33301 106 -10s66.667 -16.334 90 -29.001l260 37l9 -8v-1395c0 -22.667 3.16699 -42.334 9.5 -59.001s18.833 -29 37.5 -37c14 -6.66699 28.5 -10.334 43.5 -11.001s31.833 -2 50.5 -4v-14h-602v14
c18.667 0.666992 34.5 2.83398 47.5 6.50098s23.833 8.5 32.5 14.5c10 8 16.5 19.167 19.5 33.5s4.5 31.833 4.5 52.5v1038c-16 9.33301 -33 24.666 -51 45.999s-27 49 -27 83c0 32 8 59 24 81s33.333 40 52 54c-12 28 -28.333 48.667 -49 62s-44 20 -70 20
c-52 0 -94 -31.667 -126 -95s-49.333 -161.333 -52 -294v-149h209v-37h-207v-801c0 -17.333 1.66699 -33 5 -47s11.333 -26.333 24 -37c8 -6.66699 18.833 -12.834 32.5 -18.501s30.834 -9.83398 51.501 -12.501v-14h-612z" />
    <glyph glyph-name="uniFEFF" unicode="&#xfeff;" horiz-adv-x="0" 
 />
    <glyph glyph-name=".null" horiz-adv-x="0" 
 />
    </font>
</defs>
</svg>
