<?xml version="1.0" standalone="no"?>
<!DOCTYPE svg PUBLIC "-//W3C//DTD SVG 1.1//EN" "http://www.w3.org/Graphics/SVG/1.1/DTD/svg11.dtd" >
<svg>
<metadata>
Created by FontForge 20090914 at Sun Sep 13 08:14:45 2015
 By www-data
Webtype Web Use Only
</metadata>
<defs>
<font id="MillerBannerBook" horiz-adv-x="1024" >
  <font-face 
    font-family="Miller Banner"
    font-weight="400"
    font-stretch="normal"
    units-per-em="2048"
    panose-1="2 0 5 3 8 0 0 2 0 3"
    ascent="1572"
    descent="-476"
    x-height="925.997"
    cap-height="1399"
    bbox="-298.999 -471.001 2388 1920"
    underline-thickness="102"
    underline-position="-205"
    unicode-range="U+0020-U+FEFF"
  />
<missing-glyph 
 />
    <glyph glyph-name="f_f" unicode="ff" horiz-adv-x="1251" 
d="M68 0l-0.00390625 14c18 0.666992 33.833 2.16699 47.5 4.5s27.834 5.83301 42.501 10.5c19.333 6 33.333 17.167 42 33.5s13 35.833 13 58.5v772h-209v33h209v53c0 84.667 12.5 159.834 37.5 225.501s61.5 125.5 109.5 179.5c30 32.667 72.833 62.834 128.5 90.501
s114.167 41.5 175.5 41.5c80 0 141 -14 183 -42s70.333 -59.333 85 -94c38 52 87 90 147 114s118 36 174 36c76.667 0 132 -19 166 -57s51 -79 51 -123c0 -23.333 -10.167 -47 -30.5 -71s-48.166 -36 -83.499 -36c-28 0 -54.167 9.16699 -78.5 27.5s-36.5 44.833 -36.5 79.5
c0 33.333 3.83301 56.5 11.5 69.5s11.5 30.833 11.5 53.5c-4.66699 12 -13 20.333 -25 25s-23.667 7 -35 7c-64 0 -112.5 -33.667 -145.5 -101s-52.167 -179 -57.5 -335c0 -15.333 -0.333008 -38.666 -1 -69.999s-1 -55.666 -1 -72.999h250v-33h-250v-768
c0 -22.667 4.66699 -42 14 -58s23.333 -27.333 42 -34c14.667 -6.66699 32.334 -11.334 53.001 -14.001s40.334 -4.33398 59.001 -5.00098v-14h-489v14c18.667 0.666992 33 2.16699 43 4.5s22.333 5.83301 37 10.5c19.333 6 33.333 17.167 42 33.5s13 35.833 13 58.5v772
h-414v-768c0 -22.667 4.66699 -42 14 -58s23.333 -27.333 42 -34c14.667 -6.66699 29 -11.334 43 -14.001s30.333 -4.33398 49 -5.00098v-14h-479zM398.996 926l413.998 0.000976562v59c0 38.667 1.83301 75 5.5 109s10.167 67.333 19.5 100c-32 0 -55 9.16699 -69 27.5
s-21 39.166 -21 62.499c0 34 7.83301 61.667 23.5 83s24.834 36 27.501 44c-2 15.333 -14.167 32.833 -36.5 52.5s-60.166 29.5 -113.499 29.5c-59.333 0 -115.833 -32.667 -169.5 -98s-80.5 -178 -80.5 -338v-131z" />
    <glyph glyph-name="f_f_i" unicode="ffi" horiz-adv-x="1784" 
d="M68 0l-0.00195312 14.0059c18 0.666992 33.833 2.16699 47.5 4.5s27.834 5.83301 42.501 10.5c19.333 6 33.333 17.167 42 33.5s13 35.833 13 58.5v772h-209v33h209v53c0 84.667 12.5 159.834 37.5 225.501s61.5 125.5 109.5 179.5c30 32.667 72.833 62.834 128.5 90.501
s114.167 41.5 175.5 41.5c80 0 142 -16.667 186 -50s73.333 -67.333 88 -102c30.667 42.667 75.667 81 135 115s124.333 51 195 51c116.667 0 199 -21.667 247 -65s72 -94 72 -152c0 -23.333 -9.5 -48.666 -28.5 -75.999s-48.5 -41 -88.5 -41
c-32.667 0 -59.167 9.83301 -79.5 29.5s-30.5 45.5 -30.5 77.5c0 33.333 6.33301 58.666 19 75.999l32 44c-0.666992 15.333 -11.334 33.5 -32.001 54.5s-62 31.5 -124 31.5s-120.167 -37.833 -174.5 -113.5s-81.5 -191.834 -81.5 -348.501v-121h330l254 16l8 -8v-807
c0 -22.667 4.66699 -42.334 14 -59.001s23.333 -28.334 42 -35.001c14.667 -6.66699 28.667 -11.334 42 -14.001s29.333 -4.33398 48 -5.00098v-14h-471v14c18.667 0.666992 33.667 2.16699 45 4.5s24.333 5.83301 39 10.5c19.333 6 33.333 17.167 42 33.5
s13 35.833 13 58.5v670c-2 20 -5 38.333 -9 55s-10.667 32.334 -20 47.001h-377v-768c0 -22.667 4.66699 -42 14 -58s23.333 -27.333 42 -34c14.667 -6.66699 32.334 -11.334 53.001 -14.001s40.334 -4.33398 59.001 -5.00098v-14h-489v14
c18.667 0.666992 33 2.16699 43 4.5s22.333 5.83301 37 10.5c19.333 6 33.333 17.167 42 33.5s13 35.833 13 58.5v772h-414v-768c0 -22.667 4.66699 -42 14 -58s23.333 -27.333 42 -34c14.667 -6.66699 29 -11.334 43 -14.001s30.333 -4.33398 49 -5.00098v-14h-479z
M398.998 926.006l413.998 0.000976562v55c0 38.667 2.83301 75.667 8.5 111s13.167 69.333 22.5 102c-32 0 -56 9.16699 -72 27.5s-24 39.166 -24 62.499c0 34 7.83301 61.667 23.5 83s24.834 36 27.501 44c-2 15.333 -14.167 32.833 -36.5 52.5s-60.166 29.5 -113.499 29.5
c-59.333 0 -115.833 -32.667 -169.5 -98s-80.5 -178 -80.5 -338v-131z" />
    <glyph glyph-name="f_f_l" unicode="ffl" horiz-adv-x="1786" 
d="M68 0l-0.00292969 14.002c18 0.666992 33.833 2.16699 47.5 4.5s27.834 5.83301 42.501 10.5c19.333 6 33.333 17.167 42 33.5s13 35.833 13 58.5v772h-209v33h209v53c0 84.667 12.5 159.834 37.5 225.501s61.5 125.5 109.5 179.5c30 32.667 72.833 62.834 128.5 90.501
s114.167 41.5 175.5 41.5c80 0 141.667 -14.667 185 -44s72.333 -66 87 -110c38 52 88.5 93 151.5 123s122.5 45 178.5 45c50.667 0 92.334 -4.83301 125.001 -14.5s62 -20.5 88 -32.5l110 45l8 -8v-1387c0 -22.667 4.66699 -42 14 -58s23.333 -28 42 -36
c14.667 -6.66699 28.667 -12.334 42 -17.001s29.333 -7.33398 48 -8.00098v-14h-473v14c18.667 0.666992 34 2.16699 46 4.5s25.333 5.83301 40 10.5c19.333 6 33.666 17.167 42.999 33.5s14 35.833 14 58.5v1093c-14.667 4.66699 -30 14.5 -46 29.5s-24 36.833 -24 65.5
c0 32.667 9.16699 57.334 27.5 74.001s28.5 27.334 30.5 32.001c-2 15.333 -11.667 34.5 -29 57.5s-57 34.5 -119 34.5s-119.833 -37.5 -173.5 -112.5s-80.5 -190.833 -80.5 -347.5v-121h258v-33h-258v-768c0 -22.667 4.66699 -42 14 -58s23.333 -27.333 42 -34
c14.667 -6.66699 30.334 -11.334 47.001 -14.001s34.334 -4.33398 53.001 -5.00098v-14h-477v14c18.667 0.666992 33 2.16699 43 4.5s22.333 5.83301 37 10.5c19.333 6 33.333 17.167 42 33.5s13 35.833 13 58.5v772h-414v-768c0 -22.667 4.66699 -42 14 -58
s23.333 -27.333 42 -34c14.667 -6.66699 29 -11.334 43 -14.001s30.333 -4.33398 49 -5.00098v-14h-479zM398.997 926.002h413.998v59c0 38.667 2.83301 76 8.5 112s13.167 67.667 22.5 95c-32 0 -56 9.5 -72 28.5s-24 40.167 -24 63.5c0 34 7.83301 61.667 23.5 83
s24.834 36 27.501 44c-2 15.333 -14.167 32.833 -36.5 52.5s-60.166 29.5 -113.499 29.5c-59.333 0 -115.833 -32.667 -169.5 -98s-80.5 -178 -80.5 -338v-131z" />
    <glyph glyph-name="f_l" unicode="fl" horiz-adv-x="1186" 
d="M68 0l-0.000976562 13.999c18 0.666992 33.833 2.16699 47.5 4.5s27.834 5.83301 42.501 10.5c19.333 6 33.333 17.167 42 33.5s13 35.833 13 58.5v772h-209v33h209v63c0 84.667 13.333 160.834 40 228.501s64.667 128.167 114 181.5c29.333 31.333 70.5 61 123.5 89
s111.5 42 175.5 42c50.667 0 92.334 -4.83301 125.001 -14.5s62 -20.5 88 -32.5l110 45l8 -8v-1387c0 -22.667 4.66699 -42 14 -58s23.333 -28 42 -36c14.667 -6.66699 28.667 -12.334 42 -17.001s29.333 -7.33398 48 -8.00098v-14h-473v14
c18.667 0.666992 34 2.16699 46 4.5s25.333 5.83301 40 10.5c19.333 6 33.666 17.167 42.999 33.5s14 35.833 14 58.5v1093c-14.667 4.66699 -30 14.5 -46 29.5s-24 36.833 -24 65.5c0 32.667 9.16699 57.334 27.5 74.001s28.5 27.334 30.5 32.001
c-2 15.333 -11.667 34.5 -29 57.5s-57 34.5 -119 34.5s-119.833 -37.5 -173.5 -112.5s-80.5 -190.833 -80.5 -347.5v-121h258v-33h-258v-762c0 -22.667 4.66699 -42 14 -58s23.333 -27.333 42 -34c14.667 -6 30.667 -11.5 48 -16.5s35.333 -7.83301 54 -8.5v-14h-489z" />
    <glyph glyph-name="f_i" unicode="fi" horiz-adv-x="1184" 
d="M68 0l-0.000976562 14.0039c18 0.666992 33.833 2.16699 47.5 4.5s27.834 5.83301 42.501 10.5c19.333 6 33.333 17.167 42 33.5s13 35.833 13 58.5v772h-209v33h209v59c0 84.667 13.333 161.5 40 230.5s64.667 130.167 114 183.5c29.333 31.333 70.833 61 124.5 89
s112.5 42 176.5 42c116.667 0 199 -21.667 247 -65s72 -94 72 -152c0 -23.333 -9.5 -48.666 -28.5 -75.999s-48.5 -41 -88.5 -41c-32.667 0 -59.167 9.83301 -79.5 29.5s-30.5 45.5 -30.5 77.5c0 33.333 6.33301 58.666 19 75.999l32 44
c-0.666992 15.333 -11.334 33.5 -32.001 54.5s-62 31.5 -124 31.5s-120.167 -37.833 -174.5 -113.5s-81.5 -191.834 -81.5 -348.501v-121h330l254 16l8 -8v-807c0 -22.667 4.66699 -42.334 14 -59.001s23.333 -28.334 42 -35.001c14.667 -6.66699 28.667 -11.334 42 -14.001
s29.333 -4.33398 48 -5.00098v-14h-471v14c18 0.666992 32.833 2.16699 44.5 4.5s24.834 5.83301 39.501 10.5c18.667 6 32.5 17.167 41.5 33.5s13.5 35.833 13.5 58.5v670c-2 20 -5 38.333 -9 55s-10.667 32.334 -20 47.001h-377v-762c0 -22.667 4.66699 -42 14 -58
s23.333 -27.333 42 -34c14.667 -6 30.667 -11.5 48 -16.5s35.333 -7.83301 54 -8.5v-14h-489z" />
    <glyph glyph-name="f_j" unicode="fj" horiz-adv-x="1163" 
d="M600 -463c-67.333 0 -117.667 14.166 -151 42.499s-50 63.5 -50 105.5c0 22.667 10 45.334 30 68.001s46.333 34 79 34c26.667 0 51.667 -7.33301 75 -22s35 -38.667 35 -72c0 -18.667 -3.66699 -41.167 -11 -67.5s-11 -46.833 -11 -61.5
c2.66699 -0.666992 10.167 -1.5 22.5 -2.5s19.833 -1.5 22.5 -1.5c62 0 105.5 33.833 130.5 101.5s37.5 179.834 37.5 336.501v774c0 23.333 -5.83301 46.5 -17.5 69.5s-27.167 40.167 -46.5 51.5h-346v-762c0 -22.667 4.66699 -42 14 -58s23.333 -27.333 42 -34
c14.667 -6 31 -11.5 49 -16.5s36.333 -7.83301 55 -8.5v-14h-491v14c18 0.666992 33.833 2.16699 47.5 4.5s27.834 5.83301 42.501 10.5c19.333 6 33.333 17.167 42 33.5s13 35.833 13 58.5v772h-209v33h209v63c0 84.667 13.333 160.834 40 228.501
s64.667 128.167 114 181.5c29.333 31.333 70.833 61 124.5 89s112.5 42 176.5 42c116.667 0 199 -21.667 247 -65s72 -94 72 -152c0 -23.333 -9.5 -48.666 -28.5 -75.999s-48.5 -41 -88.5 -41c-32.667 0 -59.167 9.83301 -79.5 29.5s-30.5 45.5 -30.5 77.5
c0 33.333 6.33301 58.666 19 75.999l32 44c-0.666992 15.333 -11.334 33.5 -32.001 54.5s-62 31.5 -124 31.5s-120.167 -37.833 -174.5 -113.5s-81.5 -191.834 -81.5 -348.501v-121h334l254 16l8 -8v-850c0 -84.667 -9 -162.834 -27 -234.501s-52 -133.5 -102 -185.5
c-42 -44 -83.5 -76.167 -124.5 -96.5s-88.167 -30.5 -141.5 -30.5z" />
    <glyph glyph-name="f_t" unicode="ft" horiz-adv-x="1325" 
d="M813 893l-414.006 -0.00292969v-762c0 -21.333 4.66699 -40.333 14 -57s23.333 -28.334 42 -35.001c14.667 -6 35.834 -11.5 63.501 -16.5s50.834 -7.83301 69.501 -8.5v-14h-520v14c18 0.666992 33.833 2.16699 47.5 4.5s27.834 5.83301 42.501 10.5
c19.333 6 33.333 17.167 42 33.5s13 35.833 13 58.5v772h-209v33h209v59c0 84.667 10.667 162.5 32 233.5s57 133.167 107 186.5c42 44.667 89.667 76.667 143 96s106 29 158 29c76.667 0 132 -19 166 -57s51 -79 51 -123c0 -23.333 -10.167 -47 -30.5 -71
s-48.166 -36 -83.499 -36c-28 0 -54.167 9.16699 -78.5 27.5s-36.5 44.833 -36.5 79.5c0 33.333 3.83301 56.5 11.5 69.5s11.5 30.833 11.5 53.5c-4.66699 12 -13 20.333 -25 25s-23.667 7 -35 7c-64 0 -112.5 -33.667 -145.5 -101s-52.167 -179 -57.5 -335
c0 -15.333 -0.333008 -38.666 -1 -69.999s-1 -55.666 -1 -72.999h418v305h178v-305h281v-33h-279v-606c0 -58 10.833 -107 32.5 -147s63.5 -60 125.5 -60c46 0 80.833 19.333 104.5 58s38.834 77.334 45.501 116.001h20c-8 -73.333 -35.167 -137.333 -81.5 -192
s-107.166 -82 -182.499 -82c-83.333 0 -145.5 24.333 -186.5 73s-61.5 118.334 -61.5 209.001v631z" />
    <glyph glyph-name=".notdef" 
 />
    <glyph glyph-name="space" unicode=" " horiz-adv-x="483" 
 />
    <glyph glyph-name="exclam" unicode="!" horiz-adv-x="659" 
d="M322 434c-14.667 178.667 -37.833 355.166 -69.5 529.499s-47.5 285.833 -47.5 334.5c0 36.667 11.333 69.167 34 97.5s53 42.5 91 42.5s68.333 -14.167 91 -42.5s34 -60.833 34 -97.5c0 -48 -15.833 -159.167 -47.5 -333.5s-56.167 -351.166 -73.5 -530.499h-12z
M328.001 -16.001c-36.667 0 -68 12.667 -94 38s-39 57 -39 95c0 36 13 67.5 39 94.5s57.333 40.5 94 40.5c37.333 0 69.166 -13.5 95.499 -40.5s39.5 -58.5 39.5 -94.5c0 -38 -13.167 -69.667 -39.5 -95s-58.166 -38 -95.499 -38z" />
    <glyph glyph-name="quotedbl" unicode="&#x22;" horiz-adv-x="803" 
d="M188 967c-14.667 100.667 -35 190.331 -61 268.998s-39 132.334 -39 161.001c0 30.667 9.66699 57 29 79s47.333 33 84 33c36 0 63.667 -11 83 -33s29 -48.333 29 -79c0 -26.667 -13 -80.167 -39 -160.5s-47.667 -170.166 -65 -269.499h-21zM590 966.997
c-15.333 100.667 -36.001 190.331 -62.001 268.998s-39 132.334 -39 161.001c0 30.667 9.66699 57 29 79s47.333 33 84 33s64.667 -11 84 -33s29 -48.333 29 -79c0 -26.667 -13.167 -80.167 -39.5 -160.5s-48.166 -170.166 -65.499 -269.499h-20z" />
    <glyph glyph-name="numbersign" unicode="#" horiz-adv-x="1053" 
d="M375 -14v348l-232 -58v160l232 56v251l-232 -57v158l232 57v383h20v-377l260 68v309h23v-303l231 57v-157l-231 -58v-252l231 58v-156l-231 -57v-430h-23v422l-260 -66v-356h-20zM395 498l260 67v252l-260 -67v-252z" />
    <glyph glyph-name="dollar" unicode="$" horiz-adv-x="1231" 
d="M522 -291v281.003c-112 12 -204.5 44.333 -277.5 97s-109.5 117.334 -109.5 194.001c0 56.667 12.667 101.167 38 133.5s58.333 48.5 99 48.5c34.667 0 61.167 -10.833 79.5 -32.5s27.5 -50.5 27.5 -86.5c0 -48 -14.667 -77.5 -44 -88.5s-51.666 -29.833 -66.999 -56.5
c0 -49.333 25.833 -90.333 77.5 -123s110.5 -53.334 176.5 -62.001v543c-116 14 -205 47.167 -267 99.5s-93 129.166 -93 230.499c0 86.667 30 165.667 90 237s150 116.666 270 135.999v200h29v-196c8.66699 0.666992 22.667 1.83398 42 3.50098s34.666 2.5 45.999 2.5
s25 -0.166992 41 -0.5s30.333 -1.5 43 -3.5v194h29v-196c102.667 -13.333 180.5 -43.833 233.5 -91.5s79.5 -100.5 79.5 -158.5c0 -48 -10.5 -87.333 -31.5 -118s-49.5 -46 -85.5 -46c-26.667 0 -51 8.83301 -73 26.5s-33 43.5 -33 77.5c0 23.333 4.83301 42.5 14.5 57.5
s20.5 28.833 32.5 41.5l31.5 33c10.333 11.333 17.5 24.666 21.5 39.999c-6 21.333 -26 43.666 -60 66.999s-77.333 39.333 -130 48v-506c132 -20.667 224.333 -58.167 277 -112.5s79 -133.5 79 -237.5c0 -73.333 -26.667 -149.5 -80 -228.5s-145.333 -131.833 -276 -158.5
v-289h-29v285c-17.333 -2 -36.5 -3.83301 -57.5 -5.5s-40.833 -2.5 -59.5 -2.5c-8 0 -17.667 0.166992 -29 0.5s-20 0.833008 -26 1.5v-279h-29zM551 10.0029c6 0 15.002 -0.333984 27.002 -1.00098s21.333 -1 28 -1c20.667 0 41.667 1.16699 63 3.5s39.333 4.5 54 6.5v514
c-22.667 4.66699 -49.834 8.83398 -81.501 12.501s-61.834 6.5 -90.501 8.5v-543zM723.002 739.002l0.000976562 504c-10.667 2 -22.834 3.16699 -36.501 3.5s-26.167 0.5 -37.5 0.5c-12 0 -28 -0.833008 -48 -2.5s-36.667 -3.5 -50 -5.5v-479zM522.003 766.002v467
c-59.333 -15.333 -105.5 -45.833 -138.5 -91.5s-49.5 -92.5 -49.5 -140.5c0 -71.333 17.333 -125.833 52 -163.5s80 -61.5 136 -71.5zM752.003 27.002c68 19.333 116.667 55.333 146 108s44 102.667 44 150c0 65.333 -16.5 119.333 -49.5 162s-79.833 69 -140.5 79v-499z
" />
    <glyph glyph-name="percent" unicode="%" horiz-adv-x="1735" 
d="M449 618c-83.333 0 -157.833 26.832 -223.5 80.499s-98.5 132.834 -98.5 237.501c0 99.333 34.5 179.833 103.5 241.5s141.833 92.5 218.5 92.5c83.333 0 160 -26 230 -78s105 -136.667 105 -254c0 -89.333 -34.833 -165 -104.5 -227s-146.5 -93 -230.5 -93zM457 634.999
c50 0 91.499 28.167 124.499 84.5s49.5 127.833 49.5 214.5c0 92.667 -15 169 -45 229s-74.333 90 -133 90c-61.333 0 -105.666 -31.167 -132.999 -93.5s-41 -134.166 -41 -215.499c0 -82.667 13.667 -154.834 41 -216.501s73 -92.5 137 -92.5zM1272 -29.001
c-83.333 0 -157.831 27 -223.498 81s-98.5 133 -98.5 237c0 96.667 34.833 176.5 104.5 239.5s142.167 94.5 217.5 94.5c83.333 0 160.166 -25.833 230.499 -77.5s105.5 -136.5 105.5 -254.5c0 -90.667 -34.833 -166.667 -104.5 -228s-146.834 -92 -231.501 -92z
M1282 -14.001c46.667 0 87 29.334 121 88.001s51 129.667 51 213c0 89.333 -14.833 164.833 -44.5 226.5s-73.5 92.5 -131.5 92.5c-62 0 -106.833 -31.833 -134.5 -95.5s-41.5 -134.834 -41.5 -213.501c0 -81.333 14 -153.5 42 -216.5s74 -94.5 138 -94.5zM442.001 -197
l-32 19l876 1585l37 -18z" />
    <glyph glyph-name="ampersand" unicode="&#x26;" horiz-adv-x="1522" 
d="M465 -33c-96 0 -185.168 27.1641 -267.501 81.4971s-123.5 139.833 -123.5 256.5c0 97.333 29.333 175.333 88 234s149.334 124 272.001 196c-54.667 81.333 -95.667 151.833 -123 211.5s-41 114.834 -41 165.501c0 92.667 35.5 168.334 106.5 227.001
s153.167 88 246.5 88c89.333 0 154.666 -28.333 195.999 -85s62 -119.667 62 -189c0 -60 -21.333 -119.167 -64 -177.5s-105.334 -112.5 -188.001 -162.5c62 -91.333 121.333 -174 178 -248l180 -229c44 62 81 137.5 111 226.5s45 156.833 45 203.5
c0 24.667 -15.167 46 -45.5 64s-80.166 31.333 -149.499 40v13h588v-13c-58 -6 -110 -13.667 -156 -23s-85.333 -32.333 -118 -69c-30 -33.333 -65.167 -99 -105.5 -197s-92.166 -185.333 -155.499 -262l108.5 -129.5c44.333 -52.333 79.166 -86.166 104.499 -101.499
c36 -21.333 79.333 -38.5 130 -51.5s96.334 -20.5 137.001 -22.5v-14h-480l-143 176c-48.667 -50 -105.5 -97.333 -170.5 -142s-139.167 -67 -222.5 -67zM552.999 67.9971c50.667 0 103 10.667 157 32s98 52.333 132 93l-206.5 270.5
c-80.333 104.333 -142.5 189.5 -186.5 255.5c-60 -38 -102.333 -85.167 -127 -141.5s-37 -118.5 -37 -186.5c0 -83.333 23.5 -158 70.5 -224s112.833 -99 197.5 -99zM615.999 830.997c66 40 110.834 88.666 134.501 145.999s35.5 118 35.5 182c0 66 -12.333 123.5 -37 172.5
s-65.334 73.5 -122.001 73.5c-64 0 -106.667 -23.667 -128 -71s-32 -101.666 -32 -162.999c0 -44 12.167 -94.5 36.5 -151.5s61.833 -119.833 112.5 -188.5z" />
    <glyph glyph-name="quotesingle" unicode="'" horiz-adv-x="401" 
d="M188 967c-14.667 100.667 -35 190.331 -61 268.998s-39 132.334 -39 161.001c0 30.667 9.66699 57 29 79s47.333 33 84 33c36 0 63.667 -11 83 -33s29 -48.333 29 -79c0 -26.667 -13 -80.167 -39 -160.5s-47.667 -170.166 -65 -269.499h-21z" />
    <glyph glyph-name="parenleft" unicode="(" horiz-adv-x="686" 
d="M594 -328c-158.667 115.333 -281.666 248.334 -368.999 399.001s-131 328.334 -131 533.001c0 197.333 42 370.666 126 519.999s208 285.333 372 408l47 -31c-162 -121.333 -282.333 -252.833 -361 -394.5s-118 -309.167 -118 -502.5
c0 -203.333 44.167 -378.833 132.5 -526.5s205.166 -271.834 350.499 -372.501z" />
    <glyph glyph-name="parenright" unicode=")" horiz-adv-x="686" 
d="M92 -328l-48.999 32.999c145.333 100.667 262.166 224.834 350.499 372.501s132.5 323.167 132.5 526.5c0 193.333 -39.333 360.833 -118 502.5s-199 273.167 -361 394.5l47 31c164 -122.667 288 -258.667 372 -408s126 -322.666 126 -519.999
c0 -204.667 -43.667 -382.334 -131 -533.001s-210.333 -283.667 -369 -399z" />
    <glyph glyph-name="asterisk" unicode="*" horiz-adv-x="782" 
d="M393 811c-17.333 0 -30.168 4.49902 -38.501 13.499s-12.5 20.833 -12.5 35.5c0 8 1.83301 21.833 5.5 41.5s8 41.667 13 66s9.83301 49.166 14.5 74.499s8 48 10 68c-23.333 -15.333 -46.166 -32.833 -68.499 -52.5l-62 -55.5c-19 -17.333 -36.333 -32 -52 -44
s-28.5 -18 -38.5 -18c-11.333 0 -21.666 5.33301 -30.999 16s-14 21.667 -14 33c0 14.667 7.16699 26.834 21.5 36.501s33.5 18.834 57.5 27.501s52 18 84 28s65.667 23 101 39c-34.667 15.333 -68 28 -100 38s-60.333 19.5 -85 28.5s-44.5 18.667 -59.5 29
s-22.5 23.166 -22.5 38.499c0 14.667 5.16699 26.5 15.5 35.5s20.833 13.5 31.5 13.5c12 0 25.833 -6 41.5 -18s32.834 -26.833 51.501 -44.5l60.5 -56.5c21.667 -20 44.5 -38 68.5 -54c-2 20.667 -5.33301 43.834 -10 69.501s-9.5 50.5 -14.5 74.5s-9.33301 45.667 -13 65
s-5.5 33 -5.5 41c0 15.333 4.16699 27.5 12.5 36.5s21.166 13.5 38.499 13.5c18.667 0 31.834 -5 39.501 -15s11.5 -21.667 11.5 -35c0 -6.66699 -2 -19.667 -6 -39l-13.5 -66l-15 -76c-5 -26 -8.5 -49 -10.5 -69c24.667 18 48 37 70 57l61.5 55.5c19 17 36 31.167 51 42.5
s27.5 17 37.5 17c11.333 0 21.666 -5.5 30.999 -16.5s14 -22.167 14 -33.5c0 -15.333 -7.16699 -28 -21.5 -38s-33.5 -19.5 -57.5 -28.5s-51.833 -18.5 -83.5 -28.5s-65.167 -22.333 -100.5 -37c32 -14 63.667 -25.833 95 -35.5s59.5 -19.167 84.5 -28.5
s45.167 -19.166 60.5 -29.499s23 -22.833 23 -37.5c0 -8 -1.66699 -15 -5 -21s-7.33301 -11.333 -12 -16s-9.66699 -8.16699 -15 -10.5s-10.333 -3.5 -15 -3.5c-11.333 0 -24.833 6 -40.5 18s-33 26.833 -52 44.5l-60.5 56.5c-21.333 20 -43 37.667 -65 53
c2 -19.333 5.5 -41.833 10.5 -67.5l15 -76l13.5 -67c4 -19.667 6 -32.834 6 -39.501c0 -12.667 -4.33301 -24 -13 -34s-21.334 -15 -38.001 -15z" />
    <glyph glyph-name="plus" unicode="+" horiz-adv-x="1145" 
d="M537 39v457h-459v71h459v459h71v-459h457v-71h-457v-457h-71z" />
    <glyph glyph-name="comma" unicode="," horiz-adv-x="512" 
d="M117 -342l-11 20.001c57.333 34 106 79.5 146 136.5s63.333 120.167 70 189.5h-76c-47.333 0 -82.833 12.167 -106.5 36.5s-35.5 55.166 -35.5 92.499c0 28.667 11.333 56 34 82s53.667 39 93 39c60 0 103.667 -20.167 131 -60.5s41 -92.5 41 -156.5
c0 -70 -24.833 -137.333 -74.5 -202s-120.167 -123.667 -211.5 -177z" />
    <glyph glyph-name="hyphen" unicode="-" horiz-adv-x="764" 
d="M61 449v141h641v-141h-641z" />
    <glyph glyph-name="hyphen" unicode="&#x2010;" horiz-adv-x="764" 
d="M61 449v141h641v-141h-641z" />
    <glyph glyph-name="hyphen" unicode="&#xad;" horiz-adv-x="764" 
d="M61 449v141h641v-141h-641z" />
    <glyph glyph-name="period" unicode="." horiz-adv-x="512" 
d="M258 -18c-38 0 -70.333 13 -97 39s-40 58 -40 96s13.333 70.333 40 97s59 40 97 40s70.333 -13.333 97 -40s40 -59 40 -97s-13.333 -70 -40 -96s-59 -39 -97 -39z" />
    <glyph glyph-name="slash" unicode="/" horiz-adv-x="825" 
d="M119 -426l-56 16l642 1950l55 -16z" />
    <glyph glyph-name="zero" unicode="0" horiz-adv-x="1257" 
d="M618 -29c-159.333 0 -285.169 59.6699 -377.502 179.003s-138.5 266.666 -138.5 441.999c0 201.333 53.333 364.666 160 489.999s232.334 188 377.001 188c158.667 0 284.334 -59.833 377.001 -179.5s139 -266.834 139 -441.501c0 -202 -53 -365.5 -159 -490.5
s-232 -187.5 -378 -187.5zM624.997 -9.99707c94.667 0 169.833 59.667 225.5 179s83.5 270.666 83.5 453.999c0 189.333 -24.667 341.333 -74 456s-125 172 -227 172c-96 0 -171.5 -59.667 -226.5 -179s-82.5 -270.666 -82.5 -453.999c0 -193.333 24.667 -346.333 74 -459
s125 -169 227 -169z" />
    <glyph glyph-name="one" unicode="1" horiz-adv-x="874" 
d="M160 0v13.9961c18.667 0.666992 43 3.33398 73 8.00098s57.333 10.334 82 17.001c21.333 6 38 16.833 50 32.5s18 34.834 18 57.501v1010l-266 -17v17c52.667 6.66699 96 13 130 19s69.667 13.333 107 22c54 12 98 24 132 36s66 27.333 96 46h16
c-8 -46 -13 -96.167 -15 -150.5s-3 -112.166 -3 -173.499v-799c0 -27.333 5.16699 -48.5 15.5 -63.5s24.833 -26.5 43.5 -34.5c15.333 -6.66699 40.5 -12.667 75.5 -18s61.167 -8.33301 78.5 -9v-14h-633z" />
    <glyph glyph-name="two" unicode="2" horiz-adv-x="1141" 
d="M109 0l0.000976562 50.9951c122.667 94 219.5 172.833 290.5 236.5s141.167 131.834 210.5 204.501c91.333 94.667 153.166 180.834 185.499 258.501s48.5 159.834 48.5 246.501c0 80.667 -18 142.834 -54 186.501s-87.667 65.5 -155 65.5c-100 0 -182 -43.667 -246 -131
s-96 -180.666 -96 -279.999c0 -46.667 8.5 -84.667 25.5 -114s46.167 -44 87.5 -44c47.333 0 87 13 119 39s58.333 54 79 84l12 -10c-31.333 -51.333 -71.5 -93.666 -120.5 -126.999s-106.167 -50 -171.5 -50c-53.333 0 -98.833 17.167 -136.5 51.5
s-56.5 84.166 -56.5 149.499c0 109.333 54.167 212.166 162.5 308.499s235.166 144.5 380.499 144.5c110 0 198.833 -28.167 266.5 -84.5s101.5 -134.833 101.5 -235.5c0 -141.333 -57 -267.166 -171 -377.499s-285.667 -228.833 -515 -355.5l-59 -51h551
c52 0 95.333 21 130 63s62.334 84.333 83.001 127l18 -6l-121 -350h-849z" />
    <glyph glyph-name="three" unicode="3" horiz-adv-x="1157" 
d="M442 -53c-102.667 0 -192.168 25.667 -268.501 77s-114.5 119 -114.5 203c0 51.333 15.333 92.166 46 122.499s66 45.5 106 45.5c29.333 0 54 -8.33301 74 -25s30 -41.667 30 -75c0 -21.333 -5.83301 -38.333 -17.5 -51s-24.5 -24 -38.5 -34
c-14 -10.667 -26.833 -21.5 -38.5 -32.5s-17.5 -25.833 -17.5 -44.5c0 -44 20.333 -83 61 -117s100 -51 178 -51c89.333 0 174.5 46 255.5 138s121.5 195 121.5 309c0 71.333 -11.833 129 -35.5 173s-62.834 66 -117.501 66c-38.667 0 -78.334 -15.333 -119.001 -46
s-77 -60.334 -109 -89.001l-28 33c108 70 201.167 139.833 279.5 209.5s117.5 156.167 117.5 259.5c0 71.333 -15.333 127.666 -46 168.999s-79 62 -145 62c-65.333 0 -128.333 -28.5 -189 -85.5s-91 -126.833 -91 -209.5c0 -37.333 7.83301 -67.166 23.5 -89.499
s41.167 -33.5 76.5 -33.5c25.333 0 51.666 7.83301 78.999 23.5s47.333 29.834 60 42.501l9 -10c-22.667 -25.333 -56.667 -53.833 -102 -85.5s-83.666 -47.5 -114.999 -47.5c-63.333 0 -110.666 15.333 -141.999 46s-47 67 -47 109c0 94 50 177.667 150 251
s214.667 110 344 110c106 0 189.833 -28.167 251.5 -84.5s92.5 -119.166 92.5 -188.499c0 -62.667 -28.167 -122 -84.5 -178s-147.166 -96.333 -272.499 -121l-36 -30c6 0.666992 23.833 2.16699 53.5 4.5s47.834 3.5 54.501 3.5c86.667 0 158.5 -23.5 215.5 -70.5
s85.5 -116.5 85.5 -208.5c0 -138 -55.833 -247.5 -167.5 -328.5s-252.5 -121.5 -422.5 -121.5z" />
    <glyph glyph-name="four" unicode="4" horiz-adv-x="1165" 
d="M393 0l-0.000976562 14c18.667 0.666992 43.334 2.33398 74.001 5.00098s52.334 6.66699 65.001 12c19.333 6 33.833 17.5 43.5 34.5s14.5 36.833 14.5 59.5v307h-541v17l696 839h35v-813h56c34 0 63.333 1.66699 88 5s44.334 10.666 59.001 21.999
c18.667 14.667 33 37.834 43 69.501s15.333 60.167 16 85.5h15v-417h-15c-0.666992 29.333 -5.83398 60.833 -15.501 94.5s-24.834 58.834 -45.501 75.501c-13.333 10 -32 16.167 -56 18.5s-52.333 3.5 -85 3.5h-60v-295c0 -22.667 4.66699 -42.667 14 -60
s23.333 -30 42 -38c16 -6.66699 38.167 -12.334 66.5 -17.001s51.833 -7.33398 70.5 -8.00098v-14h-580zM116.999 475h473v567z" />
    <glyph glyph-name="five" unicode="5" horiz-adv-x="1069" 
d="M451 -29c-117.333 0 -209.84 24.168 -277.507 72.501s-101.5 105.5 -101.5 171.5c0 42 12.333 74.333 37 97s55.334 34 92.001 34c28.667 0 51.167 -9 67.5 -27s24.5 -40.333 24.5 -67c0 -25.333 -7.83301 -49.833 -23.5 -73.5s-23.5 -49.834 -23.5 -78.501
c3.33301 -28.667 20.833 -54.5 52.5 -77.5s81.834 -34.5 150.501 -34.5c92 0 163 45.667 213 137s75 207.333 75 348c0 94 -22.167 165.667 -66.5 215s-101.166 74 -170.499 74c-50 0 -104.167 -15.5 -162.5 -46.5s-101.166 -78.5 -128.499 -142.5l-27 7l156 684h20
c14.667 -16.667 48.334 -34.167 101.001 -52.5s118.667 -27.5 198 -27.5c72.667 0 133.667 7 183 21s96.333 38.333 141 73l8 -8c-55.333 -100 -135.666 -170.5 -240.999 -211.5s-201 -61.5 -287 -61.5c-24.667 0 -54.5 0.5 -89.5 1.5s-55.833 1.83301 -62.5 2.5l-82 -339
c36 34 78.333 63.167 127 87.5s109.667 36.5 183 36.5c120.667 0 219.334 -34.167 296.001 -102.5s115 -166.5 115 -294.5c0 -120.667 -50.333 -220.5 -151 -299.5s-216 -118.5 -346 -118.5z" />
    <glyph glyph-name="six" unicode="6" horiz-adv-x="1159" 
d="M557 -29c-119.333 0 -222.164 50.999 -308.497 152.999s-129.5 245.667 -129.5 431c0 244.667 73.5 452.334 220.5 623.001s306.167 256 477.5 256c83.333 0 148.5 -20.333 195.5 -61s70.5 -88.667 70.5 -144c0 -36 -7.66699 -64.167 -23 -84.5s-42.333 -30.5 -81 -30.5
c-23.333 0 -41.333 5.66699 -54 17s-22.667 26.333 -30 45c-8 18 -14.667 38.667 -20 62s-12.333 46.333 -21 69c-14.667 37.333 -30.834 62.333 -48.501 75s-41.834 19 -72.501 19c-89.333 0 -172.5 -68.167 -249.5 -204.5s-128.833 -307.833 -155.5 -514.5l12 -4
c38 62 85.167 109.167 141.5 141.5s121.833 48.5 196.5 48.5c95.333 0 180.166 -39.833 254.499 -119.5s111.5 -181.167 111.5 -304.5c0 -131.333 -41.833 -243 -125.5 -335s-204.167 -138 -361.5 -138zM563.002 -10.001c88 0 153.667 42.832 197 128.499
s65 194.834 65 327.501c0 122.667 -20 216.5 -60 281.5s-99.667 97.5 -179 97.5c-74 0 -137 -38.167 -189 -114.5s-78 -178.833 -78 -307.5c0 -124 22.167 -223.833 66.5 -299.5s103.5 -113.5 177.5 -113.5z" />
    <glyph glyph-name="seven" unicode="7" horiz-adv-x="1036" 
d="M434 -246c-33.333 0 -58.999 10.5 -76.999 31.5s-27 58.5 -27 112.5c0 48.667 26.333 131.5 79 248.5s109 227.833 169 332.5l160 275c48 79.333 110.667 173.333 188 282h-602c-68.667 0 -120.5 -28.667 -155.5 -86s-57.167 -107 -66.5 -149l-20 6l123 526h16l17 -114
h823v-19c-80.667 -116 -145 -217.833 -193 -305.5s-97 -196.167 -147 -325.5c-38.667 -100.667 -71.5 -198.167 -98.5 -292.5s-44.833 -209.833 -53.5 -346.5c-2.66699 -46 -14.334 -86.833 -35.001 -122.5s-54 -53.5 -100 -53.5z" />
    <glyph glyph-name="eight" unicode="8" horiz-adv-x="1102" 
d="M510 -31c-120.667 0 -218.829 30.167 -294.496 90.5s-113.5 133.5 -113.5 219.5c0 69.333 29.167 133.166 87.5 191.499s127.5 102.833 207.5 133.5c-86.667 38.667 -150.334 80.834 -191.001 126.501s-61 108.167 -61 187.5c0 104.667 44.5 191.5 133.5 260.5
s184.5 103.5 286.5 103.5c119.333 0 213 -27.833 281 -83.5s102 -128.167 102 -217.5c0 -46 -18.833 -94 -56.5 -144s-104.834 -97.667 -201.501 -143c79.333 -25.333 150.666 -64 213.999 -116s95 -122.333 95 -211c0 -122.667 -51.833 -219.667 -155.5 -291
s-214.834 -107 -333.501 -107zM528.005 -8c81.333 0 150.498 27.832 207.498 83.499s85.5 124.834 85.5 207.501c0 63.333 -22.667 114.833 -68 154.5s-97.666 71.167 -156.999 94.5l-85 33c-29.333 11.333 -58.333 21 -87 29c-50 -26.667 -91.167 -69.167 -123.5 -127.5
s-48.5 -121.833 -48.5 -190.5c0 -82.667 23.833 -150.667 71.5 -204s115.834 -80 204.501 -80zM664.003 706.999c56 25.333 95.501 64.833 118.501 118.5s34.5 114.5 34.5 182.5c0 72.667 -21.833 133.167 -65.5 181.5s-105.167 72.5 -184.5 72.5
c-78.667 0 -140.334 -25.333 -185.001 -76s-67 -109.334 -67 -176.001c0 -52 13.333 -97.167 40 -135.5s65.334 -71.166 116.001 -98.499c25.333 -14 54.166 -26.5 86.499 -37.5s67.833 -21.5 106.5 -31.5z" />
    <glyph glyph-name="nine" unicode="9" horiz-adv-x="1159" 
d="M326 -209c-84.667 0 -151.669 21.832 -201.002 65.499s-74 91.5 -74 143.5c0 40 9.33301 69.833 28 89.5s46.334 29.5 83.001 29.5c24 0 42.667 -8 56 -24s23.333 -35.333 30 -58c6.66699 -20.667 11.834 -42.167 15.501 -64.5s8.83398 -41.166 15.501 -56.499
c16 -40 34.667 -66 56 -78s46.333 -18 75 -18c106.667 0 199 70.667 277 212s127 315 147 521l-15 2c-31.333 -45.333 -74.333 -87 -129 -125s-122.334 -57 -203.001 -57c-102.667 0 -189.667 38.833 -261 116.5s-107 180.167 -107 307.5c0 124.667 41.5 234.667 124.5 330
s194.5 143 334.5 143c136 0 246.667 -50.5 332 -151.5s128 -251.833 128 -452.5c0 -243.333 -66.667 -450 -200 -620s-304 -255 -512 -255zM577.998 427.999c75.333 0 138.5 33.499 189.5 100.499s76.5 163.167 76.5 288.5c0 134 -25.833 239.5 -77.5 316.5
s-114.5 115.5 -188.5 115.5c-84.667 0 -146.5 -38 -185.5 -114s-58.5 -175.667 -58.5 -299c0 -125.333 19.333 -224.666 58 -297.999s100.667 -110 186 -110z" />
    <glyph glyph-name="colon" unicode=":" horiz-adv-x="571" 
d="M285 -16c-36.667 0 -68 12.667 -94 38s-39 57 -39 95c0 36 13 67.5 39 94.5s57.333 40.5 94 40.5c36 0 67.5 -13.5 94.5 -40.5s40.5 -58.5 40.5 -94.5c0 -38 -13.5 -69.667 -40.5 -95s-58.5 -38 -94.5 -38zM285 662c-36.667 0 -68 13 -94 39s-39 57.333 -39 94
c0 37.333 13 69.166 39 95.499s57.333 39.5 94 39.5c36 0 67.5 -13.167 94.5 -39.5s40.5 -58.166 40.5 -95.499c0 -36.667 -13.5 -68 -40.5 -94s-58.5 -39 -94.5 -39z" />
    <glyph glyph-name="semicolon" unicode=";" horiz-adv-x="571" 
d="M150 -342l-6.99902 11.998c58 34 105.333 81 142 141s57 125 61 195h-65c-46.667 0 -81.334 11.833 -104.001 35.5s-34 54.167 -34 91.5c0 27.333 11.167 54 33.5 80s52.833 39 91.5 39c58 0 100.5 -19.667 127.5 -59s40.5 -90 40.5 -152
c0 -71.333 -24.667 -140.166 -74 -206.499s-120 -125.166 -212 -176.499zM285.001 661.998c-36.667 0 -68 13 -94 39s-39 57.333 -39 94c0 37.333 13 69.166 39 95.499s57.333 39.5 94 39.5c36 0 67.5 -13.167 94.5 -39.5s40.5 -58.166 40.5 -95.499
c0 -36.667 -13.5 -68 -40.5 -94s-58.5 -39 -94.5 -39z" />
    <glyph glyph-name="less" unicode="&#x3c;" horiz-adv-x="1145" 
d="M1016 70l-905 436v53l905 436v-73l-813 -390l813 -389v-73z" />
    <glyph glyph-name="equal" unicode="=" horiz-adv-x="1145" 
d="M119 322v69h905v-69h-905zM119 674v69h905v-69h-905z" />
    <glyph glyph-name="greater" unicode="&#x3e;" horiz-adv-x="1145" 
d="M127 70v73l813 389l-813 390v73l905 -436v-53z" />
    <glyph glyph-name="question" unicode="?" horiz-adv-x="987" 
d="M365 369l-0.00292969 381c100.667 14 180.334 42.333 239.001 85s88 117.334 88 224.001c0 127.333 -23.833 217.5 -71.5 270.5s-105.834 79.5 -174.501 79.5c-27.333 0 -55.166 -5.5 -83.499 -16.5s-48.833 -23.833 -61.5 -38.5
c2.66699 -20.667 7.83398 -39.334 15.501 -56.001s11.5 -45.334 11.5 -86.001c0 -35.333 -14.333 -61.833 -43 -79.5s-52.667 -26.5 -72 -26.5c-36 0 -62.333 11.333 -79 34s-25 50.334 -25 83.001c0 50.667 30.333 98.167 91 142.5s144.334 66.5 251.001 66.5
c143.333 0 251.5 -39.333 324.5 -118s109.5 -176 109.5 -292c0 -114.667 -44.167 -212.667 -132.5 -294s-206.833 -128 -355.5 -140l-12 -219h-20zM378.997 -25c-38 0 -70.333 13.167 -97 39.5s-40 58.5 -40 96.5c0 37.333 13.333 69.5 40 96.5s59 40.5 97 40.5
s70.333 -13.5 97 -40.5s40 -59.167 40 -96.5c0 -38 -13.333 -70.167 -40 -96.5s-59 -39.5 -97 -39.5z" />
    <glyph glyph-name="at" unicode="@" horiz-adv-x="2040" 
d="M1042 -440c-228.667 0 -429.168 71.502 -601.501 214.502s-258.5 340.5 -258.5 592.5c0 267.333 97.5 496.833 292.5 688.5s427.167 287.5 696.5 287.5c212.667 0 377.5 -65.333 494.5 -196s175.5 -285 175.5 -463c0 -167.333 -51.167 -311.833 -153.5 -433.5
s-217.166 -182.5 -344.499 -182.5c-52 0 -96.667 14.5 -134 43.5s-56 73.167 -56 132.5l-6 2c-26.667 -46 -62 -86.5 -106 -121.5s-89.333 -52.5 -136 -52.5c-59.333 0 -109.666 22.667 -150.999 68s-62 113.333 -62 204c0 104 43.167 218 129.5 342
s194.166 186 323.499 186c36.667 0 70.5 -10.833 101.5 -32.5s48.833 -53.834 53.5 -96.501h7l45 117h125l-191 -545c-6 -16 -11.167 -35.333 -15.5 -58s-6.5 -41.334 -6.5 -56.001c0 -32.667 7 -59.667 21 -81s38.333 -32 73 -32c100.667 0 200.5 55.333 299.5 166
s148.5 258 148.5 442c0 172 -57.5 316.167 -172.5 432.5s-269.167 174.5 -462.5 174.5c-211.333 0 -399 -87.167 -563 -261.5s-246 -395.833 -246 -664.5c0 -236.667 66.833 -422.834 200.5 -558.501s299.834 -203.5 498.501 -203.5c203.333 0 381.666 53.833 534.999 161.5
s265 263.5 335 467.5l17 -6c-64 -217.333 -181.5 -384.666 -352.5 -501.999s-355.5 -176 -553.5 -176zM925.999 111.002c54 0 99.6689 19.332 137.002 57.999s70.666 85.334 99.999 140.001l131 389c-8.66699 58 -27.334 97.5 -56.001 118.5s-61.667 31.5 -99 31.5
c-78.667 0 -151 -64.667 -217 -194s-99 -251 -99 -365c0 -62.667 9.33301 -108 28 -136s43.667 -42 75 -42z" />
    <glyph glyph-name="A" unicode="A" horiz-adv-x="1393" 
d="M-49 0l-0.000976562 14.0029c19.333 0.666992 41 4.16699 65 10.5s45.333 14.5 64 24.5c24.667 14.667 46.5 36.667 65.5 66s36.167 62 51.5 98l238.5 589.5l246.5 618.5h37l307.5 -760.5l208.5 -508.5c8 -20.667 17.833 -40.334 29.5 -59.001
s29.834 -35.334 54.501 -50.001c18.667 -10 39.334 -17.167 62.001 -21.5s43.667 -6.83301 63 -7.5v-14h-645v14c35.333 2 79.166 8 131.499 18s80.833 27.333 85.5 52c2 8.66699 1.83301 18.334 -0.5 29.001s-4.83301 20 -7.5 28l-146 375h-508
c-19.333 -46.667 -39 -98.834 -59 -156.501s-34.333 -101.834 -43 -132.501l-19.5 -67.5c-6.33301 -22.333 -9.5 -40.833 -9.5 -55.5c0 -36 32.667 -59.5 98 -70.5s116 -17.5 152 -19.5v-14h-522zM364.999 545.003h485l-244 616z" />
    <glyph glyph-name="B" unicode="B" horiz-adv-x="1366" 
d="M88 0l-0.00195312 13.999c18.667 0.666992 45.334 4.16699 80.001 10.5s58.667 11.833 72 16.5c24.667 8.66699 41.334 21.5 50.001 38.5s13 36.833 13 59.5v1108c0 22.667 -4.33301 43.5 -13 62.5s-25.334 33.833 -50.001 44.5c-21.333 8.66699 -46 15.667 -74 21
s-51.333 8.33301 -70 9v15h701c108 0 201.833 -24.167 281.5 -72.5s119.5 -117.833 119.5 -208.5c0 -103.333 -33.167 -183 -99.5 -239s-158.166 -95 -275.499 -117v-19c120.667 -8 225.667 -43.667 315 -107s134 -151.666 134 -264.999c0 -115.333 -49 -206 -147 -272
s-206 -99 -324 -99h-713zM712.998 24.999c106.667 0 184.5 38 233.5 114s73.5 167 73.5 273c0 88.667 -29 163.667 -87 225s-137.667 92 -239 92c-18.667 0 -48 -0.5 -88 -1.5s-69.333 -1.83301 -88 -2.5v-575c6.66699 -46 23.5 -78.333 50.5 -97s75.167 -28 144.5 -28z
M517.998 753.999h129.002c102.667 0 179.167 29.667 229.5 89s75.5 138 75.5 236c0 91.333 -25.833 163.333 -77.5 216s-113.834 79 -186.501 79c-17.333 0 -43.833 -0.166992 -79.5 -0.5s-65.834 -0.833008 -90.501 -1.5v-618z" />
    <glyph glyph-name="C" unicode="C" horiz-adv-x="1337" 
d="M754 -31c-200.667 0 -363.835 64.832 -489.502 194.499s-188.5 302.5 -188.5 518.5c0 210 69 386.333 207 529s309.333 214 514 214c86.667 0 160.334 -12.167 221.001 -36.5s106.334 -50.833 137.001 -79.5l78 110h18l9 -506h-19
c-43.333 140.667 -107.666 256.5 -192.999 347.5s-186.333 136.5 -303 136.5c-124.667 0 -226.334 -58.667 -305.001 -176s-118 -291.666 -118 -522.999c0 -187.333 44.167 -343 132.5 -467s207.833 -186 358.5 -186c120 0 219.5 30.333 298.5 91s138.5 137.667 178.5 231
l23 -13c-49.333 -114.667 -120.5 -207.5 -213.5 -278.5s-208.167 -106.5 -345.5 -106.5z" />
    <glyph glyph-name="D" unicode="D" horiz-adv-x="1595" 
d="M88 0l-0.000976562 13.9961c20.667 0 47.834 2.33301 81.501 7s57.167 9.33398 70.5 14.001c24.667 8.66699 41.334 21.834 50.001 39.501s13 37.834 13 60.501v1112c0 22.667 -4.33301 44.167 -13 64.5s-25.334 35.833 -50.001 46.5c-24.667 10 -50.167 16.667 -76.5 20
s-48.833 5.33301 -67.5 6v15h660c204 0 382.333 -60.167 535 -180.5s229 -296.5 229 -528.5c0 -217.333 -77.833 -386.666 -233.5 -507.999s-346.167 -182 -571.5 -182h-627zM742.999 24.9961c174 0 304.998 60.334 392.998 181.001s132 282.667 132 486
c0 195.333 -52.167 358.166 -156.5 488.499s-242.166 195.5 -413.499 195.5c-23.333 0 -53.166 -0.5 -89.499 -1.5l-88.5 -2.5v-1190c6 -50 25.167 -88.667 57.5 -116s87.5 -41 165.5 -41z" />
    <glyph glyph-name="E" unicode="E" horiz-adv-x="1364" 
d="M78 0l-0.00292969 13.9951c18.667 0.666992 46.5 3.5 83.5 8.5s63.167 10.5 78.5 16.5c24.667 8.66699 41.334 21.667 50.001 39s13 37.666 13 60.999v1108c0 22.667 -4.16699 43.5 -12.5 62.5s-25.166 33.833 -50.499 44.5c-19.333 8 -46.5 14.833 -81.5 20.5
s-61.833 8.83398 -80.5 9.50098v15h1128v-318h-18c-11.333 44.667 -41.5 102.167 -90.5 172.5s-95.5 108.5 -139.5 114.5c-24.667 2.66699 -57 4.66699 -97 6s-76.333 2 -109 2h-232v-639h205c57.333 0 97.166 7.83301 119.499 23.5s39.833 29.834 52.5 42.501
c15.333 15.333 30.833 46.333 46.5 93s24.834 83.334 27.501 110.001h18v-572h-18c-2 30 -11.667 69.833 -29 119.5s-32.333 80.834 -45 93.501c-13.333 14.667 -31.5 29.334 -54.5 44.001s-62.167 22 -117.5 22h-205v-502c0 -83.333 15 -135.166 45 -155.499
s96.333 -30.5 199 -30.5c71.333 0 141 1.33301 209 4s114.333 17 139 43c30.667 31.333 66.834 85 108.501 161s67.5 129.333 77.5 160h19l-27 -393h-1212z" />
    <glyph glyph-name="F" unicode="F" horiz-adv-x="1253" 
d="M78 0l-0.00195312 13.999c18.667 0.666992 47 3.16699 85 7.5s63.667 8.83301 77 13.5c24.667 8.66699 41.334 21.834 50.001 39.501s13 37.834 13 60.501v1112c0 22.667 -4.16699 43.5 -12.5 62.5s-25.166 33.833 -50.499 44.5c-19.333 8 -46.5 14.833 -81.5 20.5
s-61.833 8.83398 -80.5 9.50098v15h1143v-332h-19c-14 44.667 -47.5 104.5 -100.5 179.5s-101.5 115.5 -145.5 121.5c-24.667 2.66699 -56 4.66699 -94 6s-73.333 2 -106 2h-236v-643h207c52 0 92.167 7.5 120.5 22.5s48.833 28.833 61.5 41.5
c14.667 12.667 29.667 40.167 45 82.5s25 82.166 29 119.499h21v-575h-21c-2 29.333 -11.167 69.5 -27.5 120.5s-31.833 83.833 -46.5 98.5c-12.667 13.333 -34.167 27.666 -64.5 42.999s-69.5 23 -117.5 23h-207v-572c0 -22.667 4.83301 -42.5 14.5 -59.5
s26.167 -30.5 49.5 -40.5c12 -4.66699 36.167 -9.5 72.5 -14.5s63.833 -7.83301 82.5 -8.5v-14h-661z" />
    <glyph glyph-name="G" unicode="G" horiz-adv-x="1528" 
d="M1321 -45l-113.003 125.001c-79.333 -30.667 -161.666 -56.834 -246.999 -78.501s-170.666 -32.5 -255.999 -32.5c-162.667 0 -308.167 63.333 -436.5 190s-192.5 296.334 -192.5 509.001c0 210.667 74 389.5 222 536.5s331.333 220.5 550 220.5
c81.333 0 157.5 -13.167 228.5 -39.5s122.5 -53.833 154.5 -82.5l72 116h18l10 -491h-16c-43.333 132.667 -111.833 243.667 -205.5 333s-203.5 134 -329.5 134c-142 0 -253.167 -63.333 -333.5 -190s-120.5 -301 -120.5 -523c0 -197.333 40.667 -359.666 122 -486.999
s193.333 -191 336 -191c121.333 0 208.333 26.667 261 80s82.667 112.666 90 177.999v187c0 26.667 -4.66699 50.834 -14 72.501s-27.333 37.5 -54 47.5c-24.667 9.33301 -60 17 -106 23s-78.333 9.33301 -97 10v16h678v-16l-72 -10c-29.333 -4 -53.666 -10.333 -72.999 -19
c-24.667 -10.667 -41.167 -25.334 -49.5 -44.001s-12.5 -39.334 -12.5 -62.001v-506z" />
    <glyph glyph-name="H" unicode="H" horiz-adv-x="1747" 
d="M96 0l-0.000976562 14c18.667 0.666992 44 3.16699 76 7.5s54.667 8.83301 68 13.5c24.667 8.66699 41.334 21.834 50.001 39.501s13 37.834 13 60.501v1112c0 22.667 -4.33301 43.5 -13 62.5s-25.334 33.833 -50.001 44.5c-17.333 6.66699 -41 13.167 -71 19.5
s-54.333 9.83301 -73 10.5v15h635v-15c-18.667 -0.666992 -43.167 -3.66699 -73.5 -9s-54.833 -11 -73.5 -17c-26 -8.66699 -43.167 -22 -51.5 -40s-12.5 -38.333 -12.5 -61v-516h707v506c0 22.667 -4.83301 43.5 -14.5 62.5s-26.167 33.833 -49.5 44.5
c-17.333 6.66699 -41.5 13.167 -72.5 19.5s-55.833 9.83301 -74.5 10.5v15h635v-15c-18.667 -0.666992 -42.667 -3.66699 -72 -9s-53.333 -11 -72 -17c-25.333 -8.66699 -42.166 -22 -50.499 -40s-12.5 -38.333 -12.5 -61v-1112c0 -22.667 4.66699 -43.334 14 -62.001
s25.666 -33.334 48.999 -44.001c12.667 -6 35.167 -11.5 67.5 -16.5s57.833 -7.83301 76.5 -8.5v-14h-635v14c18.667 0.666992 44.667 3.16699 78 7.5s56.333 8.83301 69 13.5c24.667 8.66699 41.5 21.834 50.5 39.501s13.5 37.834 13.5 60.501v578h-707v-568
c0 -22.667 4.83301 -43.5 14.5 -62.5s26.167 -33.5 49.5 -43.5c12 -4.66699 34.833 -9.83398 68.5 -15.501s59.834 -8.83398 78.501 -9.50098v-14h-635z" />
    <glyph glyph-name="I" unicode="I" horiz-adv-x="831" 
d="M94 0v14c18.667 0.666992 45 3.16699 79 7.5s57.667 8.83301 71 13.5c24.667 8.66699 41.334 21.834 50.001 39.501s13 37.834 13 60.501v1112c0 22.667 -4.33301 43.5 -13 62.5s-25.334 33.833 -50.001 44.5c-17.333 6.66699 -42 13.167 -74 19.5
s-57.333 9.83301 -76 10.5v15h643v-15c-18.667 -0.666992 -43.5 -3.66699 -74.5 -9s-55.833 -11 -74.5 -17c-25.333 -8.66699 -42.333 -22 -51 -40s-13 -38.333 -13 -61v-1112c0 -22.667 4.83301 -43.5 14.5 -62.5s26.167 -33.5 49.5 -43.5
c12 -4.66699 35.167 -9.83398 69.5 -15.501s60.833 -8.83398 79.5 -9.50098v-14h-643z" />
    <glyph glyph-name="J" unicode="J" horiz-adv-x="1012" 
d="M283 -35c-96 0 -167.164 19.832 -213.497 59.499s-69.5 84.167 -69.5 133.5c0 40 13 74.5 39 103.5s60 43.5 102 43.5s74.667 -12.667 98 -38s35 -56.333 35 -93c0 -40.667 -11.667 -73.5 -35 -98.5s-53 -44.167 -89 -57.5v-10c10 -4.66699 26.167 -8.83398 48.5 -12.501
s38.833 -5.5 49.5 -5.5c65.333 0 116.5 10.167 153.5 30.5s64.5 48.5 82.5 84.5c18.667 38 29.667 83.833 33 137.5s5 112.167 5 175.5v835c0 22.667 -4.33301 42.334 -13 59.001s-25.334 30.667 -50.001 42c-22.667 10 -50.834 17.333 -84.501 22
s-60.834 7.33398 -81.501 8.00098v15h665v-15c-18 -0.666992 -43.667 -3.66699 -77 -9s-59.333 -11 -78 -17c-25.333 -8.66699 -42.333 -22 -51 -40s-13 -38.333 -13 -61v-876c0 -93.333 -43 -186 -129 -278s-195 -138 -327 -138z" />
    <glyph glyph-name="K" unicode="K" horiz-adv-x="1511" 
d="M96 0l-0.00195312 14.0029c18.667 0.666992 44 3.16699 76 7.5s54.667 8.83301 68 13.5c24.667 8.66699 41.334 21.834 50.001 39.501s13 37.834 13 60.501v1112c0 22.667 -4.33301 43.167 -13 61.5s-25.334 32.833 -50.001 43.5c-17.333 6.66699 -41 13.5 -71 20.5
s-54.333 10.833 -73 11.5v15h635v-15c-18.667 -0.666992 -43.167 -3.66699 -73.5 -9s-54.833 -11 -73.5 -17c-26 -8.66699 -43.167 -22 -51.5 -40s-12.5 -38.333 -12.5 -61v-540h23c132.667 106.667 260.334 220 383.001 340s184 204.667 184 254
c0 30.667 -27.5 50.334 -82.5 59.001s-91.5 13.334 -109.5 14.001v15h540v-15c-18.667 -0.666992 -56.5 -4.83398 -113.5 -12.501s-110.5 -36.834 -160.5 -87.501l-234.5 -240c-69.667 -70.667 -149.834 -144.334 -240.501 -221.001
c104.667 -108.667 201.834 -216.334 291.501 -323.001l261.5 -320c18 -23.333 40.833 -47.666 68.5 -72.999s61.5 -46.666 101.5 -63.999c18.667 -8 43.167 -14.667 73.5 -20s54.833 -8.33301 73.5 -9v-14h-750v14c42 2 85.333 8 130 18s67 34 67 72
c0 38.667 -63 131.167 -189 277.5s-220.667 251.166 -284 314.499h-33v-551c0 -22.667 4.83301 -42.334 14.5 -59.001s26.167 -30.334 49.5 -41.001c12 -4.66699 34.833 -10.834 68.5 -18.501s59.834 -11.834 78.501 -12.501v-14h-635z" />
    <glyph glyph-name="L" unicode="L" horiz-adv-x="1288" 
d="M90 0l-0.000976562 14.002c18.667 0.666992 44.5 3.5 77.5 8.5s57.167 10.5 72.5 16.5c24.667 8.66699 41.334 21.667 50.001 39s13 37.666 13 60.999v1112c0 22.667 -4.16699 42.667 -12.5 60s-25.166 31.666 -50.499 42.999c-18.667 8 -43.334 14.833 -74.001 20.5
s-55.334 8.83398 -74.001 9.50098v15h641v-15c-18.667 -0.666992 -43.5 -2.66699 -74.5 -6s-55.833 -8 -74.5 -14c-26 -8 -43.167 -21.333 -51.5 -40s-12.5 -39.334 -12.5 -62.001v-1051c0 -83.333 15 -135.166 45 -155.499s96.333 -30.5 199 -30.5
c71.333 0 136.166 1.33301 194.499 4s99.833 17 124.5 43c30.667 31.333 66.834 85.666 108.501 162.999s67.834 131.333 78.501 162h18l-26 -397h-1172z" />
    <glyph glyph-name="M" unicode="M" horiz-adv-x="1964" 
d="M37 0l-0.00292969 13.9971l89.5 10.5c42.333 5 75.833 15.833 100.5 32.5c24.667 17.333 42.167 46.5 52.5 87.5s15.5 100.833 15.5 179.5v835c0 42 -5.5 77.333 -16.5 106s-26.833 51.334 -47.5 68.001c-24.667 19.333 -54.667 32.5 -90 39.5
s-66.666 10.833 -93.999 11.5v15h449l508 -1073l378 899c16.667 37.333 28.5 72.833 35.5 106.5s11.167 56.167 12.5 67.5h446v-15c-18.667 -0.666992 -44 -3.66699 -76 -9s-57.333 -11 -76 -17c-25.333 -8.66699 -42.166 -22 -50.499 -40s-12.5 -38.333 -12.5 -61v-1112
c0 -22.667 4.66699 -42.167 14 -58.5s25.666 -30.166 48.999 -41.499c12.667 -6 36.834 -12.5 72.501 -19.5s62.834 -10.833 81.501 -11.5v-14h-676v14c18.667 0.666992 49.5 3.66699 92.5 9s71.5 11.333 85.5 18c23.333 12.667 40.166 27.334 50.499 44.001
s15.5 36.667 15.5 60v1151l-539 -1273h-22c-12.667 39.333 -29.167 85.5 -49.5 138.5s-40.166 101.5 -59.499 145.5l-452 967v-950c0 -77.333 5.83301 -136.166 17.5 -176.499s28.834 -69.833 51.501 -88.5c17.333 -14 52.166 -24.833 104.499 -32.5
s87.833 -11.834 106.5 -12.501v-14h-567z" />
    <glyph glyph-name="N" unicode="N" horiz-adv-x="1589" 
d="M1309 -14l-984.999 1212v-838c0 -87.333 5.83301 -152.333 17.5 -195s28.834 -72.334 51.501 -89.001c21.333 -16.667 57.166 -31 107.499 -43s84.833 -18.333 103.5 -19v-14h-567v14c18.667 0.666992 51.5 7.33398 98.5 20.001s77.5 24.667 91.5 36
c24.667 19.333 42.167 51 52.5 95s15.5 105.667 15.5 185v803c0 29.333 -7.5 61.833 -22.5 97.5s-32.833 61.834 -53.5 78.501c-24.667 19.333 -58.667 33.166 -102 41.499s-79 12.833 -107 13.5v15h422l883 -1084v713c0 73.333 -5.83301 137.833 -17.5 193.5
s-29.167 92.834 -52.5 111.501c-24.667 19.333 -59.834 32.5 -105.501 39.5s-80.167 10.833 -103.5 11.5v15h563v-15c-18 -0.666992 -48.167 -5.16699 -90.5 -13.5s-74.833 -20.166 -97.5 -35.499c-26.667 -18.667 -44.667 -57.667 -54 -117s-14 -122.666 -14 -189.999
v-1042h-34z" />
    <glyph glyph-name="O" unicode="O" horiz-adv-x="1587" 
d="M786 -33c-92.667 0 -180.834 16.6631 -264.501 49.9961s-158.5 81 -224.5 143c-67.333 63.333 -120.666 138.833 -159.999 226.5s-59 186.834 -59 297.501s16.5 210.834 49.5 300.501s82.5 167.834 148.5 234.501c69.333 70 148.333 123 237 159s182.667 54 282 54
c95.333 0 186.666 -17 273.999 -51s169.333 -88 246 -162c60 -60 107.333 -135.167 142 -225.5s52 -185.166 52 -284.499c0 -106 -16.667 -205.5 -50 -298.5s-87.666 -175.167 -162.999 -246.5c-65.333 -62 -140.5 -110.333 -225.5 -145s-179.833 -52 -284.5 -52z
M795 -8.00391c158 0 275.333 68.501 352 205.501s115 305.167 115 504.5c0 208 -40.333 377.5 -121 508.5s-196 196.5 -346 196.5c-144.667 0 -259 -63.5 -343 -190.5s-126 -301.167 -126 -522.5c0 -206.667 40.5 -375.334 121.5 -506.001s196.833 -196 347.5 -196z" />
    <glyph glyph-name="P" unicode="P" horiz-adv-x="1272" 
d="M92 0l-0.00292969 14c18.667 0.666992 44.667 3.5 78 8.5s56.666 9.83301 69.999 14.5c24.667 8.66699 41.334 22.167 50.001 40.5s13 38.833 13 61.5v1112c0 22.667 -4.16699 43.667 -12.5 63s-25.166 33.333 -50.499 42c-26 8 -53.833 14.5 -83.5 19.5
s-53.834 7.83301 -72.501 8.5v15h686c120.667 0 223.834 -29.167 309.501 -87.5s128.5 -139.833 128.5 -244.5c0 -132 -52.667 -236 -158 -312s-228.666 -114 -369.999 -114h-160v-502c0 -22.667 4.5 -43.167 13.5 -61.5s25.833 -31.833 50.5 -40.5
c12.667 -4.66699 36.334 -9.5 71.001 -14.5s64.667 -7.83301 90 -8.5v-14h-653zM519.997 666h100.999c112.667 0 196.334 34.333 251.001 103s82 151 82 247c0 101.333 -24.5 186 -73.5 254s-122.833 102 -221.5 102h-139v-706z" />
    <glyph glyph-name="Q" unicode="Q" horiz-adv-x="1604" 
d="M1329 -301c-86 0 -163.332 22.1641 -231.999 66.4971s-119 121.166 -151 230.499c-26.667 -8 -53.834 -14.167 -81.501 -18.5s-53.834 -6.5 -78.501 -6.5c-92.667 0 -180.834 16 -264.501 48s-158.5 79 -224.5 141c-67.333 63.333 -120.666 138.833 -159.999 226.5
s-59 186.834 -59 297.501s16.5 210.834 49.5 300.501s82.5 167.834 148.5 234.501c69.333 70 148.333 123 237 159s182.667 54 282 54c95.333 0 186.666 -17 273.999 -51s169.333 -88 246 -162c60 -60 107.333 -135.167 142 -225.5s52 -185.166 52 -284.499
c0 -127.333 -28.167 -243.333 -84.5 -348s-146.166 -193.667 -269.499 -267c24 -96.667 66.5 -165.5 127.5 -206.5s127.167 -61.5 198.5 -61.5c53.333 0 104.333 16.667 153 50s84.334 67 107.001 101l14 -10c-34 -56 -91.5 -114.667 -172.5 -176s-165.5 -92 -253.5 -92z
M1135 144.997c48 58 81.168 136.831 99.501 236.498s27.5 206.5 27.5 320.5c0 206.667 -40.5 375.834 -121.5 507.501s-196.167 197.5 -345.5 197.5c-144.667 0 -259 -64.167 -343 -192.5s-126 -301.833 -126 -520.5c0 -98.667 10 -193.667 30 -285s53 -167.666 99 -228.999
c35.333 93.333 84.666 159 147.999 197s126 57 188 57c74 0 143.333 -26.167 208 -78.5s110 -122.5 136 -210.5zM795.002 -0.00488281c24.667 0 50.1689 2 76.502 6s49.166 8 68.499 12c-21.333 146 -48.666 244 -81.999 294s-81 75 -143 75
c-32.667 0 -73.834 -17 -123.501 -51s-89.834 -92.667 -120.501 -176c44 -50 93.5 -89.167 148.5 -117.5s113.5 -42.5 175.5 -42.5z" />
    <glyph glyph-name="R" unicode="R" horiz-adv-x="1509" 
d="M1243 -23c-81.333 0 -142.668 28.998 -184.001 86.998s-69.333 144.667 -84 260c-5.33301 42.667 -13 87.5 -23 134.5s-26.667 89.167 -50 126.5c-20.667 32.667 -48.667 59.667 -84 81s-80.666 32 -135.999 32h-162v-559c0 -23.333 4.5 -44 13.5 -62
s25.833 -31.333 50.5 -40c12.667 -4.66699 36 -9.5 70 -14.5s60.333 -7.83301 79 -8.5v-14h-641v14c18.667 0.666992 44.667 3.5 78 8.5s56.666 9.83301 69.999 14.5c24.667 8.66699 41.334 22 50.001 40s13 38.667 13 62v1114c0 22.667 -4.16699 43.334 -12.5 62.001
s-25.166 32.334 -50.499 41.001c-18.667 6 -43.334 12 -74.001 18s-55.334 9.33301 -74.001 10v15h715c117.333 0 219.666 -27 306.999 -81s131 -132.333 131 -235c0 -102 -43.5 -182.5 -130.5 -241.5s-176.5 -97.167 -268.5 -114.5v-20
c73.333 -6.66699 142 -27.167 206 -61.5s104.667 -84.833 122 -151.5c14.667 -56 27.334 -112.167 38.001 -168.5s22.334 -109.5 35.001 -159.5c12.667 -46 29.5 -73.5 50.5 -82.5s39.167 -13.5 54.5 -13.5c36 0 66.833 18 92.5 54s38.5 88.333 38.5 157v30h26v-30
c0 -95.333 -22.5 -169.833 -67.5 -223.5s-111.167 -80.5 -198.5 -80.5zM519.998 726.998l127 0.000976562c98 0 180.167 25 246.5 75s99.5 130 99.5 240c0 109.333 -27.167 191.666 -81.5 246.999s-124.833 83 -211.5 83h-180v-645z" />
    <glyph glyph-name="S" unicode="S" horiz-adv-x="1120" 
d="M582 -27c-90 0 -169.333 12.666 -238 37.999s-118.334 50.333 -149.001 75l-72 -106h-19l-14 479h19c50 -133.333 111.333 -243.166 184 -329.499s170.334 -129.5 293.001 -129.5c100.667 0 173.167 29.667 217.5 89s66.5 127.333 66.5 204c0 62 -18.833 116 -56.5 162
s-86.834 81.333 -147.501 106l-147.5 59c-40.333 16 -88.833 36.667 -145.5 62c-78.667 34.667 -138.667 81.334 -180 140.001s-62 133.667 -62 225c0 108 39.167 198 117.5 270s175.833 108 292.5 108c72 0 138.667 -11.167 200 -33.5s110 -47.166 146 -74.499l71 102h17
l10 -465h-18c-34.667 124 -87 229.167 -157 315.5s-162.667 129.5 -278 129.5c-56 0 -109.833 -20.833 -161.5 -62.5s-77.5 -102.167 -77.5 -181.5c0 -62 16.667 -112.833 50 -152.5s78 -74.834 134 -105.501c50 -27.333 97.5 -48.833 142.5 -64.5
s90.5 -33.834 136.5 -54.501c90 -40 160.5 -87.333 211.5 -142s76.5 -133.667 76.5 -237c0 -124 -44.167 -226 -132.5 -306s-198.166 -120 -329.499 -120z" />
    <glyph glyph-name="T" unicode="T" horiz-adv-x="1315" 
d="M317 0l0.000976562 13.999c18.667 0.666992 48.167 3.83398 88.5 9.50098s66.833 10.834 79.5 15.501c24.667 8.66699 41.5 22.167 50.5 40.5s13.5 38.833 13.5 61.5v1233h-117c-22.667 0 -49.834 -0.666992 -81.501 -2s-59.834 -3.33301 -84.501 -6
c-44 -6 -90.833 -50.167 -140.5 -132.5s-79.834 -146.166 -90.501 -191.499h-19v357h1282v-357h-18c-11.333 45.333 -41.666 109.166 -90.999 191.499s-96 126.5 -140 132.5c-24.667 2.66699 -51.667 4.66699 -81 6s-57.666 2 -84.999 2h-117v-1229
c0 -22.667 4.66699 -42.834 14 -60.501s25.666 -31.5 48.999 -41.5c12.667 -4.66699 39.334 -10.5 80.001 -17.5s70 -10.833 88 -11.5v-14h-680z" />
    <glyph glyph-name="U" unicode="U" horiz-adv-x="1620" 
d="M819 -33c-174 0 -307.999 39.3271 -401.999 117.994s-141 173.334 -141 284.001v886c0 22.667 -4.66699 42.334 -14 59.001s-25.666 31.334 -48.999 44.001c-18.667 8.66699 -43.167 15 -73.5 19s-53.5 6.33301 -69.5 7v15h637v-15
c-18.667 -0.666992 -43.334 -3.66699 -74.001 -9s-55.334 -11 -74.001 -17c-25.333 -8.66699 -42.166 -22 -50.499 -40s-12.5 -38.333 -12.5 -61v-862c0 -106 29.167 -191.5 87.5 -256.5s153.166 -97.5 284.499 -97.5c147.333 0 259.333 37.167 336 111.5
s115 161.5 115 261.5v637c0 74 -6 134.5 -18 181.5s-29.333 77.833 -52 92.5c-34 22.667 -71.5 38 -112.5 46s-73.167 12.333 -96.5 13v15h564v-15c-18.667 -0.666992 -49.5 -5.66699 -92.5 -15s-75.167 -20.666 -96.5 -33.999
c-27.333 -17.333 -45.333 -51.166 -54 -101.499s-13 -107.166 -13 -170.499v-657c0 -144 -55 -253.167 -165 -327.5s-231.333 -111.5 -364 -111.5z" />
    <glyph glyph-name="V" unicode="V" horiz-adv-x="1384" 
d="M664 -16c-95.333 264 -193.496 517.332 -294.496 759.999s-168.833 410.334 -203.5 503.001c-8 21.333 -17.833 40.5 -29.5 57.5s-29.834 32.833 -54.501 47.5c-18.667 10 -39.334 17.667 -62.001 23s-43.667 8.33301 -63 9v15h635v-15
c-57.333 -2.66699 -106.5 -9.66699 -147.5 -21s-61.5 -29.333 -61.5 -54c0 -7.33301 1 -15.666 3 -24.999s4.33301 -18.333 7 -27c15.333 -42.667 63.166 -161.334 143.499 -356.001s162.833 -406.334 247.5 -635.001l346 824c22 50.667 35.833 91.834 41.5 123.501
s8.5 53.834 8.5 66.501c0 34 -22.167 58.667 -66.5 74s-105.5 25.333 -183.5 30v15h510v-15c-19.333 -0.666992 -39.333 -4.33398 -60 -11.001s-40.334 -15 -59.001 -25c-26.667 -15.333 -48.167 -37 -64.5 -65s-31.833 -57.667 -46.5 -89l-228 -534.5l-284 -675.5h-34z" />
    <glyph glyph-name="W" unicode="W" horiz-adv-x="1993" 
d="M563 -16l-238.504 760.507c-78.333 242.333 -131.166 409.833 -158.499 502.5c-6 21.333 -14.5 40.166 -25.5 56.499s-27.833 31.166 -50.5 44.499c-18.667 10.667 -39 19.167 -61 25.5s-42.667 9.83301 -62 10.5v15h625v-15c-36 -2 -80.5 -8.83301 -133.5 -20.5
s-79.5 -29.834 -79.5 -54.501c0 -6.66699 0.833008 -15.334 2.5 -26.001s3.5 -19.334 5.5 -26.001l305 -962l295 803c-8 32.667 -21.667 77.5 -41 134.5s-43.333 94.833 -72 113.5c-16 10 -39.667 18.667 -71 26s-56.666 11.333 -75.999 12v15h616v-15
c-35.333 -2 -78.5 -8.83301 -129.5 -20.5s-76.5 -29.834 -76.5 -54.501c0 -7.33301 0.833008 -16 2.5 -26s3.5 -18.667 5.5 -26c12.667 -42.667 49.834 -156.167 111.501 -340.5l203.5 -617.5l159 452.5c48.667 143 85.334 255.833 110.001 338.5
c14.667 52.667 25 92.167 31 118.5s9 48.166 9 65.499c0 36 -28.167 62.667 -84.5 80s-107.833 27.333 -154.5 30v15h510v-15c-19.333 -0.666992 -40 -5 -62 -13s-42.333 -17.333 -61 -28c-26.667 -14.667 -48 -35 -64 -61s-30.333 -55.333 -43 -88l-195 -541l-235 -669h-47
l-184 589.5l-152 466.5l-387 -1056h-47z" />
    <glyph glyph-name="X" unicode="X" horiz-adv-x="1561" 
d="M-8 0l0.000976562 13.998c18.667 0.666992 42 3.66699 70 9s51.667 12 71 20c40 17.333 73.333 38.833 100 64.5s49.334 49.834 68.001 72.501l184.5 223.5l200.5 249.5l-216.5 302l-195.5 264c-16 22.667 -36.5 47.334 -61.5 74.001s-52.167 47.667 -81.5 63
c-14.667 6.66699 -36.167 12.834 -64.5 18.501s-51.833 8.83398 -70.5 9.50098v15h747v-15c-42 -2 -90.667 -6.83301 -146 -14.5s-83 -30.834 -83 -69.501c0 -18 15.333 -52.167 46 -102.5s67.334 -106.166 110.001 -167.499l79.5 -112l79.5 -109l130.5 158
c41.667 52.667 78.167 101 109.5 145c32 44 57.5 82.167 76.5 114.5s28.5 54.833 28.5 67.5c0 38.667 -26.167 62.834 -78.5 72.501s-99.5 15.5 -141.5 17.5v15h555v-15c-18 -0.666992 -41.5 -3.5 -70.5 -8.5s-53.167 -11.5 -72.5 -19.5
c-40 -17.333 -73.333 -38.833 -100 -64.5s-49.334 -49.834 -68.001 -72.501l-167 -206.5l-179 -228.5l255.5 -351.5l186.5 -252.5c17.333 -22.667 37.666 -47.167 60.999 -73.5s51 -48.833 83 -67.5c12 -6.66699 32.5 -12.334 61.5 -17.001s52.833 -7.33398 71.5 -8.00098
v-14h-748v14c42 2 91.167 8 147.5 18s84.5 34 84.5 72c0 17.333 -13.667 48.166 -41 92.499s-60.333 93.5 -99 147.5l-106 147l-100 136l-134 -163.5c-48.667 -59 -92.334 -114.5 -131.001 -166.5c-34 -44.667 -62.167 -84.667 -84.5 -120s-33.5 -59.666 -33.5 -72.999
c0 -38 26.333 -62 79 -72s100 -16 142 -18v-14h-555z" />
    <glyph glyph-name="Y" unicode="Y" horiz-adv-x="1300" 
d="M303 0l-0.000976562 13.9932c18.667 0.666992 48 3.83398 88 9.50098s66.667 10.834 80 15.501c24.667 8.66699 41.5 22.167 50.5 40.5s13.5 38.833 13.5 61.5v387c0 20.667 -5.16699 43.834 -15.5 69.501s-23.166 53.834 -38.499 84.501l-147.5 277l-143.5 251
c-16.667 30.667 -35 58.334 -55 83.001s-42.333 44.334 -67 59.001c-18.667 10 -40.834 17.667 -66.501 23s-48.167 8.33301 -67.5 9v15h660v-15c-36 -2 -79.5 -8.16699 -130.5 -18.5s-76.5 -27.833 -76.5 -52.5c0 -7.33301 9 -29.333 27 -66s42.333 -83 73 -139
l118.5 -215.5l139.5 -249.5l145.5 242.5c47 79 86.833 148.5 119.5 208.5c26.667 48.667 47.667 89.834 63 123.501s23 56.5 23 68.5c0 34 -28 58.167 -84 72.5s-107.333 22.833 -154 25.5v15h494v-15c-12.667 -0.666992 -28.5 -3.83398 -47.5 -9.50098
s-33.833 -11.834 -44.5 -18.501c-26.667 -15.333 -47.667 -29.666 -63 -42.999s-32.666 -34 -51.999 -62c-46 -66 -99.167 -151.833 -159.5 -257.5l-176.5 -309.5c-25.333 -46 -41.166 -83.167 -47.499 -111.5s-9.5 -67.5 -9.5 -117.5v-310
c0 -23.333 4.66699 -43.666 14 -60.999s25.666 -31 48.999 -41c12.667 -4.66699 39.167 -10.5 79.5 -17.5s69.833 -10.833 88.5 -11.5v-14h-680z" />
    <glyph glyph-name="Z" unicode="Z" horiz-adv-x="1282" 
d="M8 0v24.998l983 1349h-420c-34 0 -65 -0.666992 -93 -2s-52 -4 -72 -8c-55.333 -11.333 -113.166 -58.166 -173.499 -140.499s-100.833 -149.5 -121.5 -201.5h-19l43 377h1104v-25l-983 -1349h465c61.333 0 121.5 3.66699 180.5 11s99.167 21.333 120.5 42
c44 40.667 88.167 96.834 132.5 168.501s75.166 129.5 92.499 173.5h19l-47 -420h-1211z" />
    <glyph glyph-name="bracketleft" unicode="[" horiz-adv-x="1124" 
d="M985 -408l-10 7.00391c8 8 16.5 20.667 25.5 38s13.5 34.666 13.5 51.999c0 16 -8 36 -24 60s-71 36 -165 36c-98.667 0 -194.5 -8.33301 -287.5 -25s-205.167 -39.667 -336.5 -69l-47 -17v1815l47 -16c130.667 -30 242.667 -53.333 336 -70s189.333 -25 288 -25
c94 0 149 10.5 165 31.5s24 42.833 24 65.5c0 16.667 -3.5 32.667 -10.5 48s-14.5 28.666 -22.5 39.999l10 6c11.333 -8.66699 23 -25 35 -49s18 -48.667 18 -74c0 -67.333 -21.333 -122.333 -64 -165s-110 -64 -202 -64c-108.667 0 -203.167 24 -283.5 72
s-174.833 101.667 -283.5 161v-1737c108.667 59.333 203.167 113.166 283.5 161.499s174.833 72.5 283.5 72.5c92 0 159.333 -21.5 202 -64.5s64 -98.167 64 -165.5c0 -28.667 -7.5 -54.334 -22.5 -77.001s-27.167 -38.667 -36.5 -48z" />
    <glyph glyph-name="backslash" unicode="\" horiz-adv-x="825" 
d="M705 -426l-642 1950l56 16l641 -1950z" />
    <glyph glyph-name="bracketright" unicode="]" horiz-adv-x="1124" 
d="M145 -408c-8.66699 9.33301 -20.6699 25.3291 -36.0029 47.9961s-23 48.334 -23 77.001c0 67.333 21.333 122.5 64 165.5s109.334 64.5 200.001 64.5c108.667 0 203.5 -24.167 284.5 -72.5s176.167 -102.166 285.5 -161.499v1737
c-109.333 -59.333 -204.5 -113 -285.5 -161s-175.833 -72 -284.5 -72c-90.667 0 -157.334 21.333 -200.001 64s-64 97.667 -64 165c0 25.333 6.16699 50 18.5 74s23.833 40.333 34.5 49l11 -6c-8.66699 -11.333 -16.334 -24.666 -23.001 -39.999s-10 -31.333 -10 -48
c0 -22.667 8 -44.5 24 -65.5s70.667 -31.5 164 -31.5c99.333 0 195.333 8.33301 288 25s204.334 40 335.001 70l47 16v-1815l-47 17c-131.333 29.333 -243.166 52.333 -335.499 69s-188.166 25 -287.499 25c-93.333 0 -148 -12 -164 -36s-24 -44 -24 -60
c0 -17.333 4.33301 -34.666 13 -51.999s17.334 -30 26.001 -38z" />
    <glyph glyph-name="asciicircum" unicode="^" horiz-adv-x="909" 
d="M455 1114l-342 -274l-11 10c63.333 98 111.166 170 143.499 216s65.833 97 100.5 153c12.667 18.667 26.667 31.5 42 38.5s37 10.5 65 10.5c27.333 0 49.333 -3.5 66 -10.5s31.334 -19.833 44.001 -38.5l102 -150l142 -219l-10 -10z" />
    <glyph glyph-name="underscore" unicode="_" horiz-adv-x="1223" 
d="M-14 -295v72h1249v-72h-1249z" />
    <glyph glyph-name="grave" unicode="`" 
d="M705 1073c-81.333 65.333 -144.999 114.501 -190.999 147.501s-84.333 61.833 -115 86.5c-24.667 19.333 -43 36.5 -55 51.5s-18 35.167 -18 60.5c0 19.333 8 37.166 24 53.499s36 24.5 60 24.5c25.333 0 47.666 -6.16699 66.999 -18.5s38.666 -35.5 57.999 -69.5
c22.667 -38 48.334 -85 77.001 -141s63 -118.333 103 -187z" />
    <glyph glyph-name="a" unicode="a" horiz-adv-x="1004" 
d="M313 -25c-70 0 -127.007 19.832 -171.007 59.499s-66 92.5 -66 158.5c0 64.667 14.667 116.834 44 156.501s81.333 73.5 156 101.5c48.667 18 109.334 38.5 182.001 61.5s127 43.833 163 62.5v146c0 60.667 -14.667 111 -44 151s-73.666 60 -132.999 60
c-29.333 0 -54.166 -4.5 -74.499 -13.5s-38.5 -22.833 -54.5 -41.5c0 -18.667 3.83301 -46 11.5 -82s11.5 -62 11.5 -78c0 -21.333 -10.667 -41.333 -32 -60s-50.333 -28 -87 -28c-33.333 0 -57 11 -71 33s-21 46.333 -21 73c0 28 8.16699 54.167 24.5 78.5
s37.833 45.833 64.5 64.5c32.667 23.333 70.334 41.5 113.001 54.5s85.334 19.5 128.001 19.5c65.333 0 117.166 -3.83301 155.499 -11.5s71.833 -21.167 100.5 -40.5c30.667 -20.667 54.334 -51.334 71.001 -92.001s25 -93.667 25 -159c0 -89.333 -1.66699 -182 -5 -278
s-5 -161 -5 -195c0 -22 8.83301 -44.833 26.5 -68.5s40.834 -35.5 69.501 -35.5c30 0 54 16.833 72 50.5s28.667 74.167 32 121.5h21c-6.66699 -95.333 -28.5 -163.166 -65.5 -203.499s-87.5 -60.5 -151.5 -60.5c-48 0 -86 11.167 -114 33.5s-50 56.833 -66 103.5h-7
c-36 -42.667 -80.167 -77 -132.5 -103s-109.166 -39 -170.499 -39zM413.993 46.999c44.667 0 83 8.66699 115 26s60.333 41.333 85 72l9 402c-136.667 -42.667 -229 -89.167 -277 -139.5s-72 -111.833 -72 -184.5c0 -56 12.333 -99.333 37 -130s59 -46 103 -46z" />
    <glyph glyph-name="b" unicode="b" horiz-adv-x="1128" 
d="M176 -43l-16 4.00098c2.66699 40.667 4.66699 95.667 6 165s2 140.666 2 213.999v1018c-2.66699 32.667 -8.5 56.167 -17.5 70.5s-21.5 26.833 -37.5 37.5c-12.667 8.66699 -32 15.167 -58 19.5s-52 6.83301 -78 7.5v12l369 23l8 -8v-691l6 -2
c24 26 60.167 53.333 108.5 82s104.5 43 168.5 43c124.667 0 226.834 -43.667 306.501 -131s119.5 -208 119.5 -362c0 -138.667 -47 -254.667 -141 -348s-202 -140 -324 -140c-56.667 0 -114.334 10.333 -173.001 31s-109 44.667 -151 72zM582 -7.99902
c77.333 0 141.999 42.502 193.999 127.502s78 197.5 78 337.5c0 123.333 -25.167 226.166 -75.5 308.499s-120.833 123.5 -211.5 123.5c-48.667 0 -90.167 -8.83301 -124.5 -26.5s-63.833 -40.834 -88.5 -69.501v-613c20 -56 49.333 -101.333 88 -136
s85.334 -52 140.001 -52z" />
    <glyph glyph-name="c" unicode="c" horiz-adv-x="891" 
d="M510 -25c-139.333 0 -248.169 44.5 -326.502 133.5s-117.5 208.5 -117.5 358.5c0 134.667 42.833 249.167 128.5 343.5s194.167 141.5 325.5 141.5c98.667 0 176.334 -22.667 233.001 -68s85 -101.666 85 -168.999c0 -34 -10.667 -61.667 -32 -83s-49 -32 -83 -32
c-30 0 -55.333 9.16699 -76 27.5s-31 43.166 -31 74.499c0 20 2.5 38.333 7.5 55s10.5 30.667 16.5 42l15 32c4.66699 10 7 19 7 27c-4.66699 22.667 -20.5 40.667 -47.5 54s-58.5 20 -94.5 20c-71.333 0 -130.5 -37.833 -177.5 -113.5s-70.5 -186.834 -70.5 -333.501
c0 -129.333 25.5 -235 76.5 -317s121.167 -123 210.5 -123c72.667 0 134.334 16.333 185.001 49s92.667 78.334 126 137.001l19 -12c-38 -67.333 -90.5 -124.833 -157.5 -172.5s-140.833 -71.5 -221.5 -71.5z" />
    <glyph glyph-name="d" unicode="d" horiz-adv-x="1157" 
d="M502 -25c-120 0 -222.666 45.1641 -307.999 135.497s-128 211.833 -128 364.5c0 137.333 46.833 251.166 140.5 341.499s202.167 135.5 325.5 135.5c51.333 0 99 -6 143 -18s79 -24.333 105 -37v461c-2.66699 32.667 -8.33398 55.5 -17.001 68.5
s-21.334 24.833 -38.001 35.5c-12.667 8.66699 -39.167 15.834 -79.5 21.501s-73.166 8.83398 -98.499 9.50098v12l411 23l9 -8v-1362c2 -21.333 7.16699 -40.666 15.5 -57.999s20.833 -31.666 37.5 -42.999c12 -8 30.5 -14.167 55.5 -18.5s46.833 -6.83301 65.5 -7.5v-13
l-344 -22l-15 14v84l-6 2c-35.333 -35.333 -76.833 -64.333 -124.5 -87s-97.5 -34 -149.5 -34zM571.001 34.9971c49.333 0 89.8311 8.33203 121.498 24.999s60.834 39.667 87.501 69v629c-17.333 50 -45.666 91.167 -84.999 123.5s-88 48.5 -146 48.5
c-85.333 0 -152.5 -44.667 -201.5 -134s-73.5 -203.666 -73.5 -342.999c0 -122.667 25 -223 75 -301s124 -117 222 -117z" />
    <glyph glyph-name="e" unicode="e" horiz-adv-x="934" 
d="M518 -25c-140.667 0 -251.167 44.834 -331.5 134.501s-120.5 210.167 -120.5 361.5c0 133.333 40 246.833 120 340.5s183.333 140.5 310 140.5c124 0 218.833 -34.333 284.5 -103s98.5 -161.334 98.5 -278.001v-18h-611v-35c0 -150 24.5 -267.333 73.5 -352
s126.167 -127 231.5 -127c79.333 0 141.166 16.833 185.499 50.5s85.833 81.5 124.5 143.5l16 -10c-36 -72 -87.167 -131.333 -153.5 -178s-142.166 -70 -227.499 -70zM268 573.001l412 4.99902c0 114.667 -15.5 202.334 -46.5 263.001s-77.5 91 -139.5 91
c-64 0 -117 -33.333 -159 -100s-64.333 -153 -67 -259z" />
    <glyph glyph-name="f" unicode="f" horiz-adv-x="651" 
d="M68 0l-0.00390625 13.999c18 0.666992 33.833 2.16699 47.5 4.5s27.834 5.83301 42.501 10.5c19.333 6 33.333 17.167 42 33.5s13 35.833 13 58.5v772h-209v33h209v59c0 84.667 10.667 162.5 32 233.5s57 133.167 107 186.5c42 44.667 89.667 76.667 143 96
s106 29 158 29c76.667 0 132 -19 166 -57s51 -79 51 -123c0 -23.333 -10.167 -47 -30.5 -71s-48.166 -36 -83.499 -36c-28 0 -54.167 9.16699 -78.5 27.5s-36.5 44.833 -36.5 79.5c0 33.333 3.83301 56.5 11.5 69.5s11.5 30.833 11.5 53.5c-4.66699 12 -13 20.333 -25 25
s-23.667 7 -35 7c-64 0 -112.5 -33.667 -145.5 -101s-52.167 -179 -57.5 -335c0 -15.333 -0.333008 -38.666 -1 -69.999s-1 -55.666 -1 -72.999h258v-33h-258v-762c0 -21.333 4.66699 -40.333 14 -57s23.333 -28.334 42 -35.001c14.667 -6 35.834 -11.5 63.501 -16.5
s50.834 -7.83301 69.501 -8.5v-14h-520z" />
    <glyph glyph-name="g" unicode="g" horiz-adv-x="1040" 
d="M483 -463c-155.333 0 -268.502 21.0039 -339.502 63.0039s-106.5 104.333 -106.5 187c0 57.333 30.333 106.166 91 146.499s145 61.833 253 64.5v14c-62 12 -116.833 33.833 -164.5 65.5s-71.5 72.834 -71.5 123.501c0 25.333 6.66699 47.166 20 65.499
s29.333 33.833 48 46.5c18.667 12 38.334 22.333 59.001 31l56 23v12c-71.333 28.667 -127.833 66.167 -169.5 112.5s-62.5 99.5 -62.5 159.5c0 94 36 167.667 108 221s158.333 80 259 80c70 0 131 -10.167 183 -30.5s84.333 -30.5 97 -30.5c38 23.333 71 39.333 99 48
s64 13 108 13c24.667 0 47 -9.5 67 -28.5s30 -42.167 30 -69.5c0 -29.333 -7.5 -53.333 -22.5 -72s-36.167 -28 -63.5 -28c-34 0 -57.833 12.5 -71.5 37.5s-19.5 62.833 -17.5 113.5c-33.333 0 -60 -3.66699 -80 -11s-37.667 -16.666 -53 -27.999v-14
c24.667 -26.667 44.834 -56 60.501 -88s23.5 -73 23.5 -123c0 -88.667 -36.833 -159.334 -110.5 -212.001s-152.167 -79 -235.5 -79h-139c-18.667 -8.66699 -35.334 -19.834 -50.001 -33.501s-22 -31.834 -22 -54.501c0 -38.667 20.833 -65 62.5 -79
s100.834 -21 177.501 -21c29.333 0 69.5 -1.5 120.5 -4.5s87.167 -5.5 108.5 -7.5c70 -6 131.167 -34.333 183.5 -85s78.5 -115.334 78.5 -194.001c0 -100 -43.833 -180.667 -131.5 -242s-215.167 -92 -382.5 -92zM517.998 -441.996
c99.333 0 179.501 23.1699 240.501 69.5029s91.5 109.166 91.5 188.499c0 23.333 -7.16699 51.666 -21.5 84.999s-45.5 57.333 -93.5 72c-22.667 3.33301 -59.334 6.66602 -110.001 9.99902s-121.667 5 -213 5c-72.667 -14.667 -126.667 -38 -162 -70s-53 -79.667 -53 -143
c0 -59.333 27 -110.333 81 -153s134 -64 240 -64zM458.999 369.007c60 0 103.999 28.501 131.999 85.501s42 121.167 42 192.5c0 82 -15.5 150 -46.5 204s-74.167 81 -129.5 81c-57.333 0 -99.666 -25.333 -126.999 -76s-41 -118.334 -41 -203.001
c0 -72 13.333 -137.333 40 -196s70 -88 130 -88z" />
    <glyph glyph-name="h" unicode="h" horiz-adv-x="1178" 
d="M47 0l-0.00390625 13.9971c18.667 0.666992 34.834 2.16699 48.501 4.5s27.5 5.83301 41.5 10.5c19.333 6 33.5 17.167 42.5 33.5s13.5 35.833 13.5 58.5v1237c-2.66699 21.333 -8.5 42 -17.5 62s-21.833 35.333 -38.5 46c-12 8.66699 -33.167 15.167 -63.5 19.5
s-54.833 6.83301 -73.5 7.5v12l371 23l8 -8v-736h4c38.667 38 81.834 75.5 129.501 112.5s115.167 55.5 202.5 55.5c94.667 0 164.667 -29.667 210 -89s68 -137.333 68 -234v-500c0 -22.667 4.33301 -42.667 13 -60s22.334 -30 41.001 -38c14 -6.66699 27.833 -11 41.5 -13
s29.834 -3.33301 48.501 -4v-14h-484v14c18.667 0.666992 35.834 2.16699 51.501 4.5s30.834 5.83301 45.501 10.5c18.667 6 32.5 17.167 41.5 33.5s13.5 35.833 13.5 58.5v532c0 70.667 -17.333 124.834 -52 162.501s-74 56.5 -118 56.5
c-74.667 0 -133.334 -16.667 -176.001 -50s-69.334 -61.666 -80.001 -84.999v-606c0 -22.667 4.5 -42.667 13.5 -60s22.833 -30 41.5 -38c15.333 -7.33301 31 -12.166 47 -14.499s32.333 -3.83301 49 -4.5v-14h-483z" />
    <glyph glyph-name="i" unicode="i" horiz-adv-x="586" 
d="M68 0l0.000976562 13.999c18 0.666992 33.833 2.16699 47.5 4.5s27.834 5.83301 42.501 10.5c19.333 6 33.333 17.167 42 33.5s13 35.833 13 58.5v647c-2 21.333 -7.66699 42 -17 62s-22 35.667 -38 47c-12.667 8 -31.334 14.167 -56.001 18.5
s-46.334 6.83301 -65.001 7.5v12l354 23l8 -8v-799c0 -22.667 4.66699 -42.667 14 -60s23.333 -30 42 -38c14.667 -7.33301 30 -12.166 46 -14.499s32.667 -3.83301 50 -4.5v-14h-483zM289.001 1214c-34 0 -63.333 12.5 -88 37.5s-37 54.167 -37 87.5
c0 34.667 12.333 64.834 37 90.501s54 38.5 88 38.5c38 0 69 -11.833 93 -35.5s36 -51.834 36 -84.501c0 -36 -12.5 -67.333 -37.5 -94s-55.5 -40 -91.5 -40z" />
    <glyph glyph-name="j" unicode="j" horiz-adv-x="596" 
d="M33 -463c-67.333 0 -117.666 14.166 -150.999 42.499s-50 63.5 -50 105.5c0 22.667 10 45.334 30 68.001s46.333 34 79 34c26.667 0 51.667 -7.33301 75 -22s35 -38.667 35 -72c0 -18.667 -3.66699 -41.167 -11 -67.5s-11 -46.833 -11 -61.5
c2.66699 -0.666992 10.167 -1.5 22.5 -2.5s19.833 -1.5 22.5 -1.5c62 0 105.5 33.833 130.5 101.5s37.5 179.834 37.5 336.501v770c-2 21.333 -7.66699 42 -17 62s-22.333 35.667 -39 47c-12 8 -38.333 14.167 -79 18.5s-70.334 6.83301 -89.001 7.5v12l402 23l8 -8v-846
c0 -84.667 -9 -162.834 -27 -234.501s-52 -133.5 -102 -185.5c-42 -44 -83.667 -76.167 -125 -96.5s-88.333 -30.5 -141 -30.5zM313 1214c-33.333 0 -62.499 12.5 -87.499 37.5s-37.5 54.167 -37.5 87.5c0 34.667 12.5 64.834 37.5 90.501s54.167 38.5 87.5 38.5
c38 0 69 -11.833 93 -35.5s36 -51.834 36 -84.501c0 -36 -12.333 -67.333 -37 -94s-55.334 -40 -92.001 -40z" />
    <glyph glyph-name="k" unicode="k" horiz-adv-x="1094" 
d="M47 0l-0.00195312 14.001c18.667 0.666992 34.834 2.16699 48.501 4.5s27.5 5.83301 41.5 10.5c19.333 6 33.5 17.167 42.5 33.5s13.5 35.833 13.5 58.5v1237c-2.66699 21.333 -8.5 42 -17.5 62s-21.833 35.333 -38.5 46c-12 8.66699 -33.167 15.167 -63.5 19.5
s-54.833 6.83301 -73.5 7.5v12l371 23l8 -8v-1059l183.5 172.5c76.333 72.333 135.833 131.5 178.5 177.5c5.33301 4.66699 11.166 11.834 17.499 21.501s9.5 17.5 9.5 23.5c0 17.333 -20.667 30.166 -62 38.499s-75.333 13.833 -102 16.5v15h412v-13
c-48.667 -10 -94 -25.667 -136 -47s-87.667 -53.333 -137 -96c-27.333 -23.333 -54.666 -48.333 -81.999 -75l-92 -91c81.333 -38 151 -93.167 209 -165.5s123.667 -187.833 197 -346.5c6.66699 -14.667 14.667 -26.834 24 -36.501s22.333 -17.834 39 -24.501
c17.333 -7.33301 34 -12.333 50 -15s26 -4 30 -4v-12h-325c-42 124 -95 232.833 -159 326.5s-123 140.5 -177 140.5c-17.333 0 -32.666 -3.33301 -45.999 -10s-24 -13.667 -32 -21v-305c0 -22.667 4.5 -42.667 13.5 -60s22.833 -30 41.5 -38
c15.333 -7.33301 31 -12.166 47 -14.499s32.333 -3.83301 49 -4.5v-14h-483z" />
    <glyph glyph-name="l" unicode="l" horiz-adv-x="571" 
d="M49 0v13.999c18.667 0.666992 34.834 2.16699 48.501 4.5s27.5 5.83301 41.5 10.5c19.333 6 33.5 17.167 42.5 33.5s13.5 35.833 13.5 58.5v1237c-2.66699 21.333 -8.5 42 -17.5 62s-21.833 35.333 -38.5 46c-12 8.66699 -33.833 15.167 -65.5 19.5
s-56.834 6.83301 -75.501 7.5v12l375 23l8 -8v-1389c0 -22.667 4.5 -42.667 13.5 -60s22.833 -30 41.5 -38c15.333 -7.33301 30 -12.166 44 -14.499s29.333 -3.83301 46 -4.5v-14h-477z" />
    <glyph glyph-name="m" unicode="m" horiz-adv-x="1790" 
d="M66 0l-0.00683594 14.0039c18 0.666992 33.833 2.16699 47.5 4.5s27.834 5.83301 42.501 10.5c19.333 6 33.333 17.167 42 33.5s13 35.833 13 58.5v647c-2 21.333 -7.66699 42 -17 62s-22 35.667 -38 47c-12.667 8 -28 14.167 -46 18.5s-36.333 6.83301 -55 7.5v12
l334 23l8 -8v-146h4c36.667 42 80.834 80.5 132.501 115.5s117.5 52.5 197.5 52.5c63.333 0 117.333 -16 162 -48s78.667 -74.667 102 -128h4c41.333 52.667 89.333 95.167 144 127.5s118.667 48.5 192 48.5c90 0 157.667 -29.333 203 -88s68 -138.334 68 -239.001v-498
c0 -22.667 4.16699 -42.334 12.5 -59.001s21.833 -29 40.5 -37c14.667 -6.66699 28.667 -11 42 -13s29.333 -3.33301 48 -4v-14h-475v14c18.667 0.666992 34.334 2.16699 47.001 4.5s26.334 5.83301 41.001 10.5c19.333 6 33.333 17.167 42 33.5s13 35.833 13 58.5v528
c0 70.667 -16.5 125.5 -49.5 164.5s-74.5 58.5 -124.5 58.5c-54.667 0 -103 -12 -145 -36s-74.333 -54.333 -97 -91v-618c0 -22.667 4.33301 -42 13 -58s22.334 -28 41.001 -36c14 -6.66699 27.833 -11.334 41.5 -14.001s29.834 -4.33398 48.501 -5.00098v-14h-471v14
c18.667 0.666992 34 2.16699 46 4.5s25.333 5.83301 40 10.5c19.333 6 33.333 17.167 42 33.5s13 35.833 13 58.5v543c0 70 -17 122.167 -51 156.5s-73 51.5 -117 51.5c-60 0 -111.667 -13.333 -155 -40s-75 -58.334 -95 -95.001v-606c0 -22.667 4.66699 -42.667 14 -60
s23.333 -30 42 -38c14.667 -7.33301 29.334 -12.166 44.001 -14.499s30.667 -3.83301 48 -4.5v-14h-479z" />
    <glyph glyph-name="n" unicode="n" horiz-adv-x="1196" 
d="M66 0l-0.000976562 13.9971c18 0.666992 33.833 2.16699 47.5 4.5s27.834 5.83301 42.501 10.5c19.333 6 33.333 17.167 42 33.5s13 35.833 13 58.5v647c-2 21.333 -7.66699 42 -17 62s-22 35.667 -38 47c-12.667 8 -28 14.167 -46 18.5s-36.333 6.83301 -55 7.5v12
l334 23l8 -8v-146h4c38.667 38 81.834 75.5 129.501 112.5s115.167 55.5 202.5 55.5c95.333 0 165.666 -29.667 210.999 -89s68 -137.333 68 -234v-500c0 -22.667 4.16699 -42.667 12.5 -60s21.833 -30 40.5 -38c14.667 -6.66699 28.667 -11 42 -13s29.333 -3.33301 48 -4
v-14h-483v14c18.667 0.666992 35.667 2.16699 51 4.5s30.333 5.83301 45 10.5c19.333 6 33.333 17.167 42 33.5s13 35.833 13 58.5v532c0 70.667 -17.333 124.834 -52 162.501s-74 56.5 -118 56.5c-74 0 -132.333 -16.667 -175 -50s-69.667 -61.666 -81 -84.999v-606
c0 -22.667 4.66699 -42.667 14 -60s23.333 -30 42 -38c14.667 -7.33301 30 -12.166 46 -14.499s32.667 -3.83301 50 -4.5v-14h-483z" />
    <glyph glyph-name="o" unicode="o" horiz-adv-x="1071" 
d="M526 -29c-126 0 -234.667 45.167 -326 135.5s-137 207.833 -137 352.5s44 263 132 355s203.333 138 346 138c142 0 255.333 -46 340 -138s127 -205.667 127 -341c0 -147.333 -44.667 -267.833 -134 -361.5s-205.333 -140.5 -348 -140.5zM539 -8
c84.667 0 149.5 43.666 194.5 130.999s67.5 203.333 67.5 348c0 138.667 -21.667 250.167 -65 334.5s-109 126.5 -197 126.5c-92.667 0 -160.667 -42.333 -204 -127s-65 -194.667 -65 -330c0 -143.333 22.167 -259.666 66.5 -348.999s111.833 -134 202.5 -134z" />
    <glyph glyph-name="p" unicode="p" horiz-adv-x="1159" 
d="M27 -463v13.999c18 1.33301 37.667 3.83301 59 7.5s39 7.5 53 11.5c19.333 6 33.166 17.833 41.499 35.5s12.5 37.834 12.5 60.501v1106c-2.66699 21.333 -8.16699 41 -16.5 59s-20.833 32.333 -37.5 43c-12 8.66699 -29.167 15.5 -51.5 20.5s-42.5 7.83301 -60.5 8.5v12
l342 23l8 -10v-107l8 -2c29.333 34 69.166 64.667 119.499 92s102.833 41 157.5 41c116.667 0 216.667 -45.333 300 -136s125 -211 125 -361c0 -140 -47.333 -255 -142 -345s-202 -135 -322 -135c-59.333 0 -107.666 6.33301 -144.999 19s-67.666 27.667 -90.999 45h-8v-361
c0 -22.667 4.83301 -42.5 14.5 -59.5s23.834 -29.167 42.501 -36.5c15.333 -6 38.166 -12.333 68.499 -19s54.833 -10.667 73.5 -12v-14h-551zM606 -6.00098c87.333 0 154.669 42.1689 202.002 126.502s71 196.5 71 336.5c0 131.333 -25.167 235.166 -75.5 311.499
s-120.833 114.5 -211.5 114.5c-48.667 0 -90.167 -9 -124.5 -27s-63.833 -41.333 -88.5 -70v-630c15.333 -44.667 42.666 -82.834 81.999 -114.501s87.666 -47.5 144.999 -47.5z" />
    <glyph glyph-name="q" unicode="q" horiz-adv-x="1128" 
d="M610 -463l-0.00488281 14c18.667 1.33301 38.834 3.83301 60.501 7.5s39.834 7.5 54.501 11.5c20.667 6 35 17.833 43 35.5s12 37.834 12 60.501v426l-6 2c-30.667 -32 -70.167 -59.833 -118.5 -83.5s-99.5 -35.5 -153.5 -35.5c-122.667 0 -226 46 -310 138
s-126 212.667 -126 362c0 140 48.333 254.5 145 343.5s205.334 133.5 326.001 133.5c60.667 0 116.5 -9 167.5 -27s98.167 -41 141.5 -69l125 119l12 -2c-2 -40.667 -5.16699 -100 -9.5 -178s-6.5 -138.333 -6.5 -181v-946c0 -22.667 4.5 -42.334 13.5 -59.001
s22.833 -29 41.5 -37c16.667 -6.66699 36.334 -11.167 59.001 -13.5s43.334 -4.83301 62.001 -7.5v-14h-533zM570.995 35c49.333 0 90.168 8.49902 122.501 25.499s61.166 39.833 86.499 68.5v629c-17.333 51.333 -46.166 92.833 -86.499 124.5s-88.5 47.5 -144.5 47.5
c-85.333 0 -152.5 -44.667 -201.5 -134s-73.5 -203.666 -73.5 -342.999c0 -122.667 25.167 -223 75.5 -301s124.166 -117 221.499 -117z" />
    <glyph glyph-name="r" unicode="r" horiz-adv-x="809" 
d="M66 0l0.000976562 13.998c18 0.666992 33.833 2.16699 47.5 4.5s27.834 5.83301 42.501 10.5c19.333 6 33.333 17.167 42 33.5s13 35.833 13 58.5v647c-2 21.333 -7.66699 42 -17 62s-22 35.667 -38 47c-12.667 8 -28 14.167 -46 18.5s-36.333 6.83301 -55 7.5v12l334 23
l8 -8v-146h4c44 56 90.5 97.333 139.5 124s94.833 40 137.5 40c38 0 69 -12.333 93 -37s36 -54 36 -88c0 -37.333 -9.5 -68.166 -28.5 -92.499s-45.833 -36.5 -80.5 -36.5c-32.667 0 -59.167 9.16699 -79.5 27.5s-30.5 44.833 -30.5 79.5c0 10 2 21.833 6 35.5
s9.33301 29.167 16 46.5c-48 0 -92.333 -17.667 -133 -53s-67.334 -64.333 -80.001 -87v-618c0 -22.667 4.66699 -42 14 -58s23.333 -27.333 42 -34c16.667 -7.33301 38.167 -12.166 64.5 -14.499s49.166 -3.83301 68.499 -4.5v-14h-520z" />
    <glyph glyph-name="s" unicode="s" horiz-adv-x="821" 
d="M408 -29c-58.667 0 -113.829 9.33105 -165.496 27.998s-88.834 38.667 -111.501 60l-35 -69h-20l-10 317h16c30 -81.333 77 -154.166 141 -218.499s129 -96.5 195 -96.5c65.333 0 115.833 18.333 151.5 55s53.5 82.334 53.5 137.001c0 53.333 -17.833 94.5 -53.5 123.5
s-101.834 57.5 -198.501 85.5c-87.333 25.333 -155.666 61.833 -204.999 109.5s-74 108.167 -74 181.5c0 75.333 27.5 138.833 82.5 190.5s129.833 77.5 224.5 77.5c54 0 101.167 -4.83301 141.5 -14.5s73.166 -23.167 98.499 -40.5l35 57h18l15 -282h-17
c-30 77.333 -70.833 140 -122.5 188s-107.834 72 -168.501 72c-55.333 0 -98.5 -17 -129.5 -51s-46.5 -73.667 -46.5 -119c0 -58 21.167 -99.333 63.5 -124s104.5 -49.667 186.5 -75c101.333 -31.333 173.166 -71.5 215.499 -120.5s63.5 -108.5 63.5 -178.5
c0 -89.333 -33.333 -160.5 -100 -213.5s-148 -79.5 -244 -79.5z" />
    <glyph glyph-name="t" unicode="t" horiz-adv-x="707" 
d="M442 -20c-83.333 0 -145.334 24.3311 -186.001 72.998s-61 118.334 -61 209.001v631h-197v33h201v313h178v-313h280v-33h-278v-606c0 -58 10.833 -107 32.5 -147s63.5 -60 125.5 -60c46 0 80.833 19.333 104.5 58s38.5 77.334 44.5 116.001h21
c-8.66699 -73.333 -36.167 -137.333 -82.5 -192s-107.166 -82 -182.499 -82z" />
    <glyph glyph-name="u" unicode="u" horiz-adv-x="1161" 
d="M451 -25c-95.333 0 -163.667 31.832 -205 95.499s-62 143.167 -62 238.5v457c-2 21.333 -7.16699 41 -15.5 59s-20.833 32.333 -37.5 43c-12.667 8.66699 -28.167 16.167 -46.5 22.5s-36.833 9.83301 -55.5 10.5v12l329 25l15 -14v-672c0 -70 16 -122.667 48 -158
s70 -53 114 -53c74 0 130.5 17.833 169.5 53.5s64.833 64.167 77.5 85.5v592c-2 21.333 -7.16699 41 -15.5 59s-20.833 32.333 -37.5 43c-12 8.66699 -30.5 15.167 -55.5 19.5s-50.833 6.83301 -77.5 7.5v12l358 25l15 -14v-768c2 -21.333 6.16699 -40.666 12.5 -57.999
s17.833 -31.666 34.5 -42.999c12 -8 27.667 -13.833 47 -17.5s38.333 -5.83398 57 -6.50098v-13l-321 -22l-15 14v125h-6c-38.667 -38.667 -81 -75 -127 -109s-112.667 -51 -200 -51z" />
    <glyph glyph-name="v" unicode="v" horiz-adv-x="956" 
d="M481 -14l-200.496 449.003l-165.5 376c-12.667 28.667 -28.834 51.834 -48.501 69.501s-50.834 27.834 -93.501 30.501v15h455v-19c-31.333 -0.666992 -60.333 -3.83398 -87 -9.50098s-40 -16.834 -40 -33.501c0 -0.666992 1.16699 -4.83398 3.5 -12.501
s5.83301 -17.834 10.5 -30.501l111.5 -262l146.5 -330l118 272.5c38.667 88.333 77.334 181.833 116.001 280.5c2.66699 7.33301 5.16699 16.666 7.5 27.999s3.16602 21.333 2.49902 30c-2 22.667 -20.833 39.5 -56.5 50.5s-70.834 18.5 -105.501 22.5v13h342v-11
c-25.333 -4 -51 -13.5 -77 -28.5s-48.667 -43.5 -68 -85.5l-128.5 -287.5l-131.5 -306.5c-14.667 -34.667 -28.334 -69 -41.001 -103s-25.667 -73.333 -39 -118h-31z" />
    <glyph glyph-name="w" unicode="w" horiz-adv-x="1462" 
d="M457 -14l-178.499 442.506l-155.5 380.5c-13.333 32.667 -30.833 56.834 -52.5 72.501s-50.5 25.5 -86.5 29.5v15h442v-19c-23.333 -0.666992 -49 -3.83398 -77 -9.50098s-42 -16.834 -42 -33.501c0 -0.666992 1.16699 -4.83398 3.5 -12.501
s6.16602 -17.834 11.499 -30.501l98 -254l137 -338l91.5 231.5l90.5 219.5l-32 77.5l-29 65.5c-13.333 30 -30.333 51.5 -51 64.5s-45.334 20.833 -74.001 23.5v15h424v-17c-23.333 -0.666992 -48.666 -3.33398 -75.999 -8.00098s-41 -15.667 -41 -33
c0 -0.666992 1.16699 -5.5 3.5 -14.5s5.83301 -19.833 10.5 -32.5l97 -260.5c45.333 -121.667 89 -232.834 131 -333.501l115.5 299c36.333 93.333 68.833 181.666 97.5 264.999c2.66699 8.66699 5 18 7 28s3 18.333 3 25c0 24.667 -22.167 42.334 -66.5 53.001
s-74.166 16 -89.499 16v13h342v-13c-28.667 -2.66699 -59.167 -15.167 -91.5 -37.5s-54.833 -50.5 -67.5 -84.5l-115 -291.5l-117 -296.5l-38.5 -102c-11.667 -32 -24.834 -70.333 -39.501 -115h-36l-130 349l-122 314c-30 -66 -59.833 -138 -89.5 -216l-89.5 -230
l-37.5 -101c-12.333 -32.667 -25.5 -71.334 -39.5 -116.001h-41z" />
    <glyph glyph-name="x" unicode="x" horiz-adv-x="965" 
d="M0 0l0.000976562 10.002c42 11.333 74.667 26.833 98 46.5s48.666 46.5 75.999 80.5c19.333 24.667 53.333 65.5 102 122.5s94 113.167 136 168.5l-132.5 196.5l-132.5 194.5c-26.667 40 -49.834 65.333 -69.501 76s-40.834 16 -63.501 16v15h422v-15
c-28.667 0 -54.5 -2.66699 -77.5 -8s-34.5 -12 -34.5 -20c0 -6.66699 1.83301 -13.667 5.5 -21l12.5 -24l193 -291l100 133c34 44.667 66.667 90.334 98 137.001c2.66699 4 5.66699 9.66699 9 17s4.33301 14 3 20c-2 13.333 -14.333 24 -37 32s-55.334 17 -98.001 27v13h330
v-11c-50.667 -12 -87.667 -28 -111 -48s-45.666 -42.667 -66.999 -68l-86 -107.5l-127 -165.5l150 -221l124 -184c18.667 -28.667 37.834 -53.167 57.501 -73.5s47.834 -30.833 84.501 -31.5v-16h-445v16c26.667 2 54.5 6.66699 83.5 14s43.5 17 43.5 29
c0 5.33301 -1.66699 11.833 -5 19.5s-11.333 21.834 -24 42.501c-14 23.333 -40.333 62.666 -79 117.999l-113 167l-110.5 -136c-43 -54 -79.833 -102.333 -110.5 -145c-6 -9.33301 -11 -17.833 -15 -25.5s-6 -14.834 -6 -21.501c0 -20.667 13.667 -35.334 41 -44.001
s63 -15.334 107 -20.001v-14h-332z" />
    <glyph glyph-name="y" unicode="y" horiz-adv-x="946" 
d="M127 -463c-27.333 0 -59.499 10.501 -96.499 31.501s-55.5 56.833 -55.5 107.5c0 26.667 10.5 53.167 31.5 79.5s49.5 39.5 85.5 39.5c26.667 0 52.5 -8.16699 77.5 -24.5s37.5 -44.833 37.5 -85.5l-17 -111c24 0 52.167 15 84.5 45s66.5 75.667 102.5 137
c24 42 45 83.333 63 124s31.667 74 41 100c-72 174 -138.833 328.333 -200.5 463l-167.5 368c-12.667 28.667 -29 51 -49 67s-50.333 27 -91 33v15h449v-19c-23.333 -0.666992 -49.666 -3.83398 -78.999 -9.50098s-44 -16.834 -44 -33.501
c0 -0.666992 1.16699 -4.83398 3.5 -12.501s5.83301 -17.834 10.5 -30.501c23.333 -61.333 63 -151.833 119 -271.5l150 -326.5l111 274l112 285c2.66699 8.66699 5.33398 18.334 8.00098 29.001s4 20.334 4 29.001c0 20.667 -16.833 36.834 -50.5 48.501
s-68.5 19.834 -104.5 24.501v13h327v-11c-31.333 -4.66699 -59.5 -17.5 -84.5 -38.5s-43.833 -46.167 -56.5 -75.5c-34 -75.333 -85.833 -199.833 -155.5 -373.5l-186.5 -458.5c-18.667 -45.333 -36.334 -86.333 -53.001 -123s-33.334 -69.334 -50.001 -98.001
c-50.667 -88 -95.834 -145.167 -135.501 -171.5s-86.5 -39.5 -140.5 -39.5z" />
    <glyph glyph-name="z" unicode="z" horiz-adv-x="895" 
d="M49 0l-0.000976562 17.9971l582 885h-170c-46.667 0 -89.167 -1.16699 -127.5 -3.5s-64.833 -6.5 -79.5 -12.5c-20.667 -8.66699 -46.5 -39.167 -77.5 -91.5s-55.833 -97.833 -74.5 -136.5h-16v267h752v-19l-578 -884c34 -1.33301 66.5 -2.16602 97.5 -2.49902
s59.833 -0.5 86.5 -0.5s55.334 0.666992 86.001 2s64.334 3 101.001 5c27.333 0.666992 50.666 14.334 69.999 41.001s34 49.667 44 69l43 84.5c15.333 29.667 29 58.834 41 87.501h17v-309h-797z" />
    <glyph glyph-name="braceleft" unicode="{" horiz-adv-x="848" 
d="M793 -346c-156 -2.66699 -268.501 20.834 -337.501 70.501s-103.5 142.834 -103.5 279.501c0 42 5.5 85.833 16.5 131.5s16.5 89.834 16.5 132.501c0 99.333 -26.833 167.5 -80.5 204.5s-134.167 57.833 -241.5 62.5v108c117.333 7.33301 200.333 30 249 68
s73 104 73 198c0 42.667 -5.5 87 -16.5 133s-16.5 90 -16.5 132c0 146 38 240.833 114 284.5s185 65.5 327 65.5v-15c-58 -2.66699 -114.5 -19 -169.5 -49s-82.5 -103.667 -82.5 -221c0 -40.667 3 -80.334 9 -119.001s9 -78.334 9 -119.001
c0 -118.667 -29.5 -204.667 -88.5 -258s-152.5 -88 -280.5 -104v-100c114 -14 204 -46 270 -96s99 -139 99 -267c0 -40.667 -3 -80.334 -9 -119.001s-9 -78 -9 -118c0 -99.333 22.333 -169.333 67 -210s106.334 -61 185.001 -61v-14z" />
    <glyph glyph-name="bar" unicode="|" horiz-adv-x="559" 
d="M250 -424v1952h61v-1952h-61z" />
    <glyph glyph-name="braceright" unicode="}" horiz-adv-x="848" 
d="M55 -346v14c77.333 0 138.666 20.167 183.999 60.5s68 110.5 68 210.5c0 40 -3 79.333 -9 118s-9 78.334 -9 119.001c0 127.333 33 216.166 99 266.499s155.667 82.5 269 96.5v100c-128 16 -221.333 50.667 -280 104s-88 139.333 -88 258c0 40.667 3 80.334 9 119.001
s9 78.334 9 119.001c0 117.333 -27.667 191 -83 221s-111.666 46.333 -168.999 49v15c142 0 251 -21.833 327 -65.5s114 -138.5 114 -284.5c0 -42 -5.5 -86 -16.5 -132s-16.5 -90.333 -16.5 -133c0 -94 24 -160 72 -198s131 -60.667 249 -68v-108
c-107.333 -4.66699 -187.666 -25.5 -240.999 -62.5s-80 -105.167 -80 -204.5c0 -42.667 5.5 -86.834 16.5 -132.501s16.5 -89.5 16.5 -131.5c0 -136.667 -34.833 -229.834 -104.5 -279.501s-181.834 -73.167 -336.501 -70.5z" />
    <glyph glyph-name="asciitilde" unicode="~" horiz-adv-x="1073" 
d="M119 393l-13.0029 4c18 65.333 53.167 124.333 105.5 177s111.5 79 177.5 79c62 0 128.167 -15.333 198.5 -46s123.833 -46 160.5 -46c52 0 93.833 10.833 125.5 32.5s59.167 54.5 82.5 98.5l11 -4c-21.333 -75.333 -55.666 -137.833 -102.999 -187.5
s-101.333 -74.5 -162 -74.5c-66.667 0 -133.667 15.333 -201 46s-119.666 46 -156.999 46c-52 0 -96.667 -9.83301 -134 -29.5s-67.666 -51.5 -90.999 -95.5z" />
    <glyph glyph-name="nonbreakingspace" unicode="&#xa0;" horiz-adv-x="242" 
 />
    <glyph glyph-name="exclamdown" unicode="&#xa1;" horiz-adv-x="659" 
d="M335.02 983.026c14.666 -178.655 37.8291 -355.145 69.4941 -529.468s47.4971 -285.816 47.4971 -334.479c0 -36.665 -11.333 -69.1631 -33.998 -97.4941s-52.9961 -42.4971 -90.9932 -42.4971c-37.998 0 -68.3301 14.166 -90.9951 42.4971
s-33.998 60.8291 -33.998 97.4941c0 47.9971 15.832 159.157 47.4971 333.479c31.665 174.323 56.1641 351.146 73.4971 530.468h11.999zM329.018 1433c36.665 0 67.9971 -12.666 93.9961 -37.998c25.998 -25.3311 38.9971 -56.9961 38.9971 -94.9941
c0 -35.9971 -12.999 -67.4951 -38.9971 -94.4941c-25.999 -26.998 -57.3311 -40.4971 -93.9961 -40.4971c-37.3311 0 -69.1621 13.499 -95.4941 40.4971c-26.3311 26.999 -39.4971 58.4971 -39.4971 94.4941c0 37.998 13.166 69.6631 39.4971 94.9941
c26.332 25.332 58.1631 37.998 95.4941 37.998z" />
    <glyph glyph-name="cent" unicode="&#xa2;" horiz-adv-x="958" 
d="M322 -231l-26.998 5.99707l88 377c-89.333 30.667 -158.833 87.334 -208.5 170.001s-74.5 182.334 -74.5 299.001c0 124.667 40.5 236.667 121.5 336s190.833 149 329.5 149c10 0 19.667 -0.5 29 -1.5s18 -1.83301 26 -2.5l64 270l28 -6l-61 -268
c71.333 -13.333 126.666 -41.666 165.999 -84.999s59 -91 59 -143c0 -34 -8.66699 -61.5 -26 -82.5s-42.666 -31.5 -75.999 -31.5c-20.667 0 -43.334 7.16699 -68.001 21.5s-37 40.5 -37 78.5c0 44.667 5.83301 76.334 17.5 95.001s17.5 37.667 17.5 57
c-4 16.667 -11.333 30.667 -22 42s-23 20.333 -37 27l-195 -821c19.333 -16.667 41.833 -29.667 67.5 -39s52.5 -14 80.5 -14c65.333 0 122 12 170 36s93 70 135 138l14 -8c-36.667 -78.667 -87.334 -138.334 -152.001 -179.001s-136.667 -61 -216 -61
c-21.333 0 -42.5 1.33301 -63.5 4s-40.833 6 -59.5 10zM414.002 280.997l190 803.999c-8 2.66699 -16.167 4.16699 -24.5 4.5s-16.5 0.5 -24.5 0.5c-66 0 -125.5 -37.333 -178.5 -112s-79.5 -188.334 -79.5 -341.001c0 -73.333 10 -141.666 30 -204.999
s49 -113.666 87 -150.999z" />
    <glyph glyph-name="sterling" unicode="&#xa3;" horiz-adv-x="1495" 
d="M133 -201c-83.333 0 -143.998 17.665 -181.998 52.998s-57 78 -57 128c0 62.667 36.667 112.667 110 150s156.666 56 249.999 56c38.667 0 83.5 -4.66699 134.5 -14s101.167 -20.333 150.5 -33c6.66699 36.667 9.83398 75.834 9.50098 117.501s-1.5 83.834 -3.5 126.501
h-346v25h346c-2 31.333 -3.83301 64.166 -5.5 98.499s-2.5 64.833 -2.5 91.5h-326v27h326c6 241.333 61.833 435.833 167.5 583.5s241.5 221.5 407.5 221.5c136 0 236.167 -38.667 300.5 -116s96.5 -154.333 96.5 -231c0 -97.333 -30.5 -176.5 -91.5 -237.5
s-138.833 -91.5 -233.5 -91.5c-73.333 0 -130.666 23.833 -171.999 71.5s-62 107.834 -62 180.501c0 29.333 3.5 57.166 10.5 83.499s15.833 52.833 26.5 79.5l12 -4c-10.667 -26.667 -18.667 -53 -24 -79s-8 -48.667 -8 -68c0 -67.333 20.333 -120 61 -158
s90.667 -57 150 -57c67.333 0 117.833 24.333 151.5 73s50.5 114.334 50.5 197.001c0 90.667 -20.5 170.334 -61.5 239.001s-107.167 103 -198.5 103c-104.667 0 -189 -47.667 -253 -143s-99 -253 -105 -473c-0.666992 -32 -1.83398 -63.167 -3.50098 -93.5
s-3.83398 -57.166 -6.50098 -80.499h329v-27h-331c-4.66699 -29.333 -11 -63.166 -19 -101.499s-15.333 -67.833 -22 -88.5h356v-25h-365c-14 -44.667 -31 -92.334 -51 -143.001s-39.667 -90.334 -59 -119.001c83.333 -28.667 164.5 -61.834 243.5 -99.501
s160.167 -56.5 243.5 -56.5c106 0 177.167 35.5 213.5 106.5s60.166 140.833 71.499 209.5l14 -5c-14 -110.667 -54.167 -212 -120.5 -304s-184.5 -138 -354.5 -138c-65.333 0 -132.333 15.667 -201 47l-202 96c-40 -48 -93.833 -89.667 -161.5 -125s-135.5 -53 -203.5 -53z
M131.002 -180.002c63.333 0 125.832 15.5 187.499 46.5s113.834 71.5 156.501 121.5c-71.333 33.333 -136.833 58 -196.5 74s-119.167 24 -178.5 24c-52.667 0 -95.167 -11.5 -127.5 -34.5s-48.5 -54.5 -48.5 -94.5c0 -34 17 -65.333 51 -94s86 -43 156 -43z" />
    <glyph glyph-name="yen" unicode="&#xa5;" horiz-adv-x="1161" 
d="M252 0l-0.000976562 14.001c18.667 0.666992 46 3.16699 82 7.5s61.333 8.83301 76 13.5c18 6 33 17.833 45 35.5s18 37.834 18 60.501v191h-317v26h317v168h-317v27h315l-136.5 271c-56.333 110.667 -101.5 195.667 -135.5 255c-17.333 32.667 -35.5 59.667 -54.5 81
s-39.167 38 -60.5 50c-15.333 9.33301 -32.666 16.333 -51.999 21s-37.666 7.33398 -54.999 8.00098v14h560v-14c-30.667 -2 -66.667 -7 -108 -15s-62 -21.333 -62 -40c0 -16.667 30.333 -83.834 91 -201.501l206 -382.5l211.5 358.5c69 115.667 103.5 183.167 103.5 202.5
c0 26.667 -23.167 45.667 -69.5 57s-89.5 18.333 -129.5 21v14h410v-14c-28.667 -2.66699 -57.834 -12.834 -87.501 -30.501s-53.167 -38.834 -70.5 -63.501c-42.667 -61.333 -100.167 -151.5 -172.5 -270.5l-189.5 -321.5h329v-27h-331v-168h331v-26h-331v-181
c0 -21.333 5.16699 -41 15.5 -59s24.833 -31 43.5 -39c15.333 -6.66699 39.5 -13 72.5 -19s58.833 -9.33301 77.5 -10v-14h-625z" />
    <glyph glyph-name="brokenbar" unicode="&#xa6;" horiz-adv-x="559" 
d="M250 -424v803h61v-803h-61zM250 743v785h61v-785h-61z" />
    <glyph glyph-name="section" unicode="&#xa7;" horiz-adv-x="1077" 
d="M469 -465c-84.667 0 -148.167 26.667 -190.5 80s-63.5 99 -63.5 137c0 46 11 82.5 33 109.5s52 40.5 90 40.5c26.667 0 50 -9.66699 70 -29s30 -45.333 30 -78c0 -38.667 -12.167 -65.5 -36.5 -80.5s-36.5 -35.833 -36.5 -62.5c0 -27.333 11 -51.333 33 -72
s49.667 -31 83 -31c56 0 100.167 23 132.5 69s48.5 103.667 48.5 173c0 48.667 -11 92.667 -33 132s-52.667 84 -92 134c-40.667 52 -81.667 99 -123 141s-90 96.667 -146 164c-50 59.333 -87.667 112.5 -113 159.5s-38 101.167 -38 162.5
c0 80.667 28.667 143.334 86 188.001s118 72 182 82c-23.333 34 -43.166 72.333 -59.499 115s-24.5 89 -24.5 139c0 79.333 31.5 149.666 94.5 210.999s139.5 92 229.5 92c81.333 0 141.166 -26.333 179.499 -79s57.5 -98 57.5 -136c0 -46 -10.667 -82.333 -32 -109
s-51 -40 -89 -40c-26.667 0 -50 9.33301 -70 28s-30 44.667 -30 78c0 40 16.333 67.5 49 82.5s49 34.167 49 57.5c0 27.333 -11.5 51.5 -34.5 72.5s-56.5 31.5 -100.5 31.5c-48.667 0 -91.5 -21.333 -128.5 -64s-55.5 -97 -55.5 -163c0 -50 11.5 -94.333 34.5 -133
s54.5 -84 94.5 -136c40.667 -52 80.167 -99 118.5 -141l143.5 -164c52 -61.333 91.333 -115.833 118 -163.5s40 -101.5 40 -161.5c0 -82.667 -29 -143.667 -87 -183s-120.667 -65 -188 -77c25.333 -36 47 -76.833 65 -122.5s27 -95.167 27 -148.5
c0 -79.333 -30.667 -150 -92 -212s-136.333 -93 -225 -93zM684 125c50.667 13.333 89.668 35.498 117.001 66.498s41 71.5 41 121.5c0 34 -9.66699 69.333 -29 106s-42 70.334 -68 101.001l-196.5 231c-63.667 73.333 -115.5 137 -155.5 191
c-42 -10 -78.667 -30.667 -110 -62s-47 -77 -47 -137c0 -29.333 10.667 -63.666 32 -102.999s44.666 -74.333 69.999 -105l192 -222c62.667 -69.333 114 -132 154 -188z" />
    <glyph glyph-name="dieresis" unicode="&#xa8;" 
d="M287 1204c-32 0 -59.499 11.5 -82.499 34.5s-34.5 50.5 -34.5 82.5c0 32.667 11.5 61 34.5 85s50.5 36 82.5 36c35.333 0 64.666 -11.333 87.999 -34s35 -49 35 -79c0 -33.333 -12 -62.5 -36 -87.5s-53 -37.5 -87 -37.5zM733.001 1204c-32.667 0 -60.667 11.5 -84 34.5
s-35 50.5 -35 82.5c0 32.667 11.667 61 35 85s51.333 36 84 36c34.667 0 63.5 -11.333 86.5 -34s34.5 -49 34.5 -79c0 -33.333 -11.667 -62.5 -35 -87.5s-52 -37.5 -86 -37.5z" />
    <glyph glyph-name="copyright" unicode="&#xa9;" horiz-adv-x="1946" 
d="M987 27c-146.667 0 -264.835 43.167 -354.502 129.5s-134.5 202.833 -134.5 349.5c0 140 48.667 258 146 354s221.333 144 372 144c52 0 101.833 -7.33301 149.5 -22s83.834 -30.667 108.501 -48l49 84h16l9 -371h-17c-36.667 117.333 -80 202.333 -130 255
s-113.667 79 -191 79c-82.667 0 -155.334 -40.5 -218.001 -121.5s-94 -195.5 -94 -343.5c0 -121.333 28.333 -223.333 85 -306s138.334 -124 245.001 -124c84.667 0 152.667 24.667 204 74s92 104 122 164l24 -11c-31.333 -70 -78.166 -135.167 -140.499 -195.5
s-145.833 -90.5 -250.5 -90.5zM974.999 -371c-246.667 0 -457.5 87 -632.5 261s-262.5 382 -262.5 624c0 240 87.167 446.833 261.5 620.5s385.5 260.5 633.5 260.5c245.333 0 455.166 -86.833 629.499 -260.5s261.5 -380.5 261.5 -620.5c0 -242 -87.167 -450 -261.5 -624
s-384.166 -261 -629.499 -261zM974.999 -317c227.333 0 420.666 81.167 579.999 243.5s239 358.166 239 587.499c0 226.667 -79.667 420.834 -239 582.501s-352.666 242.5 -579.999 242.5c-228.667 0 -423 -80.833 -583 -242.5s-240 -355.834 -240 -582.501
c0 -229.333 80 -425.166 240 -587.499s354.333 -243.5 583 -243.5z" />
    <glyph glyph-name="ordfeminine" unicode="&#xaa;" horiz-adv-x="713" 
d="M248 688c-46 0 -82.166 12.165 -108.499 36.498s-39.5 56.5 -39.5 96.5c0 49.333 12.5 84.833 37.5 106.5s52.167 38.834 81.5 51.501c32.667 13.333 69.167 24.833 109.5 34.5s72.166 20.834 95.499 33.501v71c0 21.333 -5.5 48.833 -16.5 82.5s-37.5 50.5 -79.5 50.5
c-19.333 0 -34.666 -3.5 -45.999 -10.5s-19.333 -13.5 -24 -19.5c0 -10.667 2 -25.5 6 -44.5s6 -35.833 6 -50.5c0 -12.667 -5.16699 -25.667 -15.5 -39s-28.166 -20 -53.499 -20c-24.667 0 -42.167 7.33301 -52.5 22s-15.5 31.334 -15.5 50.001
c0 37.333 22.5 68.5 67.5 93.5s89.5 37.5 133.5 37.5c56 0 106.167 -10 150.5 -30s66.5 -70 66.5 -150c0 -52 -1.33301 -105.5 -4 -160.5s-4 -91.833 -4 -110.5c0 -8.66699 3.5 -21.334 10.5 -38.001s21.167 -25 42.5 -25c20.667 0 34.5 11.333 41.5 34
s10.833 45.334 11.5 68.001h17c-3.33301 -58 -16.166 -100.5 -38.499 -127.5s-52.5 -40.5 -90.5 -40.5c-28.667 0 -51.834 7.16699 -69.501 21.5s-30.834 35.166 -39.501 62.499c-22.667 -25.333 -49.834 -46 -81.501 -62s-64.5 -24 -98.5 -24zM317.001 740.998
c24.667 0 44.832 4.66699 60.499 14s29.167 21.333 40.5 36l6 235c-52 -18.667 -96.333 -41.5 -133 -68.5s-55 -64.833 -55 -113.5c0 -32.667 7.83301 -58 23.5 -76s34.834 -27 57.501 -27zM110.999 495.998v39h520v-39h-520z" />
    <glyph glyph-name="guillemotleft" unicode="&#xab;" horiz-adv-x="1124" 
d="M567 41l-225.5 176.998l-204.5 159c-17.333 14.667 -29.5 26.834 -36.5 36.501s-10.5 24.834 -10.5 45.501c0 19.333 3 33.833 9 43.5s17.333 21.167 34 34.5l205 156c98.667 74.667 175 135 229 181l8 -8l-303 -411l303 -406zM999 40.998l-224 176.998l-206 159
c-16.667 14.667 -28.667 26.834 -36 36.501s-11 24.834 -11 45.501c0 19.333 3 33.833 9 43.5s17.333 21.167 34 34.5l206.5 156c99 74.667 174.833 135 227.5 181l9 -8l-303 -411l303 -406z" />
    <glyph glyph-name="logicalnot" unicode="&#xac;" horiz-adv-x="1145" 
d="M942 80v442h-856v70h928v-512h-72z" />
    <glyph glyph-name="registered" unicode="&#xae;" horiz-adv-x="971" 
d="M641 866c-24.667 0 -44.501 8.83105 -59.501 26.498s-24.5 43.834 -28.5 78.501c-2.66699 23.333 -9.33398 46.5 -20.001 69.5s-34 34.5 -70 34.5h-35v-153c0 -7.33301 1.33301 -13.666 4 -18.999s7.33398 -9.33301 14.001 -12c4.66699 -2 11.167 -3.5 19.5 -4.5
s15.5 -1.5 21.5 -1.5v-13h-192v13c4.66699 0 12.167 0.833008 22.5 2.5s16.5 2.83398 18.5 3.50098c6 2.66699 10.5 6.66699 13.5 12s4.5 11.666 4.5 18.999v319c0 6.66699 -1.33301 13 -4 19s-7.33398 10 -14.001 12c-6 2 -13.167 3.83301 -21.5 5.5s-14.833 2.5 -19.5 2.5
v12h215c30.667 0 60.834 -7.16699 90.501 -21.5s44.5 -38.5 44.5 -72.5s-14.167 -58.667 -42.5 -74s-53.833 -26 -76.5 -32v-7c14.667 -2 32.5 -7.66699 53.5 -17s34.833 -25.333 41.5 -48c4 -16.667 7.33301 -32.667 10 -48s6 -30 10 -44
c2.66699 -11.333 6.83398 -18.666 12.501 -21.999s11.167 -5 16.5 -5c8 0 15.833 3.16699 23.5 9.5s11.5 20.166 11.5 41.499h12c0 -29.333 -5.83301 -51 -17.5 -65s-31.167 -21 -58.5 -21zM484.999 693.998c-104.667 0 -192.834 36 -264.501 108s-107.5 160.333 -107.5 265
s35.833 193 107.5 265s159.834 108 264.501 108s193 -36 265 -108s108 -160.333 108 -265s-36 -193 -108 -265s-160.333 -108 -265 -108zM484.999 726.998c95.333 0 174.5 33 237.5 99s94.5 146.333 94.5 241s-31.5 175 -94.5 241s-142.167 99 -237.5 99
c-94.667 0 -173.5 -33 -236.5 -99s-94.5 -146.333 -94.5 -241s31.5 -175 94.5 -241s141.833 -99 236.5 -99zM427.999 1090l32.999 -0.000976562c27.333 0 50.833 7.33301 70.5 22s29.5 39.334 29.5 74.001c0 34 -8.16699 57.833 -24.5 71.5s-36.166 20.5 -59.499 20.5h-49
v-188z" />
    <glyph glyph-name="macron" unicode="&#xaf;" 
d="M174 1221v127h676v-127h-676z" />
    <glyph glyph-name="macron" unicode="&#x2c9;" 
d="M174 1221v127h676v-127h-676z" />
    <glyph glyph-name="degree" unicode="&#xb0;" horiz-adv-x="782" 
d="M387 848c-81.333 0 -151.833 25.1689 -211.5 75.502s-89.5 124.166 -89.5 221.499c0 89.333 31.333 163.166 94 221.499s131.667 87.5 207 87.5c80.667 0 152.334 -25 215.001 -75s94 -127.333 94 -232c0 -83.333 -31.333 -154 -94 -212s-134.334 -87 -215.001 -87z
M393 864.002c49.333 0 90.333 27.8311 123 83.498s49 120.834 49 195.501c0 78 -14.333 146.667 -43 206s-73 89 -133 89s-104 -30.167 -132 -90.5s-42 -125.166 -42 -194.499c0 -72 14.167 -138.167 42.5 -198.5s73.5 -90.5 135.5 -90.5z" />
    <glyph glyph-name="twosuperior" unicode="&#xb2;" horiz-adv-x="938" 
d="M147 690l-0.000976562 55l223.5 144.5c59 39 112.833 81.833 161.5 128.5c59.333 58 98.833 110.833 118.5 158.5s29.5 100.5 29.5 158.5c0 52 -14.833 94 -44.5 126s-71.5 48 -125.5 48c-76.667 0 -138.5 -26.833 -185.5 -80.5s-70.5 -105.834 -70.5 -156.501
c0 -25.333 7.5 -48.833 22.5 -70.5s42.167 -32.5 81.5 -32.5c40 0 74.833 13.5 104.5 40.5s50.834 51.833 63.501 74.5l13 -10c-21.333 -36 -53 -73.333 -95 -112s-97 -58 -165 -58c-42 0 -75.5 11.5 -100.5 34.5s-37.5 55.833 -37.5 98.5c0 64 37.5 128.5 112.5 193.5
s166.5 97.5 274.5 97.5c96 0 173 -21.333 231 -64s87 -95 87 -157c0 -88 -34.5 -162 -103.5 -222s-180.5 -124.667 -334.5 -194c-10.667 -4.66699 -29.5 -16.667 -56.5 -36l-58.5 -42h436c36 0 66 16.333 90 49s48.667 68.334 74 107.001l10 -6l-127 -273h-629z" />
    <glyph glyph-name="threesuperior" unicode="&#xb3;" horiz-adv-x="930" 
d="M385 680c-65.333 0 -129.493 15.4971 -192.493 46.4971s-94.5 78.167 -94.5 141.5c0 36 12.167 65.167 36.5 87.5s51.166 33.5 80.499 33.5c23.333 0 42.166 -6.83301 56.499 -20.5s21.5 -32.834 21.5 -57.501c0 -35.333 -14 -57.166 -42 -65.499s-42 -23.833 -42 -46.5
c0 -25.333 15 -48.833 45 -70.5s73 -32.5 129 -32.5c75.333 0 141 29.333 197 88s84 123 84 193c0 42 -8.5 80.167 -25.5 114.5s-48.833 51.5 -95.5 51.5c-25.333 0 -52.666 -10.667 -81.999 -32s-56.666 -42.666 -81.999 -63.999l-21 30
c83.333 44 153.666 85.667 210.999 125s86 92 86 158c0 44 -13.333 79.833 -40 107.5s-62.334 41.5 -107.001 41.5c-36.667 0 -81 -16.667 -133 -50s-78 -76 -78 -128c0 -23.333 6.66699 -43.166 20 -59.499s34.666 -24.5 63.999 -24.5c28.667 0 52.167 7 70.5 21l44.5 35
l6 -9c-18.667 -23.333 -45.334 -45.833 -80.001 -67.5s-71 -32.5 -109 -32.5c-48 0 -82.833 9.83301 -104.5 29.5s-32.5 45.167 -32.5 76.5c0 56 38.667 108 116 156s163.666 72 258.999 72c98 0 166.167 -19.167 204.5 -57.5s57.5 -76.5 57.5 -114.5
s-21.667 -75.167 -65 -111.5s-110.333 -64.166 -201 -83.499c73.333 2 138.666 -10.333 195.999 -37s86 -75 86 -145c0 -88.667 -43.833 -160.667 -131.5 -216s-191.834 -83 -312.501 -83z" />
    <glyph glyph-name="acute" unicode="&#xb4;" 
d="M319 1073l-10.0029 9.99902c42 73.333 76.833 136.5 104.5 189.5s52.834 98.5 75.501 136.5c18.667 32 37.834 54.667 57.501 68s42.167 20 67.5 20c24 0 43.667 -8.16699 59 -24.5s23 -34.166 23 -53.499c0 -25.333 -6 -45.5 -18 -60.5s-30.333 -32.167 -55 -51.5
c-30.667 -24.667 -68.667 -53.5 -114 -86.5s-108.666 -82.167 -189.999 -147.5z" />
    <glyph glyph-name="mu" unicode="&#xb5;" horiz-adv-x="1169" 
d="M203 -463c-22.667 0 -42.666 9.49902 -59.999 28.499s-26 43.833 -26 74.5c0 50.667 6.5 100.5 19.5 149.5s21.5 89.833 25.5 122.5s6.66699 68 8 106s2 75 2 111v803h186v-653c0 -68.667 19 -122.5 57 -161.5s82.667 -58.5 134 -58.5c68 0 118.667 14.333 152 43
s56.333 53.334 69 74.001v756h186v-742c0 -25.333 8.66699 -49.333 26 -72s43 -34 77 -34c36.667 0 63.5 17 80.5 51s26.833 70.333 29.5 109h17c-6 -96 -26 -163.667 -60 -203s-83.667 -59 -149 -59c-53.333 0 -96.333 13.667 -129 41s-57.334 66 -74.001 116h-6
c-38.667 -48 -82 -86.5 -130 -115.5s-103 -43.5 -165 -43.5c-58 0 -109.5 12.667 -154.5 38s-82.833 61 -113.5 107h-4v-131c0 -64 14.667 -125 44 -183s44 -113 44 -165c0 -36 -9 -63.167 -27 -81.5s-37.667 -27.5 -59 -27.5z" />
    <glyph glyph-name="mu" unicode="&#x3bc;" horiz-adv-x="1169" 
d="M203 -463c-22.667 0 -42.666 9.49902 -59.999 28.499s-26 43.833 -26 74.5c0 50.667 6.5 100.5 19.5 149.5s21.5 89.833 25.5 122.5s6.66699 68 8 106s2 75 2 111v803h186v-653c0 -68.667 19 -122.5 57 -161.5s82.667 -58.5 134 -58.5c68 0 118.667 14.333 152 43
s56.333 53.334 69 74.001v756h186v-742c0 -25.333 8.66699 -49.333 26 -72s43 -34 77 -34c36.667 0 63.5 17 80.5 51s26.833 70.333 29.5 109h17c-6 -96 -26 -163.667 -60 -203s-83.667 -59 -149 -59c-53.333 0 -96.333 13.667 -129 41s-57.334 66 -74.001 116h-6
c-38.667 -48 -82 -86.5 -130 -115.5s-103 -43.5 -165 -43.5c-58 0 -109.5 12.667 -154.5 38s-82.833 61 -113.5 107h-4v-131c0 -64 14.667 -125 44 -183s44 -113 44 -165c0 -36 -9 -63.167 -27 -81.5s-37.667 -27.5 -59 -27.5z" />
    <glyph glyph-name="paragraph" unicode="&#xb6;" horiz-adv-x="1247" 
d="M639 -256l0.000976562 944h-61c-154.667 0 -269.5 31.667 -344.5 95s-112.5 147.666 -112.5 252.999c0 100.667 34.167 186.334 102.5 257.001s165.166 106 290.499 106h700v-29h-290v-1626h-35v1626h-215v-1626h-35z" />
    <glyph glyph-name="periodcentered" unicode="&#xb7;" horiz-adv-x="512" 
d="M256 422c-38 0 -70.333 13 -97 39s-40 58 -40 96s13.333 70.333 40 97s59 40 97 40s70.333 -13.333 97 -40s40 -59 40 -97s-13.333 -70 -40 -96s-59 -39 -97 -39z" />
    <glyph glyph-name="periodcentered" unicode="&#x2219;" horiz-adv-x="512" 
d="M256 422c-38 0 -70.333 13 -97 39s-40 58 -40 96s13.333 70.333 40 97s59 40 97 40s70.333 -13.333 97 -40s40 -59 40 -97s-13.333 -70 -40 -96s-59 -39 -97 -39z" />
    <glyph glyph-name="cedilla" unicode="&#xb8;" 
d="M289 -471l0.00195312 25c63.333 0 126.166 7 188.499 21s93.5 50 93.5 108c0 36 -19 58.5 -57 67.5s-77 13.5 -117 13.5v236h27v-119c74 0 141 -9.5 201 -28.5s90 -61.167 90 -126.5c0 -89.333 -44.833 -144.5 -134.5 -165.5s-186.834 -31.5 -291.501 -31.5z" />
    <glyph glyph-name="onesuperior" unicode="&#xb9;" horiz-adv-x="696" 
d="M90 694v15c15.333 0.666992 40 2.5 74 5.5s57 5.83301 69 8.5c14.667 4 26.667 11.833 36 23.5s14 25.5 14 41.5v652c-9.33301 -2 -18.666 -3.5 -27.999 -4.5s-21.333 -1.5 -36 -1.5c-26.667 0 -56 5 -88 15s-63.333 26.667 -94 50l4 8
c19.333 -6.66699 44.166 -13.667 74.499 -21s58.833 -11 85.5 -11c54.667 0 103.5 6.66699 146.5 20s76.833 26.333 101.5 39h10c-7.33301 -29.333 -12.333 -61.5 -15 -96.5s-4 -72.5 -4 -112.5v-532c0 -14.667 4.16699 -27.5 12.5 -38.5s19.833 -19.5 34.5 -25.5
c11.333 -4 33.833 -8.16699 67.5 -12.5s57.167 -6.83301 70.5 -7.5v-15h-535z" />
    <glyph glyph-name="ordmasculine" unicode="&#xba;" horiz-adv-x="741" 
d="M367 682c-70.667 0 -135.167 25.5 -193.5 76.5s-87.5 123.167 -87.5 216.5c0 88.667 28 160 84 214s123.667 81 203 81c81.333 0 148.666 -27 201.999 -81s80 -123.333 80 -208s-26.667 -155.667 -80 -213s-122.666 -86 -207.999 -86zM373 698
c52.667 0 89 30.167 109 90.5s30 124.5 30 192.5c0 61.333 -9.66699 121.666 -29 180.999s-56 89 -110 89c-57.333 0 -95.666 -30.833 -114.999 -92.5s-29 -120.167 -29 -175.5c0 -67.333 10.167 -131.666 30.5 -192.999s58.166 -92 113.499 -92zM111 496v39h520v-39h-520z
" />
    <glyph glyph-name="guillemotright" unicode="&#xbb;" horiz-adv-x="1124" 
d="M125 41l-8 8.00195l303 406l-303 411l8 8c52.667 -46 128.667 -106.333 228 -181l206 -156c16.667 -13.333 28 -24.833 34 -34.5s9 -24.167 9 -43.5c0 -20.667 -3.5 -35.834 -10.5 -45.501s-19.167 -21.834 -36.5 -36.501l-205 -159zM557 41.002l-6 8.00195l301 406
l-301 411l6 8c54 -46 130.333 -106.333 229 -181l205 -156c16.667 -13.333 28 -24.833 34 -34.5s9 -24.167 9 -43.5c0 -20.667 -3.5 -35.834 -10.5 -45.501s-19.167 -21.834 -36.5 -36.501l-204.5 -159z" />
    <glyph glyph-name="onequarter" unicode="&#xbc;" horiz-adv-x="1153" 
d="M463 -465l0.000976562 13.998c12.667 0.666992 30.667 2.33398 54 5.00098s39.333 5.33398 48 8.00098c13.333 4 23.833 11.5 31.5 22.5s11.5 23.833 11.5 38.5v187h-434v43l528 524h54v-506c42 0 77.667 0.5 107 1.5s51.666 6.5 66.999 16.5
c12 9.33301 21.833 24.333 29.5 45s11.5 39.334 11.5 56.001h14v-305h-14c-0.666992 19.333 -4.83398 39.833 -12.501 61.5s-18.5 37.834 -32.5 48.501c-11.333 9.33301 -31.5 14.166 -60.5 14.499s-65.5 0.5 -109.5 0.5v-179c0 -14 3.16699 -26.833 9.5 -38.5
s16.833 -19.834 31.5 -24.501c10 -4 25.833 -8 47.5 -12s39.834 -6.33301 54.501 -7v-14h-436zM317.001 693.998l0.00195312 15c15.333 0.666992 40 2.5 74 5.5s57.333 5.83301 70 8.5c14 4 25.667 11.833 35 23.5s14 25.5 14 41.5v652
c-8.66699 -2 -17.834 -3.5 -27.501 -4.5s-21.834 -1.5 -36.501 -1.5c-26.667 0 -56 5 -88 15s-63.333 26.667 -94 50l4 8c19.333 -6.66699 44.166 -13.667 74.499 -21s58.833 -11 85.5 -11c55.333 0 104.333 6.66699 147 20s76.334 26.333 101.001 39h10
c-6.66699 -29.333 -11.334 -61.5 -14.001 -96.5s-4 -72.5 -4 -112.5v-532c0 -14.667 4 -27.5 12 -38.5s19.667 -19.5 35 -25.5c10.667 -4 32.834 -8.16699 66.501 -12.5s57.167 -6.83301 70.5 -7.5v-15h-535zM90.0029 503.998v51h971v-51h-971zM227.003 -129.002h381v379z
" />
    <glyph glyph-name="onehalf" unicode="&#xbd;" horiz-adv-x="1153" 
d="M244 -465l0.00292969 55l222.5 144.5c59 39 113.167 81.833 162.5 128.5c59.333 58 98.666 110.833 117.999 158.5s29 100.5 29 158.5c0 52 -14.833 94 -44.5 126s-71.5 48 -125.5 48c-76 0 -137.667 -26.833 -185 -80.5s-71 -105.834 -71 -156.501
c0 -25.333 7.5 -48.833 22.5 -70.5s42.5 -32.5 82.5 -32.5s74.667 13.5 104 40.5s50.666 51.833 63.999 74.5l12 -10c-21.333 -36 -53 -73.333 -95 -112s-97 -58 -165 -58c-42 0 -75.333 11.5 -100 34.5s-37 55.833 -37 98.5c0 64 37.5 128.5 112.5 193.5
s166.5 97.5 274.5 97.5c95.333 0 172 -21.333 230 -64s87 -95 87 -157c0 -88 -33.5 -162 -100.5 -222s-177.5 -124.667 -331.5 -194c-10.667 -4.66699 -30.334 -16.667 -59.001 -36l-62 -42h436c36 0 66 16.333 90 49s48.667 68.334 74 107.001l10 -7l-127 -272h-628z
M317.003 694l0.00195312 15c15.333 0.666992 40 2.5 74 5.5s57.333 5.83301 70 8.5c14 4 25.667 11.833 35 23.5s14 25.5 14 41.5v652c-8.66699 -2 -17.834 -3.5 -27.501 -4.5s-21.834 -1.5 -36.501 -1.5c-26.667 0 -56 5 -88 15s-63.333 26.667 -94 50l4 8
c19.333 -6.66699 44.166 -13.667 74.499 -21s58.833 -11 85.5 -11c55.333 0 104.333 6.66699 147 20s76.334 26.333 101.001 39h10c-6.66699 -29.333 -11.334 -61.5 -14.001 -96.5s-4 -72.5 -4 -112.5v-532c0 -14.667 4 -27.5 12 -38.5s19.667 -19.5 35 -25.5
c10.667 -4 32.834 -8.16699 66.501 -12.5s57.167 -6.83301 70.5 -7.5v-15h-535zM90.0049 504v51h971v-51h-971z" />
    <glyph glyph-name="threequarters" unicode="&#xbe;" horiz-adv-x="1153" 
d="M479 680c-65.333 0 -129.332 15.4971 -191.999 46.4971s-94 78.167 -94 141.5c0 36 12 65.167 36 87.5s50.667 33.5 80 33.5c23.333 0 42.166 -6.83301 56.499 -20.5s21.5 -32.834 21.5 -57.501c0 -35.333 -14 -57.166 -42 -65.499s-42 -23.833 -42 -46.5
c0 -25.333 15 -48.833 45 -70.5s73 -32.5 129 -32.5c75.333 0 141 29.333 197 88s84 123 84 193c0 42 -8.5 80.167 -25.5 114.5s-48.833 51.5 -95.5 51.5c-25.333 0 -52.666 -10.667 -81.999 -32s-56.666 -42.666 -81.999 -63.999l-20 30
c83.333 44 153.666 85.667 210.999 125s86 92 86 158c0 44 -13.5 79.833 -40.5 107.5s-62.833 41.5 -107.5 41.5c-36.667 0 -81 -16.667 -133 -50s-78 -76 -78 -128c0 -23.333 6.66699 -43.166 20 -59.499s34.666 -24.5 63.999 -24.5c28.667 0 52.167 7 70.5 21l44.5 35
l6 -9c-18.667 -23.333 -45.334 -45.833 -80.001 -67.5s-70.667 -32.5 -108 -32.5c-48 0 -83 9.83301 -105 29.5s-33 45.167 -33 76.5c0 56 38.833 108 116.5 156s163.834 72 258.501 72c98 0 166.167 -19.167 204.5 -57.5s57.5 -76.5 57.5 -114.5
s-21.667 -75.167 -65 -111.5s-110.333 -64.166 -201 -83.499c73.333 2 138.833 -10.333 196.5 -37s86.5 -75 86.5 -145c0 -88.667 -44 -160.667 -132 -216s-192.333 -83 -313 -83zM463.001 -465.003l0.000976562 13.998c12.667 0.666992 30.667 2.33398 54 5.00098
s39.333 5.33398 48 8.00098c13.333 4 23.833 11.5 31.5 22.5s11.5 23.833 11.5 38.5v187h-434v43l528 524h54v-506c42 0 77.667 0.5 107 1.5s51.666 6.5 66.999 16.5c12 9.33301 21.833 24.333 29.5 45s11.5 39.334 11.5 56.001h14v-305h-14
c-0.666992 19.333 -4.83398 39.833 -12.501 61.5s-18.5 37.834 -32.5 48.501c-11.333 9.33301 -31.5 14.166 -60.5 14.499s-65.5 0.5 -109.5 0.5v-179c0 -14 3.16699 -26.833 9.5 -38.5s16.833 -19.834 31.5 -24.501c10 -4 25.833 -8 47.5 -12s39.834 -6.33301 54.501 -7
v-14h-436zM90.002 503.995v51h971v-51h-971zM227.002 -129.005h381v379z" />
    <glyph glyph-name="questiondown" unicode="&#xbf;" horiz-adv-x="987" 
d="M638.022 1044.02l0.000976562 -380.976c-100.661 -13.999 -180.323 -42.3311 -238.986 -84.9951s-87.9951 -117.326 -87.9951 -223.986c0 -127.325 23.832 -217.486 71.4961 -270.483c47.6631 -52.9971 105.826 -79.4951 174.489 -79.4951
c27.3311 0 55.1631 5.5 83.4951 16.499c28.3311 10.999 48.8301 23.832 61.4961 38.498c-2.66699 20.665 -7.83301 39.3301 -15.499 55.9951c-7.66699 16.666 -11.5 45.3311 -11.5 85.9951c0 35.3311 14.333 61.8291 42.998 79.4951
c28.665 17.665 52.6631 26.498 71.9951 26.498c35.998 0 62.3301 -11.333 78.9951 -33.998c16.666 -22.665 24.999 -50.3301 24.999 -82.9951c0 -50.6631 -30.332 -98.1602 -90.9951 -142.491c-60.6631 -44.3301 -144.324 -66.4951 -250.984 -66.4951
c-143.324 0 -251.484 39.3311 -324.48 117.992c-72.9951 78.6621 -109.493 175.989 -109.493 291.982c0 114.659 44.1641 212.653 132.492 293.982c88.3281 81.3281 206.821 127.992 355.479 139.991l11.999 218.986h19.999zM624.024 1438
c37.9971 0 70.3281 -13.166 96.9932 -39.4971c26.665 -26.332 39.9971 -58.4971 39.9971 -96.4941c0 -37.3311 -13.332 -69.4961 -39.9971 -96.4941s-58.9961 -40.4971 -96.9932 -40.4971c-37.998 0 -70.3291 13.499 -96.9941 40.4971s-39.998 59.1631 -39.998 96.4941
c0 37.9971 13.333 70.1621 39.998 96.4941c26.665 26.3311 58.9961 39.4971 96.9941 39.4971z" />
    <glyph glyph-name="Agrave" unicode="&#xc0;" horiz-adv-x="1393" 
d="M-49 0l-0.000976562 14.0029c19.333 0.666992 41 4.16699 65 10.5s45.333 14.5 64 24.5c24.667 14.667 46.5 36.667 65.5 66s36.167 62 51.5 98l238.5 589.5l246.5 618.5h37l307.5 -760.5l208.5 -508.5c8 -20.667 17.833 -40.334 29.5 -59.001
s29.834 -35.334 54.501 -50.001c18.667 -10 39.334 -17.167 62.001 -21.5s43.667 -6.83301 63 -7.5v-14h-645v14c35.333 2 79.166 8 131.499 18s80.833 27.333 85.5 52c2 8.66699 1.83301 18.334 -0.5 29.001s-4.83301 20 -7.5 28l-146 375h-508
c-19.333 -46.667 -39 -98.834 -59 -156.501s-34.333 -101.834 -43 -132.501l-19.5 -67.5c-6.33301 -22.333 -9.5 -40.833 -9.5 -55.5c0 -36 32.667 -59.5 98 -70.5s116 -17.5 152 -19.5v-14h-522zM364.999 545.003h485l-244 616zM847.999 1482
c-81.333 65.333 -144.999 114.501 -190.999 147.501s-84.333 61.833 -115 86.5c-24.667 19.333 -43 36.5 -55 51.5s-18 35.167 -18 60.5c0 19.333 8 37.166 24 53.499s36 24.5 60 24.5c25.333 0 47.666 -6.16699 66.999 -18.5s38.666 -35.5 57.999 -69.5
c22.667 -38 48.334 -85 77.001 -141s63 -118.333 103 -187z" />
    <glyph glyph-name="Aacute" unicode="&#xc1;" horiz-adv-x="1393" 
d="M-49 0l-0.000976562 14.0029c19.333 0.666992 41 4.16699 65 10.5s45.333 14.5 64 24.5c24.667 14.667 46.5 36.667 65.5 66s36.167 62 51.5 98l238.5 589.5l246.5 618.5h37l307.5 -760.5l208.5 -508.5c8 -20.667 17.833 -40.334 29.5 -59.001
s29.834 -35.334 54.501 -50.001c18.667 -10 39.334 -17.167 62.001 -21.5s43.667 -6.83301 63 -7.5v-14h-645v14c35.333 2 79.166 8 131.499 18s80.833 27.333 85.5 52c2 8.66699 1.83301 18.334 -0.5 29.001s-4.83301 20 -7.5 28l-146 375h-508
c-19.333 -46.667 -39 -98.834 -59 -156.501s-34.333 -101.834 -43 -132.501l-19.5 -67.5c-6.33301 -22.333 -9.5 -40.833 -9.5 -55.5c0 -36 32.667 -59.5 98 -70.5s116 -17.5 152 -19.5v-14h-522zM364.999 545.003h485l-244 616zM510.999 1482l-10.0029 9.99902
c42 73.333 76.833 136.5 104.5 189.5s52.834 98.5 75.501 136.5c18.667 32 37.834 54.667 57.501 68s42.167 20 67.5 20c24 0 43.667 -8.16699 59 -24.5s23 -34.166 23 -53.499c0 -25.333 -6 -45.5 -18 -60.5s-30.333 -32.167 -55 -51.5
c-30.667 -24.667 -68.667 -53.5 -114 -86.5s-108.666 -82.167 -189.999 -147.5z" />
    <glyph glyph-name="Acircumflex" unicode="&#xc2;" horiz-adv-x="1393" 
d="M-49 0l-0.000976562 14.0029c19.333 0.666992 41 4.16699 65 10.5s45.333 14.5 64 24.5c24.667 14.667 46.5 36.667 65.5 66s36.167 62 51.5 98l238.5 589.5l246.5 618.5h37l307.5 -760.5l208.5 -508.5c8 -20.667 17.833 -40.334 29.5 -59.001
s29.834 -35.334 54.501 -50.001c18.667 -10 39.334 -17.167 62.001 -21.5s43.667 -6.83301 63 -7.5v-14h-645v14c35.333 2 79.166 8 131.499 18s80.833 27.333 85.5 52c2 8.66699 1.83301 18.334 -0.5 29.001s-4.83301 20 -7.5 28l-146 375h-508
c-19.333 -46.667 -39 -98.834 -59 -156.501s-34.333 -101.834 -43 -132.501l-19.5 -67.5c-6.33301 -22.333 -9.5 -40.833 -9.5 -55.5c0 -36 32.667 -59.5 98 -70.5s116 -17.5 152 -19.5v-14h-522zM364.999 545.003h485l-244 616zM388.999 1503l-15 12.001l139 205.5
l95 144.5c13.333 19.333 24.333 31.666 33 36.999s27.667 8 57 8s47.833 -2.5 55.5 -7.5s17.167 -16.167 28.5 -33.5l96.5 -145l139.5 -209l-15 -12l-309 262z" />
    <glyph glyph-name="Atilde" unicode="&#xc3;" horiz-adv-x="1393" 
d="M-49 0l-0.000976562 14.0029c19.333 0.666992 41 4.16699 65 10.5s45.333 14.5 64 24.5c24.667 14.667 46.5 36.667 65.5 66s36.167 62 51.5 98l238.5 589.5l246.5 618.5h37l307.5 -760.5l208.5 -508.5c8 -20.667 17.833 -40.334 29.5 -59.001
s29.834 -35.334 54.501 -50.001c18.667 -10 39.334 -17.167 62.001 -21.5s43.667 -6.83301 63 -7.5v-14h-645v14c35.333 2 79.166 8 131.499 18s80.833 27.333 85.5 52c2 8.66699 1.83301 18.334 -0.5 29.001s-4.83301 20 -7.5 28l-146 375h-508
c-19.333 -46.667 -39 -98.834 -59 -156.501s-34.333 -101.834 -43 -132.501l-19.5 -67.5c-6.33301 -22.333 -9.5 -40.833 -9.5 -55.5c0 -36 32.667 -59.5 98 -70.5s116 -17.5 152 -19.5v-14h-522zM364.999 545.003h485l-244 616zM314.999 1546l-18.0029 8
c14.667 48 45.834 102.667 93.501 164s101.834 92 162.501 92c62 0 124.667 -19.833 188 -59.5s112.666 -59.5 147.999 -59.5c46 0 83.333 12.167 112 36.5s53.334 57.833 74.001 100.5l18 -6c-18.667 -64.667 -52.667 -123.5 -102 -176.5s-102.666 -79.5 -159.999 -79.5
c-64 0 -127 19.167 -189 57.5s-112.333 57.5 -151 57.5s-71 -11 -97 -33s-52.333 -56 -79 -102z" />
    <glyph glyph-name="Adieresis" unicode="&#xc4;" horiz-adv-x="1393" 
d="M-49 0l-0.000976562 14.0029c19.333 0.666992 41 4.16699 65 10.5s45.333 14.5 64 24.5c24.667 14.667 46.5 36.667 65.5 66s36.167 62 51.5 98l238.5 589.5l246.5 618.5h37l307.5 -760.5l208.5 -508.5c8 -20.667 17.833 -40.334 29.5 -59.001
s29.834 -35.334 54.501 -50.001c18.667 -10 39.334 -17.167 62.001 -21.5s43.667 -6.83301 63 -7.5v-14h-645v14c35.333 2 79.166 8 131.499 18s80.833 27.333 85.5 52c2 8.66699 1.83301 18.334 -0.5 29.001s-4.83301 20 -7.5 28l-146 375h-508
c-19.333 -46.667 -39 -98.834 -59 -156.501s-34.333 -101.834 -43 -132.501l-19.5 -67.5c-6.33301 -22.333 -9.5 -40.833 -9.5 -55.5c0 -36 32.667 -59.5 98 -70.5s116 -17.5 152 -19.5v-14h-522zM364.999 545.003h485l-244 616zM470.999 1562
c-32 0 -59.499 11.5 -82.499 34.5s-34.5 50.5 -34.5 82.5c0 32.667 11.5 61 34.5 85s50.5 36 82.5 36c35.333 0 64.666 -11.333 87.999 -34s35 -49 35 -79c0 -33.333 -12 -62.5 -36 -87.5s-53 -37.5 -87 -37.5zM917 1562c-32.667 0 -60.667 11.5 -84 34.5s-35 50.5 -35 82.5
c0 32.667 11.667 61 35 85s51.333 36 84 36c34.667 0 63.5 -11.333 86.5 -34s34.5 -49 34.5 -79c0 -33.333 -11.667 -62.5 -35 -87.5s-52 -37.5 -86 -37.5z" />
    <glyph glyph-name="Aring" unicode="&#xc5;" horiz-adv-x="1393" 
d="M-49 0l-0.000976562 14.0029c19.333 0.666992 41 4.16699 65 10.5s45.333 14.5 64 24.5c24.667 14.667 46.5 36.667 65.5 66s36.167 62 51.5 98l238.5 589.5l246.5 618.5h37l307.5 -760.5l208.5 -508.5c8 -20.667 17.833 -40.334 29.5 -59.001
s29.834 -35.334 54.501 -50.001c18.667 -10 39.334 -17.167 62.001 -21.5s43.667 -6.83301 63 -7.5v-14h-645v14c35.333 2 79.166 8 131.499 18s80.833 27.333 85.5 52c2 8.66699 1.83301 18.334 -0.5 29.001s-4.83301 20 -7.5 28l-146 375h-508
c-19.333 -46.667 -39 -98.834 -59 -156.501s-34.333 -101.834 -43 -132.501l-19.5 -67.5c-6.33301 -22.333 -9.5 -40.833 -9.5 -55.5c0 -36 32.667 -59.5 98 -70.5s116 -17.5 152 -19.5v-14h-522zM364.999 545.003h485l-244 616zM695.999 1496
c-70 0 -125.667 18.501 -167 55.501s-62 85.5 -62 145.5c0 59.333 22.333 107.666 67 144.999s98.667 56 162 56c66 0 120.667 -18.5 164 -55.5s65 -85.5 65 -145.5c0 -58 -20.833 -106 -62.5 -144s-97.167 -57 -166.5 -57zM695.999 1515c44 0 75.501 18.833 94.501 56.5
s28.5 79.5 28.5 125.5c0 44 -9.5 85.333 -28.5 124s-50.5 58 -94.5 58c-42.667 0 -73.834 -18.667 -93.501 -56s-29.5 -79.333 -29.5 -126c0 -44.667 9.5 -86.167 28.5 -124.5s50.5 -57.5 94.5 -57.5z" />
    <glyph glyph-name="AE" unicode="&#xc6;" horiz-adv-x="2013" 
d="M-57 0l-0.00390625 13.9961c19.333 0.666992 43.166 4.66699 71.499 12s52.166 16.333 71.499 27c25.333 14.667 51.833 39.334 79.5 74.001s53.834 72.334 78.501 113.001c32.667 52 131.167 219.833 295.5 503.5l351.5 618.5c-21.333 6.66699 -57 11.5 -107 14.5
s-83.333 4.83301 -100 5.5v17h1171v-318h-18c-10.667 44.667 -40.5 102.167 -89.5 172.5s-95.5 108.5 -139.5 114.5c-24.667 2.66699 -57.167 4.66699 -97.5 6s-76.833 2 -109.5 2h-232v-639h205c57.333 0 97.333 7.83301 120 23.5s40 29.834 52 42.501
c15.333 15.333 30.833 46.333 46.5 93s24.834 83.334 27.501 110.001h18v-572h-18c-2 30 -11.667 69.833 -29 119.5s-32.333 80.834 -45 93.501c-12.667 14.667 -30.667 29.334 -54 44.001s-62.666 22 -117.999 22h-205v-502c0 -83.333 15 -135.166 45 -155.499
s96.333 -30.5 199 -30.5c71.333 0 141 1.33301 209 4s114.333 17 139 43c30.667 31.333 66.834 85 108.501 161s67.834 129.333 78.501 160h18l-27 -393h-1212v14c20.667 0.666992 48.334 3.5 83.001 8.5s59.667 9.83301 75 14.5c24.667 8.66699 42 21.167 52 37.5
s15 37.166 15 62.499v438h-477l-118 -209.5c-40.667 -73.667 -63.334 -115.5 -68.001 -125.5c-15.333 -28.667 -25.666 -52.834 -30.999 -72.501s-8 -37.834 -8 -54.501c0 -34.667 27.333 -59 82 -73s108.667 -22 162 -24v-16h-551zM491.996 603.996h460v756h-28
c-5.33301 -8.66699 -56.5 -97.5 -153.5 -266.5z" />
    <glyph glyph-name="Ccedilla" unicode="&#xc7;" horiz-adv-x="1337" 
d="M754 -31c-9.33301 0 -18.1699 0.332031 -26.5029 0.999023s-16.833 1 -25.5 1v-90c74.667 0 141.834 -9.5 201.501 -28.5s89.5 -61.167 89.5 -126.5c0 -89.333 -44.833 -144.5 -134.5 -165.5s-186.834 -31.5 -291.501 -31.5v25c63.333 0 126.333 7 189 21s94 50 94 108
c0 36 -19 58.5 -57 67.5s-77 13.5 -117 13.5v209c-179.333 16.667 -324.166 88.5 -434.499 215.5s-165.5 291.5 -165.5 493.5c0 210 69 386.333 207 529s309.333 214 514 214c86.667 0 160.334 -12.167 221.001 -36.5s106.334 -50.833 137.001 -79.5l78 110h18l9 -506h-19
c-36.667 118.667 -95.5 229 -176.5 331s-187.5 153 -319.5 153c-124.667 0 -226.334 -58.667 -305.001 -176s-118 -291.666 -118 -522.999c0 -184 43.667 -338.833 131 -464.5s207.333 -188.5 360 -188.5c124.667 0 225.334 31.333 302.001 94s135 138.667 175 228l23 -13
c-42 -94.667 -107 -182.5 -195 -263.5s-209.333 -121.5 -364 -121.5z" />
    <glyph glyph-name="Egrave" unicode="&#xc8;" horiz-adv-x="1364" 
d="M78 0l-0.00292969 13.9951c18.667 0.666992 46.5 3.5 83.5 8.5s63.167 10.5 78.5 16.5c24.667 8.66699 41.334 21.667 50.001 39s13 37.666 13 60.999v1108c0 22.667 -4.16699 43.5 -12.5 62.5s-25.166 33.833 -50.499 44.5c-19.333 8 -46.5 14.833 -81.5 20.5
s-61.833 8.83398 -80.5 9.50098v15h1128v-318h-18c-11.333 44.667 -41.5 102.167 -90.5 172.5s-95.5 108.5 -139.5 114.5c-24.667 2.66699 -57 4.66699 -97 6s-76.333 2 -109 2h-232v-639h205c57.333 0 97.166 7.83301 119.499 23.5s39.833 29.834 52.5 42.501
c15.333 15.333 30.833 46.333 46.5 93s24.834 83.334 27.501 110.001h18v-572h-18c-2 30 -11.667 69.833 -29 119.5s-32.333 80.834 -45 93.501c-13.333 14.667 -31.5 29.334 -54.5 44.001s-62.167 22 -117.5 22h-205v-502c0 -83.333 15 -135.166 45 -155.499
s96.333 -30.5 199 -30.5c71.333 0 141 1.33301 209 4s114.333 17 139 43c30.667 31.333 66.834 85 108.501 161s67.5 129.333 77.5 160h19l-27 -393h-1212zM865.997 1482c-81.333 65.333 -144.999 114.501 -190.999 147.501s-84.333 61.833 -115 86.5
c-24.667 19.333 -43 36.5 -55 51.5s-18 35.167 -18 60.5c0 19.333 8 37.166 24 53.499s36 24.5 60 24.5c25.333 0 47.666 -6.16699 66.999 -18.5s38.666 -35.5 57.999 -69.5c22.667 -38 48.334 -85 77.001 -141s63 -118.333 103 -187z" />
    <glyph glyph-name="Eacute" unicode="&#xc9;" horiz-adv-x="1364" 
d="M78 0l-0.00292969 13.9951c18.667 0.666992 46.5 3.5 83.5 8.5s63.167 10.5 78.5 16.5c24.667 8.66699 41.334 21.667 50.001 39s13 37.666 13 60.999v1108c0 22.667 -4.16699 43.5 -12.5 62.5s-25.166 33.833 -50.499 44.5c-19.333 8 -46.5 14.833 -81.5 20.5
s-61.833 8.83398 -80.5 9.50098v15h1128v-318h-18c-11.333 44.667 -41.5 102.167 -90.5 172.5s-95.5 108.5 -139.5 114.5c-24.667 2.66699 -57 4.66699 -97 6s-76.333 2 -109 2h-232v-639h205c57.333 0 97.166 7.83301 119.499 23.5s39.833 29.834 52.5 42.501
c15.333 15.333 30.833 46.333 46.5 93s24.834 83.334 27.501 110.001h18v-572h-18c-2 30 -11.667 69.833 -29 119.5s-32.333 80.834 -45 93.501c-13.333 14.667 -31.5 29.334 -54.5 44.001s-62.167 22 -117.5 22h-205v-502c0 -83.333 15 -135.166 45 -155.499
s96.333 -30.5 199 -30.5c71.333 0 141 1.33301 209 4s114.333 17 139 43c30.667 31.333 66.834 85 108.501 161s67.5 129.333 77.5 160h19l-27 -393h-1212zM647.997 1482l-10.0029 9.99902c42 73.333 76.833 136.5 104.5 189.5s52.834 98.5 75.501 136.5
c18.667 32 37.834 54.667 57.501 68s42.167 20 67.5 20c24 0 43.667 -8.16699 59 -24.5s23 -34.166 23 -53.499c0 -25.333 -6 -45.5 -18 -60.5s-30.333 -32.167 -55 -51.5c-30.667 -24.667 -68.667 -53.5 -114 -86.5s-108.666 -82.167 -189.999 -147.5z" />
    <glyph glyph-name="Ecircumflex" unicode="&#xca;" horiz-adv-x="1364" 
d="M78 0l-0.00292969 13.9951c18.667 0.666992 46.5 3.5 83.5 8.5s63.167 10.5 78.5 16.5c24.667 8.66699 41.334 21.667 50.001 39s13 37.666 13 60.999v1108c0 22.667 -4.16699 43.5 -12.5 62.5s-25.166 33.833 -50.499 44.5c-19.333 8 -46.5 14.833 -81.5 20.5
s-61.833 8.83398 -80.5 9.50098v15h1128v-318h-18c-11.333 44.667 -41.5 102.167 -90.5 172.5s-95.5 108.5 -139.5 114.5c-24.667 2.66699 -57 4.66699 -97 6s-76.333 2 -109 2h-232v-639h205c57.333 0 97.166 7.83301 119.499 23.5s39.833 29.834 52.5 42.501
c15.333 15.333 30.833 46.333 46.5 93s24.834 83.334 27.501 110.001h18v-572h-18c-2 30 -11.667 69.833 -29 119.5s-32.333 80.834 -45 93.501c-13.333 14.667 -31.5 29.334 -54.5 44.001s-62.167 22 -117.5 22h-205v-502c0 -83.333 15 -135.166 45 -155.499
s96.333 -30.5 199 -30.5c71.333 0 141 1.33301 209 4s114.333 17 139 43c30.667 31.333 66.834 85 108.501 161s67.5 129.333 77.5 160h19l-27 -393h-1212zM373.997 1503l-15 12.001l139 205.5l95 144.5c13.333 19.333 24.333 31.666 33 36.999s27.667 8 57 8
s47.833 -2.5 55.5 -7.5s17.167 -16.167 28.5 -33.5l96.5 -145l139.5 -209l-15 -12l-309 262z" />
    <glyph glyph-name="Edieresis" unicode="&#xcb;" horiz-adv-x="1364" 
d="M78 0l-0.00292969 13.9951c18.667 0.666992 46.5 3.5 83.5 8.5s63.167 10.5 78.5 16.5c24.667 8.66699 41.334 21.667 50.001 39s13 37.666 13 60.999v1108c0 22.667 -4.16699 43.5 -12.5 62.5s-25.166 33.833 -50.499 44.5c-19.333 8 -46.5 14.833 -81.5 20.5
s-61.833 8.83398 -80.5 9.50098v15h1128v-318h-18c-11.333 44.667 -41.5 102.167 -90.5 172.5s-95.5 108.5 -139.5 114.5c-24.667 2.66699 -57 4.66699 -97 6s-76.333 2 -109 2h-232v-639h205c57.333 0 97.166 7.83301 119.499 23.5s39.833 29.834 52.5 42.501
c15.333 15.333 30.833 46.333 46.5 93s24.834 83.334 27.501 110.001h18v-572h-18c-2 30 -11.667 69.833 -29 119.5s-32.333 80.834 -45 93.501c-13.333 14.667 -31.5 29.334 -54.5 44.001s-62.167 22 -117.5 22h-205v-502c0 -83.333 15 -135.166 45 -155.499
s96.333 -30.5 199 -30.5c71.333 0 141 1.33301 209 4s114.333 17 139 43c30.667 31.333 66.834 85 108.501 161s67.5 129.333 77.5 160h19l-27 -393h-1212zM455.997 1564c-32 0 -59.499 11.5 -82.499 34.5s-34.5 50.5 -34.5 82.5c0 32.667 11.5 61 34.5 85s50.5 36 82.5 36
c35.333 0 64.666 -11.333 87.999 -34s35 -49 35 -79c0 -33.333 -12 -62.5 -36 -87.5s-53 -37.5 -87 -37.5zM901.998 1564c-32.667 0 -60.667 11.5 -84 34.5s-35 50.5 -35 82.5c0 32.667 11.667 61 35 85s51.333 36 84 36c34.667 0 63.5 -11.333 86.5 -34s34.5 -49 34.5 -79
c0 -33.333 -11.667 -62.5 -35 -87.5s-52 -37.5 -86 -37.5z" />
    <glyph glyph-name="Igrave" unicode="&#xcc;" horiz-adv-x="831" 
d="M94 0v14c18.667 0.666992 45 3.16699 79 7.5s57.667 8.83301 71 13.5c24.667 8.66699 41.334 21.834 50.001 39.501s13 37.834 13 60.501v1112c0 22.667 -4.33301 43.5 -13 62.5s-25.334 33.833 -50.001 44.5c-17.333 6.66699 -42 13.167 -74 19.5
s-57.333 9.83301 -76 10.5v15h643v-15c-18.667 -0.666992 -43.5 -3.66699 -74.5 -9s-55.833 -11 -74.5 -17c-25.333 -8.66699 -42.333 -22 -51 -40s-13 -38.333 -13 -61v-1112c0 -22.667 4.83301 -43.5 14.5 -62.5s26.167 -33.5 49.5 -43.5
c12 -4.66699 35.167 -9.83398 69.5 -15.501s60.833 -8.83398 79.5 -9.50098v-14h-643zM570 1482c-81.333 65.333 -144.999 114.501 -190.999 147.501s-84.333 61.833 -115 86.5c-24.667 19.333 -43 36.5 -55 51.5s-18 35.167 -18 60.5c0 19.333 8 37.166 24 53.499
s36 24.5 60 24.5c25.333 0 47.666 -6.16699 66.999 -18.5s38.666 -35.5 57.999 -69.5c22.667 -38 48.334 -85 77.001 -141s63 -118.333 103 -187z" />
    <glyph glyph-name="Iacute" unicode="&#xcd;" horiz-adv-x="831" 
d="M94 0v14c18.667 0.666992 45 3.16699 79 7.5s57.667 8.83301 71 13.5c24.667 8.66699 41.334 21.834 50.001 39.501s13 37.834 13 60.501v1112c0 22.667 -4.33301 43.5 -13 62.5s-25.334 33.833 -50.001 44.5c-17.333 6.66699 -42 13.167 -74 19.5
s-57.333 9.83301 -76 10.5v15h643v-15c-18.667 -0.666992 -43.5 -3.66699 -74.5 -9s-55.833 -11 -74.5 -17c-25.333 -8.66699 -42.333 -22 -51 -40s-13 -38.333 -13 -61v-1112c0 -22.667 4.83301 -43.5 14.5 -62.5s26.167 -33.5 49.5 -43.5
c12 -4.66699 35.167 -9.83398 69.5 -15.501s60.833 -8.83398 79.5 -9.50098v-14h-643zM264 1482l-10.0029 9.99902c42 73.333 76.833 136.5 104.5 189.5s52.834 98.5 75.501 136.5c18.667 32 37.834 54.667 57.501 68s42.167 20 67.5 20c24 0 43.667 -8.16699 59 -24.5
s23 -34.166 23 -53.499c0 -25.333 -6 -45.5 -18 -60.5s-30.333 -32.167 -55 -51.5c-30.667 -24.667 -68.667 -53.5 -114 -86.5s-108.666 -82.167 -189.999 -147.5z" />
    <glyph glyph-name="Icircumflex" unicode="&#xce;" horiz-adv-x="831" 
d="M94 0v14c18.667 0.666992 45 3.16699 79 7.5s57.667 8.83301 71 13.5c24.667 8.66699 41.334 21.834 50.001 39.501s13 37.834 13 60.501v1112c0 22.667 -4.33301 43.5 -13 62.5s-25.334 33.833 -50.001 44.5c-17.333 6.66699 -42 13.167 -74 19.5
s-57.333 9.83301 -76 10.5v15h643v-15c-18.667 -0.666992 -43.5 -3.66699 -74.5 -9s-55.833 -11 -74.5 -17c-25.333 -8.66699 -42.333 -22 -51 -40s-13 -38.333 -13 -61v-1112c0 -22.667 4.83301 -43.5 14.5 -62.5s26.167 -33.5 49.5 -43.5
c12 -4.66699 35.167 -9.83398 69.5 -15.501s60.833 -8.83398 79.5 -9.50098v-14h-643zM109 1503l-15 12.001l139 205.5l95 144.5c13.333 19.333 24.333 31.666 33 36.999s27.667 8 57 8s47.833 -2.5 55.5 -7.5s17.167 -16.167 28.5 -33.5l96.5 -145l139.5 -209l-15 -12
l-309 262z" />
    <glyph glyph-name="Idieresis" unicode="&#xcf;" horiz-adv-x="831" 
d="M94 0v14c18.667 0.666992 45 3.16699 79 7.5s57.667 8.83301 71 13.5c24.667 8.66699 41.334 21.834 50.001 39.501s13 37.834 13 60.501v1112c0 22.667 -4.33301 43.5 -13 62.5s-25.334 33.833 -50.001 44.5c-17.333 6.66699 -42 13.167 -74 19.5
s-57.333 9.83301 -76 10.5v15h643v-15c-18.667 -0.666992 -43.5 -3.66699 -74.5 -9s-55.833 -11 -74.5 -17c-25.333 -8.66699 -42.333 -22 -51 -40s-13 -38.333 -13 -61v-1112c0 -22.667 4.83301 -43.5 14.5 -62.5s26.167 -33.5 49.5 -43.5
c12 -4.66699 35.167 -9.83398 69.5 -15.501s60.833 -8.83398 79.5 -9.50098v-14h-643zM191 1564c-32 0 -59.499 11.5 -82.499 34.5s-34.5 50.5 -34.5 82.5c0 32.667 11.5 61 34.5 85s50.5 36 82.5 36c35.333 0 64.666 -11.333 87.999 -34s35 -49 35 -79
c0 -33.333 -12 -62.5 -36 -87.5s-53 -37.5 -87 -37.5zM637.001 1564c-32.667 0 -60.667 11.5 -84 34.5s-35 50.5 -35 82.5c0 32.667 11.667 61 35 85s51.333 36 84 36c34.667 0 63.5 -11.333 86.5 -34s34.5 -49 34.5 -79c0 -33.333 -11.667 -62.5 -35 -87.5
s-52 -37.5 -86 -37.5z" />
    <glyph glyph-name="Eth" unicode="&#xd0;" horiz-adv-x="1595" 
d="M88 0l-0.000976562 13.9961c20.667 0 47.834 2.33301 81.501 7s57.167 9.33398 70.5 14.001c24.667 8.66699 41.334 21.834 50.001 39.501s13 37.834 13 60.501v584h-205v43h205v485c0 22.667 -4.33301 44.167 -13 64.5s-25.334 35.833 -50.001 46.5
c-24.667 10 -50.167 16.667 -76.5 20s-48.833 5.33301 -67.5 6v15h660c204 0 382.333 -60.167 535 -180.5s229 -296.5 229 -528.5c0 -217.333 -77.833 -386.666 -233.5 -507.999s-346.167 -182 -571.5 -182h-627zM742.999 24.9961c174 0 304.998 60.334 392.998 181.001
s132 282.667 132 486c0 195.333 -52.167 358.166 -156.5 488.499s-242.166 195.5 -413.499 195.5c-23.333 0 -53.166 -0.5 -89.499 -1.5l-88.5 -2.5v-610h301v-43h-301v-537c6 -50 25.167 -88.667 57.5 -116s87.5 -41 165.5 -41z" />
    <glyph glyph-name="Ntilde" unicode="&#xd1;" horiz-adv-x="1589" 
d="M1309 -14l-984.999 1212v-838c0 -87.333 5.83301 -152.333 17.5 -195s28.834 -72.334 51.501 -89.001c21.333 -16.667 57.166 -31 107.499 -43s84.833 -18.333 103.5 -19v-14h-567v14c18.667 0.666992 51.5 7.33398 98.5 20.001s77.5 24.667 91.5 36
c24.667 19.333 42.167 51 52.5 95s15.5 105.667 15.5 185v803c0 29.333 -7.5 61.833 -22.5 97.5s-32.833 61.834 -53.5 78.501c-24.667 19.333 -58.667 33.166 -102 41.499s-79 12.833 -107 13.5v15h422l883 -1084v713c0 73.333 -5.83301 137.833 -17.5 193.5
s-29.167 92.834 -52.5 111.501c-24.667 19.333 -59.834 32.5 -105.501 39.5s-80.167 10.833 -103.5 11.5v15h563v-15c-18 -0.666992 -48.167 -5.16699 -90.5 -13.5s-74.833 -20.166 -97.5 -35.499c-26.667 -18.667 -44.667 -57.667 -54 -117s-14 -122.666 -14 -189.999
v-1042h-34zM468.001 1546l-18.0029 8c14.667 48 45.834 102.667 93.501 164s101.834 92 162.501 92c62 0 124.667 -19.833 188 -59.5s112.666 -59.5 147.999 -59.5c46 0 83.333 12.167 112 36.5s53.334 57.833 74.001 100.5l18 -6
c-18.667 -64.667 -52.667 -123.5 -102 -176.5s-102.666 -79.5 -159.999 -79.5c-64 0 -127 19.167 -189 57.5s-112.333 57.5 -151 57.5s-71 -11 -97 -33s-52.333 -56 -79 -102z" />
    <glyph glyph-name="Ograve" unicode="&#xd2;" horiz-adv-x="1587" 
d="M786 -33c-92.667 0 -180.834 16.6631 -264.501 49.9961s-158.5 81 -224.5 143c-67.333 63.333 -120.666 138.833 -159.999 226.5s-59 186.834 -59 297.501s16.5 210.834 49.5 300.501s82.5 167.834 148.5 234.501c69.333 70 148.333 123 237 159s182.667 54 282 54
c95.333 0 186.666 -17 273.999 -51s169.333 -88 246 -162c60 -60 107.333 -135.167 142 -225.5s52 -185.166 52 -284.499c0 -106 -16.667 -205.5 -50 -298.5s-87.666 -175.167 -162.999 -246.5c-65.333 -62 -140.5 -110.333 -225.5 -145s-179.833 -52 -284.5 -52z
M795 -8.00391c158 0 275.333 68.501 352 205.501s115 305.167 115 504.5c0 208 -40.333 377.5 -121 508.5s-196 196.5 -346 196.5c-144.667 0 -259 -63.5 -343 -190.5s-126 -301.167 -126 -522.5c0 -206.667 40.5 -375.334 121.5 -506.001s196.833 -196 347.5 -196z
M977 1482c-81.333 65.333 -144.999 114.501 -190.999 147.501s-84.333 61.833 -115 86.5c-24.667 19.333 -43 36.5 -55 51.5s-18 35.167 -18 60.5c0 19.333 8 37.166 24 53.499s36 24.5 60 24.5c25.333 0 47.666 -6.16699 66.999 -18.5s38.666 -35.5 57.999 -69.5
c22.667 -38 48.334 -85 77.001 -141s63 -118.333 103 -187z" />
    <glyph glyph-name="Oacute" unicode="&#xd3;" horiz-adv-x="1587" 
d="M786 -33c-92.667 0 -180.834 16.6631 -264.501 49.9961s-158.5 81 -224.5 143c-67.333 63.333 -120.666 138.833 -159.999 226.5s-59 186.834 -59 297.501s16.5 210.834 49.5 300.501s82.5 167.834 148.5 234.501c69.333 70 148.333 123 237 159s182.667 54 282 54
c95.333 0 186.666 -17 273.999 -51s169.333 -88 246 -162c60 -60 107.333 -135.167 142 -225.5s52 -185.166 52 -284.499c0 -106 -16.667 -205.5 -50 -298.5s-87.666 -175.167 -162.999 -246.5c-65.333 -62 -140.5 -110.333 -225.5 -145s-179.833 -52 -284.5 -52z
M795 -8.00391c158 0 275.333 68.501 352 205.501s115 305.167 115 504.5c0 208 -40.333 377.5 -121 508.5s-196 196.5 -346 196.5c-144.667 0 -259 -63.5 -343 -190.5s-126 -301.167 -126 -522.5c0 -206.667 40.5 -375.334 121.5 -506.001s196.833 -196 347.5 -196z
M609 1482l-10.0029 9.99902c42 73.333 76.833 136.5 104.5 189.5s52.834 98.5 75.501 136.5c18.667 32 37.834 54.667 57.501 68s42.167 20 67.5 20c24 0 43.667 -8.16699 59 -24.5s23 -34.166 23 -53.499c0 -25.333 -6 -45.5 -18 -60.5s-30.333 -32.167 -55 -51.5
c-30.667 -24.667 -68.667 -53.5 -114 -86.5s-108.666 -82.167 -189.999 -147.5z" />
    <glyph glyph-name="Ocircumflex" unicode="&#xd4;" horiz-adv-x="1587" 
d="M786 -33c-92.667 0 -180.834 16.6631 -264.501 49.9961s-158.5 81 -224.5 143c-67.333 63.333 -120.666 138.833 -159.999 226.5s-59 186.834 -59 297.501s16.5 210.834 49.5 300.501s82.5 167.834 148.5 234.501c69.333 70 148.333 123 237 159s182.667 54 282 54
c95.333 0 186.666 -17 273.999 -51s169.333 -88 246 -162c60 -60 107.333 -135.167 142 -225.5s52 -185.166 52 -284.499c0 -106 -16.667 -205.5 -50 -298.5s-87.666 -175.167 -162.999 -246.5c-65.333 -62 -140.5 -110.333 -225.5 -145s-179.833 -52 -284.5 -52z
M795 -8.00391c158 0 275.333 68.501 352 205.501s115 305.167 115 504.5c0 208 -40.333 377.5 -121 508.5s-196 196.5 -346 196.5c-144.667 0 -259 -63.5 -343 -190.5s-126 -301.167 -126 -522.5c0 -206.667 40.5 -375.334 121.5 -506.001s196.833 -196 347.5 -196z
M485 1503l-15 12.001l139 205.5l95 144.5c13.333 19.333 24.333 31.666 33 36.999s27.667 8 57 8s47.833 -2.5 55.5 -7.5s17.167 -16.167 28.5 -33.5l96.5 -145l139.5 -209l-15 -12l-309 262z" />
    <glyph glyph-name="Otilde" unicode="&#xd5;" horiz-adv-x="1587" 
d="M786 -33c-92.667 0 -180.834 16.6631 -264.501 49.9961s-158.5 81 -224.5 143c-67.333 63.333 -120.666 138.833 -159.999 226.5s-59 186.834 -59 297.501s16.5 210.834 49.5 300.501s82.5 167.834 148.5 234.501c69.333 70 148.333 123 237 159s182.667 54 282 54
c95.333 0 186.666 -17 273.999 -51s169.333 -88 246 -162c60 -60 107.333 -135.167 142 -225.5s52 -185.166 52 -284.499c0 -106 -16.667 -205.5 -50 -298.5s-87.666 -175.167 -162.999 -246.5c-65.333 -62 -140.5 -110.333 -225.5 -145s-179.833 -52 -284.5 -52z
M795 -8.00391c158 0 275.333 68.501 352 205.501s115 305.167 115 504.5c0 208 -40.333 377.5 -121 508.5s-196 196.5 -346 196.5c-144.667 0 -259 -63.5 -343 -190.5s-126 -301.167 -126 -522.5c0 -206.667 40.5 -375.334 121.5 -506.001s196.833 -196 347.5 -196z
M413 1546l-18.0029 8c14.667 48 45.834 102.667 93.501 164s101.834 92 162.501 92c62 0 124.667 -19.833 188 -59.5s112.666 -59.5 147.999 -59.5c46 0 83.333 12.167 112 36.5s53.334 57.833 74.001 100.5l18 -6c-18.667 -64.667 -52.667 -123.5 -102 -176.5
s-102.666 -79.5 -159.999 -79.5c-64 0 -127 19.167 -189 57.5s-112.333 57.5 -151 57.5s-71 -11 -97 -33s-52.333 -56 -79 -102z" />
    <glyph glyph-name="Odieresis" unicode="&#xd6;" horiz-adv-x="1587" 
d="M786 -33c-92.667 0 -180.834 16.6631 -264.501 49.9961s-158.5 81 -224.5 143c-67.333 63.333 -120.666 138.833 -159.999 226.5s-59 186.834 -59 297.501s16.5 210.834 49.5 300.501s82.5 167.834 148.5 234.501c69.333 70 148.333 123 237 159s182.667 54 282 54
c95.333 0 186.666 -17 273.999 -51s169.333 -88 246 -162c60 -60 107.333 -135.167 142 -225.5s52 -185.166 52 -284.499c0 -106 -16.667 -205.5 -50 -298.5s-87.666 -175.167 -162.999 -246.5c-65.333 -62 -140.5 -110.333 -225.5 -145s-179.833 -52 -284.5 -52z
M795 -8.00391c158 0 275.333 68.501 352 205.501s115 305.167 115 504.5c0 208 -40.333 377.5 -121 508.5s-196 196.5 -346 196.5c-144.667 0 -259 -63.5 -343 -190.5s-126 -301.167 -126 -522.5c0 -206.667 40.5 -375.334 121.5 -506.001s196.833 -196 347.5 -196z
M567 1564c-32 0 -59.499 11.5 -82.499 34.5s-34.5 50.5 -34.5 82.5c0 32.667 11.5 61 34.5 85s50.5 36 82.5 36c35.333 0 64.666 -11.333 87.999 -34s35 -49 35 -79c0 -33.333 -12 -62.5 -36 -87.5s-53 -37.5 -87 -37.5zM1013 1564c-32.667 0 -60.667 11.5 -84 34.5
s-35 50.5 -35 82.5c0 32.667 11.667 61 35 85s51.333 36 84 36c34.667 0 63.5 -11.333 86.5 -34s34.5 -49 34.5 -79c0 -33.333 -11.667 -62.5 -35 -87.5s-52 -37.5 -86 -37.5z" />
    <glyph glyph-name="multiply" unicode="&#xd7;" horiz-adv-x="1145" 
d="M166 76l-47 47l407 405l-405 406l51 49l403 -403l404 403l45 -47l-403 -401l405 -406l-49 -51l-408 405z" />
    <glyph glyph-name="Oslash" unicode="&#xd8;" horiz-adv-x="1587" 
d="M115 -68l-23.001 18.998l197 215c-65.333 62 -116.833 136.667 -154.5 224s-56.5 185.333 -56.5 294c0 110.667 16.5 210.834 49.5 300.501s82.5 167.834 148.5 234.501c69.333 70 148.333 123 237 159s182.667 54 282 54c88.667 0 174 -14.833 256 -44.5
s159 -76.5 231 -140.5l188 207l23 -16l-190 -209c66 -65.333 116.833 -143.5 152.5 -234.5s53.5 -186.167 53.5 -285.5c0 -106 -16.667 -205.5 -50 -298.5s-87.666 -175.167 -162.999 -246.5c-65.333 -62 -140.5 -110.333 -225.5 -145s-179.833 -52 -284.5 -52
c-89.333 0 -174.5 15.5 -255.5 46.5s-154.167 75.5 -219.5 133.5zM396.999 282.998l783 854.001c-36 79.333 -85.5 144.166 -148.5 194.499s-141.833 75.5 -236.5 75.5c-144.667 0 -259 -63.5 -343 -190.5s-126 -301.167 -126 -522.5c0 -76 5.66699 -149 17 -219
s29.333 -134 54 -192zM794.999 -8.00098c158 0 275.333 68.502 352 205.502s115 305.167 115 504.5c0 71.333 -5.5 142.166 -16.5 212.499s-28.833 135.5 -53.5 195.5l-782 -854c37.333 -80.667 88 -144.834 152 -192.501s141.667 -71.5 233 -71.5z" />
    <glyph glyph-name="Ugrave" unicode="&#xd9;" horiz-adv-x="1620" 
d="M819 -33c-174 0 -307.999 39.3271 -401.999 117.994s-141 173.334 -141 284.001v886c0 22.667 -4.66699 42.334 -14 59.001s-25.666 31.334 -48.999 44.001c-18.667 8.66699 -43.167 15 -73.5 19s-53.5 6.33301 -69.5 7v15h637v-15
c-18.667 -0.666992 -43.334 -3.66699 -74.001 -9s-55.334 -11 -74.001 -17c-25.333 -8.66699 -42.166 -22 -50.499 -40s-12.5 -38.333 -12.5 -61v-862c0 -106 29.167 -191.5 87.5 -256.5s153.166 -97.5 284.499 -97.5c147.333 0 259.333 37.167 336 111.5
s115 161.5 115 261.5v637c0 74 -6 134.5 -18 181.5s-29.333 77.833 -52 92.5c-34 22.667 -71.5 38 -112.5 46s-73.167 12.333 -96.5 13v15h564v-15c-18.667 -0.666992 -49.5 -5.66699 -92.5 -15s-75.167 -20.666 -96.5 -33.999
c-27.333 -17.333 -45.333 -51.166 -54 -101.499s-13 -107.166 -13 -170.499v-657c0 -144 -55 -253.167 -165 -327.5s-231.333 -111.5 -364 -111.5zM1024 1481.99c-81.333 65.333 -144.999 114.501 -190.999 147.501s-84.333 61.833 -115 86.5
c-24.667 19.333 -43 36.5 -55 51.5s-18 35.167 -18 60.5c0 19.333 8 37.166 24 53.499s36 24.5 60 24.5c25.333 0 47.666 -6.16699 66.999 -18.5s38.666 -35.5 57.999 -69.5c22.667 -38 48.334 -85 77.001 -141s63 -118.333 103 -187z" />
    <glyph glyph-name="Uacute" unicode="&#xda;" horiz-adv-x="1620" 
d="M819 -33c-174 0 -307.999 39.3271 -401.999 117.994s-141 173.334 -141 284.001v886c0 22.667 -4.66699 42.334 -14 59.001s-25.666 31.334 -48.999 44.001c-18.667 8.66699 -43.167 15 -73.5 19s-53.5 6.33301 -69.5 7v15h637v-15
c-18.667 -0.666992 -43.334 -3.66699 -74.001 -9s-55.334 -11 -74.001 -17c-25.333 -8.66699 -42.166 -22 -50.499 -40s-12.5 -38.333 -12.5 -61v-862c0 -106 29.167 -191.5 87.5 -256.5s153.166 -97.5 284.499 -97.5c147.333 0 259.333 37.167 336 111.5
s115 161.5 115 261.5v637c0 74 -6 134.5 -18 181.5s-29.333 77.833 -52 92.5c-34 22.667 -71.5 38 -112.5 46s-73.167 12.333 -96.5 13v15h564v-15c-18.667 -0.666992 -49.5 -5.66699 -92.5 -15s-75.167 -20.666 -96.5 -33.999
c-27.333 -17.333 -45.333 -51.166 -54 -101.499s-13 -107.166 -13 -170.499v-657c0 -144 -55 -253.167 -165 -327.5s-231.333 -111.5 -364 -111.5zM708.001 1481.99l-10.0029 9.99902c42 73.333 76.833 136.5 104.5 189.5s52.834 98.5 75.501 136.5
c18.667 32 37.834 54.667 57.501 68s42.167 20 67.5 20c24 0 43.667 -8.16699 59 -24.5s23 -34.166 23 -53.499c0 -25.333 -6 -45.5 -18 -60.5s-30.333 -32.167 -55 -51.5c-30.667 -24.667 -68.667 -53.5 -114 -86.5s-108.666 -82.167 -189.999 -147.5z" />
    <glyph glyph-name="Ucircumflex" unicode="&#xdb;" horiz-adv-x="1620" 
d="M819 -33c-174 0 -307.999 39.3271 -401.999 117.994s-141 173.334 -141 284.001v886c0 22.667 -4.66699 42.334 -14 59.001s-25.666 31.334 -48.999 44.001c-18.667 8.66699 -43.167 15 -73.5 19s-53.5 6.33301 -69.5 7v15h637v-15
c-18.667 -0.666992 -43.334 -3.66699 -74.001 -9s-55.334 -11 -74.001 -17c-25.333 -8.66699 -42.166 -22 -50.499 -40s-12.5 -38.333 -12.5 -61v-862c0 -106 29.167 -191.5 87.5 -256.5s153.166 -97.5 284.499 -97.5c147.333 0 259.333 37.167 336 111.5
s115 161.5 115 261.5v637c0 74 -6 134.5 -18 181.5s-29.333 77.833 -52 92.5c-34 22.667 -71.5 38 -112.5 46s-73.167 12.333 -96.5 13v15h564v-15c-18.667 -0.666992 -49.5 -5.66699 -92.5 -15s-75.167 -20.666 -96.5 -33.999
c-27.333 -17.333 -45.333 -51.166 -54 -101.499s-13 -107.166 -13 -170.499v-657c0 -144 -55 -253.167 -165 -327.5s-231.333 -111.5 -364 -111.5zM569.001 1502.99l-15 12.001l139 205.5l95 144.5c13.333 19.333 24.333 31.666 33 36.999s27.667 8 57 8
s47.833 -2.5 55.5 -7.5s17.167 -16.167 28.5 -33.5l96.5 -145l139.5 -209l-15 -12l-309 262z" />
    <glyph glyph-name="Udieresis" unicode="&#xdc;" horiz-adv-x="1620" 
d="M819 -33c-174 0 -307.999 39.3271 -401.999 117.994s-141 173.334 -141 284.001v886c0 22.667 -4.66699 42.334 -14 59.001s-25.666 31.334 -48.999 44.001c-18.667 8.66699 -43.167 15 -73.5 19s-53.5 6.33301 -69.5 7v15h637v-15
c-18.667 -0.666992 -43.334 -3.66699 -74.001 -9s-55.334 -11 -74.001 -17c-25.333 -8.66699 -42.166 -22 -50.499 -40s-12.5 -38.333 -12.5 -61v-862c0 -106 29.167 -191.5 87.5 -256.5s153.166 -97.5 284.499 -97.5c147.333 0 259.333 37.167 336 111.5
s115 161.5 115 261.5v637c0 74 -6 134.5 -18 181.5s-29.333 77.833 -52 92.5c-34 22.667 -71.5 38 -112.5 46s-73.167 12.333 -96.5 13v15h564v-15c-18.667 -0.666992 -49.5 -5.66699 -92.5 -15s-75.167 -20.666 -96.5 -33.999
c-27.333 -17.333 -45.333 -51.166 -54 -101.499s-13 -107.166 -13 -170.499v-657c0 -144 -55 -253.167 -165 -327.5s-231.333 -111.5 -364 -111.5zM653.001 1563.99c-32 0 -59.499 11.5 -82.499 34.5s-34.5 50.5 -34.5 82.5c0 32.667 11.5 61 34.5 85s50.5 36 82.5 36
c35.333 0 64.666 -11.333 87.999 -34s35 -49 35 -79c0 -33.333 -12 -62.5 -36 -87.5s-53 -37.5 -87 -37.5zM1099 1563.99c-32.667 0 -60.667 11.5 -84 34.5s-35 50.5 -35 82.5c0 32.667 11.667 61 35 85s51.333 36 84 36c34.667 0 63.5 -11.333 86.5 -34s34.5 -49 34.5 -79
c0 -33.333 -11.667 -62.5 -35 -87.5s-52 -37.5 -86 -37.5z" />
    <glyph glyph-name="Yacute" unicode="&#xdd;" horiz-adv-x="1300" 
d="M303 0l-0.000976562 13.9932c18.667 0.666992 48 3.83398 88 9.50098s66.667 10.834 80 15.501c24.667 8.66699 41.5 22.167 50.5 40.5s13.5 38.833 13.5 61.5v387c0 20.667 -5.16699 43.834 -15.5 69.501s-23.166 53.834 -38.499 84.501l-147.5 277l-143.5 251
c-16.667 30.667 -35 58.334 -55 83.001s-42.333 44.334 -67 59.001c-18.667 10 -40.834 17.667 -66.501 23s-48.167 8.33301 -67.5 9v15h660v-15c-36 -2 -79.5 -8.16699 -130.5 -18.5s-76.5 -27.833 -76.5 -52.5c0 -7.33301 9 -29.333 27 -66s42.333 -83 73 -139
l118.5 -215.5l139.5 -249.5l145.5 242.5c47 79 86.833 148.5 119.5 208.5c26.667 48.667 47.667 89.834 63 123.501s23 56.5 23 68.5c0 34 -28 58.167 -84 72.5s-107.333 22.833 -154 25.5v15h494v-15c-12.667 -0.666992 -28.5 -3.83398 -47.5 -9.50098
s-33.833 -11.834 -44.5 -18.501c-26.667 -15.333 -47.667 -29.666 -63 -42.999s-32.666 -34 -51.999 -62c-46 -66 -99.167 -151.833 -159.5 -257.5l-176.5 -309.5c-25.333 -46 -41.166 -83.167 -47.499 -111.5s-9.5 -67.5 -9.5 -117.5v-310
c0 -23.333 4.66699 -43.666 14 -60.999s25.666 -31 48.999 -41c12.667 -4.66699 39.167 -10.5 79.5 -17.5s69.833 -10.833 88.5 -11.5v-14h-680zM592.999 1481.99l-10.0029 9.99902c42 73.333 76.833 136.5 104.5 189.5s52.834 98.5 75.501 136.5
c18.667 32 37.834 54.667 57.501 68s42.167 20 67.5 20c24 0 43.667 -8.16699 59 -24.5s23 -34.166 23 -53.499c0 -25.333 -6 -45.5 -18 -60.5s-30.333 -32.167 -55 -51.5c-30.667 -24.667 -68.667 -53.5 -114 -86.5s-108.666 -82.167 -189.999 -147.5z" />
    <glyph glyph-name="Thorn" unicode="&#xde;" horiz-adv-x="1272" 
d="M92 0v14.001c18.667 0.666992 44.667 3.5 78 8.5s56.666 9.83301 69.999 14.5c24.667 8.66699 41.334 22.167 50.001 40.5s13 38.833 13 61.5v1112c0 22.667 -4.16699 43.667 -12.5 63s-25.166 33.333 -50.499 42c-26 8 -53.833 14.5 -83.5 19.5
s-53.834 7.83301 -72.501 8.5v15h649v-15c-18.667 -0.666992 -43.5 -3 -74.5 -7s-55.833 -9 -74.5 -15c-24.667 -8 -41.5 -20.333 -50.5 -37s-13.5 -36.334 -13.5 -59.001v-170h262c119.333 0 220.166 -30.5 302.499 -91.5s123.5 -142.5 123.5 -244.5
c0 -129.333 -52.5 -232 -157.5 -308s-227.833 -114 -368.5 -114h-162v-199c0 -22.667 4.5 -43.167 13.5 -61.5s25.833 -31.833 50.5 -40.5c12.667 -4.66699 36.334 -9.5 71.001 -14.5s64.667 -7.83301 90 -8.5v-14h-653zM520 362.001l101 -0.000976562
c106 0 188 32.833 246 98.5s87 149.834 87 252.501c0 104.667 -24.667 190.167 -74 256.5s-123 99.5 -221 99.5h-139v-707z" />
    <glyph glyph-name="germandbls" unicode="&#xdf;" horiz-adv-x="1212" 
d="M838 -29c-94 0 -163.998 21.1631 -209.998 63.4961s-69 91.5 -69 147.5c0 36.667 8.5 67.334 25.5 92.001s42.833 37 77.5 37c30.667 0 52.667 -9.66699 66 -29s20 -42.333 20 -69s-6.83301 -49 -20.5 -67s-20.5 -36.667 -20.5 -56c0 -20.667 11.833 -42.167 35.5 -64.5
s58.834 -33.5 105.501 -33.5c58 0 102.833 20.5 134.5 61.5s47.5 85.833 47.5 134.5c0 44 -12.167 84.667 -36.5 122s-79.833 87 -166.5 149c-58.667 40.667 -108.5 83.5 -149.5 128.5s-61.5 95.5 -61.5 151.5c0 61.333 19.167 109.333 57.5 144s75.166 77 110.499 127
c16.667 23.333 30.167 51.5 40.5 84.5s15.5 71.5 15.5 115.5c0 96 -19 169.833 -57 221.5s-88.667 77.5 -152 77.5c-78.667 0 -135.834 -34.333 -171.501 -103s-55.834 -181 -60.501 -337v-1069h-331v14c18 0.666992 33.833 2 47.5 4s27.834 5.66699 42.501 11
c19.333 6 33.333 17.167 42 33.5s13 35.833 13 58.5v768h-209v33h209v63c0 84.667 11.167 162.667 33.5 234s56.833 132 103.5 182c42 44.667 89 77.334 141 98.001s108 31 168 31c87.333 0 163.166 -23.5 227.499 -70.5s96.5 -112.167 96.5 -195.5
c0 -62 -12.167 -112.333 -36.5 -151s-52.5 -70.334 -84.5 -95.001c-35.333 -27.333 -67.666 -50.166 -96.999 -68.499s-44 -41.166 -44 -68.499c0 -28.667 14.333 -61.167 43 -97.5s88.667 -89.166 180 -158.499c77.333 -57.333 132.166 -108.5 164.499 -153.5
s48.5 -105.167 48.5 -180.5c0 -86.667 -30 -161.667 -90 -225s-136.333 -95 -229 -95z" />
    <glyph glyph-name="agrave" unicode="&#xe0;" horiz-adv-x="1004" 
d="M313 -25c-70 0 -127.007 19.832 -171.007 59.499s-66 92.5 -66 158.5c0 64.667 14.667 116.834 44 156.501s81.333 73.5 156 101.5c48.667 18 109.334 38.5 182.001 61.5s127 43.833 163 62.5v146c0 60.667 -14.667 111 -44 151s-73.666 60 -132.999 60
c-29.333 0 -54.166 -4.5 -74.499 -13.5s-38.5 -22.833 -54.5 -41.5c0 -18.667 3.83301 -46 11.5 -82s11.5 -62 11.5 -78c0 -21.333 -10.667 -41.333 -32 -60s-50.333 -28 -87 -28c-33.333 0 -57 11 -71 33s-21 46.333 -21 73c0 28 8.16699 54.167 24.5 78.5
s37.833 45.833 64.5 64.5c32.667 23.333 70.334 41.5 113.001 54.5s85.334 19.5 128.001 19.5c65.333 0 117.166 -3.83301 155.499 -11.5s71.833 -21.167 100.5 -40.5c30.667 -20.667 54.334 -51.334 71.001 -92.001s25 -93.667 25 -159c0 -89.333 -1.66699 -182 -5 -278
s-5 -161 -5 -195c0 -22 8.83301 -44.833 26.5 -68.5s40.834 -35.5 69.501 -35.5c30 0 54 16.833 72 50.5s28.667 74.167 32 121.5h21c-6.66699 -95.333 -28.5 -163.166 -65.5 -203.499s-87.5 -60.5 -151.5 -60.5c-48 0 -86 11.167 -114 33.5s-50 56.833 -66 103.5h-7
c-36 -42.667 -80.167 -77 -132.5 -103s-109.166 -39 -170.499 -39zM413.993 46.999c44.667 0 83 8.66699 115 26s60.333 41.333 85 72l9 402c-136.667 -42.667 -229 -89.167 -277 -139.5s-72 -111.833 -72 -184.5c0 -56 12.333 -99.333 37 -130s59 -46 103 -46z
M686.993 1073c-81.333 65.333 -144.999 114.501 -190.999 147.501s-84.333 61.833 -115 86.5c-24.667 19.333 -43 36.5 -55 51.5s-18 35.167 -18 60.5c0 19.333 8 37.166 24 53.499s36 24.5 60 24.5c25.333 0 47.666 -6.16699 66.999 -18.5s38.666 -35.5 57.999 -69.5
c22.667 -38 48.334 -85 77.001 -141s63 -118.333 103 -187z" />
    <glyph glyph-name="aacute" unicode="&#xe1;" horiz-adv-x="1004" 
d="M313 -25c-70 0 -127.007 19.832 -171.007 59.499s-66 92.5 -66 158.5c0 64.667 14.667 116.834 44 156.501s81.333 73.5 156 101.5c48.667 18 109.334 38.5 182.001 61.5s127 43.833 163 62.5v146c0 60.667 -14.667 111 -44 151s-73.666 60 -132.999 60
c-29.333 0 -54.166 -4.5 -74.499 -13.5s-38.5 -22.833 -54.5 -41.5c0 -18.667 3.83301 -46 11.5 -82s11.5 -62 11.5 -78c0 -21.333 -10.667 -41.333 -32 -60s-50.333 -28 -87 -28c-33.333 0 -57 11 -71 33s-21 46.333 -21 73c0 28 8.16699 54.167 24.5 78.5
s37.833 45.833 64.5 64.5c32.667 23.333 70.334 41.5 113.001 54.5s85.334 19.5 128.001 19.5c65.333 0 117.166 -3.83301 155.499 -11.5s71.833 -21.167 100.5 -40.5c30.667 -20.667 54.334 -51.334 71.001 -92.001s25 -93.667 25 -159c0 -89.333 -1.66699 -182 -5 -278
s-5 -161 -5 -195c0 -22 8.83301 -44.833 26.5 -68.5s40.834 -35.5 69.501 -35.5c30 0 54 16.833 72 50.5s28.667 74.167 32 121.5h21c-6.66699 -95.333 -28.5 -163.166 -65.5 -203.499s-87.5 -60.5 -151.5 -60.5c-48 0 -86 11.167 -114 33.5s-50 56.833 -66 103.5h-7
c-36 -42.667 -80.167 -77 -132.5 -103s-109.166 -39 -170.499 -39zM413.993 46.999c44.667 0 83 8.66699 115 26s60.333 41.333 85 72l9 402c-136.667 -42.667 -229 -89.167 -277 -139.5s-72 -111.833 -72 -184.5c0 -56 12.333 -99.333 37 -130s59 -46 103 -46z
M318.993 1073l-10.0029 9.99902c42 73.333 76.833 136.5 104.5 189.5s52.834 98.5 75.501 136.5c18.667 32 37.834 54.667 57.501 68s42.167 20 67.5 20c24 0 43.667 -8.16699 59 -24.5s23 -34.166 23 -53.499c0 -25.333 -6 -45.5 -18 -60.5s-30.333 -32.167 -55 -51.5
c-30.667 -24.667 -68.667 -53.5 -114 -86.5s-108.666 -82.167 -189.999 -147.5z" />
    <glyph glyph-name="acircumflex" unicode="&#xe2;" horiz-adv-x="1004" 
d="M313 -25c-70 0 -127.007 19.832 -171.007 59.499s-66 92.5 -66 158.5c0 64.667 14.667 116.834 44 156.501s81.333 73.5 156 101.5c48.667 18 109.334 38.5 182.001 61.5s127 43.833 163 62.5v146c0 60.667 -14.667 111 -44 151s-73.666 60 -132.999 60
c-29.333 0 -54.166 -4.5 -74.499 -13.5s-38.5 -22.833 -54.5 -41.5c0 -18.667 3.83301 -46 11.5 -82s11.5 -62 11.5 -78c0 -21.333 -10.667 -41.333 -32 -60s-50.333 -28 -87 -28c-33.333 0 -57 11 -71 33s-21 46.333 -21 73c0 28 8.16699 54.167 24.5 78.5
s37.833 45.833 64.5 64.5c32.667 23.333 70.334 41.5 113.001 54.5s85.334 19.5 128.001 19.5c65.333 0 117.166 -3.83301 155.499 -11.5s71.833 -21.167 100.5 -40.5c30.667 -20.667 54.334 -51.334 71.001 -92.001s25 -93.667 25 -159c0 -89.333 -1.66699 -182 -5 -278
s-5 -161 -5 -195c0 -22 8.83301 -44.833 26.5 -68.5s40.834 -35.5 69.501 -35.5c30 0 54 16.833 72 50.5s28.667 74.167 32 121.5h21c-6.66699 -95.333 -28.5 -163.166 -65.5 -203.499s-87.5 -60.5 -151.5 -60.5c-48 0 -86 11.167 -114 33.5s-50 56.833 -66 103.5h-7
c-36 -42.667 -80.167 -77 -132.5 -103s-109.166 -39 -170.499 -39zM413.993 46.999c44.667 0 83 8.66699 115 26s60.333 41.333 85 72l9 402c-136.667 -42.667 -229 -89.167 -277 -139.5s-72 -111.833 -72 -184.5c0 -56 12.333 -99.333 37 -130s59 -46 103 -46z
M194.993 1094l-15 12.001l139 205.5l95 144.5c13.333 19.333 24.333 31.666 33 36.999s27.667 8 57 8s47.833 -2.5 55.5 -7.5s17.167 -16.167 28.5 -33.5l96.5 -145l139.5 -209l-15 -12l-309 262z" />
    <glyph glyph-name="atilde" unicode="&#xe3;" horiz-adv-x="1004" 
d="M313 -25c-70 0 -127.007 19.832 -171.007 59.499s-66 92.5 -66 158.5c0 64.667 14.667 116.834 44 156.501s81.333 73.5 156 101.5c48.667 18 109.334 38.5 182.001 61.5s127 43.833 163 62.5v146c0 60.667 -14.667 111 -44 151s-73.666 60 -132.999 60
c-29.333 0 -54.166 -4.5 -74.499 -13.5s-38.5 -22.833 -54.5 -41.5c0 -18.667 3.83301 -46 11.5 -82s11.5 -62 11.5 -78c0 -21.333 -10.667 -41.333 -32 -60s-50.333 -28 -87 -28c-33.333 0 -57 11 -71 33s-21 46.333 -21 73c0 28 8.16699 54.167 24.5 78.5
s37.833 45.833 64.5 64.5c32.667 23.333 70.334 41.5 113.001 54.5s85.334 19.5 128.001 19.5c65.333 0 117.166 -3.83301 155.499 -11.5s71.833 -21.167 100.5 -40.5c30.667 -20.667 54.334 -51.334 71.001 -92.001s25 -93.667 25 -159c0 -89.333 -1.66699 -182 -5 -278
s-5 -161 -5 -195c0 -22 8.83301 -44.833 26.5 -68.5s40.834 -35.5 69.501 -35.5c30 0 54 16.833 72 50.5s28.667 74.167 32 121.5h21c-6.66699 -95.333 -28.5 -163.166 -65.5 -203.499s-87.5 -60.5 -151.5 -60.5c-48 0 -86 11.167 -114 33.5s-50 56.833 -66 103.5h-7
c-36 -42.667 -80.167 -77 -132.5 -103s-109.166 -39 -170.499 -39zM413.993 46.999c44.667 0 83 8.66699 115 26s60.333 41.333 85 72l9 402c-136.667 -42.667 -229 -89.167 -277 -139.5s-72 -111.833 -72 -184.5c0 -56 12.333 -99.333 37 -130s59 -46 103 -46z
M122.993 1137l-18.0029 8c14.667 48 45.834 102.667 93.501 164s101.834 92 162.501 92c62 0 124.667 -19.833 188 -59.5s112.666 -59.5 147.999 -59.5c46 0 83.333 12.167 112 36.5s53.334 57.833 74.001 100.5l18 -6c-18.667 -64.667 -52.667 -123.5 -102 -176.5
s-102.666 -79.5 -159.999 -79.5c-64 0 -127 19.167 -189 57.5s-112.333 57.5 -151 57.5s-71 -11 -97 -33s-52.333 -56 -79 -102z" />
    <glyph glyph-name="adieresis" unicode="&#xe4;" horiz-adv-x="1004" 
d="M313 -25c-70 0 -127.007 19.832 -171.007 59.499s-66 92.5 -66 158.5c0 64.667 14.667 116.834 44 156.501s81.333 73.5 156 101.5c48.667 18 109.334 38.5 182.001 61.5s127 43.833 163 62.5v146c0 60.667 -14.667 111 -44 151s-73.666 60 -132.999 60
c-29.333 0 -54.166 -4.5 -74.499 -13.5s-38.5 -22.833 -54.5 -41.5c0 -18.667 3.83301 -46 11.5 -82s11.5 -62 11.5 -78c0 -21.333 -10.667 -41.333 -32 -60s-50.333 -28 -87 -28c-33.333 0 -57 11 -71 33s-21 46.333 -21 73c0 28 8.16699 54.167 24.5 78.5
s37.833 45.833 64.5 64.5c32.667 23.333 70.334 41.5 113.001 54.5s85.334 19.5 128.001 19.5c65.333 0 117.166 -3.83301 155.499 -11.5s71.833 -21.167 100.5 -40.5c30.667 -20.667 54.334 -51.334 71.001 -92.001s25 -93.667 25 -159c0 -89.333 -1.66699 -182 -5 -278
s-5 -161 -5 -195c0 -22 8.83301 -44.833 26.5 -68.5s40.834 -35.5 69.501 -35.5c30 0 54 16.833 72 50.5s28.667 74.167 32 121.5h21c-6.66699 -95.333 -28.5 -163.166 -65.5 -203.499s-87.5 -60.5 -151.5 -60.5c-48 0 -86 11.167 -114 33.5s-50 56.833 -66 103.5h-7
c-36 -42.667 -80.167 -77 -132.5 -103s-109.166 -39 -170.499 -39zM413.993 46.999c44.667 0 83 8.66699 115 26s60.333 41.333 85 72l9 402c-136.667 -42.667 -229 -89.167 -277 -139.5s-72 -111.833 -72 -184.5c0 -56 12.333 -99.333 37 -130s59 -46 103 -46z
M276.993 1137c-32 0 -59.499 11.5 -82.499 34.5s-34.5 50.5 -34.5 82.5c0 32.667 11.5 61 34.5 85s50.5 36 82.5 36c35.333 0 64.666 -11.333 87.999 -34s35 -49 35 -79c0 -33.333 -12 -62.5 -36 -87.5s-53 -37.5 -87 -37.5zM722.994 1137c-32.667 0 -60.667 11.5 -84 34.5
s-35 50.5 -35 82.5c0 32.667 11.667 61 35 85s51.333 36 84 36c34.667 0 63.5 -11.333 86.5 -34s34.5 -49 34.5 -79c0 -33.333 -11.667 -62.5 -35 -87.5s-52 -37.5 -86 -37.5z" />
    <glyph glyph-name="aring" unicode="&#xe5;" horiz-adv-x="1004" 
d="M313 -25c-70 0 -127.007 19.832 -171.007 59.499s-66 92.5 -66 158.5c0 64.667 14.667 116.834 44 156.501s81.333 73.5 156 101.5c48.667 18 109.334 38.5 182.001 61.5s127 43.833 163 62.5v146c0 60.667 -14.667 111 -44 151s-73.666 60 -132.999 60
c-29.333 0 -54.166 -4.5 -74.499 -13.5s-38.5 -22.833 -54.5 -41.5c0 -18.667 3.83301 -46 11.5 -82s11.5 -62 11.5 -78c0 -21.333 -10.667 -41.333 -32 -60s-50.333 -28 -87 -28c-33.333 0 -57 11 -71 33s-21 46.333 -21 73c0 28 8.16699 54.167 24.5 78.5
s37.833 45.833 64.5 64.5c32.667 23.333 70.334 41.5 113.001 54.5s85.334 19.5 128.001 19.5c65.333 0 117.166 -3.83301 155.499 -11.5s71.833 -21.167 100.5 -40.5c30.667 -20.667 54.334 -51.334 71.001 -92.001s25 -93.667 25 -159c0 -89.333 -1.66699 -182 -5 -278
s-5 -161 -5 -195c0 -22 8.83301 -44.833 26.5 -68.5s40.834 -35.5 69.501 -35.5c30 0 54 16.833 72 50.5s28.667 74.167 32 121.5h21c-6.66699 -95.333 -28.5 -163.166 -65.5 -203.499s-87.5 -60.5 -151.5 -60.5c-48 0 -86 11.167 -114 33.5s-50 56.833 -66 103.5h-7
c-36 -42.667 -80.167 -77 -132.5 -103s-109.166 -39 -170.499 -39zM413.993 46.999c44.667 0 83 8.66699 115 26s60.333 41.333 85 72l9 402c-136.667 -42.667 -229 -89.167 -277 -139.5s-72 -111.833 -72 -184.5c0 -56 12.333 -99.333 37 -130s59 -46 103 -46z
M501.993 1087c-70 0 -125.667 18.501 -167 55.501s-62 85.5 -62 145.5c0 59.333 22.333 107.666 67 144.999s98.667 56 162 56c66 0 120.667 -18.5 164 -55.5s65 -85.5 65 -145.5c0 -58 -20.833 -106 -62.5 -144s-97.167 -57 -166.5 -57zM501.993 1106
c44 0 75.501 18.833 94.501 56.5s28.5 79.5 28.5 125.5c0 44 -9.5 85.333 -28.5 124s-50.5 58 -94.5 58c-42.667 0 -73.834 -18.667 -93.501 -56s-29.5 -79.333 -29.5 -126c0 -44.667 9.5 -86.167 28.5 -124.5s50.5 -57.5 94.5 -57.5z" />
    <glyph glyph-name="ae" unicode="&#xe6;" horiz-adv-x="1477" 
d="M313 -25c-70 0 -127 19.8301 -171 59.4971s-66 92.5 -66 158.5c0 83.333 20.667 142.333 62 177s87.333 61.667 138 81c58 22.667 119.333 43.334 184 62.001s118.334 39.334 161.001 62.001v146c0 18.667 -8.33301 58.5 -25 119.5s-67.334 91.5 -152.001 91.5
c-38 0 -66.667 -6.5 -86 -19.5s-33.666 -24.833 -42.999 -35.5c0 -28 3.83301 -56 11.5 -84s11.5 -53.333 11.5 -76c0 -21.333 -10.667 -41.333 -32 -60s-50.333 -28 -87 -28c-33.333 0 -57 11 -71 33s-21 46.333 -21 73c0 61.333 35.667 112.833 107 154.5
s145.666 62.5 222.999 62.5c64 0 121.667 -6.33301 173 -19s94 -43 128 -91c23.333 23.333 58.5 47.5 105.5 72.5s105.167 37.5 174.5 37.5c140 0 238.833 -38.667 296.5 -116s86.5 -165.666 86.5 -264.999v-18h-610v-35c0 -131.333 21.833 -244 65.5 -338
s123.5 -141 239.5 -141c79.333 0 141.166 16.833 185.499 50.5s85.5 81.5 123.5 143.5l17 -10c-36 -72 -87.167 -131.333 -153.5 -178s-142.166 -70 -227.499 -70c-110.667 0 -196 23.333 -256 70s-103.667 93 -131 139c-49.333 -79.333 -107.333 -134 -174 -164
s-129 -45 -187 -45zM414 46.9971c44.667 0 83 7.66602 115 22.999s60.333 38.333 85 69l9 408c-102 -32 -185.667 -71.167 -251 -117.5s-98 -115.166 -98 -206.499c0 -56 12.333 -99.333 37 -130s59 -46 103 -46zM811 572.996l412.001 5.00098
c0 81.333 -11.833 160.666 -35.5 237.999s-74.167 116 -151.5 116c-64 0 -116.833 -33.333 -158.5 -100s-63.834 -153 -66.501 -259z" />
    <glyph glyph-name="ccedilla" unicode="&#xe7;" horiz-adv-x="891" 
d="M281 -471v25.001c63.333 0 126.166 7 188.499 21s93.5 50 93.5 108c0 36 -19 58.5 -57 67.5s-77 13.5 -117 13.5v224c-108 24.667 -188.833 80.5 -242.5 167.5s-80.5 190.833 -80.5 311.5c0 134.667 42.833 249.167 128.5 343.5s194.167 141.5 325.5 141.5
c98.667 0 176.334 -22.667 233.001 -68s85 -101.666 85 -168.999c0 -34 -10.667 -61.667 -32 -83s-49 -32 -83 -32c-30 0 -55.333 9.16699 -76 27.5s-31 43.166 -31 74.499c0 20 2.5 38.333 7.5 55s10.5 30.667 16.5 42s11.167 22 15.5 32s6.5 19 6.5 27
c-4.66699 22.667 -20.5 40.667 -47.5 54s-58.5 20 -94.5 20c-71.333 0 -130.5 -37.833 -177.5 -113.5s-70.5 -186.834 -70.5 -333.501c0 -129.333 25.5 -235 76.5 -317s121.167 -123 210.5 -123c72.667 0 134.334 16.333 185.001 49s92.667 78.334 126 137.001l19 -12
c-38 -67.333 -90.5 -124.833 -157.5 -172.5s-140.833 -71.5 -221.5 -71.5c-16.667 0 -33 0.666992 -49 2s-31 3.66602 -45 6.99902v-103c74 0 141 -9.5 201 -28.5s90 -61.167 90 -126.5c0 -89.333 -44.833 -144.5 -134.5 -165.5s-186.834 -31.5 -291.501 -31.5z" />
    <glyph glyph-name="egrave" unicode="&#xe8;" horiz-adv-x="934" 
d="M518 -25c-140.667 0 -251.167 44.834 -331.5 134.501s-120.5 210.167 -120.5 361.5c0 133.333 40 246.833 120 340.5s183.333 140.5 310 140.5c124 0 218.833 -34.333 284.5 -103s98.5 -161.334 98.5 -278.001v-18h-611v-35c0 -150 24.5 -267.333 73.5 -352
s126.167 -127 231.5 -127c79.333 0 141.166 16.833 185.499 50.5s85.833 81.5 124.5 143.5l16 -10c-36 -72 -87.167 -131.333 -153.5 -178s-142.166 -70 -227.499 -70zM268 573.001l412 4.99902c0 114.667 -15.5 202.334 -46.5 263.001s-77.5 91 -139.5 91
c-64 0 -117 -33.333 -159 -100s-64.333 -153 -67 -259zM652 1073c-81.333 65.333 -144.999 114.501 -190.999 147.501s-84.333 61.833 -115 86.5c-24.667 19.333 -43 36.5 -55 51.5s-18 35.167 -18 60.5c0 19.333 8 37.166 24 53.499s36 24.5 60 24.5
c25.333 0 47.666 -6.16699 66.999 -18.5s38.666 -35.5 57.999 -69.5c22.667 -38 48.334 -85 77.001 -141s63 -118.333 103 -187z" />
    <glyph glyph-name="eacute" unicode="&#xe9;" horiz-adv-x="934" 
d="M518 -25c-140.667 0 -251.167 44.834 -331.5 134.501s-120.5 210.167 -120.5 361.5c0 133.333 40 246.833 120 340.5s183.333 140.5 310 140.5c124 0 218.833 -34.333 284.5 -103s98.5 -161.334 98.5 -278.001v-18h-611v-35c0 -150 24.5 -267.333 73.5 -352
s126.167 -127 231.5 -127c79.333 0 141.166 16.833 185.499 50.5s85.833 81.5 124.5 143.5l16 -10c-36 -72 -87.167 -131.333 -153.5 -178s-142.166 -70 -227.499 -70zM268 573.001l412 4.99902c0 114.667 -15.5 202.334 -46.5 263.001s-77.5 91 -139.5 91
c-64 0 -117 -33.333 -159 -100s-64.333 -153 -67 -259zM341 1073l-10.0029 9.99902c42 73.333 76.833 136.5 104.5 189.5s52.834 98.5 75.501 136.5c18.667 32 37.834 54.667 57.501 68s42.167 20 67.5 20c24 0 43.667 -8.16699 59 -24.5s23 -34.166 23 -53.499
c0 -25.333 -6 -45.5 -18 -60.5s-30.333 -32.167 -55 -51.5c-30.667 -24.667 -68.667 -53.5 -114 -86.5s-108.666 -82.167 -189.999 -147.5z" />
    <glyph glyph-name="ecircumflex" unicode="&#xea;" horiz-adv-x="934" 
d="M518 -25c-140.667 0 -251.167 44.834 -331.5 134.501s-120.5 210.167 -120.5 361.5c0 133.333 40 246.833 120 340.5s183.333 140.5 310 140.5c124 0 218.833 -34.333 284.5 -103s98.5 -161.334 98.5 -278.001v-18h-611v-35c0 -150 24.5 -267.333 73.5 -352
s126.167 -127 231.5 -127c79.333 0 141.166 16.833 185.499 50.5s85.833 81.5 124.5 143.5l16 -10c-36 -72 -87.167 -131.333 -153.5 -178s-142.166 -70 -227.499 -70zM268 573.001l412 4.99902c0 114.667 -15.5 202.334 -46.5 263.001s-77.5 91 -139.5 91
c-64 0 -117 -33.333 -159 -100s-64.333 -153 -67 -259zM181 1094l-15 12.001l139 205.5l95 144.5c13.333 19.333 24.333 31.666 33 36.999s27.667 8 57 8s47.833 -2.5 55.5 -7.5s17.167 -16.167 28.5 -33.5l96.5 -145l139.5 -209l-15 -12l-309 262z" />
    <glyph glyph-name="edieresis" unicode="&#xeb;" horiz-adv-x="934" 
d="M518 -25c-140.667 0 -251.167 44.834 -331.5 134.501s-120.5 210.167 -120.5 361.5c0 133.333 40 246.833 120 340.5s183.333 140.5 310 140.5c124 0 218.833 -34.333 284.5 -103s98.5 -161.334 98.5 -278.001v-18h-611v-35c0 -150 24.5 -267.333 73.5 -352
s126.167 -127 231.5 -127c79.333 0 141.166 16.833 185.499 50.5s85.833 81.5 124.5 143.5l16 -10c-36 -72 -87.167 -131.333 -153.5 -178s-142.166 -70 -227.499 -70zM268 573.001l412 4.99902c0 114.667 -15.5 202.334 -46.5 263.001s-77.5 91 -139.5 91
c-64 0 -117 -33.333 -159 -100s-64.333 -153 -67 -259zM263 1137c-32 0 -59.499 11.5 -82.499 34.5s-34.5 50.5 -34.5 82.5c0 32.667 11.5 61 34.5 85s50.5 36 82.5 36c35.333 0 64.666 -11.333 87.999 -34s35 -49 35 -79c0 -33.333 -12 -62.5 -36 -87.5
s-53 -37.5 -87 -37.5zM709.001 1137c-32.667 0 -60.667 11.5 -84 34.5s-35 50.5 -35 82.5c0 32.667 11.667 61 35 85s51.333 36 84 36c34.667 0 63.5 -11.333 86.5 -34s34.5 -49 34.5 -79c0 -33.333 -11.667 -62.5 -35 -87.5s-52 -37.5 -86 -37.5z" />
    <glyph glyph-name="igrave" unicode="&#xec;" horiz-adv-x="586" 
d="M68 0l0.000976562 13.999c18 0.666992 33.833 2.16699 47.5 4.5s27.834 5.83301 42.501 10.5c19.333 6 33.333 17.167 42 33.5s13 35.833 13 58.5v647c-2 21.333 -7.66699 42 -17 62s-22 35.667 -38 47c-12.667 8 -31.334 14.167 -56.001 18.5
s-46.334 6.83301 -65.001 7.5v12l354 23l8 -8v-799c0 -22.667 4.66699 -42.667 14 -60s23.333 -30 42 -38c14.667 -7.33301 30 -12.166 46 -14.499s32.667 -3.83301 50 -4.5v-14h-483zM390.001 1073c-81.333 65.333 -144.999 114.501 -190.999 147.501
s-84.333 61.833 -115 86.5c-24.667 19.333 -43 36.5 -55 51.5s-18 35.167 -18 60.5c0 19.333 8 37.166 24 53.499s36 24.5 60 24.5c25.333 0 47.666 -6.16699 66.999 -18.5s38.666 -35.5 57.999 -69.5c22.667 -38 48.334 -85 77.001 -141s63 -118.333 103 -187z" />
    <glyph glyph-name="iacute" unicode="&#xed;" horiz-adv-x="575" 
d="M68 0l0.000976562 13.999c18 0.666992 33.833 2.16699 47.5 4.5s27.834 5.83301 42.501 10.5c19.333 6 33.333 17.167 42 33.5s13 35.833 13 58.5v647c-2 21.333 -7.66699 42 -17 62s-22 35.667 -38 47c-12.667 8 -31.334 14.167 -56.001 18.5
s-46.334 6.83301 -65.001 7.5v12l354 23l8 -8v-799c0 -22.667 4.66699 -42.667 14 -60s23.333 -30 42 -38c14.667 -7.33301 30 -12.166 46 -14.499s32.667 -3.83301 50 -4.5v-14h-483zM160.001 1073l-10.0029 9.99902c42 73.333 76.833 136.5 104.5 189.5
s52.834 98.5 75.501 136.5c18.667 32 37.834 54.667 57.501 68s42.167 20 67.5 20c24 0 43.667 -8.16699 59 -24.5s23 -34.166 23 -53.499c0 -25.333 -6 -45.5 -18 -60.5s-30.333 -32.167 -55 -51.5c-30.667 -24.667 -68.667 -53.5 -114 -86.5
s-108.666 -82.167 -189.999 -147.5z" />
    <glyph glyph-name="icircumflex" unicode="&#xee;" horiz-adv-x="586" 
d="M4 1087l-10.0029 9.00098l103.5 204l80.5 162c8.66699 15.333 19.834 26.666 33.501 33.999s33.167 11 58.5 11c22.667 0 41.334 -3 56.001 -9s25.334 -16.667 32.001 -32l77.5 -155.5l107.5 -214.5l-13 -9l-262 267zM67.9971 0.000976562l0.000976562 13.999
c18 0.666992 33.833 2.16699 47.5 4.5s27.834 5.83301 42.501 10.5c19.333 6 33.333 17.167 42 33.5s13 35.833 13 58.5v647c-2 21.333 -7.66699 42 -17 62s-22 35.667 -38 47c-12.667 8 -31.334 14.167 -56.001 18.5s-46.334 6.83301 -65.001 7.5v12l354 23l8 -8v-799
c0 -22.667 4.66699 -42.667 14 -60s23.333 -30 42 -38c14.667 -7.33301 30 -12.166 46 -14.499s32.667 -3.83301 50 -4.5v-14h-483z" />
    <glyph glyph-name="idieresis" unicode="&#xef;" horiz-adv-x="586" 
d="M70 1137c-32 0 -59.167 11.1689 -81.5 33.502s-33.5 49.166 -33.5 80.499c0 32.667 11.167 60.667 33.5 84s49.5 35 81.5 35c33.333 0 61.333 -11.167 84 -33.5s34 -48.833 34 -79.5c0 -32.667 -11.333 -60.834 -34 -84.501s-50.667 -35.5 -84 -35.5zM463 1137
c-32.667 0 -60.334 11.1689 -83.001 33.502s-34 49.166 -34 80.499c0 32.667 11.333 60.667 34 84s50.334 35 83.001 35s60.334 -11.167 83.001 -33.5s34 -48.833 34 -79.5c0 -32.667 -11.333 -60.834 -34 -84.501s-50.334 -35.5 -83.001 -35.5zM68 0.00390625
l0.000976562 13.999c18 0.666992 33.833 2.16699 47.5 4.5s27.834 5.83301 42.501 10.5c19.333 6 33.333 17.167 42 33.5s13 35.833 13 58.5v647c-2 21.333 -7.66699 42 -17 62s-22 35.667 -38 47c-12.667 8 -31.334 14.167 -56.001 18.5s-46.334 6.83301 -65.001 7.5v12
l354 23l8 -8v-799c0 -22.667 4.66699 -42.667 14 -60s23.333 -30 42 -38c14.667 -7.33301 30 -12.166 46 -14.499s32.667 -3.83301 50 -4.5v-14h-483z" />
    <glyph glyph-name="eth" unicode="&#xf0;" horiz-adv-x="1071" 
d="M541 -29c-139.333 0 -253.832 44.667 -343.499 134s-134.5 210 -134.5 362c0 148 46.667 265.833 140 353.5s207.333 131.5 342 131.5c58 0 108.167 -11.167 150.5 -33.5s74.166 -49.166 95.499 -80.499l8 2c-13.333 106.667 -37 199.167 -71 277.5
s-71.333 144.166 -112 197.499l-231 -150l-20 33l225 148c-27.333 33.333 -56 65.333 -86 96s-57.333 54.334 -82 71.001l8 15c28.667 -14.667 63 -34.167 103 -58.5s79.333 -52.833 118 -85.5l185 123l20 -34l-174 -115c91.333 -76.667 168.833 -179.834 232.5 -309.501
s95.5 -281.167 95.5 -454.5c0 -178.667 -42 -327.167 -126 -445.5s-198.333 -177.5 -343 -177.5zM539.001 -8c84 0 148.667 43.668 194 131.001s68 203.333 68 348c0 136.667 -21.5 247.667 -64.5 333s-108.833 128 -197.5 128c-93.333 0 -161.5 -42.667 -204.5 -128
s-64.5 -195 -64.5 -329c0 -146.667 22.667 -263.834 68 -351.501s112.333 -131.5 201 -131.5z" />
    <glyph glyph-name="ntilde" unicode="&#xf1;" horiz-adv-x="1196" 
d="M66 0l-0.000976562 13.9971c18 0.666992 33.833 2.16699 47.5 4.5s27.834 5.83301 42.501 10.5c19.333 6 33.333 17.167 42 33.5s13 35.833 13 58.5v647c-2 21.333 -7.66699 42 -17 62s-22 35.667 -38 47c-12.667 8 -28 14.167 -46 18.5s-36.333 6.83301 -55 7.5v12
l334 23l8 -8v-146h4c38.667 38 81.834 75.5 129.501 112.5s115.167 55.5 202.5 55.5c95.333 0 165.666 -29.667 210.999 -89s68 -137.333 68 -234v-500c0 -22.667 4.16699 -42.667 12.5 -60s21.833 -30 40.5 -38c14.667 -6.66699 28.667 -11 42 -13s29.333 -3.33301 48 -4
v-14h-483v14c18.667 0.666992 35.667 2.16699 51 4.5s30.333 5.83301 45 10.5c19.333 6 33.333 17.167 42 33.5s13 35.833 13 58.5v532c0 70.667 -17.333 124.834 -52 162.501s-74 56.5 -118 56.5c-74 0 -132.333 -16.667 -175 -50s-69.667 -61.666 -81 -84.999v-606
c0 -22.667 4.66699 -42.667 14 -60s23.333 -30 42 -38c14.667 -7.33301 30 -12.166 46 -14.499s32.667 -3.83301 50 -4.5v-14h-483zM216.999 1137l-18.0029 8c14.667 48 45.834 102.667 93.501 164s101.834 92 162.501 92c62 0 124.667 -19.833 188 -59.5
s112.666 -59.5 147.999 -59.5c46 0 83.333 12.167 112 36.5s53.334 57.833 74.001 100.5l18 -6c-18.667 -64.667 -52.667 -123.5 -102 -176.5s-102.666 -79.5 -159.999 -79.5c-64 0 -127 19.167 -189 57.5s-112.333 57.5 -151 57.5s-71 -11 -97 -33s-52.333 -56 -79 -102z
" />
    <glyph glyph-name="ograve" unicode="&#xf2;" horiz-adv-x="1071" 
d="M526 -29c-126 0 -234.667 45.167 -326 135.5s-137 207.833 -137 352.5s44 263 132 355s203.333 138 346 138c142 0 255.333 -46 340 -138s127 -205.667 127 -341c0 -147.333 -44.667 -267.833 -134 -361.5s-205.333 -140.5 -348 -140.5zM539 -8
c84.667 0 149.5 43.666 194.5 130.999s67.5 203.333 67.5 348c0 138.667 -21.667 250.167 -65 334.5s-109 126.5 -197 126.5c-92.667 0 -160.667 -42.333 -204 -127s-65 -194.667 -65 -330c0 -143.333 22.167 -259.666 66.5 -348.999s111.833 -134 202.5 -134zM699 1073
c-81.333 65.333 -144.999 114.501 -190.999 147.501s-84.333 61.833 -115 86.5c-24.667 19.333 -43 36.5 -55 51.5s-18 35.167 -18 60.5c0 19.333 8 37.166 24 53.499s36 24.5 60 24.5c25.333 0 47.666 -6.16699 66.999 -18.5s38.666 -35.5 57.999 -69.5
c22.667 -38 48.334 -85 77.001 -141s63 -118.333 103 -187z" />
    <glyph glyph-name="oacute" unicode="&#xf3;" horiz-adv-x="1071" 
d="M526 -29c-126 0 -234.667 45.167 -326 135.5s-137 207.833 -137 352.5s44 263 132 355s203.333 138 346 138c142 0 255.333 -46 340 -138s127 -205.667 127 -341c0 -147.333 -44.667 -267.833 -134 -361.5s-205.333 -140.5 -348 -140.5zM539 -8
c84.667 0 149.5 43.666 194.5 130.999s67.5 203.333 67.5 348c0 138.667 -21.667 250.167 -65 334.5s-109 126.5 -197 126.5c-92.667 0 -160.667 -42.333 -204 -127s-65 -194.667 -65 -330c0 -143.333 22.167 -259.666 66.5 -348.999s111.833 -134 202.5 -134zM372 1073
l-10.0029 9.99902c42 73.333 76.833 136.5 104.5 189.5s52.834 98.5 75.501 136.5c18.667 32 37.834 54.667 57.501 68s42.167 20 67.5 20c24 0 43.667 -8.16699 59 -24.5s23 -34.166 23 -53.499c0 -25.333 -6 -45.5 -18 -60.5s-30.333 -32.167 -55 -51.5
c-30.667 -24.667 -68.667 -53.5 -114 -86.5s-108.666 -82.167 -189.999 -147.5z" />
    <glyph glyph-name="ocircumflex" unicode="&#xf4;" horiz-adv-x="1071" 
d="M526 -29c-126 0 -234.667 45.167 -326 135.5s-137 207.833 -137 352.5s44 263 132 355s203.333 138 346 138c142 0 255.333 -46 340 -138s127 -205.667 127 -341c0 -147.333 -44.667 -267.833 -134 -361.5s-205.333 -140.5 -348 -140.5zM539 -8
c84.667 0 149.5 43.666 194.5 130.999s67.5 203.333 67.5 348c0 138.667 -21.667 250.167 -65 334.5s-109 126.5 -197 126.5c-92.667 0 -160.667 -42.333 -204 -127s-65 -194.667 -65 -330c0 -143.333 22.167 -259.666 66.5 -348.999s111.833 -134 202.5 -134zM227 1094
l-15 12.001l139 205.5l95 144.5c13.333 19.333 24.333 31.666 33 36.999s27.667 8 57 8s47.833 -2.5 55.5 -7.5s17.167 -16.167 28.5 -33.5l96.5 -145l139.5 -209l-15 -12l-309 262z" />
    <glyph glyph-name="otilde" unicode="&#xf5;" horiz-adv-x="1071" 
d="M526 -29c-126 0 -234.667 45.167 -326 135.5s-137 207.833 -137 352.5s44 263 132 355s203.333 138 346 138c142 0 255.333 -46 340 -138s127 -205.667 127 -341c0 -147.333 -44.667 -267.833 -134 -361.5s-205.333 -140.5 -348 -140.5zM539 -8
c84.667 0 149.5 43.666 194.5 130.999s67.5 203.333 67.5 348c0 138.667 -21.667 250.167 -65 334.5s-109 126.5 -197 126.5c-92.667 0 -160.667 -42.333 -204 -127s-65 -194.667 -65 -330c0 -143.333 22.167 -259.666 66.5 -348.999s111.833 -134 202.5 -134zM155 1137
l-18.0029 8c14.667 48 45.834 102.667 93.501 164s101.834 92 162.501 92c62 0 124.667 -19.833 188 -59.5s112.666 -59.5 147.999 -59.5c46 0 83.333 12.167 112 36.5s53.334 57.833 74.001 100.5l18 -6c-18.667 -64.667 -52.667 -123.5 -102 -176.5
s-102.666 -79.5 -159.999 -79.5c-64 0 -127 19.167 -189 57.5s-112.333 57.5 -151 57.5s-71 -11 -97 -33s-52.333 -56 -79 -102z" />
    <glyph glyph-name="odieresis" unicode="&#xf6;" horiz-adv-x="1071" 
d="M526 -29c-126 0 -234.667 45.167 -326 135.5s-137 207.833 -137 352.5s44 263 132 355s203.333 138 346 138c142 0 255.333 -46 340 -138s127 -205.667 127 -341c0 -147.333 -44.667 -267.833 -134 -361.5s-205.333 -140.5 -348 -140.5zM539 -8
c84.667 0 149.5 43.666 194.5 130.999s67.5 203.333 67.5 348c0 138.667 -21.667 250.167 -65 334.5s-109 126.5 -197 126.5c-92.667 0 -160.667 -42.333 -204 -127s-65 -194.667 -65 -330c0 -143.333 22.167 -259.666 66.5 -348.999s111.833 -134 202.5 -134zM309 1137
c-32 0 -59.499 11.5 -82.499 34.5s-34.5 50.5 -34.5 82.5c0 32.667 11.5 61 34.5 85s50.5 36 82.5 36c35.333 0 64.666 -11.333 87.999 -34s35 -49 35 -79c0 -33.333 -12 -62.5 -36 -87.5s-53 -37.5 -87 -37.5zM755.001 1137c-32.667 0 -60.667 11.5 -84 34.5
s-35 50.5 -35 82.5c0 32.667 11.667 61 35 85s51.333 36 84 36c34.667 0 63.5 -11.333 86.5 -34s34.5 -49 34.5 -79c0 -33.333 -11.667 -62.5 -35 -87.5s-52 -37.5 -86 -37.5z" />
    <glyph glyph-name="divide" unicode="&#xf7;" horiz-adv-x="1145" 
d="M571 125c-28.667 0 -52.834 10 -72.501 30s-29.5 44.667 -29.5 74c0 28.667 9.83301 53.334 29.5 74.001s43.834 31 72.501 31c30 0 55.333 -10.333 76 -31s31 -45.334 31 -74.001c0 -29.333 -10.333 -54 -31 -74s-46 -30 -76 -30zM571 729
c-28.667 0 -52.834 9.83301 -72.501 29.5s-29.5 43.834 -29.5 72.501c0 30 9.83301 55 29.5 75s43.834 30 72.501 30c30 0 55.333 -10 76 -30s31 -45 31 -75c0 -28.667 -10.333 -52.834 -31 -72.501s-46 -29.5 -76 -29.5zM82 496v71h981v-71h-981z" />
    <glyph glyph-name="oslash" unicode="&#xf8;" horiz-adv-x="1071" 
d="M106 -51l-20 16l119 135c-42.667 42 -77 93.5 -103 154.5s-39 129.167 -39 204.5c0 144.667 44 263 132 355s203.333 138 346 138c63.333 0 121.333 -9.83301 174 -29.5s99 -46.5 139 -80.5l147 168l19 -17l-148 -170c42.667 -42.667 76 -94.167 100 -154.5
s36 -125.5 36 -195.5c0 -135.333 -41.833 -252.833 -125.5 -352.5s-202.5 -149.5 -356.5 -149.5c-56 0 -110 9.5 -162 28.5s-99 46.5 -141 82.5zM301 211l463.001 528c-18.667 56 -46.334 102.167 -83.001 138.5s-84 54.5 -142 54.5c-106 0 -177.333 -49.5 -214 -148.5
s-55 -201.833 -55 -308.5c0 -48 2.5 -94.5 7.5 -139.5s12.833 -86.5 23.5 -124.5zM539.001 -8c90.667 0 156.999 46.667 198.999 140s63 206.333 63 339c0 42 -2.16699 83.5 -6.5 124.5s-11.833 79.5 -22.5 115.5l-461 -529c20.667 -56.667 49.834 -102.5 87.501 -137.5
s84.5 -52.5 140.5 -52.5z" />
    <glyph glyph-name="ugrave" unicode="&#xf9;" horiz-adv-x="1161" 
d="M451 -25c-95.333 0 -163.667 31.832 -205 95.499s-62 143.167 -62 238.5v457c-2 21.333 -7.16699 41 -15.5 59s-20.833 32.333 -37.5 43c-12.667 8.66699 -28.167 16.167 -46.5 22.5s-36.833 9.83301 -55.5 10.5v12l329 25l15 -14v-672c0 -70 16 -122.667 48 -158
s70 -53 114 -53c74 0 130.5 17.833 169.5 53.5s64.833 64.167 77.5 85.5v592c-2 21.333 -7.16699 41 -15.5 59s-20.833 32.333 -37.5 43c-12 8.66699 -30.5 15.167 -55.5 19.5s-50.833 6.83301 -77.5 7.5v12l358 25l15 -14v-768c2 -21.333 6.16699 -40.666 12.5 -57.999
s17.833 -31.666 34.5 -42.999c12 -8 27.667 -13.833 47 -17.5s38.333 -5.83398 57 -6.50098v-13l-321 -22l-15 14v125h-6c-38.667 -38.667 -81 -75 -127 -109s-112.667 -51 -200 -51zM722.999 1073c-81.333 65.333 -144.999 114.501 -190.999 147.501
s-84.333 61.833 -115 86.5c-24.667 19.333 -43 36.5 -55 51.5s-18 35.167 -18 60.5c0 19.333 8 37.166 24 53.499s36 24.5 60 24.5c25.333 0 47.666 -6.16699 66.999 -18.5s38.666 -35.5 57.999 -69.5c22.667 -38 48.334 -85 77.001 -141s63 -118.333 103 -187z" />
    <glyph glyph-name="uacute" unicode="&#xfa;" horiz-adv-x="1161" 
d="M451 -25c-95.333 0 -163.667 31.832 -205 95.499s-62 143.167 -62 238.5v457c-2 21.333 -7.16699 41 -15.5 59s-20.833 32.333 -37.5 43c-12.667 8.66699 -28.167 16.167 -46.5 22.5s-36.833 9.83301 -55.5 10.5v12l329 25l15 -14v-672c0 -70 16 -122.667 48 -158
s70 -53 114 -53c74 0 130.5 17.833 169.5 53.5s64.833 64.167 77.5 85.5v592c-2 21.333 -7.16699 41 -15.5 59s-20.833 32.333 -37.5 43c-12 8.66699 -30.5 15.167 -55.5 19.5s-50.833 6.83301 -77.5 7.5v12l358 25l15 -14v-768c2 -21.333 6.16699 -40.666 12.5 -57.999
s17.833 -31.666 34.5 -42.999c12 -8 27.667 -13.833 47 -17.5s38.333 -5.83398 57 -6.50098v-13l-321 -22l-15 14v125h-6c-38.667 -38.667 -81 -75 -127 -109s-112.667 -51 -200 -51zM416.999 1073l-10.0029 9.99902c42 73.333 76.833 136.5 104.5 189.5
s52.834 98.5 75.501 136.5c18.667 32 37.834 54.667 57.501 68s42.167 20 67.5 20c24 0 43.667 -8.16699 59 -24.5s23 -34.166 23 -53.499c0 -25.333 -6 -45.5 -18 -60.5s-30.333 -32.167 -55 -51.5c-30.667 -24.667 -68.667 -53.5 -114 -86.5
s-108.666 -82.167 -189.999 -147.5z" />
    <glyph glyph-name="ucircumflex" unicode="&#xfb;" horiz-adv-x="1161" 
d="M451 -25c-95.333 0 -163.667 31.832 -205 95.499s-62 143.167 -62 238.5v457c-2 21.333 -7.16699 41 -15.5 59s-20.833 32.333 -37.5 43c-12.667 8.66699 -28.167 16.167 -46.5 22.5s-36.833 9.83301 -55.5 10.5v12l329 25l15 -14v-672c0 -70 16 -122.667 48 -158
s70 -53 114 -53c74 0 130.5 17.833 169.5 53.5s64.833 64.167 77.5 85.5v592c-2 21.333 -7.16699 41 -15.5 59s-20.833 32.333 -37.5 43c-12 8.66699 -30.5 15.167 -55.5 19.5s-50.833 6.83301 -77.5 7.5v12l358 25l15 -14v-768c2 -21.333 6.16699 -40.666 12.5 -57.999
s17.833 -31.666 34.5 -42.999c12 -8 27.667 -13.833 47 -17.5s38.333 -5.83398 57 -6.50098v-13l-321 -22l-15 14v125h-6c-38.667 -38.667 -81 -75 -127 -109s-112.667 -51 -200 -51zM251.999 1094l-15 12.001l139 205.5l95 144.5c13.333 19.333 24.333 31.666 33 36.999
s27.667 8 57 8s47.833 -2.5 55.5 -7.5s17.167 -16.167 28.5 -33.5l96.5 -145l139.5 -209l-15 -12l-309 262z" />
    <glyph glyph-name="udieresis" unicode="&#xfc;" horiz-adv-x="1161" 
d="M451 -25c-95.333 0 -163.667 31.832 -205 95.499s-62 143.167 -62 238.5v457c-2 21.333 -7.16699 41 -15.5 59s-20.833 32.333 -37.5 43c-12.667 8.66699 -28.167 16.167 -46.5 22.5s-36.833 9.83301 -55.5 10.5v12l329 25l15 -14v-672c0 -70 16 -122.667 48 -158
s70 -53 114 -53c74 0 130.5 17.833 169.5 53.5s64.833 64.167 77.5 85.5v592c-2 21.333 -7.16699 41 -15.5 59s-20.833 32.333 -37.5 43c-12 8.66699 -30.5 15.167 -55.5 19.5s-50.833 6.83301 -77.5 7.5v12l358 25l15 -14v-768c2 -21.333 6.16699 -40.666 12.5 -57.999
s17.833 -31.666 34.5 -42.999c12 -8 27.667 -13.833 47 -17.5s38.333 -5.83398 57 -6.50098v-13l-321 -22l-15 14v125h-6c-38.667 -38.667 -81 -75 -127 -109s-112.667 -51 -200 -51zM333.999 1137c-32 0 -59.499 11.5 -82.499 34.5s-34.5 50.5 -34.5 82.5
c0 32.667 11.5 61 34.5 85s50.5 36 82.5 36c35.333 0 64.666 -11.333 87.999 -34s35 -49 35 -79c0 -33.333 -12 -62.5 -36 -87.5s-53 -37.5 -87 -37.5zM780 1137c-32.667 0 -60.667 11.5 -84 34.5s-35 50.5 -35 82.5c0 32.667 11.667 61 35 85s51.333 36 84 36
c34.667 0 63.5 -11.333 86.5 -34s34.5 -49 34.5 -79c0 -33.333 -11.667 -62.5 -35 -87.5s-52 -37.5 -86 -37.5z" />
    <glyph glyph-name="yacute" unicode="&#xfd;" horiz-adv-x="946" 
d="M127 -463c-27.333 0 -59.499 10.501 -96.499 31.501s-55.5 56.833 -55.5 107.5c0 26.667 10.5 53.167 31.5 79.5s49.5 39.5 85.5 39.5c26.667 0 52.5 -8.16699 77.5 -24.5s37.5 -44.833 37.5 -85.5l-17 -111c24 0 52.167 15 84.5 45s66.5 75.667 102.5 137
c24 42 45 83.333 63 124s31.667 74 41 100c-72 174 -138.833 328.333 -200.5 463l-167.5 368c-12.667 28.667 -29 51 -49 67s-50.333 27 -91 33v15h449v-19c-23.333 -0.666992 -49.666 -3.83398 -78.999 -9.50098s-44 -16.834 -44 -33.501
c0 -0.666992 1.16699 -4.83398 3.5 -12.501s5.83301 -17.834 10.5 -30.501c23.333 -61.333 63 -151.833 119 -271.5l150 -326.5l111 274l112 285c2.66699 8.66699 5.33398 18.334 8.00098 29.001s4 20.334 4 29.001c0 20.667 -16.833 36.834 -50.5 48.501
s-68.5 19.834 -104.5 24.501v13h327v-11c-31.333 -4.66699 -59.5 -17.5 -84.5 -38.5s-43.833 -46.167 -56.5 -75.5c-34 -75.333 -85.833 -199.833 -155.5 -373.5l-186.5 -458.5c-18.667 -45.333 -36.334 -86.333 -53.001 -123s-33.334 -69.334 -50.001 -98.001
c-50.667 -88 -95.834 -145.167 -135.501 -171.5s-86.5 -39.5 -140.5 -39.5zM437.001 1073l-10.0029 9.99902c42 73.333 76.833 136.5 104.5 189.5s52.834 98.5 75.501 136.5c18.667 32 37.834 54.667 57.501 68s42.167 20 67.5 20c24 0 43.667 -8.16699 59 -24.5
s23 -34.166 23 -53.499c0 -25.333 -6 -45.5 -18 -60.5s-30.333 -32.167 -55 -51.5c-30.667 -24.667 -68.667 -53.5 -114 -86.5s-108.666 -82.167 -189.999 -147.5z" />
    <glyph glyph-name="thorn" unicode="&#xfe;" horiz-adv-x="1159" 
d="M23 -463l0.00195312 13.999c18 1.33301 37.5 3.83301 58.5 7.5s38.833 7.5 53.5 11.5c19.333 6 33 17.833 41 35.5s12 37.834 12 60.501v1696c-2 21.333 -7.16699 41 -15.5 59s-20.833 32.333 -37.5 43c-12 8.66699 -29.167 15.5 -51.5 20.5s-42.5 7.83301 -60.5 8.5v12
l342 23l8 -10v-697l8 -2c23.333 25.333 59.166 53.833 107.499 85.5s104.5 47.5 168.5 47.5c117.333 0 217.666 -45.333 300.999 -136s125 -211 125 -361c0 -140 -47.333 -255 -142 -345s-202.334 -135 -323.001 -135c-58.667 0 -106.667 6.33301 -144 19
s-67.666 27.667 -90.999 45h-8v-361c0 -22.667 4.83301 -42.5 14.5 -59.5s23.834 -29.167 42.501 -36.5c15.333 -6 38.166 -12.333 68.499 -19s54.5 -10.667 72.5 -12v-14h-550zM602.002 -6.00098c87.333 0 154.5 42.168 201.5 126.501s70.5 196.5 70.5 336.5
c0 127.333 -24.167 230.166 -72.5 308.499s-119.5 117.5 -213.5 117.5c-49.333 0 -91 -9 -125 -27s-63.333 -41.333 -88 -70v-630c16 -44 43.167 -82 81.5 -114s86.833 -48 145.5 -48z" />
    <glyph glyph-name="ydieresis" unicode="&#xff;" horiz-adv-x="946" 
d="M127 -463c-27.333 0 -59.499 10.501 -96.499 31.501s-55.5 56.833 -55.5 107.5c0 26.667 10.5 53.167 31.5 79.5s49.5 39.5 85.5 39.5c26.667 0 52.5 -8.16699 77.5 -24.5s37.5 -44.833 37.5 -85.5l-17 -111c24 0 52.167 15 84.5 45s66.5 75.667 102.5 137
c24 42 45 83.333 63 124s31.667 74 41 100c-72 174 -138.833 328.333 -200.5 463l-167.5 368c-12.667 28.667 -29 51 -49 67s-50.333 27 -91 33v15h449v-19c-23.333 -0.666992 -49.666 -3.83398 -78.999 -9.50098s-44 -16.834 -44 -33.501
c0 -0.666992 1.16699 -4.83398 3.5 -12.501s5.83301 -17.834 10.5 -30.501c23.333 -61.333 63 -151.833 119 -271.5l150 -326.5l111 274l112 285c2.66699 8.66699 5.33398 18.334 8.00098 29.001s4 20.334 4 29.001c0 20.667 -16.833 36.834 -50.5 48.501
s-68.5 19.834 -104.5 24.501v13h327v-11c-31.333 -4.66699 -59.5 -17.5 -84.5 -38.5s-43.833 -46.167 -56.5 -75.5c-34 -75.333 -85.833 -199.833 -155.5 -373.5l-186.5 -458.5c-18.667 -45.333 -36.334 -86.333 -53.001 -123s-33.334 -69.334 -50.001 -98.001
c-50.667 -88 -95.834 -145.167 -135.501 -171.5s-86.5 -39.5 -140.5 -39.5zM285.001 1137c-32 0 -59.499 11.5 -82.499 34.5s-34.5 50.5 -34.5 82.5c0 32.667 11.5 61 34.5 85s50.5 36 82.5 36c35.333 0 64.666 -11.333 87.999 -34s35 -49 35 -79
c0 -33.333 -12 -62.5 -36 -87.5s-53 -37.5 -87 -37.5zM731.002 1137c-32.667 0 -60.667 11.5 -84 34.5s-35 50.5 -35 82.5c0 32.667 11.667 61 35 85s51.333 36 84 36c34.667 0 63.5 -11.333 86.5 -34s34.5 -49 34.5 -79c0 -33.333 -11.667 -62.5 -35 -87.5
s-52 -37.5 -86 -37.5z" />
    <glyph glyph-name="dotlessi" unicode="&#x131;" horiz-adv-x="586" 
d="M68 0l0.000976562 13.999c18 0.666992 33.833 2.16699 47.5 4.5s27.834 5.83301 42.501 10.5c19.333 6 33.333 17.167 42 33.5s13 35.833 13 58.5v647c-2 21.333 -7.66699 42 -17 62s-22 35.667 -38 47c-12.667 8 -31.334 14.167 -56.001 18.5
s-46.334 6.83301 -65.001 7.5v12l354 23l8 -8v-799c0 -22.667 4.66699 -42.667 14 -60s23.333 -30 42 -38c14.667 -7.33301 30 -12.166 46 -14.499s32.667 -3.83301 50 -4.5v-14h-483z" />
    <glyph glyph-name="Lslash" unicode="&#x141;" horiz-adv-x="1288" 
 />
    <glyph glyph-name="lslash" unicode="&#x142;" horiz-adv-x="610" 
 />
    <glyph glyph-name="OE" unicode="&#x152;" horiz-adv-x="2146" 
d="M823 0c-150 0 -311.673 49.9951 -485.006 149.995s-260 285 -260 555c0 234 80.833 408.167 242.5 522.5s340.834 171.5 537.501 171.5h1131v-318h-19c-10.667 44.667 -40.5 102.167 -89.5 172.5s-95.5 108.5 -139.5 114.5c-24.667 2.66699 -57.167 4.66699 -97.5 6
s-76.833 2 -109.5 2h-231v-639h204c57.333 0 97.333 7.83301 120 23.5s40 29.834 52 42.501c15.333 15.333 30.833 46.333 46.5 93s24.834 83.334 27.501 110.001h19v-572h-19c-2 30 -11.667 69.833 -29 119.5s-32.333 80.834 -45 93.501
c-12.667 14.667 -30.667 29.334 -54 44.001s-62.666 22 -117.999 22h-204v-502c0 -83.333 14.833 -135.166 44.5 -155.499s95.834 -30.5 198.501 -30.5c71.333 0 141 1.33301 209 4s114.333 17 139 43c30.667 31.333 66.834 85 108.501 161s67.834 129.333 78.501 160h18
l-26 -393h-1250zM882.994 19.9951c78 0 128.333 11.3311 151 33.998s37 48.334 43 77.001c4.66699 24.667 7.16699 122.5 7.5 293.5s0.5 267.833 0.5 290.5v296c0 125.333 -1.33301 200.666 -4 225.999c-4.66699 46.667 -25.5 81.5 -62.5 104.5s-95.167 34.5 -174.5 34.5
c-176.667 0 -307.167 -62.667 -391.5 -188s-126.5 -285.666 -126.5 -480.999c0 -193.333 50 -356.166 150 -488.499s235.667 -198.5 407 -198.5z" />
    <glyph glyph-name="oe" unicode="&#x153;" horiz-adv-x="1669" 
d="M526 -29c-122 0 -229.667 43.8311 -323 131.498s-140 206.5 -140 356.5c0 144.667 44 263 132 355s203.333 138 346 138c77.333 0 146.833 -14.333 208.5 -43s112.834 -68 153.501 -118c36.667 48 82.667 86.833 138 116.5s118.666 44.5 189.999 44.5
c139.333 0 238 -38.667 296 -116s87 -165.666 87 -264.999v-18h-610v-35c0 -131.333 21.667 -244 65 -338s123.333 -141 240 -141c79.333 0 141 16.833 185 50.5s85.333 81.5 124 143.5l16 -10c-35.333 -72 -86.333 -131.333 -153 -178s-142.667 -70 -228 -70
c-81.333 0 -151.5 14.833 -210.5 44.5s-107.5 68.834 -145.5 117.501c-40 -50.667 -91.5 -91 -154.5 -121s-135.167 -45 -216.5 -45zM539 -8.00195c90.667 0 157 46.666 199 139.999s63 206.333 63 339c0 117.333 -19 223.5 -57 318.5s-106.333 142.5 -205 142.5
c-106 0 -177.333 -49.5 -214 -148.5s-55 -201.833 -55 -308.5c0 -131.333 20.833 -244.666 62.5 -339.999s110.5 -143 206.5 -143zM1004 572.997l411 5.00098c0 81.333 -11.667 160.666 -35 237.999s-73.666 116 -150.999 116c-64 0 -116.833 -33.333 -158.5 -100
s-63.834 -153 -66.501 -259z" />
    <glyph glyph-name="Scaron" unicode="&#x160;" horiz-adv-x="1120" 
d="M582 -27c-90 0 -169.333 12.666 -238 37.999s-118.334 50.333 -149.001 75l-72 -106h-19l-14 479h19c50 -133.333 111.333 -243.166 184 -329.499s170.334 -129.5 293.001 -129.5c100.667 0 173.167 29.667 217.5 89s66.5 127.333 66.5 204c0 62 -18.833 116 -56.5 162
s-86.834 81.333 -147.501 106l-147.5 59c-40.333 16 -88.833 36.667 -145.5 62c-78.667 34.667 -138.667 81.334 -180 140.001s-62 133.667 -62 225c0 108 39.167 198 117.5 270s175.833 108 292.5 108c72 0 138.667 -11.167 200 -33.5s110 -47.166 146 -74.499l71 102h17
l10 -465h-18c-34.667 124 -87 229.167 -157 315.5s-162.667 129.5 -278 129.5c-56 0 -109.833 -20.833 -161.5 -62.5s-77.5 -102.167 -77.5 -181.5c0 -62 16.667 -112.833 50 -152.5s78 -74.834 134 -105.501c50 -27.333 97.5 -48.833 142.5 -64.5
s90.5 -33.834 136.5 -54.501c90 -40 160.5 -87.333 211.5 -142s76.5 -133.667 76.5 -237c0 -124 -44.167 -226 -132.5 -306s-198.166 -120 -329.499 -120zM557 1513c-29.333 0 -47.833 2.49902 -55.5 7.49902s-17.167 16.167 -28.5 33.5l-96.5 145l-139.5 209l15 12
l309 -262l305 262l15 -12l-139 -205.5l-95 -144.5c-13.333 -19.333 -24.333 -31.666 -33 -36.999s-27.667 -8 -57 -8z" />
    <glyph glyph-name="scaron" unicode="&#x161;" horiz-adv-x="821" 
d="M408 -29c-58.667 0 -113.829 9.33105 -165.496 27.998s-88.834 38.667 -111.501 60l-35 -69h-20l-10 317h16c30 -81.333 77 -154.166 141 -218.499s129 -96.5 195 -96.5c65.333 0 115.833 18.333 151.5 55s53.5 82.334 53.5 137.001c0 53.333 -17.833 94.5 -53.5 123.5
s-101.834 57.5 -198.501 85.5c-87.333 25.333 -155.666 61.833 -204.999 109.5s-74 108.167 -74 181.5c0 75.333 27.5 138.833 82.5 190.5s129.833 77.5 224.5 77.5c54 0 101.167 -4.83301 141.5 -14.5s73.166 -23.167 98.499 -40.5l35 57h18l15 -282h-17
c-30 77.333 -70.833 140 -122.5 188s-107.834 72 -168.501 72c-55.333 0 -98.5 -17 -129.5 -51s-46.5 -73.667 -46.5 -119c0 -58 21.167 -99.333 63.5 -124s104.5 -49.667 186.5 -75c101.333 -31.333 173.166 -71.5 215.499 -120.5s63.5 -108.5 63.5 -178.5
c0 -89.333 -33.333 -160.5 -100 -213.5s-148 -79.5 -244 -79.5zM410.005 1104c-29.333 0 -47.833 2.49902 -55.5 7.49902s-17.167 16.167 -28.5 33.5l-96.5 145l-139.5 209l15 12l309 -262l305 262l15 -12l-139 -205.5l-95 -144.5
c-13.333 -19.333 -24.333 -31.666 -33 -36.999s-27.667 -8 -57 -8z" />
    <glyph glyph-name="Ydieresis" unicode="&#x178;" horiz-adv-x="1300" 
d="M303 0l-0.000976562 13.9932c18.667 0.666992 48 3.83398 88 9.50098s66.667 10.834 80 15.501c24.667 8.66699 41.5 22.167 50.5 40.5s13.5 38.833 13.5 61.5v387c0 20.667 -5.16699 43.834 -15.5 69.501s-23.166 53.834 -38.499 84.501l-147.5 277l-143.5 251
c-16.667 30.667 -35 58.334 -55 83.001s-42.333 44.334 -67 59.001c-18.667 10 -40.834 17.667 -66.501 23s-48.167 8.33301 -67.5 9v15h660v-15c-36 -2 -79.5 -8.16699 -130.5 -18.5s-76.5 -27.833 -76.5 -52.5c0 -7.33301 9 -29.333 27 -66s42.333 -83 73 -139
l118.5 -215.5l139.5 -249.5l145.5 242.5c47 79 86.833 148.5 119.5 208.5c26.667 48.667 47.667 89.834 63 123.501s23 56.5 23 68.5c0 34 -28 58.167 -84 72.5s-107.333 22.833 -154 25.5v15h494v-15c-12.667 -0.666992 -28.5 -3.83398 -47.5 -9.50098
s-33.833 -11.834 -44.5 -18.501c-26.667 -15.333 -47.667 -29.666 -63 -42.999s-32.666 -34 -51.999 -62c-46 -66 -99.167 -151.833 -159.5 -257.5l-176.5 -309.5c-25.333 -46 -41.166 -83.167 -47.499 -111.5s-9.5 -67.5 -9.5 -117.5v-310
c0 -23.333 4.66699 -43.666 14 -60.999s25.666 -31 48.999 -41c12.667 -4.66699 39.167 -10.5 79.5 -17.5s69.833 -10.833 88.5 -11.5v-14h-680zM464.999 1563.99c-32 0 -59.499 11.5 -82.499 34.5s-34.5 50.5 -34.5 82.5c0 32.667 11.5 61 34.5 85s50.5 36 82.5 36
c35.333 0 64.666 -11.333 87.999 -34s35 -49 35 -79c0 -33.333 -12 -62.5 -36 -87.5s-53 -37.5 -87 -37.5zM911 1563.99c-32.667 0 -60.667 11.5 -84 34.5s-35 50.5 -35 82.5c0 32.667 11.667 61 35 85s51.333 36 84 36c34.667 0 63.5 -11.333 86.5 -34s34.5 -49 34.5 -79
c0 -33.333 -11.667 -62.5 -35 -87.5s-52 -37.5 -86 -37.5z" />
    <glyph glyph-name="Zcaron" unicode="&#x17d;" horiz-adv-x="1282" 
d="M8 0v24.998l983 1349h-420c-34 0 -65 -0.666992 -93 -2s-52 -4 -72 -8c-55.333 -11.333 -113.166 -58.166 -173.499 -140.499s-100.833 -149.5 -121.5 -201.5h-19l43 377h1104v-25l-983 -1349h465c61.333 0 121.5 3.66699 180.5 11s99.167 21.333 120.5 42
c44 40.667 88.167 96.834 132.5 168.501s75.166 129.5 92.499 173.5h19l-47 -420h-1211zM669 1513c-29.333 0 -47.833 2.49902 -55.5 7.49902s-17.167 16.167 -28.5 33.5l-96.5 145l-139.5 209l15 12l309 -262l305 262l15 -12l-139 -205.5l-95 -144.5
c-13.333 -19.333 -24.333 -31.666 -33 -36.999s-27.667 -8 -57 -8z" />
    <glyph glyph-name="zcaron" unicode="&#x17e;" horiz-adv-x="895" 
d="M49 0l-0.000976562 17.9971l582 885h-170c-46.667 0 -89.167 -1.16699 -127.5 -3.5s-64.833 -6.5 -79.5 -12.5c-20.667 -8.66699 -46.5 -39.167 -77.5 -91.5s-55.833 -97.833 -74.5 -136.5h-16v267h752v-19l-578 -884c34 -1.33301 66.5 -2.16602 97.5 -2.49902
s59.833 -0.5 86.5 -0.5s55.334 0.666992 86.001 2s64.334 3 101.001 5c27.333 0.666992 50.666 14.334 69.999 41.001s34 49.667 44 69l43 84.5c15.333 29.667 29 58.834 41 87.501h17v-309h-797zM446.999 1104c-29.333 0 -47.833 2.49902 -55.5 7.49902
s-17.167 16.167 -28.5 33.5l-96.5 145l-139.5 209l15 12l309 -262l305 262l15 -12l-139 -205.5l-95 -144.5c-13.333 -19.333 -24.333 -31.666 -33 -36.999s-27.667 -8 -57 -8z" />
    <glyph glyph-name="florin" unicode="&#x192;" horiz-adv-x="1049" 
d="M-76 -395c-72 0 -127.166 14.9971 -165.499 44.9971s-57.5 69.667 -57.5 119c0 30.667 9.33301 57.334 28 80.001s43.334 34 74.001 34c28.667 0 54.667 -10.5 78 -31.5s35 -51.5 35 -91.5c0 -21.333 -6.5 -43.5 -19.5 -66.5s-25.5 -39.5 -37.5 -49.5
c4.66699 -7.33301 15.167 -12.666 31.5 -15.999s28.833 -5 37.5 -5c72.667 0 133.167 38.5 181.5 115.5s88.166 190.833 119.499 341.5c26.667 125.333 46.5 231.833 59.5 319.5s26.833 174.167 41.5 259.5h-217l6 31h215c18.667 110 44.334 201.833 77.001 275.5
s78 138.834 136 195.501c42.667 42.667 90 72.834 142 90.501s103 26.5 153 26.5c59.333 0 113 -16.833 161 -50.5s72 -74.834 72 -123.501c0 -26.667 -8.33301 -52.167 -25 -76.5s-41.667 -36.5 -75 -36.5c-28.667 0 -54.667 9 -78 27s-35 45.333 -35 82
c0 18.667 4.5 40.167 13.5 64.5s18.833 47.166 29.5 68.499c-4.66699 8 -13.834 14.5 -27.501 19.5s-26.834 7.5 -39.501 7.5c-60 0 -115.667 -38.333 -167 -115s-89.333 -188 -114 -334l-20 -121h254l-7 -31h-254l-47 -290c-12.667 -79.333 -27.667 -156.666 -45 -231.999
c-17.333 -77.333 -43.333 -152.166 -78 -224.499s-81.667 -133.833 -141 -184.5c-50.667 -42.667 -99 -73.834 -145 -93.501s-96 -29.5 -150 -29.5z" />
    <glyph glyph-name="quoteleft" unicode="&#x2bb;" horiz-adv-x="379" 
d="M205 975c-57.333 0 -98.332 18.832 -122.999 56.499s-37 87.167 -37 148.5c0 65.333 23.167 125 69.5 179s111.166 103.333 194.499 148l13 -20c-59.333 -34 -107 -74.833 -143 -122.5s-54 -99.167 -54 -154.5h65c50 0 84.833 -12.667 104.5 -38
s29.5 -52.666 29.5 -81.999c0 -28 -10.667 -54.167 -32 -78.5s-50.333 -36.5 -87 -36.5z" />
    <glyph glyph-name="quoteleft" unicode="&#x2018;" horiz-adv-x="379" 
d="M205 975c-57.333 0 -98.332 18.832 -122.999 56.499s-37 87.167 -37 148.5c0 65.333 23.167 125 69.5 179s111.166 103.333 194.499 148l13 -20c-59.333 -34 -107 -74.833 -143 -122.5s-54 -99.167 -54 -154.5h65c50 0 84.833 -12.667 104.5 -38
s29.5 -52.666 29.5 -81.999c0 -28 -10.667 -54.167 -32 -78.5s-50.333 -36.5 -87 -36.5z" />
    <glyph glyph-name="circumflex" unicode="&#x2c6;" 
d="M205 1094l-15 12.001l139 205.5l95 144.5c13.333 19.333 24.333 31.666 33 36.999s27.667 8 57 8s47.833 -2.5 55.5 -7.5s17.167 -16.167 28.5 -33.5l96.5 -145l139.5 -209l-15 -12l-309 262z" />
    <glyph glyph-name="caron" unicode="&#x2c7;" 
d="M510 1104c-29.333 0 -47.833 2.49902 -55.5 7.49902s-17.167 16.167 -28.5 33.5l-96.5 145l-139.5 209l15 12l309 -262l305 262l15 -12l-139 -205.5l-95 -144.5c-13.333 -19.333 -24.333 -31.666 -33 -36.999s-27.667 -8 -57 -8z" />
    <glyph glyph-name="breve" unicode="&#x2d8;" 
 />
    <glyph glyph-name="dotaccent" unicode="&#x2d9;" 
 />
    <glyph glyph-name="ring" unicode="&#x2da;" 
d="M512 1087c-70 0 -125.667 18.501 -167 55.501s-62 85.5 -62 145.5c0 59.333 22.333 107.666 67 144.999s98.667 56 162 56c66 0 120.667 -18.5 164 -55.5s65 -85.5 65 -145.5c0 -58 -20.833 -106 -62.5 -144s-97.167 -57 -166.5 -57zM512 1106
c44 0 75.501 18.833 94.501 56.5s28.5 79.5 28.5 125.5c0 44 -9.5 85.333 -28.5 124s-50.5 58 -94.5 58c-42.667 0 -73.834 -18.667 -93.501 -56s-29.5 -79.333 -29.5 -126c0 -44.667 9.5 -86.167 28.5 -124.5s50.5 -57.5 94.5 -57.5z" />
    <glyph glyph-name="ogonek" unicode="&#x2db;" 
 />
    <glyph glyph-name="tilde" unicode="&#x2dc;" 
d="M131 1137l-18.0029 8c14.667 48 45.834 102.667 93.501 164s101.834 92 162.501 92c62 0 124.667 -19.833 188 -59.5s112.666 -59.5 147.999 -59.5c46 0 83.333 12.167 112 36.5s53.334 57.833 74.001 100.5l18 -6c-18.667 -64.667 -52.667 -123.5 -102 -176.5
s-102.666 -79.5 -159.999 -79.5c-64 0 -127 19.167 -189 57.5s-112.333 57.5 -151 57.5s-71 -11 -97 -33s-52.333 -56 -79 -102z" />
    <glyph glyph-name="hungarumlaut" unicode="&#x2dd;" 
 />
    <glyph glyph-name="endash" unicode="&#x2013;" horiz-adv-x="1114" 
d="M102 461v121h910v-121h-910z" />
    <glyph glyph-name="emdash" unicode="&#x2014;" horiz-adv-x="1810" 
d="M102 461v121h1606v-121h-1606z" />
    <glyph glyph-name="quoteright" unicode="&#x2019;" horiz-adv-x="379" 
d="M92 977l-12.001 20.002c59.333 34 106.833 74.833 142.5 122.5s53.5 99.167 53.5 154.5h-65c-50 0 -84.667 12.667 -104 38s-29 53 -29 83c0 27.333 10.667 53.166 32 77.499s50.333 36.5 87 36.5c56.667 0 97.334 -18.833 122.001 -56.5s37 -86.834 37 -147.501
c0 -66 -23 -126 -69 -180s-111 -103.333 -195 -148z" />
    <glyph glyph-name="quotesinglbase" unicode="&#x201a;" horiz-adv-x="379" 
d="M49 -297l-5.99902 11.9961c52 28 98.667 68.667 140 122s64.333 109 69 167h-70c-48 0 -82.167 13.333 -102.5 40s-30.5 54.334 -30.5 83.001c0 26.667 10.833 52.834 32.5 78.501s48.5 38.5 80.5 38.5c61.333 0 103.666 -18.667 126.999 -56s35 -85.666 35 -144.999
c0 -63.333 -25.667 -126.166 -77 -188.499s-117.333 -112.833 -198 -151.5z" />
    <glyph glyph-name="quotedblleft" unicode="&#x201c;" horiz-adv-x="723" 
d="M205 975c-57.333 0 -98.332 18.832 -122.999 56.499s-37 87.167 -37 148.5c0 65.333 23.167 125 69.5 179s111.166 103.333 194.499 148l13 -20c-59.333 -34 -107 -74.833 -143 -122.5s-54 -99.167 -54 -154.5h65c50 0 84.833 -12.667 104.5 -38
s29.5 -52.666 29.5 -81.999c0 -28 -10.667 -54.167 -32 -78.5s-50.333 -36.5 -87 -36.5zM549.001 974.999c-57.333 0 -98.332 18.832 -122.999 56.499s-37 87.167 -37 148.5c0 65.333 23.167 125 69.5 179s111.166 103.333 194.499 148l13 -20
c-59.333 -34 -107 -74.833 -143 -122.5s-54 -99.167 -54 -154.5h66c50 0 84.667 -12.667 104 -38s29 -52.666 29 -81.999c0 -28 -10.667 -54.167 -32 -78.5s-50.333 -36.5 -87 -36.5z" />
    <glyph glyph-name="quotedblright" unicode="&#x201d;" horiz-adv-x="723" 
d="M92 977l-12.001 20.002c59.333 34 106.833 74.833 142.5 122.5s53.5 99.167 53.5 154.5h-65c-50 0 -84.667 12.667 -104 38s-29 53 -29 83c0 27.333 10.667 53.166 32 77.499s50.333 36.5 87 36.5c56.667 0 97.334 -18.833 122.001 -56.5s37 -86.834 37 -147.501
c0 -66 -23 -126 -69 -180s-111 -103.333 -195 -148zM435.999 977.002l-12.001 20.002c59.333 34 107 74.833 143 122.5s54 99.167 54 154.5h-66c-50 0 -84.667 12.667 -104 38s-29 53 -29 83c0 27.333 10.667 53.166 32 77.499s50.333 36.5 87 36.5
c56.667 0 97.334 -18.833 122.001 -56.5s37 -86.834 37 -147.501c0 -66 -23 -126 -69 -180s-111 -103.333 -195 -148z" />
    <glyph glyph-name="quotedblbase" unicode="&#x201e;" horiz-adv-x="752" 
d="M49 -297l-5.99902 11.9961c52 28 98.667 68.667 140 122s64.333 109 69 167h-70c-48 0 -82.167 13.333 -102.5 40s-30.5 54.334 -30.5 83.001c0 26.667 10.833 52.834 32.5 78.501s48.5 38.5 80.5 38.5c61.333 0 103.666 -18.667 126.999 -56s35 -85.666 35 -144.999
c0 -63.333 -25.667 -126.166 -77 -188.499s-117.333 -112.833 -198 -151.5zM422.001 -297.004l-6 11.9961c52 28 98.5 68.667 139.5 122s64.167 109 69.5 167h-70c-48 0 -82.167 13.333 -102.5 40s-30.5 54.334 -30.5 83.001c0 26.667 10.833 52.834 32.5 78.501
s48.5 38.5 80.5 38.5c60.667 0 102.667 -18.667 126 -56s35 -85.666 35 -144.999c0 -63.333 -25.5 -126.166 -76.5 -188.499s-116.833 -112.833 -197.5 -151.5z" />
    <glyph glyph-name="dagger" unicode="&#x2020;" horiz-adv-x="846" 
d="M416 203c-4 114.667 -11.8291 248 -23.4961 400l-30.5 396c-0.666992 20.667 -3.83398 36.834 -9.50098 48.501s-14.5 17.5 -26.5 17.5c-9.33301 0 -18.666 -4.5 -27.999 -13.5s-19.333 -19.5 -30 -31.5c-12.667 -15.333 -27.334 -30.5 -44.001 -45.5
s-34.667 -22.5 -54 -22.5c-27.333 0 -49.5 8.16699 -66.5 24.5s-25.5 38.166 -25.5 65.499c0 17.333 5.16699 32.333 15.5 45s24.833 19 43.5 19c16.667 0 30.667 -6.5 42 -19.5s19.333 -31.167 24 -54.5c14.667 2.66699 33.667 11.834 57 27.501s45.333 23.5 66 23.5
c14.667 0 30 -2.66699 46 -8s29.333 -13.333 40 -24c-4.66699 48 -16.5 100.167 -35.5 156.5s-28.5 100.833 -28.5 133.5c0 22.667 5.66699 43.5 17 62.5s30.333 28.5 57 28.5c25.333 0 43.666 -9.5 54.999 -28.5s17 -39.833 17 -62.5
c0 -32.667 -9.83301 -77.167 -29.5 -133.5s-31.834 -108.5 -36.501 -156.5c12.667 10 26.667 17.833 42 23.5s30.666 8.5 45.999 8.5c20.667 0 42.5 -7.83301 65.5 -23.5s42.167 -24.834 57.5 -27.501c4.66699 23.333 14.167 41.5 28.5 54.5s30.166 19.5 47.499 19.5
c18.667 0 32.167 -6.33301 40.5 -19s12.5 -27.667 12.5 -45c0 -27.333 -9.16699 -49.166 -27.5 -65.499s-41.166 -24.5 -68.499 -24.5c-19.333 0 -37 7.5 -53 22.5s-30.667 30.167 -44 45.5l-30 30.5c-10 9.66699 -19.667 14.5 -29 14.5c-12 0 -20.667 -5 -26 -15
s-8.33301 -27 -9 -51l-31 -398c-12 -154.667 -19.333 -287.334 -22 -398.001h-12z" />
    <glyph glyph-name="daggerdbl" unicode="&#x2021;" horiz-adv-x="846" 
d="M424 10c-24.667 0 -42.8359 9.00195 -54.5029 27.002s-17.5 37.667 -17.5 59c0 32.667 9.5 66.5 28.5 101.5s30.833 64.833 35.5 89.5c-11.333 -10.667 -26.166 -18.834 -44.499 -24.501s-34.833 -8.5 -49.5 -8.5c-24 0 -43.833 2.66699 -59.5 8
s-30.167 9.33301 -43.5 12c-4 -20.667 -12.667 -37 -26 -49s-28.666 -18 -45.999 -18c-18 0 -31.333 6.83301 -40 20.5s-13 27.834 -13 42.501c0 19.333 5.83301 35.833 17.5 49.5s29.167 20.5 52.5 20.5c32.667 0 59.5 -11.333 80.5 -34s47.5 -34 79.5 -34
c14 0 24.167 7.33301 30.5 22s11.833 32.667 16.5 54c4 21.333 11.833 71.666 23.5 150.999s18.834 142.333 21.501 189h12c4 -46.667 12.167 -109.667 24.5 -189s19.833 -129.666 22.5 -150.999c4 -21.333 9.33301 -39.333 16 -54s17 -22 31 -22c32 0 57.5 11.333 76.5 34
s44.833 34 77.5 34c24.667 0 43.5 -6.83301 56.5 -20.5s19.5 -30.167 19.5 -49.5c0 -14.667 -5.33301 -28.834 -16 -42.501s-25.334 -20.5 -44.001 -20.5c-17.333 0 -31.666 6 -42.999 18s-19.333 28.333 -24 49c-12.667 -2.66699 -27 -6.66699 -43 -12s-34.667 -8 -56 -8
c-14.667 0 -31.167 3.16699 -49.5 9.5s-33.833 14.166 -46.5 23.499c4.66699 -26.667 16.5 -57 35.5 -91s28.5 -67.333 28.5 -100c0 -21.333 -5.83301 -41 -17.5 -59s-29.167 -27 -52.5 -27zM415.998 752.002c-2.66699 46.667 -10.5059 109.667 -23.5059 189
s-20.833 129.666 -23.5 150.999c-4.66699 21.333 -10.167 39.166 -16.5 53.499s-16.5 21.5 -30.5 21.5c-32 0 -57.5 -11.167 -76.5 -33.5s-44.833 -33.5 -77.5 -33.5c-24.667 0 -43.5 6.66699 -56.5 20s-19.5 29.666 -19.5 48.999c0 15.333 5.33301 29.833 16 43.5
s25.334 20.5 44.001 20.5c16.667 0 30.834 -6.16699 42.501 -18.5s19.834 -28.833 24.501 -49.5c13.333 2.66699 28 6.83398 44 12.501s34.667 8.5 56 8.5c15.333 0 31.833 -3.33301 49.5 -10s32.834 -14.334 45.501 -23.001c-5.33301 26.667 -17.333 56.834 -36 90.501
s-28 66.834 -28 99.501c0 21.333 5.83301 41.166 17.5 59.499s29.834 27.5 54.501 27.5c23.333 0 40.833 -9.16699 52.5 -27.5s17.5 -38.166 17.5 -59.499c0 -32.667 -9.5 -66.334 -28.5 -101.001s-30.833 -64.334 -35.5 -89.001c11.333 10.667 26.5 18.834 45.5 24.501
s35.833 8.5 50.5 8.5c23.333 0 42.833 -2.83301 58.5 -8.5s29.834 -9.83398 42.501 -12.501c4.66699 20.667 13.5 37.167 26.5 49.5s28.5 18.5 46.5 18.5c18.667 0 32 -6.83301 40 -20.5s12 -28.167 12 -43.5c0 -19.333 -5.83301 -35.666 -17.5 -48.999
s-29.167 -20 -52.5 -20c-32.667 0 -59.5 11.167 -80.5 33.5s-47.5 33.5 -79.5 33.5c-12.667 0 -22.667 -7.16699 -30 -21.5s-13 -32.166 -17 -53.499c-2.66699 -21.333 -10.167 -71.666 -22.5 -150.999s-19.833 -142.333 -22.5 -189h-12z" />
    <glyph glyph-name="bullet" unicode="&#x2022;" horiz-adv-x="844" 
d="M422 391c-75.333 0 -140.666 27 -195.999 81s-83 118.667 -83 194s27.667 140.5 83 195.5s120.666 82.5 195.999 82.5s140.5 -27.5 195.5 -82.5s82.5 -120.167 82.5 -195.5s-27.5 -140 -82.5 -194s-120.167 -81 -195.5 -81z" />
    <glyph glyph-name="ellipsis" unicode="&#x2026;" horiz-adv-x="1683" 
d="M281 -16c-36 0 -66.833 12.5 -92.5 37.5s-38.5 55.5 -38.5 91.5c0 35.333 12.833 66 38.5 92s56.5 39 92.5 39c35.333 0 66 -13 92 -39s39 -56.667 39 -92c0 -36 -13 -66.5 -39 -91.5s-56.667 -37.5 -92 -37.5zM842 -16c-36 0 -66.833 12.5 -92.5 37.5
s-38.5 55.5 -38.5 91.5c0 35.333 12.833 66 38.5 92s56.5 39 92.5 39c35.333 0 66 -13 92 -39s39 -56.667 39 -92c0 -36 -13 -66.5 -39 -91.5s-56.667 -37.5 -92 -37.5zM1403 -16c-36 0 -66.833 12.5 -92.5 37.5s-38.5 55.5 -38.5 91.5c0 35.333 12.833 66 38.5 92
s56.5 39 92.5 39s66.833 -13 92.5 -39s38.5 -56.667 38.5 -92c0 -36 -12.833 -66.5 -38.5 -91.5s-56.5 -37.5 -92.5 -37.5z" />
    <glyph glyph-name="perthousand" unicode="&#x2030;" horiz-adv-x="2515" 
d="M449 618c-83.333 0 -157.833 26.832 -223.5 80.499s-98.5 132.834 -98.5 237.501c0 99.333 34.5 179.833 103.5 241.5s141.833 92.5 218.5 92.5c83.333 0 160 -26 230 -78s105 -136.667 105 -254c0 -89.333 -34.833 -165 -104.5 -227s-146.5 -93 -230.5 -93zM457 634.999
c50 0 91.499 28.167 124.499 84.5s49.5 127.833 49.5 214.5c0 92.667 -15 169 -45 229s-74.333 90 -133 90c-61.333 0 -105.666 -31.167 -132.999 -93.5s-41 -134.166 -41 -215.499c0 -82.667 13.667 -154.834 41 -216.501s73 -92.5 137 -92.5zM1272 -29.001
c-83.333 0 -157.831 27 -223.498 81s-98.5 133 -98.5 237c0 96.667 34.833 176.5 104.5 239.5s142.167 94.5 217.5 94.5c83.333 0 160.166 -25.833 230.499 -77.5s105.5 -136.5 105.5 -254.5c0 -90.667 -34.833 -166.667 -104.5 -228s-146.834 -92 -231.501 -92z
M1282 -14.001c46.667 0 87 29.334 121 88.001s51 129.667 51 213c0 89.333 -14.833 164.833 -44.5 226.5s-73.5 92.5 -131.5 92.5c-62 0 -106.833 -31.833 -134.5 -95.5s-41.5 -134.834 -41.5 -213.501c0 -81.333 14 -153.5 42 -216.5s74 -94.5 138 -94.5zM2052 -29
c-84.667 0 -159.331 27 -223.998 81s-97 133 -97 237c0 96.667 34.667 176.5 104 239.5s141.666 94.5 216.999 94.5c83.333 0 160.166 -25.833 230.5 -77.5c70.333 -51.667 105.5 -136.5 105.5 -254.5c0 -90.667 -34.833 -166.667 -104.5 -228s-146.834 -92 -231.501 -92z
M2060 -14c48 0 88.999 29.334 122.999 88.001s51 129.667 51 213c0 89.333 -14.833 164.833 -44.5 226.5s-74.167 92.5 -133.5 92.5c-61.333 0 -105.666 -31.833 -132.999 -95.5s-41 -134.834 -41 -213.501c0 -81.333 13.833 -153.5 41.5 -216.5s73.167 -94.5 136.5 -94.5z
M442.003 -196.999l-32 19l876 1585l37 -18z" />
    <glyph glyph-name="guilsinglleft" unicode="&#x2039;" horiz-adv-x="692" 
d="M567 41l-225.5 176.998l-204.5 159c-17.333 14.667 -29.5 26.834 -36.5 36.501s-10.5 24.834 -10.5 45.501c0 19.333 3 33.833 9 43.5s17.333 21.167 34 34.5l205 156c98.667 74.667 175 135 229 181l8 -8l-303 -411l303 -406z" />
    <glyph glyph-name="guilsinglright" unicode="&#x203a;" horiz-adv-x="692" 
d="M125 41l-8 8.00195l303 406l-303 411l8 8c52.667 -46 128.667 -106.333 228 -181l206 -156c16.667 -13.333 28 -24.833 34 -34.5s9 -24.167 9 -43.5c0 -20.667 -3.5 -35.834 -10.5 -45.501s-19.167 -21.834 -36.5 -36.501l-205 -159z" />
    <glyph glyph-name="fraction" unicode="&#x2044;" horiz-adv-x="662" 
 />
    <glyph glyph-name="fraction" unicode="&#x2215;" horiz-adv-x="662" 
 />
    </font>
</defs>
</svg>
